<svg width="58" height="42" viewBox="0 0 58 42" fill="none" xmlns="http://www.w3.org/2000/svg">
<path d="M3.16659 41.6666C2.43464 41.6666 1.82153 41.4186 1.32725 40.9226C0.831252 40.4283 0.583252 39.8152 0.583252 39.0833V34.4333C0.583252 32.9694 0.960419 31.6234 1.71475 30.3955C2.46736 29.1693 3.46797 28.2333 4.71658 27.5874C7.38603 26.2527 10.0985 25.2512 12.8541 24.583C15.6096 23.9165 18.4083 23.5833 21.2499 23.5833C24.0916 23.5833 26.8902 23.9165 29.6458 24.583C32.4013 25.2512 35.1138 26.2527 37.7832 27.5874C39.0319 28.2333 40.0325 29.1693 40.7851 30.3955C41.5394 31.6234 41.9166 32.9694 41.9166 34.4333V39.0833C41.9166 39.8152 41.6686 40.4283 41.1726 40.9226C40.6783 41.4186 40.0652 41.6666 39.3333 41.6666H3.16659ZM45.8562 41.6666C46.2437 41.3652 46.5451 40.988 46.7603 40.5351C46.9756 40.0839 47.0833 39.5784 47.0833 39.0187V33.9166C47.0833 32.0221 46.5563 30.2026 45.5023 28.458C44.4465 26.7151 42.9499 25.2194 41.0124 23.9708C43.2082 24.2291 45.2749 24.67 47.2124 25.2934C49.1499 25.9186 50.9582 26.6833 52.6374 27.5874C54.1874 28.4485 55.3714 29.4061 56.1895 30.4601C57.0076 31.5158 57.4166 32.668 57.4166 33.9166V39.0833C57.4166 39.8152 57.1686 40.4283 56.6726 40.9226C56.1783 41.4186 55.5652 41.6666 54.8333 41.6666H45.8562ZM21.2499 20.9999C18.4083 20.9999 15.9756 19.9881 13.952 17.9645C11.9284 15.9409 10.9166 13.5083 10.9166 10.6666C10.9166 7.82492 11.9284 5.39228 13.952 3.36867C15.9756 1.34506 18.4083 0.333252 21.2499 0.333252C24.0916 0.333252 26.5242 1.34506 28.5478 3.36867C30.5714 5.39228 31.5833 7.82492 31.5833 10.6666C31.5833 13.5083 30.5714 15.9409 28.5478 17.9645C26.5242 19.9881 24.0916 20.9999 21.2499 20.9999ZM47.0833 10.6666C47.0833 13.5083 46.0714 15.9409 44.0478 17.9645C42.0242 19.9881 39.5916 20.9999 36.7499 20.9999C36.2763 20.9999 35.6735 20.9465 34.9416 20.8398C34.2096 20.7313 33.6069 20.6124 33.1333 20.4833C34.2958 19.1055 35.1887 17.577 35.8122 15.8978C36.4373 14.2187 36.7499 12.4749 36.7499 10.6666C36.7499 8.85825 36.4373 7.1145 35.8122 5.43533C35.1887 3.75617 34.2958 2.2277 33.1333 0.849918C33.736 0.63464 34.3388 0.49428 34.9416 0.428836C35.5444 0.365114 36.1471 0.333252 36.7499 0.333252C39.5916 0.333252 42.0242 1.34506 44.0478 3.36867C46.0714 5.39228 47.0833 7.82492 47.0833 10.6666Z" fill="black"/>
</svg>
