<svg width="24" height="24" viewBox="0 0 24 24" fill="none" xmlns="http://www.w3.org/2000/svg">
<mask id="path-1-inside-1_15310_7890" fill="white">
<path fill-rule="evenodd" clip-rule="evenodd" d="M20.9143 4.57046C18.801 2.47651 15.3748 2.47651 13.2615 4.57046L11.9995 5.82101L10.7377 4.57073C8.62443 2.47678 5.19818 2.47678 3.08493 4.57073C0.971688 6.66468 0.97169 10.0596 3.08494 12.1536L4.34674 13.4039L4.33335 13.4171L11.9861 21L11.9995 20.9867L12.0131 21.0003L19.6659 13.4174L19.6522 13.4039L20.9143 12.1533C23.0275 10.0594 23.0275 6.66441 20.9143 4.57046Z"/>
</mask>
<path d="M13.2615 4.57046L14.2117 5.52943V5.52942L13.2615 4.57046ZM20.9143 4.57046L21.8645 3.6115V3.6115L20.9143 4.57046ZM11.9995 5.82101L11.0493 6.77997L11.9995 7.7215L12.9497 6.77997L11.9995 5.82101ZM10.7377 4.57073L11.6879 3.61177V3.61177L10.7377 4.57073ZM3.08493 4.57073L4.03514 5.52969L3.08493 4.57073ZM3.08494 12.1536L4.03514 11.1946L3.08494 12.1536ZM4.34674 13.4039L5.29694 14.3628L6.26474 13.4039L5.29694 12.4449L4.34674 13.4039ZM4.33335 13.4171L3.38315 12.4582L2.41534 13.4171L3.38314 14.3761L4.33335 13.4171ZM11.9861 21L11.0359 21.959L11.9861 22.9005L12.9363 21.959L11.9861 21ZM11.9995 20.9867L12.9497 20.0278L11.9995 19.0862L11.0493 20.0278L11.9995 20.9867ZM12.0131 21.0003L11.0629 21.9592L12.0131 22.9008L12.9633 21.9592L12.0131 21.0003ZM19.6659 13.4174L20.6161 14.3764L21.5839 13.4174L20.6161 12.4584L19.6659 13.4174ZM19.6522 13.4039L18.702 12.4449L17.7342 13.4039L18.702 14.3628L19.6522 13.4039ZM20.9143 12.1533L21.8645 13.1123V13.1123L20.9143 12.1533ZM14.2117 5.52942C15.7988 3.95686 18.377 3.95686 19.9641 5.52942L21.8645 3.6115C19.225 0.996165 14.9508 0.996168 12.3113 3.6115L14.2117 5.52942ZM12.9497 6.77997L14.2117 5.52943L12.3113 3.6115L11.0493 4.86205L12.9497 6.77997ZM9.78747 5.52969L11.0493 6.77997L12.9497 4.86205L11.6879 3.61177L9.78747 5.52969ZM4.03514 5.52969C5.6222 3.95713 8.20041 3.95713 9.78747 5.52969L11.6879 3.61177C9.04844 0.996438 4.77416 0.996438 2.13473 3.61177L4.03514 5.52969ZM4.03514 11.1946C2.45495 9.62887 2.45495 7.09545 4.03514 5.52969L2.13473 3.61177C-0.511578 6.23391 -0.511575 10.4904 2.13473 13.1126L4.03514 11.1946ZM5.29694 12.4449L4.03514 11.1946L2.13473 13.1126L3.39653 14.3628L5.29694 12.4449ZM5.28355 14.3761L5.29694 14.3628L3.39653 12.4449L3.38315 12.4582L5.28355 14.3761ZM12.9363 20.041L5.28356 12.4582L3.38314 14.3761L11.0359 21.959L12.9363 20.041ZM11.0493 20.0278L11.0359 20.041L12.9363 21.959L12.9497 21.9457L11.0493 20.0278ZM12.9634 20.0413L12.9497 20.0278L11.0492 21.9457L11.0629 21.9592L12.9634 20.0413ZM18.7157 12.4584L11.0629 20.0413L12.9633 21.9592L20.6161 14.3764L18.7157 12.4584ZM18.702 14.3628L18.7157 14.3764L20.6161 12.4584L20.6024 12.4449L18.702 14.3628ZM19.9641 11.1944L18.702 12.4449L20.6024 14.3628L21.8645 13.1123L19.9641 11.1944ZM19.9641 5.52942C21.5443 7.09518 21.5443 9.6286 19.9641 11.1944L21.8645 13.1123C24.5108 10.4901 24.5108 6.23364 21.8645 3.6115L19.9641 5.52942Z" fill="#247251" mask="url(#path-1-inside-1_15310_7890)"/>
</svg>
