<svg width="24" height="25" viewBox="0 0 24 25" fill="none" xmlns="http://www.w3.org/2000/svg">
<mask id="path-1-inside-1_15526_42205" fill="white">
<path fill-rule="evenodd" clip-rule="evenodd" d="M20.9143 5.07046C18.801 2.97651 15.3748 2.97651 13.2615 5.07046L11.9995 6.32101L10.7377 5.07073C8.62443 2.97678 5.19818 2.97678 3.08493 5.07073C0.971688 7.16468 0.97169 10.5596 3.08494 12.6536L4.34674 13.9039L4.33335 13.9171L11.9861 21.5L11.9995 21.4867L12.0131 21.5003L19.6659 13.9174L19.6522 13.9039L20.9143 12.6533C23.0275 10.5594 23.0275 7.16441 20.9143 5.07046Z"/>
</mask>
<path fill-rule="evenodd" clip-rule="evenodd" d="M20.9143 5.07046C18.801 2.97651 15.3748 2.97651 13.2615 5.07046L11.9995 6.32101L10.7377 5.07073C8.62443 2.97678 5.19818 2.97678 3.08493 5.07073C0.971688 7.16468 0.97169 10.5596 3.08494 12.6536L4.34674 13.9039L4.33335 13.9171L11.9861 21.5L11.9995 21.4867L12.0131 21.5003L19.6659 13.9174L19.6522 13.9039L20.9143 12.6533C23.0275 10.5594 23.0275 7.16441 20.9143 5.07046Z" fill="#247251"/>
<path d="M13.2615 5.07046L14.2117 6.02943V6.02942L13.2615 5.07046ZM20.9143 5.07046L21.8645 4.1115V4.1115L20.9143 5.07046ZM11.9995 6.32101L11.0493 7.27997L11.9995 8.2215L12.9497 7.27997L11.9995 6.32101ZM10.7377 5.07073L11.6879 4.11177V4.11177L10.7377 5.07073ZM3.08493 5.07073L4.03514 6.02969L3.08493 5.07073ZM3.08494 12.6536L4.03514 11.6946L3.08494 12.6536ZM4.34674 13.9039L5.29694 14.8628L6.26474 13.9039L5.29694 12.9449L4.34674 13.9039ZM4.33335 13.9171L3.38315 12.9582L2.41534 13.9171L3.38314 14.8761L4.33335 13.9171ZM11.9861 21.5L11.0359 22.459L11.9861 23.4005L12.9363 22.459L11.9861 21.5ZM11.9995 21.4867L12.9497 20.5278L11.9995 19.5862L11.0493 20.5278L11.9995 21.4867ZM12.0131 21.5003L11.0629 22.4592L12.0131 23.4008L12.9633 22.4592L12.0131 21.5003ZM19.6659 13.9174L20.6161 14.8764L21.5839 13.9174L20.6161 12.9584L19.6659 13.9174ZM19.6522 13.9039L18.702 12.9449L17.7342 13.9039L18.702 14.8628L19.6522 13.9039ZM20.9143 12.6533L21.8645 13.6123V13.6123L20.9143 12.6533ZM14.2117 6.02942C15.7988 4.45686 18.377 4.45686 19.9641 6.02942L21.8645 4.1115C19.225 1.49617 14.9508 1.49617 12.3113 4.1115L14.2117 6.02942ZM12.9497 7.27997L14.2117 6.02943L12.3113 4.1115L11.0493 5.36205L12.9497 7.27997ZM9.78747 6.02969L11.0493 7.27997L12.9497 5.36205L11.6879 4.11177L9.78747 6.02969ZM4.03514 6.02969C5.6222 4.45713 8.20041 4.45713 9.78747 6.02969L11.6879 4.11177C9.04844 1.49644 4.77416 1.49644 2.13473 4.11177L4.03514 6.02969ZM4.03514 11.6946C2.45495 10.1289 2.45495 7.59545 4.03514 6.02969L2.13473 4.11177C-0.511578 6.73391 -0.511575 10.9904 2.13473 13.6126L4.03514 11.6946ZM5.29694 12.9449L4.03514 11.6946L2.13473 13.6126L3.39653 14.8628L5.29694 12.9449ZM5.28355 14.8761L5.29694 14.8628L3.39653 12.9449L3.38315 12.9582L5.28355 14.8761ZM12.9363 20.541L5.28356 12.9582L3.38314 14.8761L11.0359 22.459L12.9363 20.541ZM11.0493 20.5278L11.0359 20.541L12.9363 22.459L12.9497 22.4457L11.0493 20.5278ZM12.9634 20.5413L12.9497 20.5278L11.0492 22.4457L11.0629 22.4592L12.9634 20.5413ZM18.7157 12.9584L11.0629 20.5413L12.9633 22.4592L20.6161 14.8764L18.7157 12.9584ZM18.702 14.8628L18.7157 14.8764L20.6161 12.9584L20.6024 12.9449L18.702 14.8628ZM19.9641 11.6944L18.702 12.9449L20.6024 14.8628L21.8645 13.6123L19.9641 11.6944ZM19.9641 6.02942C21.5443 7.59518 21.5443 10.1286 19.9641 11.6944L21.8645 13.6123C24.5108 10.9901 24.5108 6.73364 21.8645 4.1115L19.9641 6.02942Z" fill="#247251" mask="url(#path-1-inside-1_15526_42205)"/>
</svg>
