<svg width="32" height="33" viewBox="0 0 32 33" fill="none" xmlns="http://www.w3.org/2000/svg">
<path d="M28.9672 15.5628C28.945 15.6151 28.9148 15.6634 28.8777 15.7061C28.7652 15.8404 28.6235 15.9576 28.5015 16.085C28.3544 16.2394 28.2052 16.3916 28.052 16.5391C25.0909 19.3868 22.128 22.2315 19.1633 25.0733C18.9708 25.2586 18.764 25.3696 18.5017 25.2573C18.2393 25.145 18.1661 24.9252 18.1668 24.651C18.1715 23.147 18.1668 21.6429 18.1668 20.1389V19.8475C18.1302 19.8261 18.1166 19.811 18.099 19.8103C15.7941 19.7221 13.5211 19.8792 11.3437 20.75C8.26326 21.9853 5.86957 24.0392 4.17819 26.9363C4.12667 27.0245 4.0799 27.1161 4.02566 27.2029C3.87246 27.4496 3.65078 27.5474 3.40131 27.4785C3.1654 27.4144 3.01083 27.2029 3.00473 26.9142C2.98168 25.8029 3.03862 24.6937 3.26911 23.6072C4.47126 17.971 7.71099 14.0877 12.9883 11.9574C14.5569 11.325 16.2063 11.0501 17.8923 11.0018C17.96 11.0018 18.0278 10.9963 18.0956 10.9901C18.1218 10.9812 18.1468 10.9692 18.1702 10.9543V10.6663C18.1702 9.15057 18.1702 6.12807 18.1702 6.12807C18.1702 5.68782 18.4746 5.41017 18.8447 5.5266C18.9849 5.58407 19.1112 5.67175 19.2149 5.78359C21.2395 7.72234 23.2626 9.66339 25.2841 11.6067C26.3353 12.6172 27.3868 13.6277 28.4384 14.6382C28.6011 14.7946 28.7869 14.9524 28.913 15.1432C28.9727 15.2285 29.0031 15.3314 28.9997 15.436C28.9959 15.4798 28.9849 15.5227 28.9672 15.5628Z" stroke="#247251" stroke-width="1.5" stroke-miterlimit="10" stroke-linejoin="round"/>
</svg>
