<svg width="32" height="32" viewBox="0 0 32 32" fill="none" xmlns="http://www.w3.org/2000/svg">
<mask id="path-1-inside-1_14011_88069" fill="white">
<path fill-rule="evenodd" clip-rule="evenodd" d="M27.8857 6.09395C25.068 3.30202 20.4997 3.30202 17.6821 6.09395L15.9993 7.76134L14.3169 6.09431C11.4992 3.30238 6.9309 3.30238 4.11324 6.09431C1.29558 8.88624 1.29559 13.4129 4.11325 16.2048L5.79565 17.8718L5.7778 17.8895L15.9814 28L15.9993 27.9823L16.0175 28.0003L26.2212 17.8899L26.2029 17.8718L27.8857 16.2044C30.7034 13.4125 30.7034 8.88588 27.8857 6.09395Z"/>
</mask>
<path fill-rule="evenodd" clip-rule="evenodd" d="M27.8857 6.09395C25.068 3.30202 20.4997 3.30202 17.6821 6.09395L15.9993 7.76134L14.3169 6.09431C11.4992 3.30238 6.9309 3.30238 4.11324 6.09431C1.29558 8.88624 1.29559 13.4129 4.11325 16.2048L5.79565 17.8718L5.7778 17.8895L15.9814 28L15.9993 27.9823L16.0175 28.0003L26.2212 17.8899L26.2029 17.8718L27.8857 16.2044C30.7034 13.4125 30.7034 8.88588 27.8857 6.09395Z" fill="#247251"/>
<path d="M17.6821 6.09395L18.7378 7.15946L17.6821 6.09395ZM15.9993 7.76134L14.9435 8.82686L15.9993 9.873L17.0551 8.82686L15.9993 7.76134ZM14.3169 6.09431L15.3727 5.02879V5.02879L14.3169 6.09431ZM4.11324 6.09431L5.16903 7.15982L4.11324 6.09431ZM4.11325 16.2048L3.05746 17.2703L4.11325 16.2048ZM5.79565 17.8718L6.85144 18.9373L7.92675 17.8718L6.85143 16.8063L5.79565 17.8718ZM5.7778 17.8895L4.722 16.824L3.64669 17.8895L4.72201 18.955L5.7778 17.8895ZM15.9814 28L14.9257 29.0655L15.9814 30.1116L17.0372 29.0655L15.9814 28ZM15.9993 27.9823L17.0551 26.9168L15.9993 25.8707L14.9435 26.9168L15.9993 27.9823ZM16.0175 28.0003L14.9617 29.0659L16.0175 30.112L17.0733 29.0659L16.0175 28.0003ZM26.2212 17.8899L27.2769 18.9554L28.3523 17.8899L27.277 16.8244L26.2212 17.8899ZM26.2029 17.8718L25.1472 16.8063L24.0718 17.8718L25.1472 18.9373L26.2029 17.8718ZM27.8857 16.2044L26.8299 15.1389L27.8857 16.2044ZM18.7378 7.15946C20.9708 4.94685 24.5969 4.94685 26.8299 7.15946L28.9415 5.02843C25.5392 1.65719 20.0286 1.65719 16.6263 5.02844L18.7378 7.15946ZM17.0551 8.82686L18.7378 7.15946L16.6263 5.02844L14.9435 6.69583L17.0551 8.82686ZM13.2611 7.15982L14.9435 8.82686L17.0551 6.69583L15.3727 5.02879L13.2611 7.15982ZM5.16903 7.15982C7.40204 4.94721 11.0281 4.94721 13.2611 7.15982L15.3727 5.02879C11.9704 1.65755 6.45977 1.65755 3.05746 5.02879L5.16903 7.15982ZM5.16903 15.1393C2.94366 12.9342 2.94366 9.36487 5.16903 7.15982L3.05746 5.02879C-0.352489 8.40761 -0.352485 13.8915 3.05746 17.2703L5.16903 15.1393ZM6.85143 16.8063L5.16903 15.1393L3.05746 17.2703L4.73986 18.9373L6.85143 16.8063ZM6.83359 18.955L6.85144 18.9373L4.73985 16.8063L4.722 16.824L6.83359 18.955ZM17.0372 26.9345L6.83358 16.824L4.72201 18.955L14.9257 29.0655L17.0372 26.9345ZM14.9435 26.9168L14.9257 26.9345L17.0372 29.0655L17.0551 29.0478L14.9435 26.9168ZM17.0733 26.9348L17.0551 26.9168L14.9435 29.0478L14.9617 29.0659L17.0733 26.9348ZM25.1654 16.8244L14.9617 26.9348L17.0733 29.0659L27.2769 18.9554L25.1654 16.8244ZM25.1472 18.9373L25.1654 18.9554L27.277 16.8244L27.2587 16.8063L25.1472 18.9373ZM26.8299 15.1389L25.1472 16.8063L27.2587 18.9373L28.9415 17.2699L26.8299 15.1389ZM26.8299 7.15946C29.0553 9.36451 29.0553 12.9339 26.8299 15.1389L28.9415 17.2699C32.3514 13.8911 32.3514 8.40725 28.9415 5.02843L26.8299 7.15946Z" fill="#247251" mask="url(#path-1-inside-1_14011_88069)"/>
</svg>
