<svg width="18" height="18" viewBox="0 0 18 18" fill="none" xmlns="http://www.w3.org/2000/svg">
<path d="M15.4172 5.22556H16.4469C17.1418 5.45552 17.4187 5.70739 17.4766 6.59846V15.5223C17.443 16.1403 17.2728 16.3635 16.7901 16.552H1.68821C1.27235 16.4614 1.13955 16.2926 1.00176 15.8655V5.22556C1.0136 4.89054 1.07318 4.68223 1.18819 4.53209M15.4172 5.22556V4.88233L15.4172 2.47263C15.4172 1.78629 14.6894 1.41459 14.0443 1.45008L1.68821 4.19588C1.46438 4.295 1.30006 4.38603 1.18819 4.53209M15.4172 5.22556H2.37466C1.67805 5.17459 1.47801 4.96975 1.18819 4.53209" stroke="#121210" stroke-width="1.02983" stroke-linecap="round"/>
<circle cx="1.02968" cy="1.02968" r="1.02968" transform="matrix(-1 0 0 1 15.4141 9.68018)" fill="#121210"/>
</svg>
