<svg width="32" height="32" viewBox="0 0 32 32" fill="none" xmlns="http://www.w3.org/2000/svg">
<path d="M24.9966 10.5025H26.4963C27.5085 10.8375 27.9118 11.2044 27.9961 12.5022V25.5002C27.9472 26.4003 27.6993 26.7255 26.9962 27H4.99964C4.39392 26.868 4.20049 26.6221 3.99979 26.0002V10.5025C4.01703 10.0146 4.10382 9.71117 4.27133 9.49247M24.9966 10.5025V10.0026L24.9966 6.49278C24.9966 5.49309 23.9364 4.95169 22.9969 5.00339L4.99964 9.00278C4.67362 9.14714 4.43428 9.27973 4.27133 9.49247M24.9966 10.5025H5.99949C4.98484 10.4283 4.69348 10.13 4.27133 9.49247" stroke="black" stroke-width="1.5" stroke-linecap="round"/>
<circle cx="1.49977" cy="1.49977" r="1.49977" transform="matrix(-1 0 0 1 24.9961 16.991)" fill="#121210"/>
</svg>
