<svg width="32" height="32" viewBox="0 0 32 32" fill="none" xmlns="http://www.w3.org/2000/svg">
<path fill-rule="evenodd" clip-rule="evenodd" d="M5.5 5.02051C5.22386 5.02051 5 5.24437 5 5.52051C5 5.79665 5.22386 6.02051 5.5 6.02051H26.5C26.7761 6.02051 27 5.79665 27 5.52051C27 5.24437 26.7761 5.02051 26.5 5.02051H5.5ZM5 8.25424C5 7.97809 5.22386 7.75424 5.5 7.75424H26.5C26.7761 7.75424 27 7.97809 27 8.25424C27 8.53038 26.7761 8.75424 26.5 8.75424H17L17 26.4789C17 26.755 16.7761 26.9789 16.5 26.9789C16.2238 26.9789 16 26.755 16 26.4789L16 8.75424H5.5C5.22386 8.75424 5 8.53038 5 8.25424Z" fill="black"/>
</svg>
