<svg width="28" height="25" viewBox="0 0 28 25" fill="none" xmlns="http://www.w3.org/2000/svg">
<mask id="path-1-inside-1_9349_2533" fill="white">
<path fill-rule="evenodd" clip-rule="evenodd" d="M25.8871 2.68119C23.0694 -0.227067 18.5011 -0.227064 15.6834 2.6812L14.0005 4.41822L12.3179 2.68146C9.50021 -0.226802 4.93188 -0.226801 2.11422 2.68146C-0.70344 5.58972 -0.703436 10.305 2.11422 13.2132L3.79687 14.95L3.77917 14.9682L13.9828 25.5L14.0005 25.4817L14.0185 25.5002L24.2221 14.9685L24.2042 14.95L25.8871 13.2129C28.7047 10.3047 28.7047 5.58946 25.8871 2.68119Z"/>
</mask>
<path d="M15.6834 2.6812L16.7607 3.72494L16.7607 3.72494L15.6834 2.6812ZM25.8871 2.68119L26.9644 1.63745L26.9644 1.63745L25.8871 2.68119ZM14.0005 4.41822L12.9232 5.46196L14.0005 6.57391L15.0778 5.46196L14.0005 4.41822ZM12.3179 2.68146L11.2406 3.72521L11.2406 3.72521L12.3179 2.68146ZM2.11422 2.68146L1.03691 1.63771L1.03691 1.63771L2.11422 2.68146ZM2.11422 13.2132L3.19153 12.1695L3.19153 12.1695L2.11422 13.2132ZM3.79687 14.95L4.87419 15.9937L5.8854 14.95L4.87418 13.9062L3.79687 14.95ZM3.77917 14.9682L2.70185 13.9245L1.69064 14.9682L2.70186 16.012L3.77917 14.9682ZM13.9828 25.5L12.9055 26.5437L13.9828 27.6557L15.0602 26.5437L13.9828 25.5ZM14.0005 25.4817L15.0778 24.438L14.0005 23.326L12.9232 24.438L14.0005 25.4817ZM14.0185 25.5002L12.9412 26.544L14.0185 27.656L15.0958 26.544L14.0185 25.5002ZM24.2221 14.9685L25.2994 16.0122L26.3107 14.9685L25.2995 13.9248L24.2221 14.9685ZM24.2042 14.95L23.1269 13.9062L22.1156 14.95L23.1269 15.9937L24.2042 14.95ZM25.8871 13.2129L26.9644 14.2567L25.8871 13.2129ZM16.7607 3.72494C18.989 1.42502 22.5815 1.42502 24.8098 3.72494L26.9644 1.63745C23.5573 -1.87915 18.0132 -1.87915 14.6061 1.63745L16.7607 3.72494ZM15.0778 5.46196L16.7607 3.72494L14.6061 1.63745L12.9232 3.37447L15.0778 5.46196ZM11.2406 3.72521L12.9232 5.46196L15.0778 3.37447L13.3952 1.63771L11.2406 3.72521ZM3.19153 3.72521C5.4198 1.42528 9.01229 1.42528 11.2406 3.72521L13.3952 1.63771C9.98813 -1.87889 4.44396 -1.87888 1.03691 1.63771L3.19153 3.72521ZM3.19153 12.1695C0.93746 9.84291 0.937458 6.05176 3.19153 3.72521L1.03691 1.63771C-2.34434 5.12769 -2.34433 10.767 1.03692 14.257L3.19153 12.1695ZM4.87418 13.9062L3.19153 12.1695L1.03692 14.257L2.71957 15.9937L4.87418 13.9062ZM4.85649 16.012L4.87419 15.9937L2.71956 13.9062L2.70185 13.9245L4.85649 16.012ZM15.0601 24.4562L4.85648 13.9245L2.70186 16.012L12.9055 26.5437L15.0601 24.4562ZM12.9232 24.438L12.9055 24.4563L15.0602 26.5437L15.0779 26.5254L12.9232 24.438ZM15.0958 24.4565L15.0778 24.438L12.9232 26.5254L12.9412 26.544L15.0958 24.4565ZM23.1448 13.9248L12.9412 24.4565L15.0958 26.544L25.2994 16.0122L23.1448 13.9248ZM23.1269 15.9937L23.1448 16.0122L25.2995 13.9248L25.2815 13.9062L23.1269 15.9937ZM24.8098 12.1692L23.1269 13.9062L25.2815 15.9937L26.9644 14.2567L24.8098 12.1692ZM24.8098 3.72494C27.0638 6.05149 27.0638 9.84265 24.8098 12.1692L26.9644 14.2567C30.3456 10.7667 30.3456 5.12742 26.9644 1.63745L24.8098 3.72494Z" fill="#121210" mask="url(#path-1-inside-1_9349_2533)"/>
</svg>
