<svg width="26" height="24" viewBox="0 0 26 24" fill="none" xmlns="http://www.w3.org/2000/svg">
<path d="M21.7778 6.50254H23.2776C24.2897 6.8375 24.693 7.20436 24.7773 8.50224V21.5002C24.7284 22.4003 24.4805 22.7255 23.7775 23H1.78089C1.17517 22.868 0.981739 22.6221 0.781044 22.0002V6.50254C0.798282 6.01457 0.88507 5.71117 1.05258 5.49247M21.7778 6.50254V6.00262L21.7778 2.49278C21.7778 1.49309 20.7177 0.95169 19.7781 1.00339L1.78089 5.00278C1.45487 5.14714 1.21553 5.27973 1.05258 5.49247M21.7778 6.50254H2.78074C1.76609 6.42831 1.47473 6.12995 1.05258 5.49247" stroke="#121210" stroke-width="1.5" stroke-linecap="round"/>
<circle cx="1.49977" cy="1.49977" r="1.49977" transform="matrix(-1 0 0 1 21.7773 12.9902)" fill="#121210"/>
</svg>
