<svg width="32" height="32" viewBox="0 0 32 32" fill="none" xmlns="http://www.w3.org/2000/svg">
<path d="M24.9985 10.5025H26.4983C27.5104 10.8375 27.9137 11.2044 27.998 12.5022V25.5002C27.9492 26.4003 27.7012 26.7255 26.9982 27H5.00159C4.39587 26.868 4.20244 26.6221 4.00175 26.0002V10.5025C4.01898 10.0146 4.10577 9.71117 4.27328 9.49247M24.9985 10.5025V10.0026L24.9985 6.49278C24.9985 5.49309 23.9384 4.95169 22.9988 5.00339L5.00159 9.00278C4.67558 9.14714 4.43624 9.27973 4.27328 9.49247M24.9985 10.5025H6.00144C4.98679 10.4283 4.69543 10.13 4.27328 9.49247" stroke="black" stroke-width="1.5" stroke-linecap="round"/>
<circle cx="1.49977" cy="1.49977" r="1.49977" transform="matrix(-1 0 0 1 24.998 16.9912)" fill="#121210"/>
</svg>
