<svg width="32" height="32" viewBox="0 0 32 32" fill="none" xmlns="http://www.w3.org/2000/svg">
<path fill-rule="evenodd" clip-rule="evenodd" d="M8.40059 15.1254C8.40059 11.1309 11.6132 7.90107 15.5658 7.90107C19.5184 7.90107 22.731 11.1309 22.731 15.1254C22.731 19.1199 19.5184 22.3497 15.5658 22.3497C11.6132 22.3497 8.40059 19.1199 8.40059 15.1254ZM15.5658 6.60107C10.886 6.60107 7.10059 10.4222 7.10059 15.1254C7.10059 19.8286 10.886 23.6497 15.5658 23.6497C17.4484 23.6497 19.1862 23.0314 20.591 21.986L23.7881 25.2072C24.0409 25.462 24.4525 25.4636 24.7073 25.2107C24.9621 24.9578 24.9636 24.5463 24.7108 24.2915L21.5737 21.1307C23.0931 19.5892 24.031 17.4666 24.031 15.1254C24.031 10.4222 20.2456 6.60107 15.5658 6.60107Z" fill="#247251"/>
</svg>
