<svg width="32" height="32" viewBox="0 0 32 32" fill="none" xmlns="http://www.w3.org/2000/svg">
<path fill-rule="evenodd" clip-rule="evenodd" d="M5.34961 14.8C5.34961 9.24954 9.84915 4.75 15.3996 4.75C20.9501 4.75 25.4496 9.24954 25.4496 14.8C25.4496 20.3505 20.9501 24.85 15.3996 24.85C9.84915 24.85 5.34961 20.3505 5.34961 14.8ZM15.3996 3.25C9.02072 3.25 3.84961 8.42111 3.84961 14.8C3.84961 21.1789 9.02072 26.35 15.3996 26.35C18.0126 26.35 20.423 25.4823 22.3582 24.0193L26.8693 28.5303C27.1622 28.8232 27.637 28.8232 27.9299 28.5303C28.2228 28.2374 28.2228 27.7626 27.9299 27.4697L23.4967 23.0365C25.6279 20.9411 26.9496 18.0249 26.9496 14.8C26.9496 8.42111 21.7785 3.25 15.3996 3.25Z" fill="#247251"/>
</svg>
