<svg width="32" height="32" viewBox="0 0 32 32" fill="none" xmlns="http://www.w3.org/2000/svg">
<path fill-rule="evenodd" clip-rule="evenodd" d="M5.09961 14.8C5.09961 9.11147 9.71108 4.5 15.3996 4.5C21.0881 4.5 25.6996 9.11147 25.6996 14.8C25.6996 20.4885 21.0881 25.1 15.3996 25.1C9.71108 25.1 5.09961 20.4885 5.09961 14.8ZM15.3996 3.5C9.15879 3.5 4.09961 8.55918 4.09961 14.8C4.09961 21.0408 9.15879 26.1 15.3996 26.1C18.0341 26.1 20.458 25.1985 22.3796 23.6871L27.0461 28.3536C27.2413 28.5488 27.5579 28.5488 27.7532 28.3536C27.9484 28.1583 27.9484 27.8417 27.7532 27.6464L23.1397 23.033C25.3311 20.9719 26.6996 18.0458 26.6996 14.8C26.6996 8.55918 21.6404 3.5 15.3996 3.5Z" fill="black"/>
</svg>
