<svg width="32" height="32" viewBox="0 0 32 32" fill="none" xmlns="http://www.w3.org/2000/svg">
<path fill-rule="evenodd" clip-rule="evenodd" d="M12.6757 6.5C12.6878 6.45924 12.7001 6.41868 12.7127 6.37833C12.9784 5.52832 13.3635 4.81064 13.9087 4.30815C14.4424 3.81618 15.1618 3.5 16.1682 3.5C17.0791 3.5 17.7311 3.8078 18.2199 4.29475C18.7223 4.79514 19.0801 5.51355 19.3273 6.36809C19.3399 6.41182 19.3522 6.4558 19.3643 6.5H12.6757ZM11.4221 7.52047C11.1736 9.00689 11.1736 10.5352 11.1736 11.6251L11.1736 11.6538C11.1736 11.93 11.3975 12.1538 11.6736 12.1538C11.9498 12.1538 12.1736 11.93 12.1736 11.6538C12.1736 10.4865 12.1761 8.9413 12.4404 7.5H19.5811C19.8253 8.9435 19.8275 10.489 19.8275 11.6538C19.8275 11.93 20.0513 12.1538 20.3275 12.1538C20.6036 12.1538 20.8275 11.93 20.8275 11.6538V11.6266C20.8275 10.5348 20.8275 9.00657 20.5973 7.52172C21.38 7.57292 22.1476 7.71421 22.8728 7.94071C23.8019 8.23091 24.6387 8.65397 25.3378 9.181C26.0368 9.70797 26.5812 10.326 26.9486 10.9949C27.3155 11.6628 27.5003 12.3709 27.5 13.0803V13.0805V27.9474C27.4992 28.0412 27.4498 28.1706 27.289 28.2917C27.1252 28.4151 26.8801 28.4991 26.6042 28.5L26.6036 28.5L5.40022 28.5C5.12268 28.5 4.8758 28.4158 4.71099 28.2917C4.54896 28.1696 4.5 28.0392 4.5 27.9451V13.0805L4.5 13.0803C4.4997 12.3707 4.6846 11.6625 5.05162 10.9945C5.41917 10.3255 5.96383 9.70736 6.66309 9.18036C7.36243 8.6533 8.19954 8.23028 9.12892 7.94018C9.85954 7.71212 10.6333 7.57056 11.4221 7.52047ZM11.6358 6.50834C11.6734 6.36387 11.7142 6.22094 11.7582 6.08001C12.0544 5.13247 12.5119 4.23557 13.2309 3.57286C13.9613 2.89963 14.9274 2.5 16.1682 2.5C17.337 2.5 18.2447 2.90801 18.9257 3.58626C19.5931 4.25107 20.0151 5.14725 20.2879 6.09025C20.3278 6.22829 20.3648 6.36827 20.399 6.50974C21.3491 6.54939 22.2862 6.70985 23.1709 6.98619C24.1993 7.30741 25.1409 7.78027 25.9398 8.38249C26.7386 8.98477 27.3822 9.70719 27.8251 10.5135C28.2685 11.3207 28.5003 12.1935 28.5 13.0805V13.0807V27.949L28.5 27.9514C28.4977 28.4144 28.2522 28.8181 27.8908 29.0904C27.5321 29.3606 27.0693 29.4987 26.6063 29.5L26.6049 29.5H5.40022C4.93503 29.5 4.46961 29.3619 4.10924 29.0904C3.74608 28.8168 3.5 28.4105 3.5 27.9451V13.0807V13.0805C3.49966 12.1933 3.73163 11.3203 4.17518 10.513C4.61824 9.70656 5.26205 8.98406 6.06123 8.38176C6.86033 7.77951 7.80227 7.3067 8.83095 6.9856C9.72589 6.70625 10.6744 6.54546 11.6358 6.50834Z" fill="black"/>
</svg>
