<svg width="32" height="32" viewBox="0 0 32 32" fill="none" xmlns="http://www.w3.org/2000/svg">
<path d="M16 7C13.5558 7 13.2493 7.01037 12.2893 7.05415C11.3314 7.09785 10.6771 7.25002 10.1046 7.47246C9.51281 7.70246 9.0109 8.01022 8.51057 8.51055C8.01022 9.01088 7.70246 9.51284 7.47249 10.1047C7.24999 10.6771 7.09788 11.3314 7.05412 12.2893C7.01034 13.2493 7 13.5558 7 16C7 18.4442 7.01034 18.7507 7.05412 19.7107C7.09788 20.6686 7.24999 21.3229 7.47249 21.8953C7.70249 22.4872 8.01025 22.9891 8.51057 23.4895C9.01093 23.9898 9.51281 24.2975 10.1046 24.5275C10.6771 24.75 11.3314 24.9021 12.2893 24.9458C13.2493 24.9896 13.5558 25 16 25C18.4442 25 18.7507 24.9896 19.7107 24.9458C20.6686 24.9021 21.3229 24.75 21.8953 24.5275C22.4872 24.2975 22.9891 23.9898 23.4895 23.4895C23.9898 22.9891 24.2975 22.4872 24.5275 21.8953C24.75 21.3229 24.9021 20.6686 24.9458 19.7107C24.9896 18.7507 25 18.4442 25 16C25 13.5558 24.9896 13.2493 24.9458 12.2893C24.9021 11.3314 24.75 10.6771 24.5275 10.1047C24.2975 9.51284 23.9898 9.01088 23.4895 8.51055C22.9891 8.01022 22.4872 7.70246 21.8953 7.47246C21.3229 7.25002 20.6686 7.09785 19.7107 7.05415C18.7507 7.01037 18.4442 7 16 7ZM16 8.62161C18.4031 8.62161 18.6877 8.6308 19.6368 8.6741C20.5143 8.7141 20.9908 8.86072 21.3079 8.98397C21.7281 9.14726 22.0279 9.34227 22.3428 9.6572C22.6577 9.97214 22.8527 10.272 23.016 10.692C23.1393 11.0092 23.2859 11.4857 23.3259 12.3632C23.3692 13.3123 23.3784 13.5969 23.3784 16C23.3784 18.4031 23.3692 18.6877 23.3259 19.6368C23.2859 20.5143 23.1393 20.9908 23.016 21.3079C22.8527 21.7281 22.6577 22.0279 22.3428 22.3428C22.0279 22.6577 21.728 22.8527 21.308 23.016C20.9908 23.1393 20.5143 23.2859 19.6368 23.3259C18.6879 23.3692 18.4033 23.3784 16 23.3784C13.5967 23.3784 13.3121 23.3692 12.3632 23.3259C11.4857 23.2859 11.0092 23.1393 10.6921 23.016C10.2719 22.8527 9.97214 22.6577 9.65723 22.3428C9.34229 22.0279 9.14726 21.728 8.98397 21.308C8.86072 20.9908 8.71413 20.5143 8.6741 19.6368C8.6308 18.6877 8.62161 18.4031 8.62161 16C8.62161 13.5969 8.6308 13.3123 8.6741 12.3632C8.71413 11.4857 8.86072 11.0092 8.98397 10.6921C9.14726 10.2719 9.34229 9.97214 9.6572 9.65723C9.97214 9.34227 10.272 9.14726 10.692 8.98397C11.0092 8.86072 11.4857 8.7141 12.3632 8.6741C13.3123 8.6308 13.5969 8.62161 16 8.62161" fill="#247251"/>
<path d="M16.0006 19C14.3437 19 13.0005 17.6568 13.0005 16C13.0005 14.3431 14.3437 13 16.0006 13C17.6574 13 19.0005 14.3431 19.0005 16C19.0005 17.6568 17.6574 19 16.0006 19ZM16.0006 11.3783C13.4481 11.3783 11.3789 13.4475 11.3789 16C11.3789 18.5524 13.4481 20.6216 16.0006 20.6216C18.553 20.6216 20.6221 18.5524 20.6221 16C20.6221 13.4475 18.553 11.3783 16.0006 11.3783V11.3783ZM21.8848 11.1957C21.8848 11.7922 21.4012 12.2757 20.8047 12.2757C20.2083 12.2757 19.7248 11.7922 19.7248 11.1957C19.7248 10.5993 20.2083 10.1157 20.8047 10.1157C21.4012 10.1157 21.8848 10.5993 21.8848 11.1957" fill="#247251"/>
</svg>
