<svg width="42" height="42" viewBox="0 0 42 42" fill="none" xmlns="http://www.w3.org/2000/svg">
<path fill-rule="evenodd" clip-rule="evenodd" d="M21 9.5C21 9.22386 20.7761 9 20.5 9C20.2239 9 20 9.22386 20 9.5V20H9.5C9.22386 20 9 20.2239 9 20.5C9 20.7761 9.22386 21 9.5 21H20V32.5C20 32.7761 20.2239 33 20.5 33C20.7761 33 21 32.7761 21 32.5V21H32.5C32.7761 21 33 20.7761 33 20.5C33 20.2239 32.7761 20 32.5 20H21V9.5Z" fill="#247251"/>
<rect x="0.5" y="0.5" width="41" height="41" rx="20.5" stroke="#DAD5C9"/>
</svg>
