<svg width="154" height="72" viewBox="0 0 154 72" fill="none" xmlns="http://www.w3.org/2000/svg">
<g clip-path="url(#clip0_8228_9421)">
<path d="M35.7311 13.0028L33.0491 11.4684C32.9986 11.4411 32.9581 11.3988 32.9333 11.3474C32.9084 11.296 32.9004 11.2382 32.9105 11.182C32.9205 11.1259 32.9481 11.0743 32.9893 11.0346C33.0305 10.9949 33.0832 10.969 33.14 10.9607C33.6514 10.8817 34.3105 10.7914 34.8219 10.7576C35.4697 10.7125 36.3675 10.7237 36.9016 10.7463C36.9502 10.7474 36.9976 10.7612 37.039 10.7863C37.0804 10.8115 37.1144 10.847 37.1375 10.8894C37.1606 10.9318 37.172 10.9796 37.1704 11.0277C37.1689 11.0759 37.1546 11.1228 37.1289 11.1637L36.0947 12.9125C36.0778 12.9431 36.0546 12.9699 36.0268 12.9912C35.9989 13.0125 35.9669 13.0279 35.9327 13.0364C35.8986 13.0448 35.8631 13.0462 35.8284 13.0404C35.7937 13.0347 35.7606 13.0218 35.7311 13.0028Z" fill="#144F2E"/>
<path d="M24.2638 16.6344C24.0169 16.4697 23.8165 16.2451 23.6817 15.9819C23.5469 15.7187 23.4821 15.4256 23.4935 15.1306C23.5049 14.8355 23.592 14.5483 23.7468 14.2961C23.9015 14.0439 24.1186 13.8352 24.3774 13.6897C25.0025 13.34 25.673 13.0015 26.2412 12.742C27.5254 12.1779 29.3551 11.6363 30.3892 11.3543C30.6371 11.2875 30.8966 11.2751 31.1498 11.318C31.403 11.3608 31.6437 11.4579 31.8553 11.6025L34.2645 13.2384C34.6535 13.5003 34.9252 13.9016 35.0227 14.358C35.1201 14.8144 35.0358 15.2906 34.7873 15.6867L32.1962 19.8047C32.0661 20.0124 31.8948 20.1916 31.6927 20.3316C31.4907 20.4716 31.2621 20.5693 31.0208 20.6189C30.7796 20.6685 30.5307 20.6689 30.2893 20.6201C30.0479 20.5713 29.819 20.4743 29.6165 20.3349L24.2638 16.6344Z" fill="#144F2E"/>
<path d="M38.445 11.1966L37.3199 13.1372C37.232 13.2904 37.2077 13.4716 37.2523 13.6422C37.2969 13.8129 37.4067 13.9596 37.5586 14.051L38.6609 14.7054C38.7531 14.7596 38.8568 14.7914 38.9637 14.7984C39.0706 14.8054 39.1776 14.7872 39.2761 14.7455C39.3746 14.7037 39.4618 14.6395 39.5306 14.5581C39.5995 14.4766 39.648 14.3802 39.6724 14.2767L40.2633 11.7495C40.2853 11.6595 40.2881 11.5659 40.2714 11.4748C40.2548 11.3837 40.219 11.2971 40.1666 11.2206C40.1141 11.144 40.046 11.0792 39.9668 11.0304C39.8875 10.9816 39.7989 10.9498 39.7065 10.9371C39.6466 10.9248 39.5858 10.9172 39.5246 10.9146C39.3996 10.9033 39.2405 10.8807 39.0928 10.8582C38.963 10.8425 38.8314 10.8665 38.7157 10.927C38.5999 10.9875 38.5055 11.0815 38.445 11.1966Z" fill="#144F2E"/>
<path d="M20.6055 16.0932C20.8052 15.9421 21.0559 15.8731 21.3055 15.9004C21.5551 15.9277 21.7846 16.0492 21.9465 16.2398C22.0656 16.3799 22.1434 16.5498 22.1715 16.731C22.1996 16.9121 22.1768 17.0974 22.1056 17.2665L19.9804 22.2984C19.8649 22.572 19.6833 22.8131 19.4516 23.0004C19.22 23.1877 18.9453 23.3155 18.6521 23.3723C18.3589 23.4292 18.056 23.4135 17.7703 23.3265C17.4847 23.2396 17.225 23.0841 17.0143 22.8738L16.6052 22.4676C16.2952 22.1675 16.1076 21.7645 16.0783 21.3357C16.0489 20.9069 16.1799 20.4824 16.446 20.1435C17.032 19.3997 17.658 18.6879 18.3212 18.0111C19.0485 17.3328 19.8109 16.6926 20.6055 16.0932Z" fill="#144F2E"/>
<path d="M22.2198 19.061C22.3176 18.8015 22.4744 18.5678 22.6778 18.3781C22.8813 18.1884 23.126 18.0477 23.393 17.967C23.66 17.8862 23.9422 17.8676 24.2177 17.9126C24.4931 17.9575 24.7544 18.0648 24.9814 18.2262L29.4135 21.4077C29.7806 21.674 30.0351 22.0661 30.1275 22.5081C30.2199 22.95 30.1436 23.4103 29.9136 23.7996L28.0043 26.9586C27.7569 27.3681 27.3567 27.6641 26.8906 27.7822L23.8108 28.5494C23.5 28.6281 23.1737 28.6225 22.8658 28.5332C22.5579 28.4439 22.2799 28.2741 22.0607 28.0417L20.5265 26.4509C20.2875 26.2063 20.1241 25.8988 20.0556 25.5649C19.9872 25.231 20.0165 24.8847 20.1401 24.5668L22.2198 19.061Z" fill="#CEC7B6"/>
<path d="M24.0478 29.9606C24.0121 29.925 23.9866 29.8806 23.9739 29.832C23.9612 29.7833 23.9619 29.7322 23.9758 29.6839C23.9897 29.6356 24.0163 29.5918 24.053 29.5572C24.0896 29.5225 24.1349 29.4982 24.1842 29.4868L26.2526 28.9903C26.3066 28.9793 26.3627 28.9837 26.4143 29.003C26.466 29.0223 26.5111 29.0557 26.5444 29.0994C26.5777 29.143 26.5978 29.1952 26.6025 29.2498C26.6072 29.3044 26.5962 29.3591 26.5708 29.4078L25.6389 31.0437C25.6163 31.0815 25.5854 31.1136 25.5484 31.1377C25.5114 31.1617 25.4694 31.1771 25.4255 31.1825C25.3816 31.188 25.3371 31.1834 25.2953 31.1691C25.2535 31.1548 25.2155 31.1312 25.1843 31.1001L24.0478 29.9606Z" fill="#144F2E"/>
<path d="M40.7992 28.3808C40.5182 28.1778 40.3016 27.899 40.1753 27.5776C40.0489 27.2562 40.0179 26.9055 40.0861 26.5672C40.1543 26.2288 40.3187 25.917 40.5599 25.6685C40.801 25.4201 41.1089 25.2455 41.447 25.1654L46.1746 24.0371C46.4971 23.9595 46.8348 23.971 47.1512 24.0703C47.4675 24.1696 47.7505 24.353 47.9694 24.6005C48.1883 24.8481 48.3348 25.1504 48.393 25.4746C48.4513 25.7989 48.419 26.1328 48.2998 26.4402L46.936 29.9941C46.8351 30.2527 46.6758 30.4848 46.4703 30.6725C46.2648 30.8603 46.0187 30.9988 45.7508 31.0772C45.4829 31.1557 45.2005 31.1721 44.9252 31.1252C44.65 31.0782 44.3892 30.9692 44.1631 30.8065L40.7992 28.3808Z" fill="#144F2E"/>
<path d="M52.6397 18.4409C52.6975 18.2749 52.7964 18.1259 52.9272 18.0077C53.0581 17.8894 53.2168 17.8057 53.3887 17.7641C53.5606 17.7226 53.7403 17.7246 53.9112 17.7699C54.0822 17.8152 54.239 17.9024 54.3671 18.0234C55.5973 19.2011 56.7017 20.5017 57.6629 21.9045C58.1465 22.6381 58.5867 23.3991 58.9811 24.1835C59.4698 25.1425 58.4356 26.0338 57.5038 25.5035L52.1511 22.3897C51.9199 22.2536 51.7443 22.0411 51.655 21.7895C51.5657 21.5379 51.5683 21.2631 51.6624 21.0132L52.6397 18.4409Z" fill="#144F2E"/>
<path d="M39.582 19.1404C39.6458 18.8665 39.7732 18.6111 39.9541 18.3947C40.1349 18.1784 40.3641 18.0069 40.6235 17.894C40.8829 17.7812 41.1653 17.73 41.4481 17.7446C41.731 17.7593 42.0064 17.8393 42.2526 17.9783L45.6733 19.9302C45.9845 20.1083 46.2355 20.3739 46.3947 20.6935C46.5539 21.0132 46.6142 21.3724 46.568 21.726C46.5218 22.0796 46.3712 22.4117 46.1351 22.6804C45.899 22.9491 45.5881 23.1424 45.2415 23.2359L41.1048 24.3415C40.8009 24.4221 40.4811 24.4234 40.1766 24.3451C39.872 24.2669 39.593 24.1119 39.3666 23.895C39.1402 23.6782 38.9741 23.407 38.8844 23.1076C38.7947 22.8083 38.7844 22.491 38.8546 22.1866L39.582 19.1404Z" fill="#144F2E"/>
<path d="M41.038 12.9234C41.2425 11.9644 42.1744 11.3552 43.129 11.6147C44.5922 12.0106 46.0181 12.5315 47.3907 13.1716C48.7609 13.8293 50.0693 14.6071 51.3001 15.4958C51.5946 15.7137 51.8078 16.0224 51.9066 16.3736C52.0053 16.7248 51.9838 17.0985 51.8456 17.4363L51.1069 19.3994C51.0138 19.6448 50.868 19.867 50.6796 20.0508C50.4912 20.2345 50.2647 20.3753 50.016 20.4633C49.7672 20.5514 49.5021 20.5846 49.2391 20.5606C48.9761 20.5366 48.7215 20.4561 48.4931 20.3246L41.5948 16.3306C41.2638 16.1382 41.0022 15.8472 40.8472 15.4989C40.6922 15.1506 40.6516 14.7626 40.7311 14.3901L41.038 12.9234Z" fill="#819286"/>
<path d="M35.5133 16.1632C35.6342 15.9557 35.7955 15.7742 35.9877 15.6292C36.18 15.4843 36.3995 15.3788 36.6333 15.3189C36.8671 15.2591 37.1105 15.246 37.3495 15.2806C37.5884 15.3151 37.818 15.3966 38.0249 15.5201L38.0931 15.554C38.4238 15.7509 38.6827 16.0475 38.8319 16.4006C38.9811 16.7537 39.0129 17.1448 38.9227 17.5171L37.1725 24.8618C37.1473 24.9707 37.091 25.0701 37.0104 25.1482C36.9298 25.2262 36.8283 25.2795 36.7179 25.3018C36.6357 25.3195 36.5506 25.3197 36.4683 25.3022C36.386 25.2846 36.3084 25.2499 36.2406 25.2003L33.354 23.0567C32.9986 22.7918 32.7528 22.4071 32.6628 21.975C32.5728 21.5429 32.6448 21.0931 32.8654 20.71L35.5133 16.1632Z" fill="#144F2E"/>
<path d="M27.2314 32.9832C26.9396 32.6951 26.7549 32.3173 26.7075 31.9116C26.66 31.5058 26.7525 31.0961 26.97 30.7493L28.0269 29.057C28.2794 28.6566 28.6788 28.3694 29.1406 28.2559L35.9934 26.5861C36.0981 26.5587 36.2084 26.5599 36.3125 26.5897C36.4165 26.6195 36.5105 26.6768 36.5844 26.7554C36.6526 26.8309 36.7016 26.9215 36.7273 27.0196C36.753 27.1178 36.7546 27.2206 36.7321 27.3195L34.8001 34.9124C34.7252 35.2026 34.5791 35.4698 34.3748 35.6903C34.1706 35.9108 33.9146 36.0776 33.6296 36.176L32.3454 36.616C32.0219 36.7256 31.674 36.7435 31.3408 36.6678C31.0076 36.5921 30.7022 36.4257 30.4589 36.1873L27.2314 32.9832Z" fill="#144F2E"/>
<path d="M31.3229 23.2817C31.3417 23.2468 31.3678 23.2164 31.3995 23.1925C31.4312 23.1686 31.4677 23.1518 31.5066 23.1432C31.5454 23.1347 31.5857 23.1345 31.6246 23.1429C31.6635 23.1512 31.7002 23.1678 31.732 23.1914L34.7664 25.3802C34.8101 25.4126 34.8438 25.4567 34.8633 25.5073C34.8829 25.5579 34.8876 25.613 34.8769 25.6661C34.8662 25.7193 34.8405 25.7684 34.8028 25.8076C34.7651 25.8469 34.717 25.8747 34.6641 25.8879L29.7205 27.0387C29.6666 27.0505 29.6103 27.0465 29.5587 27.0271C29.507 27.0077 29.4622 26.9738 29.4296 26.9295C29.3971 26.8853 29.3782 26.8325 29.3754 26.7777C29.3725 26.723 29.3858 26.6686 29.4137 26.6212L31.3229 23.2817Z" fill="#76A58A"/>
<path d="M19.1396 27.1063C19.1569 27.0628 19.1847 27.0242 19.2206 26.9939C19.2565 26.9635 19.2993 26.9424 19.3453 26.9324C19.3914 26.9224 19.4392 26.9237 19.4845 26.9364C19.5299 26.949 19.5714 26.9725 19.6055 27.0048L21.3443 28.6858C21.3816 28.7207 21.4084 28.7651 21.422 28.8142C21.4356 28.8632 21.4353 28.915 21.4212 28.9639C21.4071 29.0128 21.3798 29.0569 21.3422 29.0914C21.3046 29.126 21.2581 29.1496 21.2079 29.1597L18.5827 29.7802C18.5327 29.7922 18.4804 29.7905 18.4314 29.7751C18.3823 29.7597 18.3385 29.7313 18.3045 29.693C18.2706 29.6546 18.2478 29.6078 18.2388 29.5575C18.2297 29.5073 18.2347 29.4555 18.2532 29.4079L19.1396 27.1063Z" fill="#144F2E"/>
<path d="M25.2293 33.209C25.2501 33.17 25.2797 33.1361 25.3157 33.1101C25.3517 33.0841 25.3932 33.0666 25.4371 33.059C25.4809 33.0514 25.526 33.0538 25.5688 33.0662C25.6115 33.0785 25.6509 33.1003 25.6839 33.1301L29.7978 37.045C29.8329 37.0787 29.8589 37.1207 29.8731 37.1671C29.8873 37.2135 29.8894 37.2627 29.8792 37.3101C29.869 37.3575 29.8467 37.4016 29.8146 37.4381C29.7825 37.4746 29.7415 37.5024 29.6955 37.5188L22.2745 39.9445C22.2212 39.9621 22.1638 39.9635 22.1096 39.9486C22.0555 39.9337 22.007 39.9031 21.9705 39.8607C21.9339 39.8184 21.9109 39.7662 21.9043 39.7108C21.8977 39.6554 21.9079 39.5993 21.9336 39.5496L25.2293 33.209Z" fill="#144F2E"/>
<path d="M37.4808 28.199C37.5065 28.0886 37.56 27.9864 37.6363 27.9021C37.7126 27.8177 37.8092 27.754 37.917 27.7168C38.0249 27.6796 38.1405 27.6702 38.253 27.6894C38.3655 27.7086 38.4713 27.7559 38.5604 27.8267L43.6631 31.8093C43.7582 31.885 43.8313 31.9844 43.8749 32.0973C43.9186 32.2102 43.9313 32.3326 43.9116 32.452C43.8919 32.5714 43.8407 32.6834 43.7631 32.7767C43.6855 32.8699 43.5843 32.941 43.4699 32.9827L36.8671 35.2617C36.7512 35.3018 36.6265 35.3101 36.5063 35.2857C36.386 35.2612 36.2746 35.2051 36.1838 35.123C36.093 35.041 36.0262 34.9362 35.9905 34.8196C35.9547 34.703 35.9514 34.579 35.9807 34.4606L37.4808 28.199Z" fill="#76A58A"/>
<path d="M33.9105 36.9427C33.9595 36.9273 34.0118 36.9255 34.0617 36.9376C34.1117 36.9497 34.1573 36.9752 34.1936 37.0113C34.23 37.0474 34.2557 37.0927 34.2678 37.1423C34.28 37.1918 34.2783 37.2438 34.2628 37.2924L33.8309 38.8042C33.8165 38.8512 33.7902 38.8937 33.7545 38.9277C33.7189 38.9617 33.675 38.9861 33.6272 38.9986C33.5793 39.011 33.5291 39.0111 33.4812 38.9988C33.4333 38.9865 33.3894 38.9622 33.3536 38.9283L32.2626 37.8678C32.2271 37.8336 32.2011 37.7909 32.1872 37.7437C32.1733 37.6965 32.1721 37.6466 32.1835 37.5988C32.195 37.551 32.2188 37.5069 32.2526 37.471C32.2864 37.4351 32.329 37.4086 32.3763 37.394L33.9105 36.9427Z" fill="#76A58A"/>
<path d="M37.7886 45.0434C37.8368 45.0883 37.8678 45.1483 37.8765 45.2134C37.8851 45.2784 37.8708 45.3444 37.8361 45.4002C37.8013 45.456 37.7481 45.4981 37.6856 45.5194C37.6231 45.5408 37.5551 45.54 37.4932 45.5172L33.9588 44.2536C33.893 44.2311 33.838 44.1852 33.8045 44.1247C33.7709 44.0643 33.7611 43.9936 33.777 43.9264L34.1747 42.2228C34.1859 42.1736 34.2103 42.1284 34.2451 42.0918C34.28 42.0552 34.3242 42.0286 34.373 42.0147C34.4218 42.0009 34.4734 42.0003 34.5225 42.0131C34.5716 42.0259 34.6164 42.0516 34.652 42.0874L37.7886 45.0434Z" fill="#144F2E"/>
<path d="M50.0729 24.7816C50.1648 24.5352 50.3098 24.3118 50.4977 24.1268C50.6856 23.9419 50.9119 23.7999 51.1608 23.7107C51.4097 23.6215 51.6752 23.5874 51.9387 23.6106C52.2023 23.6338 52.4576 23.7138 52.6868 23.8451L57.1417 26.3949C57.3304 26.502 57.4842 26.6605 57.5849 26.8518C57.6856 27.043 57.7289 27.2589 57.7098 27.4738C57.6907 27.6887 57.6098 27.8937 57.4769 28.0644C57.344 28.2352 57.1645 28.3645 56.9598 28.437L51.1298 30.5129C50.8041 30.6286 50.452 30.6496 50.1147 30.5735C49.7774 30.4974 49.4689 30.3274 49.2255 30.0834C48.9822 29.8394 48.8139 29.5315 48.7406 29.196C48.6672 28.8604 48.6918 28.511 48.8115 28.1888L50.0729 24.7816Z" fill="#144F2E"/>
<path d="M35.187 37.621C35.255 37.31 35.4042 37.0223 35.6196 36.7866C35.8351 36.551 36.1091 36.3757 36.4144 36.2785L42.108 34.4959C43.5626 34.0446 44.9037 35.4549 44.3468 36.8651L41.4147 44.4017C41.2855 44.74 41.0287 45.0151 40.6988 45.1689C40.4365 45.2949 40.1412 45.3365 39.854 45.288C39.5667 45.2394 39.3019 45.1031 39.0964 44.8981L35.2779 41.1298C35.0612 40.9148 34.9019 40.6495 34.8146 40.3579C34.7273 40.0663 34.7147 39.7577 34.7779 39.46L35.187 37.621Z" fill="#144F2E"/>
<path d="M45.7529 36.1551C45.8548 35.9002 46.0139 35.6716 46.218 35.4868C46.4222 35.302 46.6661 35.1659 46.9312 35.0886C47.1963 35.0114 47.4757 34.9952 47.748 35.0412C48.0204 35.0872 48.2786 35.1942 48.5031 35.3541L51.1511 37.2608C51.4073 37.4458 51.6105 37.6938 51.7409 37.9805C51.8712 38.2672 51.924 38.5826 51.8942 38.8957C51.8644 39.2088 51.7529 39.5088 51.5708 39.7662C51.3887 40.0236 51.1422 40.2294 50.8556 40.3634L45.1165 43.026C44.9098 43.1216 44.6789 43.1533 44.4539 43.117C44.2288 43.0806 44.02 42.9779 43.8545 42.8221C43.6891 42.6664 43.5746 42.4648 43.5261 42.2436C43.4775 42.0224 43.4971 41.7919 43.5823 41.5819L45.7529 36.1551Z" fill="#144F2E"/>
<path d="M49.7661 34.9341C49.4999 34.7369 49.2932 34.4712 49.1684 34.1656C49.0436 33.8601 49.0055 33.5264 49.0582 33.2009C49.1109 32.8753 49.2524 32.5703 49.4674 32.319C49.6823 32.0676 49.9625 31.8795 50.2775 31.7751L60.2669 28.492C60.3529 28.4652 60.4445 28.4615 60.5323 28.4813C60.6202 28.5011 60.7011 28.5437 60.767 28.6048C60.8254 28.6608 60.8685 28.7307 60.892 28.8079C61.017 29.2592 61.4716 30.8725 61.6307 31.9556C61.7216 32.5536 61.7898 33.2982 61.8466 33.9074C61.8732 34.2644 61.7909 34.621 61.6105 34.9309C61.4302 35.2408 61.16 35.4896 60.8352 35.6449L55.687 38.0819C55.3894 38.2238 55.0583 38.282 54.7297 38.2502C54.4011 38.2184 54.0876 38.0977 53.8232 37.9013L49.7661 34.9341Z" fill="#247251"/>
<path d="M10.8992 33.919C10.9381 33.5609 11.0863 33.2231 11.3239 32.9509C11.5616 32.6787 11.8773 32.4851 12.2288 32.3959L15.1381 31.6626C15.2599 31.631 15.3881 31.6335 15.5085 31.6698C15.6289 31.7061 15.7368 31.7748 15.8204 31.8682C15.9039 31.9617 15.9598 32.0762 15.9818 32.1992C16.0038 32.3222 15.991 32.4489 15.945 32.5652L13.9903 37.4504C13.8396 37.8213 13.5583 38.1253 13.1988 38.3059C12.8393 38.4864 12.4259 38.5312 12.0356 38.4319C11.6973 38.345 11.3962 38.152 11.1771 37.8817C10.9581 37.6114 10.8327 37.2781 10.8196 36.9314C10.8082 36.435 10.7969 35.8596 10.7969 35.397C10.8082 34.957 10.8537 34.4042 10.8992 33.919Z" fill="#144F2E"/>
<path d="M17.049 32.0118C17.1506 31.7226 17.3251 31.464 17.5559 31.2606C17.7866 31.0572 18.0659 30.9158 18.3672 30.8498L21.697 30.1277C22.0075 30.0602 22.3304 30.0747 22.6335 30.1697C22.9366 30.2647 23.2093 30.437 23.4244 30.6693L24.0268 31.3236C24.2885 31.6061 24.4527 31.964 24.4957 32.3454C24.5386 32.7268 24.4579 33.1119 24.2654 33.4447L20.7538 39.4581C20.5489 39.8084 20.2312 40.0801 19.8519 40.2295C19.4727 40.3789 19.0538 40.3973 18.6627 40.2817L16.3671 39.6048C16.13 39.5356 15.9098 39.419 15.7198 39.2622C15.5298 39.1054 15.3741 38.9117 15.2624 38.6929C15.1506 38.4742 15.0851 38.235 15.0699 37.9902C15.0546 37.7454 15.09 37.5001 15.1738 37.2694L17.049 32.0118Z" fill="#76A58A"/>
<path d="M13.74 24.341C14.2855 23.303 15.6606 23.1338 16.5016 23.9461L17.638 25.063C17.8908 25.3108 18.0644 25.627 18.1372 25.9721C18.2099 26.3172 18.1786 26.676 18.0472 27.0036L17.0812 29.4518C16.9746 29.7232 16.803 29.9647 16.5812 30.1554C16.3594 30.3461 16.0941 30.4802 15.8084 30.5462L13.9559 30.9749C12.6604 31.2795 11.5012 30.14 11.8762 28.8764C12.0808 28.2108 12.3081 27.5 12.5695 26.8343C12.9218 25.9882 13.3423 25.0969 13.74 24.341Z" fill="#144F2E"/>
<path d="M20.2421 43.2507C20.4375 42.9125 20.738 42.6462 21.0985 42.4917C21.4591 42.3371 21.8603 42.3026 22.2423 42.3933L30.8566 44.4692C31.3264 44.5835 31.7314 44.8781 31.9827 45.2884C32.2341 45.6987 32.3114 46.1912 32.1976 46.6579L31.7771 48.3277C31.7154 48.5767 31.6001 48.8094 31.4393 49.01C31.2784 49.2106 31.0758 49.3742 30.8452 49.4898L20.6512 54.6909C20.3185 54.8643 19.9388 54.9283 19.567 54.8735C19.1952 54.8188 18.8506 54.6481 18.5829 54.3863C18.1624 53.9688 17.6624 53.4611 17.2873 53.0437C17.0373 52.7616 16.7646 52.4683 16.5259 52.2088C16.2598 51.9221 16.0923 51.559 16.0473 51.1718C16.0024 50.7845 16.0824 50.3931 16.2759 50.0539L20.2421 43.2507Z" fill="#144F2E"/>
<path d="M14.0023 40.2718C14.0274 40.2064 14.0764 40.1527 14.1395 40.1213C14.2027 40.09 14.2753 40.0833 14.3432 40.1026L17.7185 41.0503C17.7767 41.0675 17.8279 41.1025 17.8647 41.1505C17.9015 41.1984 17.9221 41.2567 17.9233 41.317C17.9246 41.3772 17.9065 41.4364 17.8718 41.4858C17.837 41.5352 17.7873 41.5723 17.7298 41.5919L13.4795 42.957C13.4283 42.9723 13.3739 42.973 13.3222 42.9593C13.2706 42.9455 13.2239 42.9177 13.1873 42.879C13.1508 42.8404 13.1257 42.7924 13.1151 42.7404C13.1045 42.6884 13.1087 42.6345 13.1272 42.5847L14.0023 40.2718Z" fill="#144F2E"/>
<path d="M12.2512 44.6261C12.2371 44.5921 12.2301 44.5556 12.2305 44.5189C12.2309 44.4821 12.2388 44.4458 12.2536 44.4121C12.2685 44.3785 12.29 44.3481 12.3169 44.3228C12.3438 44.2976 12.3756 44.2779 12.4103 44.2651L19.0244 41.8169C19.0803 41.7974 19.1409 41.7956 19.1979 41.8116C19.2549 41.8276 19.3056 41.8608 19.3429 41.9065C19.3802 41.9521 19.4024 42.0082 19.4064 42.0668C19.4104 42.1255 19.3961 42.184 19.3653 42.2343L14.9786 49.3308C14.9527 49.3726 14.9162 49.407 14.8728 49.4304C14.8294 49.4539 14.7805 49.4656 14.731 49.4645C14.6816 49.4633 14.6333 49.4493 14.591 49.4239C14.5487 49.3985 14.5139 49.3625 14.49 49.3195C14.2627 48.9247 13.9331 48.3267 13.6831 47.8641C13.1376 46.8262 12.5012 45.2467 12.2512 44.6261Z" fill="#144F2E"/>
<path d="M11.0682 39.6058C11.063 39.5627 11.069 39.519 11.0855 39.4788C11.1021 39.4386 11.1287 39.4033 11.1628 39.3762C11.1969 39.3491 11.2375 39.3311 11.2806 39.3238C11.3237 39.3166 11.368 39.3205 11.4092 39.335L13.1934 39.8766C13.2299 39.8875 13.2637 39.9057 13.2928 39.93C13.3219 39.9544 13.3457 39.9844 13.3627 40.0182C13.3798 40.052 13.3897 40.0889 13.3918 40.1266C13.394 40.1643 13.3883 40.2021 13.3752 40.2376L12.4661 42.9566C12.4495 43.0125 12.415 43.0614 12.3678 43.0961C12.3206 43.1307 12.2634 43.1491 12.2047 43.1484L12.0456 43.1597C11.9797 43.1661 11.9139 43.1475 11.8612 43.1078C11.8085 43.0681 11.7729 43.01 11.7615 42.9453C11.6819 42.652 11.5456 42.0992 11.4206 41.535C11.2554 40.9015 11.1376 40.2566 11.0682 39.6058Z" fill="#144F2E"/>
<path d="M22.6836 57.5675C21.5358 56.8116 21.7176 55.1418 22.9677 54.5777L28.4227 52.1182C28.7364 51.9759 29.0845 51.9252 29.4262 51.972C29.7679 52.0187 30.0892 52.161 30.3525 52.3822C30.6159 52.6034 30.8104 52.8944 30.9134 53.2212C31.0164 53.5481 31.0236 53.8972 30.9342 54.228L30.5024 55.8301L29.8432 58.6506C29.795 58.8802 29.6992 59.0973 29.5619 59.2881C29.4246 59.479 29.2489 59.6394 29.0459 59.7593C28.8429 59.8792 28.617 59.9558 28.3825 59.9844C28.1481 60.0131 27.9102 59.993 27.684 59.9255C26.6586 59.6165 25.6592 59.2279 24.6951 58.7634C24.0814 58.4475 23.3655 58.0075 22.6836 57.5675Z" fill="#CEC7B6"/>
<path d="M33.4573 45.4724C33.4791 45.4004 33.5276 45.3394 33.593 45.3017C33.6585 45.264 33.7359 45.2524 33.8096 45.2693L37.3213 46.2283C37.3769 46.2445 37.4263 46.277 37.463 46.3216C37.4996 46.3661 37.5219 46.4207 37.5268 46.478C37.5317 46.5353 37.5191 46.5928 37.4905 46.6429C37.4619 46.6929 37.4188 46.7333 37.3667 46.7586L33.0709 48.7668C33.0219 48.7898 32.9673 48.7984 32.9135 48.7916C32.8598 48.7849 32.8091 48.763 32.7673 48.7287C32.7256 48.6944 32.6946 48.649 32.6779 48.5978C32.6612 48.5466 32.6596 48.4917 32.6732 48.4396L33.4573 45.4724Z" fill="#76A58A"/>
<path d="M23.5121 41.7603C23.3651 41.7273 23.2332 41.6469 23.1371 41.5317C23.041 41.4165 22.9861 41.2729 22.9809 41.1233C22.9757 40.9738 23.0205 40.8268 23.1084 40.7052C23.1963 40.5837 23.3223 40.4945 23.4666 40.4516L30.0012 38.5223C30.3007 38.4336 30.6183 38.4234 30.923 38.4926C31.2276 38.5617 31.5091 38.708 31.74 38.9172L32.9105 39.9664C33.1513 40.1802 33.33 40.4541 33.4279 40.7597C33.5258 41.0652 33.5395 41.3913 33.4674 41.7039L33.3765 42.0875C33.3253 42.3195 33.2286 42.5393 33.0917 42.7341C32.9549 42.929 32.7806 43.0951 32.579 43.223C32.3773 43.3509 32.1522 43.438 31.9166 43.4793C31.681 43.5207 31.4394 43.5154 31.2059 43.4639L23.5121 41.7603Z" fill="#144F2E"/>
<path d="M32.5831 50.9683C32.6475 50.7099 32.7685 50.4688 32.9374 50.2621C33.1063 50.0554 33.319 49.8882 33.5604 49.7724L38.8904 47.2339C39.0363 47.1638 39.1982 47.1332 39.3598 47.1451C39.5214 47.157 39.677 47.2109 39.8109 47.3016C39.9879 47.4183 40.1194 47.5916 40.1835 47.7927C40.2476 47.9938 40.2404 48.2107 40.1632 48.4072L35.5606 60.2987C35.4364 60.6398 35.2043 60.9317 34.8991 61.131C34.5939 61.3303 34.2319 61.4262 33.8673 61.4044C33.4809 61.3705 33.049 61.3254 32.6172 61.2577C32.2762 61.2013 31.9694 61.1449 31.6966 61.0772C30.8102 60.8741 30.3443 59.9828 30.5602 59.1141L32.5831 50.9683Z" fill="#144F2E"/>
<path d="M40.4817 50.663C40.5934 50.3835 40.7736 50.1361 41.0061 49.9433C41.2385 49.7505 41.5158 49.6184 41.8127 49.559C42.1096 49.4996 42.4168 49.5148 42.7063 49.6032C42.9959 49.6915 43.2586 49.8503 43.4706 50.0651L49.221 55.898C50.0165 56.699 49.8688 58.0078 48.8574 58.5268C45.7373 60.1707 42.3017 61.1397 38.777 61.3699C37.5269 61.4714 36.6859 60.2304 37.1405 59.0683L40.4817 50.663Z" fill="#144F2E"/>
<path d="M44.4021 49.6243C43.8907 49.1392 44.368 48.293 45.0499 48.4848L55.1416 51.2039C55.8235 51.3844 56.2894 51.971 55.9939 52.6028C55.7382 53.1097 55.4046 53.5741 55.0052 53.9793C54.3688 54.6562 53.6869 55.288 53.1301 55.7732C52.8039 56.0506 52.3847 56.1965 51.9554 56.1819C51.5261 56.1672 51.1179 55.9932 50.8117 55.6942L44.4021 49.6243Z" fill="#144F2E"/>
<path d="M42.4582 46.579C42.3813 46.5588 42.3095 46.5228 42.2475 46.4734C42.1855 46.424 42.1347 46.3621 42.0982 46.292C42.0618 46.2218 42.0406 46.1448 42.0361 46.0659C42.0315 45.9871 42.0437 45.9082 42.0718 45.8344C42.1287 45.6972 42.2337 45.585 42.3673 45.5185L53.675 40.1933C53.977 40.0507 54.3126 39.9932 54.6453 40.027C54.9779 40.0608 55.2948 40.1847 55.5615 40.3851L59.6072 43.4538C59.9088 43.6741 60.129 43.9867 60.2338 44.3436C60.3385 44.7004 60.322 45.0816 60.1868 45.4282C59.9595 46.0149 59.6527 46.7595 59.2777 47.5154C58.9201 48.2448 58.5139 48.9496 58.0617 49.6252C57.8612 49.9236 57.5705 50.151 57.2314 50.2747C56.8924 50.3984 56.5225 50.4119 56.1752 50.3134L42.4582 46.579Z" fill="#144F2E"/>
<path d="M57.1869 40.3734C57.0308 40.2577 56.9072 40.104 56.8282 39.9272C56.7491 39.7504 56.7172 39.5564 56.7355 39.3638C56.7537 39.1712 56.8216 38.9865 56.9325 38.8274C57.0434 38.6683 57.1936 38.5402 57.3687 38.4554L60.2667 37.0564C60.4425 36.9698 60.6383 36.9309 60.8342 36.9438C61.0301 36.9567 61.219 37.0208 61.3818 37.1297C61.5446 37.2386 61.6755 37.3884 61.7611 37.5638C61.8467 37.7392 61.8839 37.9339 61.8691 38.1283C61.8236 38.7037 61.7668 39.3016 61.6986 39.798C61.6191 40.3283 61.494 40.9714 61.3577 41.5468C61.316 41.7244 61.2302 41.8889 61.108 42.0251C60.9859 42.1614 60.8313 42.2651 60.6584 42.3268C60.4855 42.3885 60.2998 42.4062 60.1182 42.3784C59.9366 42.3505 59.765 42.2779 59.6189 42.1673L57.1869 40.3734Z" fill="#144F2E"/>
<path fill-rule="evenodd" clip-rule="evenodd" d="M65.6197 41.9871C65.5934 42.1101 65.5426 42.2266 65.4704 42.3297C65.3981 42.4329 65.3058 42.5207 65.1988 42.588C65.0919 42.6553 64.9725 42.7006 64.8477 42.7214C64.7228 42.7423 64.5951 42.7381 64.4719 42.7092L63.5968 42.5061C63.3459 42.4454 63.1286 42.2902 62.9907 42.0734C62.8529 41.8566 62.8053 41.595 62.8581 41.344C63.202 39.6201 63.3733 37.8666 63.3695 36.1091C63.3676 34.3519 63.1964 32.5989 62.8581 30.8741C62.8068 30.6233 62.855 30.3625 62.9926 30.146C63.1302 29.9295 63.3466 29.7741 63.5968 29.7121L64.4719 29.509C64.5951 29.4796 64.723 29.4751 64.848 29.4957C64.973 29.5163 65.0926 29.5616 65.1996 29.629C65.3067 29.6963 65.399 29.7843 65.4712 29.8877C65.5433 29.9911 65.5938 30.1079 65.6197 30.2311C66.4076 34.1107 66.4076 38.1075 65.6197 41.9871ZM64.6764 26.7223C64.7161 26.8415 64.731 26.9674 64.7203 27.0925C64.7095 27.2176 64.6733 27.3392 64.6138 27.4499C64.5543 27.5607 64.4727 27.6583 64.3741 27.7368C64.2755 27.8154 64.1618 27.8733 64.04 27.9069L63.1763 28.1551C62.9292 28.2252 62.6643 28.1973 62.4375 28.0773C62.2107 27.9574 62.0396 27.7547 61.9603 27.512C60.8213 24.1699 59.0294 21.0836 56.6872 18.4299C56.517 18.237 56.428 17.9865 56.4386 17.7304C56.4492 17.4742 56.5585 17.2318 56.744 17.0534L57.3918 16.4555C57.4835 16.3694 57.5916 16.3025 57.7098 16.2587C57.828 16.2149 57.9539 16.195 58.0799 16.2003C58.206 16.2055 58.3297 16.2358 58.4438 16.2893C58.5579 16.3428 58.66 16.4185 58.7441 16.5119C61.3933 19.4845 63.411 22.9573 64.6764 26.7223ZM56.1644 13.9508C56.2579 14.0362 56.3333 14.1392 56.3862 14.2538C56.4392 14.3684 56.4687 14.4923 56.4729 14.6183C56.4771 14.7443 56.4561 14.8699 56.4109 14.9877C56.3657 15.1056 56.2974 15.2133 56.2099 15.3047L55.5962 15.9478C55.4173 16.1303 55.1742 16.237 54.9178 16.2454C54.6614 16.2538 54.4117 16.1633 54.2211 15.9929C51.5501 13.6508 48.4363 11.8598 45.0613 10.7241C44.8157 10.6441 44.6114 10.4717 44.4925 10.2438C44.3735 10.016 44.3492 9.75099 44.4248 9.50561L44.6862 8.67073C44.7216 8.55098 44.781 8.43955 44.8607 8.34306C44.9404 8.24656 45.0389 8.16699 45.1502 8.10909C45.2616 8.05118 45.3835 8.01612 45.5088 8.00601C45.6341 7.99589 45.7602 8.01092 45.8795 8.0502C49.6761 9.30272 53.1757 11.3105 56.1644 13.9508ZM42.3338 7.09121C42.4576 7.11673 42.5749 7.1669 42.6786 7.2387C42.7823 7.3105 42.8703 7.40243 42.9372 7.50895C43.0042 7.61546 43.0486 7.73434 43.068 7.85839C43.0873 7.98245 43.0811 8.10911 43.0497 8.23072L42.8452 9.08817C42.7841 9.33669 42.6273 9.55153 42.4084 9.68654C42.1896 9.82155 41.9261 9.86596 41.6746 9.81023C38.1708 9.11825 34.564 9.11825 31.0602 9.81023C30.809 9.86128 30.5478 9.81488 30.3301 9.68058C30.1123 9.54628 29.9547 9.33429 29.8896 9.08817L29.6851 8.23072C29.6537 8.10911 29.6475 7.98245 29.6668 7.85839C29.6861 7.73434 29.7306 7.61546 29.7975 7.50895C29.8645 7.40243 29.9524 7.3105 30.0562 7.2387C30.1599 7.1669 30.2772 7.11673 30.401 7.09121C32.3616 6.70065 34.3564 6.50413 36.356 6.50454C38.3638 6.49123 40.3675 6.68787 42.3338 7.09121ZM26.878 8.02764C26.9974 7.98901 27.1233 7.97447 27.2484 7.98488C27.3734 7.99529 27.4952 8.03044 27.6064 8.08826C27.7176 8.14609 27.816 8.22541 27.8958 8.32157C27.9757 8.41773 28.0353 8.52877 28.0713 8.64816L28.3327 9.48305C28.4045 9.72842 28.3784 9.99181 28.2599 10.2186C28.1415 10.4455 27.9396 10.6184 27.6963 10.7015C24.3232 11.8417 21.2103 13.6322 18.5365 15.9703C18.3458 16.1408 18.0961 16.2313 17.8397 16.2228C17.5833 16.2144 17.3402 16.1078 17.1613 15.9252L16.5477 15.2821C16.459 15.1914 16.3896 15.0838 16.3438 14.9658C16.2979 14.8479 16.2764 14.722 16.2807 14.5956C16.2849 14.4692 16.3148 14.345 16.3685 14.2303C16.4221 14.1157 16.4985 14.0129 16.5931 13.9282C19.5968 11.3085 23.0919 9.30327 26.878 8.02764ZM14.002 16.5232C14.0861 16.4298 14.1883 16.3541 14.3023 16.3006C14.4164 16.2471 14.5401 16.2168 14.6662 16.2115C14.7923 16.2063 14.9181 16.2262 15.0363 16.27C15.1545 16.3138 15.2627 16.3807 15.3544 16.4667L16.0022 17.0647C16.1902 17.2417 16.3013 17.4845 16.3119 17.7415C16.3225 17.9985 16.2318 18.2495 16.059 18.4411C13.7243 21.0982 11.9367 24.1838 10.7972 27.5233C10.716 27.7647 10.5446 27.9659 10.3183 28.0855C10.0921 28.2052 9.82829 28.2341 9.58121 28.1664L8.7175 27.9182C8.59604 27.884 8.48278 27.8258 8.3845 27.7471C8.28623 27.6684 8.20495 27.5708 8.14553 27.4602C8.08612 27.3497 8.04978 27.2283 8.03871 27.1034C8.02764 26.9786 8.04205 26.8528 8.08109 26.7336C9.34175 22.9689 11.3557 19.4959 14.002 16.5232ZM8.28565 29.5203C8.16243 29.4909 8.03452 29.4864 7.90951 29.507C7.78449 29.5276 7.66492 29.5729 7.55788 29.6403C7.45083 29.7076 7.3585 29.7956 7.28635 29.899C7.21419 30.0024 7.16369 30.1192 7.13783 30.2423C6.34989 34.122 6.34989 38.1188 7.13783 41.9984C7.16412 42.1214 7.21489 42.2378 7.28716 42.341C7.35943 42.4442 7.45174 42.532 7.55867 42.5993C7.6656 42.6665 7.78499 42.7119 7.90984 42.7327C8.03468 42.7535 8.16245 42.7494 8.28565 42.7205L9.16072 42.5174C9.41163 42.4567 9.62894 42.3015 9.76678 42.0847C9.90461 41.8678 9.95217 41.6063 9.89941 41.3553C9.55556 39.6313 9.38425 37.8778 9.38801 36.1204C9.38991 34.3632 9.56116 32.6102 9.89941 30.8854C9.9507 30.6346 9.90252 30.3737 9.76491 30.1573C9.62731 29.9408 9.41088 29.7854 9.16072 29.7234L8.28565 29.5203ZM8.08109 45.4959C8.04139 45.3767 8.02647 45.2508 8.03724 45.1257C8.04801 45.0006 8.08424 44.879 8.14374 44.7683C8.20325 44.6575 8.28478 44.5599 8.3834 44.4814C8.48203 44.4028 8.59569 44.3449 8.7175 44.3113L9.58121 44.0631C9.82832 43.993 10.0932 44.0209 10.32 44.1409C10.5468 44.2608 10.7179 44.4635 10.7972 44.7062C11.9362 48.0483 13.7282 51.1346 16.0703 53.7883C16.2405 53.9812 16.3295 54.2316 16.3189 54.4878C16.3083 54.744 16.199 54.9864 16.0135 55.1648L15.3657 55.7627C15.274 55.8488 15.1659 55.9157 15.0477 55.9595C14.9295 56.0033 14.8036 56.0232 14.6776 56.0179C14.5515 56.0127 14.4278 55.9824 14.3137 55.9289C14.1996 55.8754 14.0975 55.7997 14.0134 55.7063C11.3619 52.7353 9.34393 49.2621 8.08109 45.4959ZM16.5931 58.2674C16.4996 58.182 16.4242 58.079 16.3713 57.9644C16.3183 57.8498 16.2888 57.7259 16.2846 57.5999C16.2804 57.4739 16.3015 57.3483 16.3466 57.2305C16.3918 57.1126 16.4601 57.0049 16.5477 56.9135L17.1613 56.2704C17.3402 56.0879 17.5833 55.9812 17.8397 55.9728C18.0961 55.9644 18.3458 56.0549 18.5365 56.2253C21.2075 58.5674 24.3212 60.3584 27.6963 61.4941C27.9419 61.5741 28.1461 61.7465 28.2651 61.9743C28.384 62.2022 28.4083 62.4672 28.3327 62.7126L28.0713 63.5475C28.0359 63.6672 27.9765 63.7787 27.8968 63.8751C27.8171 63.9716 27.7186 64.0512 27.6073 64.1091C27.4959 64.167 27.374 64.2021 27.2487 64.2122C27.1234 64.2223 26.9973 64.2073 26.878 64.168C23.0797 62.9192 19.5794 60.911 16.5931 58.2674ZM30.4237 65.1383C30.2999 65.1128 30.1826 65.0626 30.0789 64.9908C29.9752 64.919 29.8872 64.827 29.8203 64.7205C29.7533 64.614 29.7089 64.4951 29.6895 64.3711C29.6702 64.247 29.6764 64.1204 29.7078 63.9988L29.9123 63.1413C29.9734 62.8928 30.1302 62.6779 30.3491 62.5429C30.5679 62.4079 30.8314 62.3635 31.0829 62.4192C34.5867 63.1112 38.1935 63.1112 41.6974 62.4192C41.9485 62.3682 42.2097 62.4146 42.4275 62.5489C42.6452 62.6832 42.8028 62.8952 42.8679 63.1413L43.0725 63.9988C43.1038 64.1204 43.11 64.247 43.0907 64.3711C43.0714 64.4951 43.0269 64.614 42.96 64.7205C42.8931 64.827 42.8051 64.919 42.7013 64.9908C42.5976 65.0626 42.4803 65.1128 42.3565 65.1383C38.4179 65.9205 34.3623 65.9205 30.4237 65.1383ZM45.8795 64.1906C45.7602 64.2292 45.6342 64.2437 45.5092 64.2333C45.3841 64.2229 45.2623 64.1878 45.1511 64.1299C45.04 64.0721 44.9415 63.9928 44.8617 63.8966C44.7818 63.8005 44.7222 63.6894 44.6862 63.57L44.4248 62.7351C44.3531 62.4898 44.3791 62.2264 44.4976 61.9995C44.6161 61.7727 44.8179 61.5998 45.0613 61.5167C48.4343 60.3765 51.5472 58.586 54.2211 56.2479C54.4117 56.0774 54.6614 55.9869 54.9178 55.9953C55.1742 56.0038 55.4173 56.1104 55.5962 56.293L56.2099 56.9361C56.2985 57.0268 56.3679 57.1344 56.4138 57.2524C56.4596 57.3703 56.4811 57.4962 56.4768 57.6226C56.4726 57.749 56.4427 57.8732 56.3891 57.9879C56.3354 58.1025 56.259 58.2053 56.1644 58.29C53.1699 60.9223 49.672 62.9291 45.8795 64.1906ZM58.7555 55.695C58.6714 55.7884 58.5693 55.8641 58.4552 55.9176C58.3411 55.9711 58.2174 56.0014 58.0913 56.0067C57.9652 56.0119 57.8394 55.992 57.7212 55.9482C57.603 55.9044 57.4948 55.8375 57.4031 55.7515L56.7554 55.1535C56.5673 54.9765 56.4562 54.7337 56.4456 54.4767C56.435 54.2197 56.5257 53.9687 56.6985 53.7771C59.043 51.125 60.8352 48.0382 61.9717 44.6949C62.0529 44.4535 62.2243 44.2523 62.4505 44.1327C62.6768 44.013 62.9406 43.9841 63.1877 44.0518L64.0514 44.3C64.1728 44.3342 64.2861 44.3924 64.3844 44.4711C64.4827 44.5498 64.5639 44.6474 64.6233 44.7579C64.6828 44.8685 64.7191 44.9899 64.7302 45.1148C64.7412 45.2396 64.7268 45.3654 64.6878 45.4846C63.4211 49.2491 61.4036 52.7216 58.7555 55.695Z" fill="#144F2E"/>
<path d="M36.4801 2.99575L37.9461 1.45008C37.9572 1.43543 37.9631 1.41762 37.9631 1.39931C37.9631 1.381 37.9572 1.36319 37.9461 1.34854L36.4346 0.0172377C36.4221 0.006137 36.4059 0 36.3892 0C36.3724 0 36.3562 0.006137 36.3437 0.0172377L34.889 1.29213C34.8811 1.29801 34.8746 1.30566 34.8701 1.31448C34.8656 1.32329 34.8633 1.33303 34.8633 1.3429C34.8633 1.35277 34.8656 1.36251 34.8701 1.37132C34.8746 1.38014 34.8811 1.38779 34.889 1.39367L36.4005 2.99575C36.4119 3.01831 36.4573 3.01831 36.4801 2.99575Z" fill="#144F2E"/>
<path d="M36.0108 3.55916L34.3175 1.91196C34.3108 1.9052 34.3029 1.89984 34.2941 1.89618C34.2853 1.89251 34.2759 1.89063 34.2663 1.89062C34.2568 1.89063 34.2474 1.89251 34.2386 1.89618C34.2298 1.89984 34.2219 1.9052 34.2152 1.91196L29.8399 5.42073C29.8058 5.4433 29.8512 5.57868 29.9081 5.66894C29.9335 5.69984 29.9675 5.7227 30.0059 5.73473C30.0442 5.74675 30.0853 5.74741 30.124 5.73663C30.5217 5.66894 31.8059 5.44329 32.9197 5.28534C33.4652 5.20637 34.0788 5.16124 34.6243 5.13868C35.3971 5.10483 36.0449 4.48431 36.0222 3.71711C36.0222 3.61557 36.0222 3.55916 36.0108 3.55916Z" fill="#144F2E"/>
<path d="M36.7385 3.53812L38.4318 1.90219C38.4385 1.89544 38.4464 1.89007 38.4552 1.88641C38.464 1.88275 38.4734 1.88086 38.483 1.88086C38.4925 1.88086 38.5019 1.88275 38.5107 1.88641C38.5195 1.89007 38.5274 1.89544 38.5341 1.90219L42.9094 5.41096C42.9435 5.43353 42.8981 5.56892 42.8413 5.65917C42.8158 5.69008 42.7818 5.71294 42.7435 5.72496C42.7051 5.73698 42.6641 5.73765 42.6253 5.72687C42.2276 5.65917 40.9434 5.43353 39.8297 5.27558C39.2842 5.1966 38.6705 5.15147 38.125 5.12891C37.3522 5.09506 36.7044 4.47454 36.7271 3.70735C36.7273 3.65076 36.7311 3.59423 36.7385 3.53812Z" fill="#144F2E"/>
<path d="M3.0215 36.0075L1.46456 34.5521C1.44981 34.5411 1.43187 34.5352 1.41342 34.5352C1.39498 34.5352 1.37704 34.5411 1.36228 34.5521L0.0212697 36.0526C0.010088 36.065 0.00390625 36.0811 0.00390625 36.0977C0.00390625 36.1144 0.010088 36.1305 0.0212697 36.1429L1.30546 37.587C1.31138 37.5949 1.31909 37.6014 1.32797 37.6058C1.33685 37.6103 1.34666 37.6126 1.3566 37.6126C1.36655 37.6126 1.37635 37.6103 1.38523 37.6058C1.39411 37.6014 1.40182 37.5949 1.40774 37.587L3.0215 36.0865C3.04423 36.0752 3.04423 36.0301 3.0215 36.0075Z" fill="#144F2E"/>
<path d="M3.59087 36.4708L1.93165 38.1519C1.92484 38.1585 1.91944 38.1664 1.91575 38.1751C1.91206 38.1838 1.91016 38.1932 1.91016 38.2027C1.91016 38.2121 1.91206 38.2215 1.91575 38.2302C1.91944 38.2389 1.92484 38.2468 1.93165 38.2534L5.46601 42.5971C5.48874 42.6309 5.62512 42.5858 5.71603 42.5294C5.74716 42.5041 5.77019 42.4704 5.7823 42.4323C5.79441 42.3942 5.79508 42.3535 5.78422 42.315C5.71603 41.9202 5.48874 40.6453 5.32964 39.5396C5.25009 38.9981 5.20463 38.3888 5.1819 37.8473C5.14781 37.0801 4.52276 36.437 3.74997 36.4596C3.6967 36.4586 3.64346 36.4624 3.59087 36.4708Z" fill="#144F2E"/>
<path d="M3.57915 35.7473L1.91993 34.0662C1.91312 34.0596 1.90772 34.0517 1.90403 34.043C1.90034 34.0343 1.89844 34.0249 1.89844 34.0155C1.89844 34.006 1.90034 33.9966 1.90403 33.9879C1.90772 33.9792 1.91312 33.9713 1.91993 33.9647L5.45429 29.621C5.48839 29.5872 5.6134 29.6323 5.70431 29.6887C5.73544 29.714 5.75847 29.7477 5.77058 29.7858C5.78269 29.8239 5.78336 29.8646 5.7725 29.9031C5.70431 30.298 5.47702 31.5729 5.31792 32.6785C5.23837 33.2201 5.19291 33.8293 5.17018 34.3709C5.13609 35.138 4.51104 35.7811 3.73825 35.7586C3.63597 35.7586 3.57915 35.7586 3.57915 35.7473Z" fill="#144F2E"/>
<path d="M36.276 69.2005L34.81 70.7461C34.7989 70.7608 34.793 70.7786 34.793 70.7969C34.793 70.8152 34.7989 70.833 34.81 70.8477L36.3215 72.179C36.334 72.1901 36.3502 72.1962 36.367 72.1962C36.3837 72.1962 36.3999 72.1901 36.4124 72.179L37.8671 70.9041C37.8751 70.8982 37.8816 70.8905 37.886 70.8817C37.8905 70.8729 37.8928 70.8632 37.8928 70.8533C37.8928 70.8434 37.8905 70.8337 37.886 70.8249C37.8816 70.8161 37.8751 70.8084 37.8671 70.8025L36.367 69.2005C36.3543 69.1896 36.3382 69.1836 36.3215 69.1836C36.3048 69.1836 36.2887 69.1896 36.276 69.2005Z" fill="#144F2E"/>
<path d="M36.7385 68.6358L38.4318 70.2718C38.4385 70.2785 38.4464 70.2839 38.4552 70.2875C38.464 70.2912 38.4734 70.2931 38.483 70.2931C38.4925 70.2931 38.5019 70.2912 38.5107 70.2875C38.5195 70.2839 38.5274 70.2785 38.5341 70.2718L42.9094 66.763C42.9435 66.7404 42.8981 66.605 42.8413 66.5148C42.8158 66.4839 42.7818 66.461 42.7435 66.449C42.7051 66.437 42.6641 66.4363 42.6253 66.4471C42.2276 66.5148 40.9434 66.7404 39.8297 66.8984C39.2842 66.9773 38.6705 67.0225 38.125 67.045C37.3522 67.0789 36.7044 67.6994 36.7271 68.4666C36.7259 68.5232 36.7297 68.5799 36.7385 68.6358Z" fill="#144F2E"/>
<path d="M36.0108 68.6593L34.3175 70.2952C34.3108 70.3019 34.3029 70.3073 34.2941 70.311C34.2853 70.3146 34.2759 70.3165 34.2663 70.3165C34.2568 70.3165 34.2474 70.3146 34.2386 70.311C34.2298 70.3073 34.2219 70.3019 34.2152 70.2952L29.8399 66.7864C29.8058 66.7639 29.8512 66.6285 29.9081 66.5382C29.9335 66.5073 29.9675 66.4844 30.0059 66.4724C30.0442 66.4604 30.0853 66.4597 30.124 66.4705C30.5217 66.5382 31.8059 66.7639 32.9197 66.9218C33.4652 67.0008 34.0788 67.0459 34.6243 67.0685C35.3971 67.1023 36.0449 67.7228 36.0222 68.49C36.0287 68.5467 36.0248 68.604 36.0108 68.6593Z" fill="#144F2E"/>
<path d="M69.7085 36.2106L71.2654 37.666C71.2801 37.6769 71.2981 37.6829 71.3165 37.6829C71.335 37.6829 71.3529 37.6769 71.3677 37.666L72.7087 36.1654C72.7199 36.153 72.726 36.137 72.726 36.1203C72.726 36.1036 72.7199 36.0876 72.7087 36.0752L71.4245 34.631C71.4186 34.6231 71.4109 34.6167 71.402 34.6122C71.3931 34.6078 71.3833 34.6055 71.3734 34.6055C71.3634 34.6055 71.3536 34.6078 71.3447 34.6122C71.3358 34.6167 71.3281 34.6231 71.3222 34.631L69.7085 36.1316C69.6857 36.1429 69.6857 36.188 69.7085 36.2106Z" fill="#144F2E"/>
<path d="M69.1385 35.7473L70.7978 34.0662C70.8046 34.0596 70.81 34.0517 70.8137 34.043C70.8173 34.0343 70.8192 34.0249 70.8192 34.0155C70.8192 34.006 70.8173 33.9966 70.8137 33.9879C70.81 33.9792 70.8046 33.9713 70.7978 33.9647L67.2634 29.621C67.2407 29.5872 67.1043 29.6323 67.0134 29.6887C66.9822 29.714 66.9592 29.7477 66.9471 29.7858C66.935 29.8239 66.9343 29.8646 66.9452 29.9031C67.0134 30.298 67.2407 31.5729 67.3998 32.6785C67.4793 33.2201 67.5248 33.8293 67.5475 34.3709C67.5816 35.138 68.2066 35.7811 68.9794 35.7586C69.0817 35.7586 69.1385 35.7586 69.1385 35.7473Z" fill="#144F2E"/>
<path d="M69.1616 36.4708L70.8095 38.1519C70.8163 38.1585 70.8217 38.1664 70.8254 38.1751C70.8291 38.1838 70.831 38.1932 70.831 38.2027C70.831 38.2121 70.8291 38.2215 70.8254 38.2302C70.8217 38.2389 70.8163 38.2468 70.8095 38.2534L67.2751 42.5971C67.2524 42.6309 67.116 42.5858 67.0251 42.5294C66.994 42.5041 66.9709 42.4704 66.9588 42.4323C66.9467 42.3942 66.946 42.3535 66.9569 42.315C67.0251 41.9202 67.2524 40.6453 67.4115 39.5396C67.491 38.9981 67.5365 38.3888 67.5592 37.8473C67.5933 37.0801 68.2184 36.437 68.9911 36.4596C69.0481 36.4598 69.1051 36.4635 69.1616 36.4708Z" fill="#144F2E"/>
<path d="M94.6488 24L94.5124 28.9078H93.2623C93.2964 28.0729 93.2169 27.396 93.035 26.8657C92.8532 26.3129 92.5691 25.9067 92.1713 25.6472C91.7736 25.3877 91.2849 25.2523 90.6598 25.2749H89.3075L88.7051 36.2525C88.6941 36.6224 88.6638 36.9914 88.6142 37.3582C88.5801 37.6966 88.5574 37.9674 88.5233 38.1592C88.7051 38.1479 88.8983 38.1366 89.1256 38.1366C89.3529 38.1366 89.5802 38.1141 89.7961 38.1141C90.0121 38.1141 90.1939 38.0915 90.3303 38.0915L90.2621 39.5582H84.2275L84.3184 38.3397C84.6362 38.345 84.9498 38.2672 85.2276 38.1141C85.4823 37.9653 85.6726 37.7282 85.7617 37.4484C85.8977 37.0246 85.9742 36.5842 85.989 36.1397L86.5913 25.2975H85.1481C84.273 25.3087 83.5911 25.6134 83.1024 26.1888C82.6138 26.7641 82.341 27.678 82.2842 28.919H81L81.375 24.0113H94.6488V24Z" fill="#144F2E"/>
<path d="M99.444 28.1957C100.007 28.1886 100.566 28.2882 101.092 28.489C101.568 28.6471 101.982 28.9513 102.274 29.3577C102.558 29.7526 102.694 30.2716 102.694 30.9147C102.707 31.4879 102.5 32.0446 102.115 32.4716C101.703 32.9319 101.195 33.2977 100.626 33.5434C99.9864 33.8192 99.325 34.0418 98.6485 34.2091C97.9692 34.3837 97.2779 34.5081 96.5801 34.5814C96.5801 35.4501 96.671 36.1496 96.8642 36.6686C97.0574 37.1876 97.3188 37.5373 97.6484 37.7517C97.9835 37.9563 98.3687 38.0656 98.7621 38.0676C99.1106 38.0624 99.4559 38.0014 99.7849 37.8871C100.208 37.728 100.594 37.4863 100.921 37.1763C101.296 36.8378 101.615 36.364 101.899 35.7548L102.967 36.285C102.546 37.1876 102.092 37.8984 101.592 38.4174C101.143 38.8871 100.596 39.253 99.9895 39.4892C99.4254 39.6959 98.8292 39.8029 98.228 39.8051C96.8529 39.8163 95.7846 39.4102 95.0232 38.5866C94.2617 37.763 93.8867 36.5558 93.8867 34.9876C93.8917 34.198 94.0026 33.4127 94.2163 32.6521C94.4324 31.8716 94.7698 31.1294 95.2164 30.4521C95.6677 29.7895 96.2616 29.2346 96.9551 28.8275C97.6484 28.41 98.478 28.1957 99.444 28.1957ZM99.1826 29.4141C98.9231 29.4063 98.665 29.4559 98.4272 29.5593C98.1893 29.6627 97.9777 29.8174 97.8075 30.0121C97.4245 30.4405 97.1447 30.9498 96.9892 31.5014C96.8087 32.1008 96.6906 32.717 96.6369 33.3404C97.3335 33.2364 98.0135 33.043 98.6598 32.765C99.2053 32.4942 99.6372 32.1896 99.9326 31.8285C100.218 31.5034 100.376 31.0866 100.376 30.6552C100.383 30.3166 100.257 29.9886 100.024 29.7413C99.7954 29.5299 99.4947 29.4129 99.1826 29.4141Z" fill="#144F2E"/>
<path d="M107.628 39.7939C106.987 39.7991 106.35 39.7 105.742 39.5005C105.207 39.3242 104.72 39.0268 104.321 38.6318C103.974 38.2658 103.782 37.7807 103.787 37.2779C103.768 36.9105 103.895 36.5504 104.139 36.2738C104.253 36.1466 104.393 36.0454 104.55 35.9772C104.707 35.909 104.877 35.8755 105.048 35.8789C105.212 35.8698 105.375 35.8987 105.525 35.9634C105.675 36.028 105.807 36.1266 105.912 36.2513C106.021 36.3636 106.106 36.4962 106.162 36.6415C106.219 36.7867 106.246 36.9417 106.242 37.0974C106.242 37.2118 106.227 37.3256 106.196 37.4359C106.178 37.5614 106.139 37.6833 106.083 37.7969C106.173 38 106.378 38.1805 106.708 38.3272C107 38.4647 107.317 38.5414 107.639 38.5528C108.333 38.5528 108.844 38.3949 109.151 38.0903C109.302 37.9388 109.421 37.759 109.501 37.5614C109.581 37.3639 109.62 37.1524 109.617 36.9395C109.62 36.782 109.59 36.6256 109.529 36.4801C109.469 36.3345 109.379 36.2029 109.265 36.0933C108.992 35.8201 108.687 35.5813 108.355 35.3825C107.98 35.1456 107.594 34.9087 107.174 34.6717C106.63 34.3568 106.102 34.0141 105.594 33.6451C105.205 33.3677 104.874 33.0192 104.617 32.6184C104.388 32.2284 104.274 31.783 104.287 31.3322C104.288 30.7902 104.459 30.2619 104.776 29.8204C105.133 29.3231 105.615 28.9265 106.173 28.6696C106.787 28.3537 107.514 28.207 108.378 28.207C108.955 28.2082 109.528 28.3074 110.072 28.5004C110.581 28.6546 111.045 28.9295 111.424 29.3014C111.594 29.4658 111.728 29.6624 111.82 29.8795C111.912 30.0965 111.959 30.3296 111.958 30.565C111.962 30.9058 111.845 31.2372 111.628 31.5014C111.514 31.6259 111.373 31.7238 111.216 31.7882C111.059 31.8525 110.889 31.8817 110.719 31.8738C110.557 31.8815 110.396 31.853 110.246 31.7906C110.097 31.7281 109.963 31.6331 109.856 31.5127C109.652 31.2778 109.542 30.9765 109.549 30.6666C109.549 30.5537 109.56 30.4409 109.571 30.3281C109.609 30.2197 109.655 30.1141 109.708 30.0122C109.584 29.8014 109.386 29.6444 109.151 29.5722C108.884 29.4658 108.598 29.4122 108.31 29.4142C108.046 29.4188 107.786 29.4804 107.549 29.5947C107.3 29.6974 107.078 29.8557 106.901 30.0573C106.719 30.2492 106.621 30.5047 106.628 30.7681C106.622 30.9887 106.686 31.2057 106.81 31.3886C106.979 31.6183 107.192 31.8136 107.435 31.964C107.73 32.1671 108.128 32.4266 108.64 32.7199C109.151 33.0133 109.651 33.3292 110.174 33.6789C110.682 33.9857 111.135 34.3746 111.515 34.8297C111.878 35.284 112.068 35.8518 112.049 36.4318C112.057 37.0591 111.853 37.671 111.469 38.1692C111.067 38.6989 110.53 39.1119 109.912 39.3652C109.189 39.6638 108.411 39.8098 107.628 39.7939Z" fill="#144F2E"/>
<path d="M116.991 39.7939C116.351 39.7991 115.713 39.7 115.105 39.5005C114.57 39.3242 114.084 39.0268 113.684 38.6318C113.337 38.2658 113.146 37.7807 113.15 37.2779C113.132 36.9105 113.258 36.5504 113.503 36.2738C113.616 36.1466 113.756 36.0454 113.913 35.9772C114.07 35.909 114.24 35.8755 114.412 35.8789C114.575 35.8698 114.738 35.8987 114.888 35.9634C115.038 36.028 115.171 36.1266 115.275 36.2513C115.384 36.3636 115.469 36.4962 115.526 36.6415C115.582 36.7867 115.609 36.9417 115.605 37.0974C115.605 37.2118 115.59 37.3256 115.559 37.4359C115.541 37.5614 115.503 37.6833 115.446 37.7969C115.537 38 115.741 38.1805 116.071 38.3272C116.363 38.4647 116.68 38.5414 117.003 38.5528C117.696 38.5528 118.207 38.3949 118.514 38.0903C118.665 37.9388 118.784 37.759 118.864 37.5614C118.944 37.3639 118.983 37.1524 118.98 36.9395C118.983 36.782 118.953 36.6256 118.893 36.4801C118.832 36.3345 118.742 36.2029 118.628 36.0933C118.356 35.8201 118.05 35.5813 117.719 35.3825C117.344 35.1456 116.957 34.9087 116.537 34.6717C115.993 34.3568 115.466 34.0141 114.957 33.6451C114.569 33.3677 114.237 33.0192 113.98 32.6184C113.752 32.2284 113.638 31.783 113.65 31.3322C113.651 30.7902 113.822 30.2619 114.139 29.8204C114.497 29.3231 114.978 28.9265 115.537 28.6696C116.15 28.3537 116.878 28.207 117.741 28.207C118.319 28.2082 118.891 28.3074 119.435 28.5004C119.944 28.6546 120.408 28.9295 120.787 29.3014C120.957 29.4658 121.092 29.6624 121.183 29.8795C121.275 30.0965 121.322 30.3296 121.321 30.565C121.325 30.9058 121.209 31.2372 120.992 31.5014C120.877 31.6259 120.736 31.7238 120.579 31.7882C120.422 31.8525 120.252 31.8817 120.083 31.8738C119.921 31.8815 119.759 31.853 119.609 31.7906C119.46 31.7281 119.327 31.6331 119.219 31.5127C119.015 31.2778 118.906 30.9765 118.912 30.6666C118.912 30.5537 118.923 30.4409 118.935 30.3281C118.973 30.2197 119.018 30.1141 119.071 30.0122C118.948 29.8014 118.749 29.6444 118.514 29.5722C118.247 29.4658 117.961 29.4122 117.673 29.4142C117.409 29.4188 117.149 29.4804 116.912 29.5947C116.663 29.6974 116.441 29.8557 116.264 30.0573C116.082 30.2492 115.984 30.5047 115.991 30.7681C115.985 30.9887 116.049 31.2057 116.173 31.3886C116.343 31.6183 116.555 31.8136 116.798 31.964C117.094 32.1671 117.491 32.4266 118.003 32.7199C118.514 33.0133 119.014 33.3292 119.537 33.6789C120.046 33.9857 120.499 34.3746 120.878 34.8297C121.242 35.284 121.431 35.8518 121.412 36.4318C121.421 37.0591 121.217 37.671 120.833 38.1692C120.431 38.6989 119.893 39.1119 119.276 39.3652C118.552 39.6628 117.774 39.8088 116.991 39.7939Z" fill="#144F2E"/>
<path d="M128.221 28.1957C128.784 28.1886 129.344 28.2882 129.869 28.489C130.346 28.6471 130.76 28.9513 131.051 29.3577C131.335 29.7526 131.472 30.2716 131.472 30.9147C131.485 31.4879 131.277 32.0446 130.892 32.4716C130.48 32.9319 129.972 33.2977 129.403 33.5434C128.764 33.8192 128.102 34.0418 127.426 34.2091C126.747 34.3837 126.055 34.5081 125.357 34.5814C125.357 35.4501 125.448 36.1496 125.642 36.6686C125.835 37.1876 126.096 37.5373 126.426 37.7517C126.761 37.9563 127.146 38.0656 127.539 38.0676C127.888 38.0624 128.233 38.0014 128.562 37.8871C128.985 37.728 129.372 37.4863 129.699 37.1763C130.074 36.8378 130.392 36.364 130.676 35.7548L131.744 36.285C131.324 37.1876 130.869 37.8984 130.369 38.4174C129.921 38.8871 129.374 39.253 128.767 39.4892C128.203 39.6959 127.607 39.8029 127.005 39.8051C125.63 39.8163 124.562 39.4102 123.801 38.5866C123.039 37.763 122.664 36.5558 122.664 34.9876C122.669 34.198 122.78 33.4127 122.994 32.6521C123.21 31.8716 123.547 31.1294 123.994 30.4521C124.445 29.7895 125.039 29.2346 125.732 28.8275C126.426 28.41 127.255 28.1957 128.221 28.1957ZM127.96 29.4141C127.7 29.4063 127.442 29.4559 127.205 29.5593C126.967 29.6627 126.755 29.8174 126.585 30.0121C126.206 30.4433 125.927 30.9516 125.767 31.5014C125.586 32.1008 125.468 32.717 125.414 33.3404C126.111 33.2364 126.791 33.043 127.437 32.765C127.983 32.4942 128.415 32.1896 128.71 31.8285C128.996 31.5034 129.153 31.0866 129.153 30.6552C129.16 30.3166 129.034 29.9886 128.801 29.7413C128.571 29.532 128.272 29.4153 127.96 29.4141Z" fill="#144F2E"/>
<path d="M134.128 39.5469C134.101 39.3788 134.086 39.2092 134.082 39.0392V38.6443C134.082 38.3622 134.094 38.0238 134.128 37.6176C134.162 37.2115 134.196 36.7263 134.241 36.1961C134.287 35.6658 134.366 35.0791 134.446 34.436C134.537 33.7704 134.605 33.195 134.673 32.6986C134.741 32.2021 134.798 31.8073 134.832 31.5027C134.86 31.2516 134.875 30.9993 134.878 30.7467C134.889 30.476 134.866 30.2842 134.787 30.1488C134.765 30.0865 134.723 30.033 134.668 29.9964C134.612 29.9597 134.546 29.942 134.48 29.9457C134.287 29.9457 134.082 30.0811 133.855 30.3631C133.628 30.6452 133.423 31.1191 133.23 31.8298L132.207 31.5365C132.283 31.1894 132.378 30.8467 132.491 30.5098C132.628 30.1191 132.815 29.7475 133.048 29.4042C133.273 29.0588 133.567 28.7631 133.912 28.5354C134.273 28.2905 134.702 28.1642 135.139 28.1744C135.685 28.1744 136.128 28.3436 136.457 28.6821C136.787 29.0206 136.946 29.5847 136.946 30.3744C136.935 30.6452 136.901 30.9498 136.855 31.3109C136.81 31.6493 136.753 32.0329 136.673 32.4616H136.719C137.117 31.277 137.537 30.3857 137.969 29.7765C138.401 29.1672 138.855 28.7272 139.287 28.5129C139.678 28.3004 140.114 28.1843 140.56 28.1744C141.083 28.1744 141.503 28.3098 141.833 28.5918C142.123 28.8513 142.297 29.2141 142.318 29.6009C142.34 29.9877 142.206 30.3672 141.946 30.6565C141.83 30.7941 141.684 30.9033 141.518 30.9756C141.353 31.048 141.173 31.0817 140.992 31.0739C140.697 31.0728 140.411 30.969 140.185 30.7806C140.069 30.6874 139.976 30.5684 139.915 30.4331C139.854 30.2979 139.826 30.1502 139.833 30.0021C139.537 29.9457 139.23 30.0811 138.923 30.4196C138.57 30.8342 138.279 31.2979 138.06 31.796C137.776 32.4372 137.537 33.0969 137.344 33.7704C137.139 34.4924 136.969 35.2371 136.832 35.993C136.719 36.6984 136.658 37.4111 136.651 38.1253C136.651 38.3171 136.662 38.554 136.673 38.8361C136.685 39.1182 136.707 39.3212 136.719 39.5018H134.128V39.5469Z" fill="#144F2E"/>
<path d="M148.79 28.1973C149.273 28.2003 149.756 28.238 150.233 28.3101C150.797 28.3871 151.355 28.5001 151.904 28.6486C151.813 29.3029 151.711 30.0363 151.597 30.8712C151.483 31.706 151.381 32.5296 151.267 33.3645C151.165 34.1768 151.074 34.9215 151.006 35.6097C150.938 36.2979 150.915 36.8169 150.915 37.1892C150.907 37.4072 150.938 37.6249 151.006 37.8323C151.029 37.9005 151.073 37.9595 151.133 38.0002C151.192 38.041 151.263 38.0613 151.336 38.0579C151.529 38.0579 151.733 37.9225 151.961 37.663C152.199 37.381 152.415 36.8846 152.631 36.1738L153.631 36.4671C153.572 36.818 153.476 37.1619 153.347 37.4938C153.194 37.886 152.992 38.2575 152.745 38.5995C152.512 38.9523 152.211 39.2554 151.858 39.4908C151.484 39.7221 151.049 39.8397 150.608 39.8292C150.147 39.8425 149.698 39.6766 149.358 39.3667C149.029 39.0508 148.87 38.5318 148.87 37.8097C148.869 37.512 148.884 37.2145 148.915 36.9184C148.96 36.5912 149.006 36.2753 149.074 35.9594H149.029C148.781 36.638 148.469 37.2915 148.097 37.9113C147.825 38.3503 147.488 38.7459 147.097 39.0846C146.798 39.343 146.45 39.5387 146.074 39.66C145.75 39.761 145.413 39.8143 145.074 39.818C144.679 39.8233 144.287 39.7399 143.929 39.5738C143.571 39.4077 143.255 39.1633 143.005 38.859C142.437 38.2272 142.165 37.2118 142.165 35.8353C142.155 34.8495 142.297 33.868 142.585 32.9245C142.864 32.0374 143.303 31.2079 143.881 30.4763C144.437 29.7742 145.143 29.2038 145.949 28.8065C146.744 28.4003 147.71 28.1973 148.79 28.1973ZM148.006 29.4383C147.515 29.4363 147.039 29.5993 146.653 29.9009C146.216 30.2439 145.865 30.6845 145.631 31.1871C145.322 31.8116 145.104 32.4763 144.983 33.1614C144.84 34.0114 144.771 34.8721 144.778 35.7338C144.778 36.4559 144.858 37.0425 145.028 37.4938C145.21 37.9225 145.472 38.1369 145.835 38.1369C146.199 38.1369 146.528 37.9564 146.858 37.6066C147.232 37.1776 147.532 36.6895 147.744 36.1625C148.028 35.5058 148.267 34.8311 148.46 34.143C148.665 33.3871 148.835 32.6199 148.972 31.8527C149.1 31.1104 149.176 30.3603 149.199 29.6075C149.033 29.5523 148.862 29.5144 148.688 29.4947C148.462 29.4591 148.234 29.4403 148.006 29.4383Z" fill="#144F2E"/>
<path d="M84.9079 49.4971V47.1391L83.8169 48.8766H83.3624L82.2827 47.1391V49.4971H81.4531V45.7176H82.3509L83.601 47.7597L84.8511 45.7176H85.7262V49.4971H84.9079ZM90.5334 49.5197C90.2528 49.5207 89.9748 49.467 89.7151 49.3617C89.4782 49.259 89.2625 49.1136 89.0787 48.933C88.9015 48.7557 88.7623 48.5446 88.6696 48.3125C88.575 48.0871 88.5248 47.8458 88.5219 47.6017C88.5192 47.3534 88.5696 47.1073 88.6696 46.8796C88.8775 46.4137 89.255 46.043 89.7265 45.8417C89.9822 45.7364 90.2565 45.6827 90.5334 45.6837C90.8032 45.6812 91.0707 45.734 91.3191 45.8388C91.5674 45.9437 91.7913 46.0983 91.9767 46.293C92.1563 46.4683 92.2958 46.6799 92.3858 46.9135C92.4793 47.1352 92.5294 47.3726 92.5335 47.613C92.535 47.8612 92.4847 48.1071 92.3858 48.335C92.2845 48.562 92.1419 48.7685 91.9653 48.9443C91.7846 49.1285 91.5681 49.2744 91.3289 49.373C91.077 49.4766 90.806 49.5266 90.5334 49.5197ZM89.3628 47.613C89.3606 47.767 89.3876 47.9201 89.4424 48.0643C89.5002 48.2018 89.5766 48.3309 89.6697 48.4479C89.7705 48.5624 89.8944 48.6546 90.0333 48.7186C90.3557 48.8428 90.7139 48.8388 91.0334 48.7074C91.173 48.6393 91.2968 48.5433 91.3971 48.4253C91.4942 48.3111 91.571 48.1814 91.6244 48.0417C91.6772 47.9049 91.7041 47.7595 91.7039 47.613C91.7072 47.4625 91.6802 47.3129 91.6244 47.173C91.5665 47.039 91.49 46.9136 91.3971 46.8007C91.2967 46.6886 91.1725 46.5999 91.0334 46.5412C90.8801 46.4718 90.7132 46.4371 90.5447 46.4396C90.3726 46.4372 90.202 46.4719 90.0447 46.5412C89.904 46.6022 89.7795 46.6949 89.681 46.8119C89.5816 46.9245 89.5045 47.0546 89.4537 47.1955C89.389 47.325 89.3577 47.4685 89.3628 47.613ZM97.7839 46.7781C97.7119 46.7181 97.6315 46.6687 97.5453 46.6314C97.419 46.5672 97.2854 46.518 97.1475 46.4848C96.9965 46.4394 96.8394 46.4166 96.6816 46.4171C96.5139 46.4097 96.3467 46.4406 96.1929 46.5073C96.1446 46.5314 96.104 46.5685 96.0759 46.6144C96.0477 46.6603 96.0332 46.7131 96.0338 46.7668C96.0327 46.808 96.0413 46.8489 96.0591 46.8862C96.0769 46.9234 96.1032 46.956 96.1361 46.9812C96.2331 47.0476 96.3406 47.0971 96.4543 47.1279C96.6224 47.1815 96.7931 47.2266 96.9657 47.2632C97.202 47.3215 97.4337 47.3969 97.6589 47.4889C97.8374 47.5608 97.994 47.6774 98.1135 47.8273C98.2313 47.9911 98.2876 48.1907 98.2726 48.3915C98.2771 48.5795 98.2341 48.7657 98.1476 48.933C98.0679 49.078 97.95 49.1989 97.8067 49.2828C97.6582 49.3782 97.4921 49.4434 97.318 49.4746C97.1316 49.5162 96.9408 49.5351 96.7498 49.531C96.4389 49.5285 96.1295 49.4868 95.8292 49.4069C95.5449 49.3291 95.2731 49.2113 95.0224 49.0571L95.386 48.3463C95.4764 48.4218 95.5756 48.4862 95.6815 48.5381C95.8387 48.6124 96.0023 48.6728 96.1702 48.7186C96.3671 48.7685 96.5693 48.795 96.7725 48.7976C96.9329 48.8054 97.0928 48.7744 97.2384 48.7074C97.2877 48.6877 97.3296 48.6531 97.3581 48.6086C97.3867 48.5641 97.4004 48.5118 97.3976 48.4592C97.3986 48.4111 97.3864 48.3637 97.3624 48.3219C97.3384 48.2802 97.3034 48.2457 97.2612 48.2222C97.1482 48.1525 97.0258 48.0993 96.8975 48.0643C96.7384 48.0191 96.5566 47.974 96.3407 47.9176C96.1184 47.8618 95.9016 47.7863 95.6929 47.692C95.5405 47.6137 95.4083 47.5018 95.3065 47.3648C95.2213 47.2132 95.1781 47.0419 95.1815 46.8684C95.1742 46.6354 95.2419 46.4062 95.3747 46.214C95.5154 46.034 95.7045 45.8972 95.9202 45.8191C96.1631 45.7267 96.4215 45.6808 96.6816 45.6837C96.9554 45.6829 97.2277 45.7248 97.4885 45.8078C97.7123 45.8783 97.9262 45.9769 98.1249 46.1012L97.7839 46.7781ZM100.557 49.4971L102.216 45.7176H102.887L104.546 49.4971H103.671L103.284 48.6058H101.807L101.421 49.4971H100.557ZM102.568 46.7104L102.012 47.9063H103.114L102.568 46.7104ZM107.16 49.4971V45.7176H107.989V49.4971H107.16ZM110.774 47.5791C110.775 47.3469 110.821 47.1171 110.91 46.9022C111.003 46.6762 111.138 46.4696 111.308 46.293C111.486 46.1063 111.703 45.9601 111.944 45.8642C112.217 45.7505 112.512 45.6966 112.808 45.7063C113.147 45.6994 113.483 45.7769 113.785 45.9319C114.044 46.0643 114.254 46.2733 114.388 46.5299L113.751 46.9699C113.71 46.8754 113.651 46.7899 113.577 46.7183C113.503 46.6466 113.415 46.5903 113.319 46.5525C113.147 46.4774 112.962 46.439 112.774 46.4396C112.596 46.4342 112.421 46.473 112.262 46.5525C112.122 46.6135 111.997 46.7062 111.899 46.8232C111.803 46.9363 111.73 47.0665 111.683 47.2068C111.635 47.3413 111.609 47.482 111.603 47.6243C111.605 47.779 111.636 47.9321 111.694 48.0756C111.749 48.2171 111.83 48.3472 111.933 48.4592C112.035 48.574 112.164 48.6629 112.308 48.7186C112.464 48.7788 112.629 48.8094 112.796 48.8089C112.92 48.8059 113.042 48.7869 113.16 48.7525C113.293 48.7202 113.418 48.6585 113.524 48.572C113.634 48.4909 113.721 48.3818 113.774 48.2561L114.456 48.651C114.362 48.844 114.222 49.0108 114.047 49.1361C113.861 49.2694 113.653 49.3687 113.433 49.4294C113.216 49.4962 112.99 49.5304 112.762 49.531C112.486 49.532 112.211 49.4783 111.956 49.373C111.715 49.2663 111.499 49.1128 111.319 48.9217C111.142 48.7404 111.002 48.5255 110.91 48.2899C110.826 48.0618 110.78 47.8218 110.774 47.5791ZM123.388 46.7781C123.316 46.7181 123.236 46.6687 123.15 46.6314C123.023 46.5672 122.89 46.518 122.752 46.4848C122.601 46.4394 122.444 46.4166 122.286 46.4171C122.118 46.4097 121.951 46.4406 121.797 46.5073C121.749 46.5314 121.708 46.5685 121.68 46.6144C121.652 46.6603 121.637 46.7131 121.638 46.7668C121.637 46.808 121.646 46.8489 121.663 46.8862C121.681 46.9234 121.708 46.956 121.74 46.9812C121.837 47.0476 121.945 47.0971 122.059 47.1279C122.227 47.1815 122.397 47.2266 122.57 47.2632C122.806 47.3215 123.038 47.3969 123.263 47.4889C123.442 47.5608 123.598 47.6774 123.718 47.8273C123.836 47.9911 123.892 48.1907 123.877 48.3915C123.881 48.5795 123.838 48.7657 123.752 48.933C123.672 49.078 123.554 49.1989 123.411 49.2828C123.262 49.3782 123.096 49.4434 122.922 49.4746C122.736 49.5162 122.545 49.5351 122.354 49.531C122.043 49.5285 121.734 49.4868 121.434 49.4069C121.149 49.3291 120.877 49.2113 120.627 49.0571L120.99 48.3463C121.081 48.4218 121.18 48.4862 121.286 48.5381C121.443 48.6124 121.607 48.6728 121.774 48.7186C121.971 48.7685 122.174 48.795 122.377 48.7976C122.537 48.8054 122.697 48.7744 122.843 48.7074C122.892 48.6877 122.934 48.6531 122.962 48.6086C122.991 48.5641 123.005 48.5118 123.002 48.4592C123.003 48.4111 122.991 48.3637 122.967 48.3219C122.943 48.2802 122.908 48.2457 122.865 48.2222C122.753 48.1525 122.63 48.0993 122.502 48.0643C122.343 48.0191 122.161 47.974 121.945 47.9176C121.723 47.8618 121.506 47.7863 121.297 47.692C121.145 47.6137 121.013 47.5018 120.911 47.3648C120.826 47.2132 120.782 47.0419 120.786 46.8684C120.778 46.6354 120.846 46.4062 120.979 46.214C121.12 46.034 121.309 45.8972 121.524 45.8191C121.767 45.7267 122.026 45.6808 122.286 45.6837C122.56 45.6829 122.832 45.7248 123.093 45.8078C123.317 45.8783 123.53 45.9769 123.729 46.1012L123.388 46.7781ZM129.843 46.4284H128.502V49.4971H127.673V46.4284H126.32V45.7063H129.843V46.4284ZM134.298 48.7976C134.462 48.8016 134.625 48.7708 134.775 48.7074C134.899 48.6489 135.005 48.5595 135.082 48.4479C135.163 48.3413 135.217 48.2177 135.241 48.0868C135.278 47.9467 135.297 47.8028 135.298 47.6581V45.7176H136.128V47.6581C136.131 47.9071 136.092 48.1549 136.014 48.3915C135.948 48.6117 135.836 48.8155 135.685 48.9894C135.53 49.1667 135.335 49.3058 135.116 49.3956C134.856 49.4958 134.578 49.5456 134.298 49.5422C134.011 49.5521 133.724 49.5021 133.457 49.3956C133.243 49.2987 133.053 49.1562 132.9 48.9781C132.755 48.8021 132.647 48.5987 132.582 48.3802C132.518 48.1526 132.487 47.917 132.491 47.6807V45.7401H133.321V47.6807C133.318 47.8249 133.334 47.9688 133.366 48.1094C133.397 48.2402 133.455 48.3631 133.537 48.4704C133.615 48.577 133.716 48.6655 133.832 48.7299C133.984 48.774 134.14 48.7968 134.298 48.7976ZM139.117 49.4971V45.7176H140.662C141.061 45.7059 141.456 45.7952 141.81 45.9771C142.104 46.1295 142.345 46.3651 142.503 46.654C142.664 46.9439 142.747 47.2706 142.742 47.6017C142.749 47.9538 142.659 48.3011 142.481 48.6058C142.305 48.8907 142.053 49.1212 141.753 49.2715C141.411 49.4379 141.032 49.5192 140.651 49.5084H139.117V49.4971ZM141.901 47.6017C141.909 47.389 141.858 47.1783 141.753 46.9925C141.659 46.8142 141.512 46.6686 141.333 46.575C141.126 46.4702 140.895 46.4197 140.662 46.4284H139.946V48.7751H140.662C140.899 48.7851 141.133 48.7346 141.344 48.6284C141.525 48.5307 141.671 48.3813 141.765 48.1997C141.858 48.014 141.904 47.809 141.901 47.6017ZM145.549 49.4971V45.7176H146.379V49.4971H145.549ZM151.174 49.5197C150.894 49.5207 150.616 49.467 150.356 49.3617C150.119 49.259 149.904 49.1136 149.72 48.933C149.543 48.7557 149.403 48.5446 149.311 48.3125C149.216 48.0871 149.166 47.8458 149.163 47.6017C149.16 47.3534 149.211 47.1073 149.311 46.8796C149.519 46.4137 149.896 46.043 150.368 45.8417C150.623 45.7364 150.898 45.6827 151.174 45.6837C151.444 45.6812 151.712 45.734 151.96 45.8388C152.209 45.9437 152.432 46.0983 152.618 46.293C152.797 46.4683 152.937 46.6799 153.027 46.9135C153.12 47.1352 153.171 47.3726 153.175 47.613C153.176 47.8612 153.126 48.1071 153.027 48.335C152.926 48.562 152.783 48.7685 152.606 48.9443C152.426 49.1285 152.209 49.2744 151.97 49.373C151.718 49.4756 151.447 49.5255 151.174 49.5197ZM150.004 47.613C150.002 47.767 150.029 47.9201 150.083 48.0643C150.141 48.2018 150.218 48.3309 150.311 48.4479C150.412 48.5624 150.535 48.6546 150.674 48.7186C150.997 48.8428 151.355 48.8388 151.675 48.7074C151.814 48.6393 151.938 48.5433 152.038 48.4253C152.135 48.3111 152.212 48.1814 152.265 48.0417C152.318 47.9049 152.345 47.7595 152.345 47.613C152.348 47.4625 152.321 47.3129 152.265 47.173C152.208 47.039 152.131 46.9136 152.038 46.8007C151.938 46.6886 151.814 46.5999 151.675 46.5412C151.521 46.4718 151.354 46.4371 151.186 46.4396C151.014 46.4372 150.843 46.4719 150.686 46.5412C150.545 46.6022 150.421 46.6949 150.322 46.8119C150.223 46.9245 150.146 47.0546 150.095 47.1955C150.03 47.325 149.999 47.4685 150.004 47.613Z" fill="#144F2E"/>
</g>
<defs>
<clipPath id="clip0_8228_9421">
<rect width="154" height="72" fill="white"/>
</clipPath>
</defs>
</svg>
