<svg width="116" height="54" viewBox="0 0 116 54" fill="none" xmlns="http://www.w3.org/2000/svg">
<g clip-path="url(#clip0_9679_19067)">
<path d="M26.9149 9.75304L24.8947 8.60225C24.8567 8.58179 24.8262 8.55005 24.8075 8.51151C24.7887 8.47298 24.7827 8.4296 24.7903 8.38751C24.7979 8.34541 24.8186 8.30674 24.8496 8.27694C24.8807 8.24715 24.9204 8.22775 24.9632 8.22148C25.3484 8.16225 25.8449 8.09455 26.2301 8.06917C26.718 8.03532 27.3943 8.04378 27.7966 8.06071C27.8332 8.0615 27.8689 8.07186 27.9001 8.09071C27.9313 8.10957 27.9569 8.13625 27.9743 8.16806C27.9917 8.19986 28.0002 8.23565 27.9991 8.27178C27.998 8.30792 27.9872 8.34311 27.9678 8.37379L27.1888 9.68535C27.1761 9.7083 27.1586 9.7284 27.1376 9.74438C27.1166 9.76037 27.0925 9.7719 27.0668 9.77826C27.0411 9.78461 27.0143 9.78565 26.9882 9.78131C26.9621 9.77697 26.9371 9.76735 26.9149 9.75304Z" fill="#144F2E"/>
<path d="M18.2765 12.4768C18.0905 12.3532 17.9396 12.1848 17.8381 11.9874C17.7365 11.79 17.6877 11.5702 17.6963 11.3489C17.7049 11.1276 17.7705 10.9122 17.8871 10.723C18.0036 10.5339 18.1671 10.3773 18.3621 10.2683C18.8329 10.0059 19.338 9.7521 19.766 9.55748C20.7333 9.1344 22.1115 8.72824 22.8905 8.51669C23.0772 8.46659 23.2727 8.45729 23.4634 8.48944C23.6541 8.52159 23.8354 8.59441 23.9948 8.70285L25.8096 9.92979C26.1025 10.1262 26.3072 10.4272 26.3806 10.7695C26.454 11.1118 26.3905 11.4689 26.2033 11.766L24.2516 14.8545C24.1536 15.0103 24.0245 15.1447 23.8724 15.2497C23.7202 15.3547 23.548 15.428 23.3663 15.4652C23.1845 15.5024 22.997 15.5027 22.8152 15.466C22.6334 15.4294 22.4609 15.3567 22.3084 15.2522L18.2765 12.4768Z" fill="#144F2E"/>
<path d="M28.9598 8.39797L28.1123 9.85337C28.0461 9.96826 28.0278 10.1042 28.0614 10.2322C28.0949 10.3602 28.1777 10.4702 28.2921 10.5388L29.1224 11.0295C29.1918 11.0702 29.27 11.0941 29.3505 11.0993C29.431 11.1045 29.5116 11.0909 29.5858 11.0596C29.66 11.0283 29.7257 10.9801 29.7775 10.9191C29.8294 10.858 29.866 10.7857 29.8843 10.708L30.3294 8.81259C30.346 8.74511 30.3481 8.67494 30.3355 8.60661C30.323 8.53829 30.2961 8.47332 30.2565 8.41591C30.217 8.3585 30.1657 8.30992 30.106 8.27331C30.0463 8.2367 29.9795 8.21286 29.91 8.20335C29.8648 8.19407 29.819 8.18841 29.773 8.18643C29.6788 8.17796 29.559 8.16104 29.4477 8.14412C29.3499 8.13238 29.2508 8.15039 29.1636 8.19574C29.0765 8.2411 29.0053 8.31164 28.9598 8.39797Z" fill="#144F2E"/>
<path d="M15.5206 12.0708C15.671 11.9576 15.8598 11.9058 16.0479 11.9263C16.2359 11.9467 16.4088 12.0379 16.5307 12.1809C16.6204 12.2859 16.679 12.4133 16.7002 12.5492C16.7213 12.685 16.7041 12.824 16.6505 12.9509L15.0497 16.7248C14.9628 16.93 14.826 17.1108 14.6515 17.2513C14.4769 17.3918 14.2701 17.4876 14.0492 17.5302C13.8283 17.5729 13.6002 17.5611 13.385 17.4959C13.1698 17.4307 12.9742 17.314 12.8155 17.1563L12.5073 16.8517C12.2739 16.6266 12.1326 16.3244 12.1105 16.0028C12.0884 15.6812 12.187 15.3628 12.3875 15.1086C12.8289 14.5508 13.3004 14.0169 13.7999 13.5093C14.3478 13.0006 14.9221 12.5204 15.5206 12.0708Z" fill="#144F2E"/>
<path d="M16.7355 14.2972C16.8092 14.1026 16.9272 13.9273 17.0805 13.785C17.2337 13.6427 17.418 13.5372 17.6192 13.4767C17.8203 13.4161 18.0329 13.4022 18.2403 13.4359C18.4478 13.4696 18.6447 13.5501 18.8156 13.6711L22.1541 16.0573C22.4307 16.257 22.6223 16.5511 22.6919 16.8825C22.7615 17.214 22.7041 17.5592 22.5308 17.8511L21.0926 20.2204C20.9063 20.5275 20.6048 20.7495 20.2537 20.8381L17.9339 21.4135C17.6998 21.4725 17.454 21.4683 17.2221 21.4014C16.9902 21.3344 16.7807 21.2071 16.6156 21.0327L15.46 19.8396C15.28 19.6562 15.1569 19.4256 15.1053 19.1752C15.0538 18.9247 15.0758 18.665 15.1689 18.4265L16.7355 14.2972Z" fill="#CEC7B6"/>
<path d="M18.1152 22.4714C18.0883 22.4448 18.0691 22.4115 18.0595 22.375C18.05 22.3385 18.0505 22.3001 18.061 22.2639C18.0714 22.2277 18.0915 22.1949 18.1191 22.1689C18.1467 22.1429 18.1808 22.1246 18.218 22.116L19.7759 21.7437C19.8167 21.7354 19.8589 21.7387 19.8978 21.7532C19.9367 21.7677 19.9707 21.7927 19.9957 21.8255C20.0208 21.8583 20.036 21.8974 20.0395 21.9383C20.043 21.9792 20.0348 22.0203 20.0156 22.0568L19.3137 23.2838C19.2967 23.3121 19.2734 23.3362 19.2455 23.3542C19.2177 23.3723 19.186 23.3838 19.153 23.3879C19.1199 23.3919 19.0864 23.3885 19.0549 23.3778C19.0234 23.3671 18.9948 23.3494 18.9713 23.3261L18.1152 22.4714Z" fill="#144F2E"/>
<path d="M30.7317 21.2871C30.52 21.1348 30.3569 20.9257 30.2617 20.6847C30.1665 20.4436 30.1432 20.1806 30.1946 19.9268C30.2459 19.6731 30.3698 19.4392 30.5514 19.2528C30.7331 19.0665 30.965 18.9356 31.2197 18.8755L34.7807 18.0293C35.0236 17.9711 35.278 17.9797 35.5163 18.0542C35.7546 18.1287 35.9677 18.2662 36.1326 18.4519C36.2975 18.6375 36.4079 18.8642 36.4518 19.1074C36.4956 19.3507 36.4713 19.6011 36.3815 19.8316L35.3543 22.4971C35.2783 22.691 35.1582 22.865 35.0034 23.0059C34.8487 23.1467 34.6632 23.2505 34.4615 23.3094C34.2597 23.3682 34.047 23.3805 33.8396 23.3453C33.6323 23.3101 33.4359 23.2284 33.2656 23.1063L30.7317 21.2871Z" fill="#144F2E"/>
<path d="M39.6522 13.8316C39.6957 13.7071 39.7702 13.5954 39.8687 13.5067C39.9673 13.418 40.0868 13.3552 40.2163 13.3241C40.3458 13.2929 40.4811 13.2944 40.6099 13.3284C40.7387 13.3624 40.8568 13.4277 40.9533 13.5186C41.8799 14.4018 42.7118 15.3772 43.4358 16.4294C43.8001 16.9795 44.1317 17.5503 44.4288 18.1386C44.7969 18.8579 44.0179 19.5263 43.316 19.1286L39.2841 16.7932C39.11 16.6912 38.9777 16.5318 38.9104 16.3431C38.8431 16.1544 38.8451 15.9483 38.916 15.7609L39.6522 13.8316Z" fill="#144F2E"/>
<path d="M29.815 14.3573C29.863 14.1518 29.959 13.9603 30.0952 13.798C30.2315 13.6357 30.4041 13.5071 30.5995 13.4225C30.7949 13.3378 31.0076 13.2995 31.2207 13.3104C31.4337 13.3214 31.6412 13.3814 31.8266 13.4857L34.4033 14.9496C34.6376 15.0832 34.8267 15.2824 34.9466 15.5221C35.0665 15.7618 35.112 16.0313 35.0772 16.2965C35.0424 16.5616 34.9289 16.8107 34.7511 17.0122C34.5733 17.2138 34.3391 17.3587 34.078 17.4288L30.962 18.2581C30.7331 18.3185 30.4923 18.3195 30.2628 18.2608C30.0334 18.2021 29.8233 18.0859 29.6527 17.9232C29.4822 17.7606 29.3571 17.5572 29.2895 17.3327C29.2219 17.1082 29.2142 16.8702 29.2671 16.6419L29.815 14.3573Z" fill="#144F2E"/>
<path d="M30.9114 9.69451C31.0655 8.97527 31.7675 8.51834 32.4865 8.71296C33.5887 9.00987 34.6627 9.40057 35.6966 9.88067C36.7287 10.3739 37.7142 10.9573 38.6414 11.6238C38.8632 11.7872 39.0238 12.0188 39.0982 12.2821C39.1725 12.5455 39.1564 12.8258 39.0523 13.0792L38.4958 14.5515C38.4257 14.7355 38.3159 14.9022 38.174 15.04C38.032 15.1778 37.8615 15.2834 37.6741 15.3495C37.4867 15.4155 37.287 15.4404 37.0889 15.4224C36.8908 15.4044 36.6991 15.344 36.527 15.2454L31.3309 12.2499C31.0816 12.1056 30.8845 11.8874 30.7678 11.6261C30.651 11.3649 30.6204 11.0739 30.6803 10.7945L30.9114 9.69451Z" fill="#819286"/>
<path d="M26.7518 12.1234C26.8428 11.9678 26.9643 11.8316 27.1091 11.7229C27.254 11.6142 27.4193 11.5351 27.5954 11.4902C27.7715 11.4453 27.9549 11.4355 28.1349 11.4614C28.3148 11.4873 28.4878 11.5484 28.6436 11.6411L28.695 11.6665C28.9441 11.8141 29.1391 12.0366 29.2515 12.3014C29.3639 12.5662 29.3878 12.8596 29.3199 13.1388L28.0016 18.6473C27.9826 18.729 27.9402 18.8036 27.8795 18.8621C27.8187 18.9206 27.7423 18.9606 27.6592 18.9773C27.5972 18.9906 27.5331 18.9907 27.4711 18.9776C27.4091 18.9645 27.3506 18.9384 27.2996 18.9012L25.1253 17.2935C24.8576 17.0948 24.6724 16.8063 24.6046 16.4823C24.5368 16.1582 24.5911 15.8208 24.7572 15.5334L26.7518 12.1234Z" fill="#144F2E"/>
<path d="M20.5112 24.7383C20.2915 24.5223 20.1523 24.239 20.1166 23.9347C20.0808 23.6303 20.1505 23.323 20.3143 23.0629L21.1104 21.7937C21.3007 21.4935 21.6015 21.278 21.9493 21.1929L27.1112 19.9406C27.1901 19.92 27.2731 19.9209 27.3515 19.9433C27.4299 19.9656 27.5007 20.0085 27.5563 20.0675C27.6077 20.1241 27.6446 20.1921 27.664 20.2657C27.6833 20.3393 27.6846 20.4164 27.6676 20.4906L26.2124 26.1853C26.1559 26.4029 26.0458 26.6033 25.892 26.7687C25.7382 26.934 25.5453 27.0592 25.3306 27.133L24.3633 27.463C24.1196 27.5452 23.8576 27.5586 23.6066 27.5018C23.3556 27.445 23.1256 27.3203 22.9423 27.1415L20.5112 24.7383Z" fill="#144F2E"/>
<path d="M23.5923 17.4622C23.6064 17.4361 23.6261 17.4133 23.6499 17.3954C23.6738 17.3774 23.7013 17.3648 23.7306 17.3584C23.7599 17.352 23.7902 17.3519 23.8195 17.3581C23.8488 17.3644 23.8764 17.3768 23.9004 17.3946L26.186 19.0361C26.219 19.0604 26.2443 19.0935 26.2591 19.1314C26.2738 19.1694 26.2773 19.2107 26.2693 19.2506C26.2612 19.2905 26.2419 19.3272 26.2135 19.3567C26.1851 19.3861 26.1489 19.407 26.109 19.4169L22.3852 20.28C22.3446 20.2889 22.3023 20.2859 22.2634 20.2713C22.2244 20.2568 22.1907 20.2314 22.1661 20.1981C22.1416 20.1649 22.1274 20.1254 22.1253 20.0843C22.1231 20.0432 22.1332 20.0024 22.1541 19.9669L23.5923 17.4622Z" fill="#76A58A"/>
<path d="M14.4162 20.3307C14.4293 20.2981 14.4502 20.2691 14.4772 20.2464C14.5043 20.2236 14.5365 20.2078 14.5712 20.2003C14.6059 20.1928 14.6419 20.1938 14.676 20.2032C14.7102 20.2127 14.7415 20.2303 14.7672 20.2546L16.0769 21.5153C16.105 21.5415 16.1252 21.5748 16.1354 21.6116C16.1457 21.6484 16.1455 21.6872 16.1349 21.7239C16.1243 21.7606 16.1037 21.7937 16.0753 21.8196C16.047 21.8455 16.012 21.8632 15.9742 21.8707L13.9968 22.3361C13.9591 22.3452 13.9197 22.3438 13.8828 22.3323C13.8458 22.3208 13.8128 22.2995 13.7872 22.2707C13.7616 22.242 13.7445 22.2068 13.7377 22.1691C13.7309 22.1314 13.7346 22.0926 13.7485 22.0569L14.4162 20.3307Z" fill="#144F2E"/>
<path d="M19.006 24.9077C19.0217 24.8784 19.0439 24.8531 19.0711 24.8336C19.0982 24.8141 19.1295 24.801 19.1625 24.7952C19.1956 24.7895 19.2295 24.7914 19.2617 24.8006C19.2939 24.8098 19.3236 24.8262 19.3484 24.8485L22.4472 27.7847C22.4737 27.81 22.4932 27.8415 22.5039 27.8763C22.5147 27.9111 22.5163 27.948 22.5085 27.9836C22.5008 28.0191 22.4841 28.0522 22.4599 28.0795C22.4357 28.1069 22.4048 28.1278 22.3702 28.1401L16.7803 29.9594C16.7402 29.9726 16.6969 29.9736 16.6561 29.9624C16.6154 29.9512 16.5789 29.9283 16.5513 29.8965C16.5238 29.8648 16.5064 29.8256 16.5015 29.7841C16.4965 29.7425 16.5042 29.7004 16.5235 29.6632L19.006 24.9077Z" fill="#144F2E"/>
<path d="M28.2327 21.1502C28.2521 21.0674 28.2924 20.9908 28.3499 20.9275C28.4073 20.8643 28.4801 20.8165 28.5613 20.7886C28.6426 20.7607 28.7296 20.7536 28.8144 20.768C28.8991 20.7824 28.9788 20.8179 29.046 20.871L32.8895 23.858C32.9611 23.9147 33.0162 23.9892 33.0491 24.0739C33.082 24.1586 33.0915 24.2504 33.0767 24.34C33.0619 24.4295 33.0233 24.5135 32.9648 24.5835C32.9064 24.6534 32.8302 24.7067 32.744 24.738L27.7705 26.4472C27.6832 26.4773 27.5892 26.4835 27.4987 26.4652C27.4081 26.4469 27.3241 26.4048 27.2558 26.3432C27.1874 26.2817 27.1371 26.2031 27.1102 26.1157C27.0832 26.0282 27.0807 25.9352 27.1028 25.8465L28.2327 21.1502Z" fill="#76A58A"/>
<path d="M25.5449 27.708C25.5818 27.6964 25.6213 27.6951 25.6589 27.7042C25.6965 27.7133 25.7308 27.7324 25.7582 27.7595C25.7856 27.7865 25.8049 27.8205 25.8141 27.8577C25.8233 27.8948 25.822 27.9338 25.8103 27.9703L25.485 29.1042C25.4741 29.1394 25.4543 29.1713 25.4275 29.1968C25.4006 29.2223 25.3676 29.2406 25.3315 29.2499C25.2955 29.2592 25.2576 29.2593 25.2216 29.2501C25.1855 29.2409 25.1524 29.2227 25.1255 29.1972L24.3037 28.4018C24.2769 28.3762 24.2573 28.3441 24.2469 28.3087C24.2364 28.2734 24.2355 28.2359 24.2441 28.2C24.2528 28.1642 24.2707 28.1312 24.2961 28.1042C24.3216 28.0773 24.3537 28.0574 24.3893 28.0464L25.5449 27.708Z" fill="#76A58A"/>
<path d="M28.4629 33.7835C28.4992 33.8172 28.5226 33.8622 28.5291 33.911C28.5356 33.9598 28.5248 34.0093 28.4986 34.0511C28.4724 34.093 28.4324 34.1246 28.3853 34.1406C28.3383 34.1565 28.287 34.156 28.2404 34.1389L25.5781 33.1912C25.5286 33.1743 25.4872 33.1399 25.4619 33.0945C25.4365 33.0492 25.4292 32.9962 25.4411 32.9458L25.7408 31.6681C25.7492 31.6312 25.7675 31.5973 25.7938 31.5698C25.8201 31.5424 25.8533 31.5224 25.8901 31.512C25.9269 31.5016 25.9658 31.5012 26.0027 31.5108C26.0397 31.5204 26.0734 31.5396 26.1003 31.5665L28.4629 33.7835Z" fill="#144F2E"/>
<path d="M37.7164 18.5867C37.7856 18.4019 37.8948 18.2343 38.0363 18.0956C38.1779 17.9569 38.3483 17.8504 38.5358 17.7835C38.7233 17.7166 38.9233 17.691 39.1218 17.7084C39.3203 17.7258 39.5126 17.7859 39.6852 17.8843L43.0409 19.7967C43.183 19.877 43.2989 19.9959 43.3747 20.1393C43.4506 20.2827 43.4832 20.4446 43.4688 20.6058C43.4544 20.767 43.3935 20.9208 43.2934 21.0488C43.1933 21.1769 43.0581 21.2738 42.9039 21.3282L38.5125 22.8852C38.2672 22.9719 38.0019 22.9877 37.7478 22.9306C37.4938 22.8735 37.2614 22.746 37.0781 22.563C36.8948 22.38 36.768 22.1491 36.7128 21.8975C36.6575 21.6458 36.6761 21.3837 36.7662 21.1421L37.7164 18.5867Z" fill="#144F2E"/>
<path d="M26.5021 28.2168C26.5533 27.9835 26.6657 27.7677 26.8279 27.5909C26.9902 27.4142 27.1967 27.2828 27.4266 27.2098L31.7153 25.8729C32.811 25.5344 33.8211 26.5921 33.4016 27.6498L31.1931 33.3022C31.0957 33.556 30.9023 33.7623 30.6538 33.8776C30.4562 33.9721 30.2338 34.0033 30.0174 33.9669C29.8011 33.9305 29.6016 33.8283 29.4468 33.6745L26.5705 30.8483C26.4073 30.6871 26.2873 30.4881 26.2216 30.2694C26.1558 30.0507 26.1463 29.8192 26.1939 29.596L26.5021 28.2168Z" fill="#144F2E"/>
<path d="M34.4646 27.1173C34.5413 26.9261 34.6611 26.7547 34.8149 26.6161C34.9687 26.4775 35.1524 26.3754 35.3521 26.3175C35.5518 26.2595 35.7622 26.2474 35.9674 26.2819C36.1726 26.3164 36.3671 26.3966 36.5362 26.5166L38.5307 27.9466C38.7237 28.0853 38.8768 28.2713 38.975 28.4864C39.0731 28.7014 39.1129 28.9379 39.0905 29.1728C39.068 29.4076 38.984 29.6326 38.8469 29.8256C38.7097 30.0186 38.524 30.173 38.3081 30.2735L33.9852 32.2705C33.8295 32.3422 33.6556 32.366 33.4861 32.3387C33.3166 32.3114 33.1593 32.2344 33.0346 32.1176C32.91 32.0007 32.8238 31.8496 32.7872 31.6837C32.7506 31.5178 32.7654 31.3449 32.8296 31.1874L34.4646 27.1173Z" fill="#144F2E"/>
<path d="M37.4861 26.2016C37.2856 26.0537 37.1299 25.8543 37.0359 25.6252C36.9419 25.396 36.9132 25.1458 36.9529 24.9016C36.9926 24.6575 37.0992 24.4287 37.2611 24.2402C37.423 24.0517 37.6341 23.9106 37.8714 23.8323L45.3958 21.37C45.4606 21.3499 45.5296 21.3471 45.5957 21.362C45.6619 21.3768 45.7229 21.4088 45.7725 21.4546C45.8165 21.4965 45.849 21.549 45.8667 21.6069C45.9608 21.9453 46.3032 23.1554 46.4231 23.9677C46.4916 24.4162 46.5429 24.9746 46.5857 25.4316C46.6058 25.6993 46.5438 25.9667 46.4079 26.1991C46.272 26.4316 46.0685 26.6182 45.8239 26.7347L41.9461 28.5624C41.7219 28.6688 41.4725 28.7125 41.225 28.6886C40.9775 28.6647 40.7413 28.5743 40.5422 28.427L37.4861 26.2016Z" fill="#247251"/>
<path d="M8.20985 25.4402C8.23919 25.1717 8.35083 24.9183 8.52982 24.7142C8.70881 24.51 8.94662 24.3648 9.21141 24.2979L11.4028 23.7479C11.4946 23.7242 11.5911 23.7261 11.6818 23.7533C11.7725 23.7806 11.8538 23.8321 11.9167 23.9021C11.9797 23.9722 12.0217 24.0581 12.0383 24.1504C12.0549 24.2427 12.0453 24.3376 12.0106 24.4248L10.5383 28.0887C10.4247 28.367 10.2129 28.595 9.94205 28.7304C9.67123 28.8658 9.35988 28.8994 9.06588 28.8249C8.81103 28.7597 8.58425 28.615 8.41923 28.4123C8.25422 28.2095 8.15978 27.9595 8.14993 27.6995C8.14137 27.3272 8.13281 26.8957 8.13281 26.5487C8.14137 26.2187 8.17561 25.8041 8.20985 25.4402Z" fill="#144F2E"/>
<path d="M12.841 24.0099C12.9176 23.7929 13.049 23.599 13.2228 23.4464C13.3966 23.2939 13.607 23.1878 13.834 23.1383L16.3422 22.5968C16.576 22.5461 16.8192 22.557 17.0476 22.6283C17.2759 22.6995 17.4813 22.8287 17.6433 23.0029L18.097 23.4937C18.2942 23.7055 18.4179 23.974 18.4502 24.26C18.4825 24.5461 18.4218 24.8349 18.2768 25.0845L15.6317 29.5946C15.4773 29.8573 15.238 30.0611 14.9523 30.1731C14.6667 30.2851 14.3511 30.2989 14.0566 30.2123L12.3274 29.7046C12.1488 29.6527 11.9829 29.5653 11.8398 29.4476C11.6967 29.33 11.5794 29.1847 11.4953 29.0207C11.4111 28.8566 11.3617 28.6773 11.3503 28.4936C11.3388 28.31 11.3654 28.1261 11.4286 27.953L12.841 24.0099Z" fill="#76A58A"/>
<path d="M10.3504 18.2567C10.7613 17.4782 11.797 17.3513 12.4305 17.9605L13.2865 18.7982C13.4769 18.984 13.6077 19.2212 13.6625 19.48C13.7173 19.7389 13.6937 20.008 13.5947 20.2537L12.8671 22.0898C12.7868 22.2934 12.6575 22.4745 12.4905 22.6175C12.3234 22.7606 12.1236 22.8612 11.9083 22.9106L10.513 23.2322C9.53713 23.4606 8.66398 22.606 8.94647 21.6583C9.10056 21.1591 9.27176 20.626 9.46865 20.1267C9.73402 19.4921 10.0507 18.8236 10.3504 18.2567Z" fill="#144F2E"/>
<path d="M15.247 32.439C15.3942 32.1854 15.6205 31.9856 15.8921 31.8697C16.1637 31.7538 16.4659 31.7279 16.7536 31.7959L23.2423 33.3529C23.5962 33.4386 23.9012 33.6596 24.0906 33.9673C24.2799 34.275 24.3381 34.6444 24.2524 34.9944L23.9357 36.2468C23.8892 36.4335 23.8024 36.608 23.6812 36.7585C23.56 36.9089 23.4074 37.0316 23.2338 37.1183L15.5552 41.0191C15.3045 41.1492 15.0185 41.1972 14.7385 41.1561C14.4585 41.1151 14.1989 40.9871 13.9972 40.7907C13.6805 40.4776 13.3038 40.0968 13.0213 39.7837C12.833 39.5722 12.6276 39.3522 12.4478 39.1576C12.2474 38.9426 12.1211 38.6702 12.0873 38.3798C12.0535 38.0894 12.1137 37.7958 12.2595 37.5414L15.247 32.439Z" fill="#144F2E"/>
<path d="M10.5456 30.2044C10.5646 30.1553 10.6015 30.115 10.649 30.0915C10.6966 30.068 10.7513 30.063 10.8024 30.0775L13.3448 30.7882C13.3887 30.8011 13.4273 30.8274 13.455 30.8633C13.4827 30.8993 13.4982 30.943 13.4992 30.9882C13.5001 31.0334 13.4865 31.0778 13.4603 31.1148C13.4341 31.1519 13.3967 31.1797 13.3534 31.1944L10.1518 32.2183C10.1133 32.2297 10.0723 32.2303 10.0334 32.2199C9.99452 32.2096 9.95933 32.1888 9.93177 32.1598C9.90421 32.1308 9.88537 32.0948 9.87737 32.0558C9.86937 32.0168 9.87252 31.9763 9.88646 31.939L10.5456 30.2044Z" fill="#144F2E"/>
<path d="M9.22847 33.4706C9.21788 33.4451 9.21258 33.4177 9.2129 33.3901C9.21322 33.3626 9.21915 33.3353 9.23033 33.3101C9.24151 33.2848 9.25772 33.262 9.27799 33.2431C9.29826 33.2241 9.32217 33.2094 9.34832 33.1998L14.3304 31.3636C14.3725 31.349 14.4182 31.3476 14.4611 31.3597C14.5041 31.3717 14.5422 31.3965 14.5703 31.4308C14.5984 31.4651 14.6151 31.5071 14.6181 31.5511C14.6212 31.5951 14.6104 31.639 14.5872 31.6767L11.2829 36.9991C11.2634 37.0304 11.2359 37.0562 11.2032 37.0738C11.1705 37.0914 11.1337 37.1002 11.0964 37.0993C11.0592 37.0985 11.0228 37.088 10.991 37.0689C10.9591 37.0498 10.9329 37.0229 10.9149 36.9906C10.7436 36.6945 10.4954 36.246 10.3071 35.8991C9.89617 35.1206 9.4168 33.936 9.22847 33.4706Z" fill="#144F2E"/>
<path d="M8.33733 29.7053C8.33339 29.673 8.33786 29.6402 8.35033 29.6101C8.36279 29.5799 8.38283 29.5535 8.40854 29.5331C8.43426 29.5128 8.46481 29.4993 8.49729 29.4939C8.52976 29.4885 8.5631 29.4913 8.59413 29.5022L9.9381 29.9084C9.96555 29.9166 9.99103 29.9302 10.013 29.9485C10.0349 29.9667 10.0528 29.9892 10.0656 30.0146C10.0785 30.0399 10.0859 30.0676 10.0875 30.0959C10.0892 30.1242 10.0849 30.1525 10.0751 30.1792L9.39024 32.2184C9.37775 32.2603 9.35176 32.2971 9.31623 32.323C9.28069 32.349 9.23754 32.3628 9.19336 32.3623L9.07351 32.3707C9.02391 32.3755 8.9743 32.3616 8.93462 32.3318C8.89494 32.302 8.86811 32.2585 8.8595 32.21C8.79958 31.99 8.69686 31.5753 8.6027 31.1523C8.47828 30.6771 8.38958 30.1934 8.33733 29.7053Z" fill="#144F2E"/>
<path d="M17.0865 43.1771C16.2219 42.6102 16.3588 41.3578 17.3005 40.9348L21.4094 39.0901C21.6458 38.9834 21.9079 38.9454 22.1653 38.9804C22.4227 39.0155 22.6647 39.1222 22.8631 39.2881C23.0614 39.454 23.2079 39.6723 23.2855 39.9174C23.3631 40.1625 23.3686 40.4244 23.3012 40.6724L22.9759 41.874L22.4794 43.9894C22.4431 44.1616 22.3709 44.3244 22.2675 44.4675C22.1641 44.6107 22.0318 44.731 21.8789 44.8209C21.7259 44.9108 21.5558 44.9683 21.3792 44.9898C21.2026 45.0113 21.0234 44.9962 20.853 44.9456C20.0806 44.7138 19.3278 44.4224 18.6016 44.074C18.1394 43.8371 17.6001 43.5071 17.0865 43.1771Z" fill="#CEC7B6"/>
<path d="M25.201 34.1053C25.2174 34.0513 25.254 34.0055 25.3033 33.9772C25.3525 33.949 25.4109 33.9403 25.4664 33.953L28.1115 34.6722C28.1534 34.6844 28.1906 34.7087 28.2183 34.7422C28.2459 34.7756 28.2627 34.8165 28.2664 34.8595C28.2701 34.9025 28.2605 34.9456 28.239 34.9831C28.2175 35.0207 28.185 35.0509 28.1458 35.0699L24.91 36.5761C24.8731 36.5933 24.8319 36.5997 24.7914 36.5947C24.7509 36.5896 24.7127 36.5733 24.6813 36.5475C24.6499 36.5218 24.6265 36.4877 24.6139 36.4493C24.6014 36.4109 24.6001 36.3698 24.6104 36.3307L25.201 34.1053Z" fill="#76A58A"/>
<path d="M17.711 31.3207C17.6003 31.296 17.5009 31.2357 17.4285 31.1493C17.3562 31.0628 17.3148 30.9551 17.3109 30.843C17.3069 30.7308 17.3407 30.6206 17.4069 30.5294C17.4731 30.4383 17.568 30.3714 17.6767 30.3392L22.5989 28.8922C22.8245 28.8257 23.0637 28.818 23.2932 28.8699C23.5227 28.9218 23.7347 29.0315 23.9086 29.1884L24.7903 29.9753C24.9717 30.1356 25.1063 30.3411 25.18 30.5702C25.2538 30.7994 25.2641 31.044 25.2098 31.2784L25.1413 31.5661C25.1028 31.7401 25.0299 31.905 24.9268 32.0511C24.8237 32.1972 24.6925 32.3218 24.5406 32.4177C24.3887 32.5136 24.2191 32.579 24.0417 32.61C23.8642 32.641 23.6822 32.6371 23.5063 32.5984L17.711 31.3207Z" fill="#144F2E"/>
<path d="M24.5437 38.2277C24.5922 38.0339 24.6833 37.8531 24.8105 37.6981C24.9378 37.543 25.098 37.4176 25.2798 37.3308L29.2946 35.4269C29.4045 35.3743 29.5265 35.3514 29.6482 35.3603C29.7699 35.3692 29.8871 35.4097 29.988 35.4776C30.1213 35.5652 30.2204 35.6951 30.2687 35.846C30.3169 35.9968 30.3115 36.1595 30.2534 36.3069L26.7864 45.2255C26.6929 45.4813 26.5181 45.7003 26.2882 45.8497C26.0583 45.9992 25.7856 46.0711 25.511 46.0547C25.2199 46.0293 24.8946 45.9955 24.5693 45.9447C24.3125 45.9024 24.0814 45.8601 23.8759 45.8093C23.2082 45.657 22.8573 44.9886 23.0199 44.337L24.5437 38.2277Z" fill="#144F2E"/>
<path d="M30.4917 37.9983C30.5758 37.7886 30.7116 37.6031 30.8866 37.4585C31.0617 37.3139 31.2706 37.2148 31.4943 37.1702C31.7179 37.1257 31.9493 37.1371 32.1674 37.2034C32.3855 37.2696 32.5833 37.3887 32.743 37.5498L37.0745 41.9245C37.6738 42.5253 37.5625 43.5068 36.8006 43.896C34.4504 45.129 31.8626 45.8558 29.2076 46.0284C28.266 46.1045 27.6325 45.1738 27.9749 44.3022L30.4917 37.9983Z" fill="#144F2E"/>
<path d="M33.4449 37.2192C33.0596 36.8554 33.4192 36.2208 33.9328 36.3646L41.5343 38.4039C42.0479 38.5393 42.3989 38.9793 42.1764 39.4531C41.9837 39.8333 41.7325 40.1815 41.4316 40.4854C40.9522 40.9931 40.4386 41.467 40.0192 41.8308C39.7735 42.039 39.4577 42.1483 39.1343 42.1374C38.811 42.1264 38.5035 41.9959 38.2729 41.7716L33.4449 37.2192Z" fill="#144F2E"/>
<path d="M31.9827 34.9347C31.9248 34.9196 31.8707 34.8926 31.824 34.8555C31.7773 34.8185 31.739 34.7721 31.7116 34.7195C31.6841 34.6668 31.6682 34.6091 31.6648 34.5499C31.6613 34.4908 31.6705 34.4317 31.6917 34.3763C31.7345 34.2734 31.8136 34.1892 31.9142 34.1393L40.4317 30.1454C40.6592 30.0385 40.912 29.9954 41.1626 30.0207C41.4132 30.0461 41.6519 30.139 41.8527 30.2893L44.9002 32.5909C45.1274 32.756 45.2932 32.9905 45.3721 33.2582C45.451 33.5258 45.4386 33.8117 45.3368 34.0716C45.1655 34.5117 44.9344 35.0701 44.6519 35.6371C44.3826 36.1841 44.0766 36.7127 43.736 37.2194C43.585 37.4432 43.366 37.6137 43.1106 37.7065C42.8552 37.7993 42.5766 37.8094 42.315 37.7355L31.9827 34.9347Z" fill="#144F2E"/>
<path d="M43.0762 30.281C42.9586 30.1942 42.8656 30.079 42.806 29.9464C42.7465 29.8138 42.7224 29.6682 42.7362 29.5238C42.7499 29.3794 42.801 29.2408 42.8846 29.1215C42.9681 29.0022 43.0813 28.9062 43.2132 28.8426L45.3961 27.7933C45.5285 27.7283 45.676 27.6992 45.8236 27.7088C45.9711 27.7185 46.1134 27.7666 46.2361 27.8483C46.3587 27.9299 46.4572 28.0423 46.5217 28.1738C46.5862 28.3054 46.6142 28.4514 46.6031 28.5972C46.5688 29.0287 46.526 29.4772 46.4747 29.8495C46.4147 30.2472 46.3206 30.7295 46.2178 31.1611C46.1865 31.2943 46.1218 31.4176 46.0298 31.5198C45.9378 31.622 45.8214 31.6998 45.6911 31.7461C45.5609 31.7924 45.421 31.8057 45.2842 31.7848C45.1474 31.7639 45.0181 31.7094 44.9081 31.6264L43.0762 30.281Z" fill="#144F2E"/>
<path fill-rule="evenodd" clip-rule="evenodd" d="M49.428 31.4904C49.4082 31.5826 49.37 31.6699 49.3156 31.7473C49.2611 31.8247 49.1916 31.8905 49.1111 31.941C49.0305 31.9914 48.9406 32.0255 48.8465 32.0411C48.7525 32.0567 48.6562 32.0536 48.5635 32.0319L47.9043 31.8796C47.7153 31.834 47.5516 31.7177 47.4478 31.555C47.344 31.3924 47.3082 31.1963 47.3479 31.008C47.6069 29.715 47.7359 28.3999 47.7331 27.0818C47.7317 25.7639 47.6027 24.4492 47.3479 23.1556C47.3093 22.9675 47.3456 22.7718 47.4492 22.6095C47.5529 22.4471 47.7159 22.3306 47.9043 22.2841L48.5635 22.1317C48.6563 22.1097 48.7526 22.1063 48.8468 22.1218C48.9409 22.1372 49.031 22.1712 49.1116 22.2217C49.1923 22.2722 49.2618 22.3382 49.3162 22.4158C49.3705 22.4934 49.4086 22.5809 49.428 22.6733C50.0216 25.583 50.0216 28.5806 49.428 31.4904ZM48.7175 20.0417C48.7474 20.1311 48.7587 20.2256 48.7506 20.3194C48.7425 20.4132 48.7152 20.5044 48.6703 20.5874C48.6255 20.6705 48.5641 20.7437 48.4898 20.8026C48.4155 20.8616 48.3299 20.9049 48.2382 20.9302L47.5876 21.1163C47.4014 21.1689 47.2019 21.1479 47.0311 21.058C46.8602 20.968 46.7314 20.816 46.6716 20.634C45.8137 18.1274 44.4639 15.8127 42.6997 13.8224C42.5715 13.6777 42.5045 13.4899 42.5124 13.2978C42.5204 13.1056 42.6027 12.9239 42.7425 12.7901L43.2304 12.3416C43.2995 12.2771 43.3809 12.2269 43.47 12.194C43.559 12.1612 43.6538 12.1463 43.7488 12.1502C43.8437 12.1541 43.9369 12.1769 44.0228 12.217C44.1088 12.2571 44.1857 12.3139 44.2491 12.3839C46.2445 14.6134 47.7643 17.218 48.7175 20.0417ZM42.3059 10.4631C42.3763 10.5271 42.4331 10.6044 42.473 10.6903C42.5129 10.7763 42.5351 10.8692 42.5383 10.9637C42.5415 11.0582 42.5256 11.1524 42.4916 11.2408C42.4575 11.3292 42.4061 11.41 42.3401 11.4785L41.8779 11.9608C41.7431 12.0977 41.56 12.1777 41.3669 12.1841C41.1737 12.1904 40.9857 12.1225 40.8421 11.9947C38.8301 10.2381 36.4847 8.89483 33.9425 8.04307C33.7575 7.98306 33.6037 7.85375 33.514 7.68289C33.4244 7.51203 33.4061 7.31324 33.4631 7.12921L33.66 6.50304C33.6867 6.41324 33.7313 6.32966 33.7914 6.25729C33.8514 6.18492 33.9256 6.12524 34.0095 6.08182C34.0934 6.03839 34.1852 6.01209 34.2796 6.00451C34.374 5.99692 34.4689 6.00819 34.5588 6.03765C37.4186 6.97704 40.0546 8.48285 42.3059 10.4631ZM31.888 5.31841C31.9813 5.33755 32.0696 5.37518 32.1478 5.42903C32.2259 5.48288 32.2922 5.55183 32.3426 5.63171C32.393 5.71159 32.4265 5.80075 32.441 5.89379C32.4556 5.98684 32.4509 6.08183 32.4273 6.17304L32.2732 6.81613C32.2272 7.00252 32.1091 7.16365 31.9443 7.26491C31.7794 7.36616 31.5809 7.39947 31.3915 7.35767C28.7523 6.83868 26.0354 6.83868 23.3962 7.35767C23.207 7.39596 23.0102 7.36116 22.8463 7.26044C22.6823 7.15971 22.5635 7.00071 22.5145 6.81613L22.3604 6.17304C22.3368 6.08183 22.3321 5.98684 22.3467 5.89379C22.3612 5.80075 22.3947 5.71159 22.4451 5.63171C22.4955 5.55183 22.5618 5.48288 22.6399 5.42903C22.7181 5.37518 22.8064 5.33755 22.8997 5.31841C24.3765 5.02549 25.8791 4.8781 27.3853 4.8784C28.8977 4.86842 30.4069 5.0159 31.888 5.31841ZM20.246 6.02073C20.3359 5.99175 20.4307 5.98085 20.525 5.98866C20.6192 5.99647 20.7109 6.02283 20.7946 6.0662C20.8784 6.10956 20.9525 6.16906 21.0127 6.24118C21.0728 6.31329 21.1177 6.39658 21.1448 6.48612L21.3417 7.11229C21.3958 7.29632 21.3762 7.49386 21.2869 7.66399C21.1977 7.83411 21.0457 7.96379 20.8623 8.02615C18.3216 8.88125 15.9768 10.2242 13.9628 11.9777C13.8192 12.1056 13.6311 12.1734 13.438 12.1671C13.2448 12.1608 13.0617 12.0808 12.927 11.9439L12.4647 11.4616C12.3979 11.3935 12.3457 11.3128 12.3111 11.2244C12.2766 11.1359 12.2604 11.0415 12.2636 10.9467C12.2668 10.8519 12.2893 10.7587 12.3297 10.6728C12.3701 10.5868 12.4277 10.5097 12.4989 10.4462C14.7614 8.48137 17.3941 6.97746 20.246 6.02073ZM10.5472 12.3924C10.6106 12.3224 10.6875 12.2656 10.7734 12.2255C10.8593 12.1853 10.9525 12.1626 11.0475 12.1587C11.1425 12.1547 11.2372 12.1696 11.3263 12.2025C11.4153 12.2354 11.4968 12.2855 11.5659 12.3501L12.0538 12.7985C12.1954 12.9313 12.2792 13.1133 12.2871 13.3061C12.2951 13.4989 12.2268 13.6871 12.0966 13.8309C10.338 15.8237 8.9915 18.1378 8.13319 20.6425C8.07199 20.8235 7.9429 20.9744 7.77249 21.0642C7.60209 21.1539 7.40336 21.1756 7.21724 21.1248L6.56666 20.9387C6.47517 20.913 6.38986 20.8693 6.31583 20.8103C6.2418 20.7513 6.18058 20.6781 6.13582 20.5952C6.09107 20.5122 6.0637 20.4212 6.05536 20.3276C6.04702 20.2339 6.05788 20.1396 6.08728 20.0502C7.03687 17.2267 8.55386 14.6219 10.5472 12.3924ZM6.24137 22.1402C6.14855 22.1182 6.0522 22.1148 5.95804 22.1302C5.86387 22.1457 5.77381 22.1797 5.69318 22.2302C5.61254 22.2807 5.54299 22.3467 5.48864 22.4243C5.43429 22.5018 5.39625 22.5894 5.37678 22.6818C4.78326 25.5915 4.78326 28.5891 5.37678 31.4988C5.39658 31.591 5.43482 31.6784 5.48926 31.7558C5.54369 31.8331 5.61323 31.899 5.69377 31.9495C5.77432 31.9999 5.86425 32.0339 5.95829 32.0495C6.05232 32.0652 6.14857 32.062 6.24137 32.0404L6.90051 31.8881C7.08951 31.8425 7.2532 31.7261 7.35702 31.5635C7.46084 31.4009 7.49667 31.2047 7.45693 31.0165C7.19792 29.7235 7.06889 28.4084 7.07172 27.0903C7.07315 25.7724 7.20214 24.4577 7.45693 23.1641C7.49556 22.9759 7.45927 22.7803 7.35562 22.6179C7.25197 22.4556 7.08895 22.339 6.90051 22.2925L6.24137 22.1402ZM6.08728 34.1219C6.05738 34.0325 6.04614 33.9381 6.05425 33.8443C6.06236 33.7505 6.08966 33.6593 6.13448 33.5762C6.1793 33.4931 6.24071 33.4199 6.315 33.361C6.38929 33.3021 6.4749 33.2587 6.56666 33.2335L7.21724 33.0473C7.40338 32.9948 7.60288 33.0157 7.77373 33.1057C7.94457 33.1956 8.07344 33.3476 8.13319 33.5296C8.99116 36.0363 10.3409 38.351 12.1052 40.3413C12.2333 40.4859 12.3004 40.6737 12.2924 40.8659C12.2844 41.058 12.2021 41.2398 12.0624 41.3736L11.5744 41.822C11.5053 41.8866 11.4239 41.9367 11.3348 41.9696C11.2458 42.0025 11.151 42.0174 11.0561 42.0135C10.9611 42.0095 10.8679 41.9868 10.782 41.9467C10.696 41.9065 10.6191 41.8498 10.5558 41.7797C8.55855 39.5515 7.03852 36.9465 6.08728 34.1219ZM12.4989 43.7005C12.4285 43.6365 12.3717 43.5593 12.3318 43.4733C12.2919 43.3874 12.2697 43.2944 12.2666 43.1999C12.2634 43.1054 12.2792 43.0112 12.3133 42.9228C12.3473 42.8345 12.3988 42.7537 12.4647 42.6851L12.927 42.2028C13.0617 42.0659 13.2448 41.9859 13.438 41.9796C13.6311 41.9733 13.8192 42.0412 13.9628 42.169C15.9747 43.9255 18.3201 45.2688 20.8623 46.1206C21.0473 46.1806 21.2012 46.3099 21.2908 46.4808C21.3804 46.6516 21.3987 46.8504 21.3417 47.0344L21.1448 47.6606C21.1182 47.7504 21.0735 47.834 21.0134 47.9064C20.9534 47.9787 20.8792 48.0384 20.7953 48.0818C20.7115 48.1253 20.6196 48.1516 20.5252 48.1591C20.4308 48.1667 20.3359 48.1555 20.246 48.126C17.385 47.1894 14.7484 45.6833 12.4989 43.7005ZM22.9168 48.8537C22.8236 48.8346 22.7352 48.7969 22.6571 48.7431C22.5789 48.6892 22.5127 48.6203 22.4622 48.5404C22.4118 48.4605 22.3783 48.3714 22.3638 48.2783C22.3492 48.1853 22.3539 48.0903 22.3775 47.9991L22.5316 47.356C22.5776 47.1696 22.6957 47.0085 22.8606 46.9072C23.0254 46.8059 23.2239 46.7726 23.4133 46.8144C26.0526 47.3334 28.7694 47.3334 31.4086 46.8144C31.5978 46.7761 31.7946 46.8109 31.9586 46.9117C32.1226 47.0124 32.2413 47.1714 32.2903 47.356L32.4444 47.9991C32.4681 48.0903 32.4727 48.1853 32.4582 48.2783C32.4436 48.3714 32.4101 48.4605 32.3597 48.5404C32.3093 48.6203 32.243 48.6892 32.1649 48.7431C32.0868 48.7969 31.9984 48.8346 31.9051 48.8537C28.9384 49.4404 25.8835 49.4404 22.9168 48.8537ZM34.5588 48.1429C34.4689 48.1719 34.3741 48.1828 34.2799 48.175C34.1856 48.1672 34.0939 48.1408 34.0102 48.0975C33.9264 48.0541 33.8523 47.9946 33.7922 47.9225C33.732 47.8504 33.6871 47.7671 33.66 47.6775L33.4631 47.0514C33.409 46.8673 33.4286 46.6698 33.5179 46.4997C33.6071 46.3295 33.7592 46.1999 33.9425 46.1375C36.4832 45.2824 38.828 43.9395 40.8421 42.1859C40.9857 42.0581 41.1737 41.9902 41.3669 41.9965C41.56 42.0028 41.7431 42.0828 41.8779 42.2197L42.3401 42.7021C42.4069 42.7701 42.4592 42.8508 42.4937 42.9393C42.5283 43.0277 42.5444 43.1222 42.5412 43.217C42.538 43.3117 42.5155 43.4049 42.4751 43.4909C42.4347 43.5769 42.3771 43.6539 42.3059 43.7175C40.0503 45.6917 37.4155 47.1968 34.5588 48.1429ZM44.2576 41.7713C44.1943 41.8413 44.1173 41.8981 44.0314 41.9382C43.9455 41.9783 43.8523 42.001 43.7573 42.005C43.6624 42.0089 43.5676 41.994 43.4785 41.9612C43.3895 41.9283 43.308 41.8781 43.2389 41.8136L42.751 41.3651C42.6094 41.2324 42.5257 41.0503 42.5177 40.8575C42.5097 40.6648 42.578 40.4765 42.7082 40.3328C44.4742 38.3438 45.8242 36.0287 46.6802 33.5212C46.7414 33.3401 46.8705 33.1892 47.0409 33.0995C47.2113 33.0098 47.41 32.9881 47.5961 33.0388L48.2467 33.225C48.3382 33.2507 48.4235 33.2943 48.4976 33.3533C48.5716 33.4123 48.6328 33.4855 48.6776 33.5685C48.7223 33.6514 48.7497 33.7424 48.758 33.8361C48.7664 33.9297 48.7555 34.0241 48.7261 34.1135C47.772 36.9368 46.2523 39.5412 44.2576 41.7713Z" fill="#144F2E"/>
<path d="M27.4796 2.24681L28.5838 1.08756C28.5922 1.07658 28.5967 1.06321 28.5967 1.04948C28.5967 1.03575 28.5922 1.02239 28.5838 1.01141L27.4453 0.0129283C27.4359 0.00460275 27.4237 0 27.4111 0C27.3984 0 27.3863 0.00460275 27.3768 0.0129283L26.2811 0.969097C26.2751 0.973504 26.2702 0.979244 26.2668 0.985857C26.2635 0.99247 26.2617 0.99977 26.2617 1.00717C26.2617 1.01458 26.2635 1.02188 26.2668 1.02849C26.2702 1.03511 26.2751 1.04085 26.2811 1.04525L27.4196 2.24681C27.4282 2.26373 27.4624 2.26373 27.4796 2.24681Z" fill="#144F2E"/>
<path d="M27.1278 2.66937L25.8523 1.43397C25.8473 1.4289 25.8413 1.42488 25.8347 1.42213C25.8281 1.41938 25.821 1.41797 25.8138 1.41797C25.8066 1.41797 25.7995 1.41938 25.7929 1.42213C25.7863 1.42488 25.7803 1.4289 25.7753 1.43397L22.4795 4.06555C22.4539 4.08247 22.4881 4.18401 22.5309 4.2517C22.5501 4.27488 22.5757 4.29203 22.6046 4.30104C22.6335 4.31006 22.6644 4.31056 22.6936 4.30247C22.9932 4.2517 23.9605 4.08247 24.7994 3.96401C25.2103 3.90478 25.6725 3.87093 26.0834 3.85401C26.6655 3.82862 27.1535 3.36323 27.1363 2.78784C27.1363 2.71168 27.1363 2.66937 27.1278 2.66937Z" fill="#144F2E"/>
<path d="M27.675 2.6531L28.9505 1.42616C28.9555 1.42109 28.9615 1.41707 28.9681 1.41432C28.9747 1.41157 28.9818 1.41016 28.989 1.41016C28.9962 1.41016 29.0033 1.41157 29.0099 1.41432C29.0165 1.41707 29.0225 1.42109 29.0275 1.42616L32.3233 4.05774C32.3489 4.07466 32.3147 4.1762 32.2719 4.24389C32.2527 4.26707 32.2271 4.28421 32.1982 4.29323C32.1693 4.30225 32.1384 4.30275 32.1092 4.29466C31.8096 4.24389 30.8423 4.07466 30.0034 3.9562C29.5925 3.89696 29.1303 3.86312 28.7194 3.84619C28.1373 3.82081 27.6493 3.35542 27.6665 2.78002C27.6666 2.73758 27.6695 2.69519 27.675 2.6531Z" fill="#144F2E"/>
<path d="M2.2769 27.0056L1.10414 25.9141C1.09303 25.9058 1.07951 25.9014 1.06562 25.9014C1.05173 25.9014 1.03821 25.9058 1.0271 25.9141L0.0169852 27.0395C0.00856264 27.0488 0.00390625 27.0608 0.00390625 27.0733C0.00390625 27.0858 0.00856264 27.0978 0.0169852 27.1072L0.984298 28.1903C0.988757 28.1962 0.994564 28.201 1.00125 28.2044C1.00794 28.2077 1.01533 28.2094 1.02282 28.2094C1.03031 28.2094 1.0377 28.2077 1.04439 28.2044C1.05108 28.201 1.05688 28.1962 1.06134 28.1903L2.2769 27.0648C2.29402 27.0564 2.29402 27.0225 2.2769 27.0056Z" fill="#144F2E"/>
<path d="M2.70544 27.3536L1.45564 28.6144C1.45052 28.6194 1.44644 28.6253 1.44366 28.6318C1.44088 28.6384 1.43945 28.6454 1.43945 28.6525C1.43945 28.6596 1.44088 28.6666 1.44366 28.6731C1.44644 28.6797 1.45052 28.6856 1.45564 28.6906L4.11789 31.9483C4.13501 31.9737 4.23774 31.9398 4.30622 31.8975C4.32966 31.8786 4.34701 31.8533 4.35613 31.8247C4.36525 31.7962 4.36576 31.7656 4.35758 31.7368C4.30622 31.4406 4.13501 30.4844 4.01517 29.6552C3.95524 29.249 3.921 28.7921 3.90388 28.3859C3.8782 27.8105 3.40739 27.3282 2.82529 27.3452C2.78516 27.3445 2.74506 27.3473 2.70544 27.3536Z" fill="#144F2E"/>
<path d="M2.69568 26.8105L1.44587 25.5497C1.44075 25.5447 1.43668 25.5388 1.4339 25.5322C1.43112 25.5257 1.42969 25.5187 1.42969 25.5116C1.42969 25.5045 1.43112 25.4975 1.4339 25.4909C1.43668 25.4844 1.44075 25.4785 1.44587 25.4735L4.10812 22.2158C4.13381 22.1904 4.22797 22.2242 4.29645 22.2665C4.3199 22.2855 4.33724 22.3108 4.34637 22.3394C4.35549 22.3679 4.35599 22.3985 4.34781 22.4273C4.29645 22.7235 4.12525 23.6796 4.0054 24.5089C3.94548 24.915 3.91124 25.372 3.89412 25.7781C3.86844 26.3535 3.39762 26.8358 2.81552 26.8189C2.73848 26.8189 2.69568 26.8189 2.69568 26.8105Z" fill="#144F2E"/>
<path d="M27.3242 51.9003L26.2199 53.0596C26.2115 53.0706 26.207 53.0839 26.207 53.0977C26.207 53.1114 26.2115 53.1248 26.2199 53.1357L27.3584 54.1342C27.3678 54.1425 27.38 54.1471 27.3926 54.1471C27.4053 54.1471 27.4175 54.1425 27.4269 54.1342L28.5226 53.1781C28.5286 53.1736 28.5335 53.1679 28.5369 53.1613C28.5402 53.1547 28.542 53.1474 28.542 53.14C28.542 53.1326 28.5402 53.1253 28.5369 53.1187C28.5335 53.112 28.5286 53.1063 28.5226 53.1019L27.3926 51.9003C27.3831 51.8922 27.371 51.8877 27.3584 51.8877C27.3458 51.8877 27.3337 51.8922 27.3242 51.9003Z" fill="#144F2E"/>
<path d="M27.675 51.4774L28.9505 52.7043C28.9555 52.7094 28.9615 52.7134 28.9681 52.7161C28.9747 52.7189 28.9818 52.7203 28.989 52.7203C28.9962 52.7203 29.0033 52.7189 29.0099 52.7161C29.0165 52.7134 29.0225 52.7094 29.0275 52.7043L32.3233 50.0727C32.3489 50.0558 32.3147 49.9543 32.2719 49.8866C32.2527 49.8634 32.2271 49.8462 32.1982 49.8372C32.1693 49.8282 32.1384 49.8277 32.1092 49.8358C31.8096 49.8866 30.8423 50.0558 30.0034 50.1743C29.5925 50.2335 29.1303 50.2673 28.7194 50.2843C28.1373 50.3096 27.6493 50.775 27.6665 51.3504C27.6655 51.3929 27.6684 51.4354 27.675 51.4774Z" fill="#144F2E"/>
<path d="M27.1278 51.4949L25.8523 52.7219C25.8473 52.7269 25.8413 52.731 25.8347 52.7337C25.8281 52.7365 25.821 52.7379 25.8138 52.7379C25.8066 52.7379 25.7995 52.7365 25.7929 52.7337C25.7863 52.731 25.7803 52.7269 25.7753 52.7219L22.4795 50.0903C22.4539 50.0734 22.4881 49.9718 22.5309 49.9041C22.5501 49.881 22.5757 49.8638 22.6046 49.8548C22.6335 49.8458 22.6644 49.8453 22.6936 49.8534C22.9932 49.9041 23.9605 50.0734 24.7994 50.1918C25.2103 50.2511 25.6725 50.2849 26.0834 50.3018C26.6655 50.3272 27.1535 50.7926 27.1363 51.368C27.1412 51.4105 27.1383 51.4535 27.1278 51.4949Z" fill="#144F2E"/>
<path d="M52.5089 27.1579L53.6817 28.2495C53.6928 28.2577 53.7063 28.2622 53.7202 28.2622C53.7341 28.2622 53.7476 28.2577 53.7587 28.2495L54.7688 27.1241C54.7773 27.1148 54.7819 27.1027 54.7819 27.0902C54.7819 27.0777 54.7773 27.0657 54.7688 27.0564L53.8015 25.9733C53.7971 25.9673 53.7913 25.9625 53.7846 25.9592C53.7779 25.9558 53.7705 25.9541 53.763 25.9541C53.7555 25.9541 53.7481 25.9558 53.7414 25.9592C53.7348 25.9625 53.7289 25.9673 53.7245 25.9733L52.5089 27.0987C52.4918 27.1071 52.4918 27.141 52.5089 27.1579Z" fill="#144F2E"/>
<path d="M52.0798 26.8105L53.3296 25.5497C53.3347 25.5447 53.3388 25.5388 53.3416 25.5322C53.3444 25.5257 53.3458 25.5187 53.3458 25.5116C53.3458 25.5045 53.3444 25.4975 53.3416 25.4909C53.3388 25.4844 53.3347 25.4785 53.3296 25.4735L50.6674 22.2158C50.6502 22.1904 50.5475 22.2242 50.479 22.2665C50.4556 22.2855 50.4382 22.3108 50.4291 22.3394C50.42 22.3679 50.4195 22.3985 50.4277 22.4273C50.479 22.7235 50.6502 23.6796 50.7701 24.5089C50.83 24.915 50.8642 25.372 50.8814 25.7781C50.907 26.3535 51.3779 26.8358 51.96 26.8189C52.037 26.8189 52.0798 26.8189 52.0798 26.8105Z" fill="#144F2E"/>
<path d="M52.0981 27.3536L53.3394 28.6144C53.3445 28.6194 53.3486 28.6253 53.3513 28.6318C53.3541 28.6384 53.3555 28.6454 53.3555 28.6525C53.3555 28.6596 53.3541 28.6666 53.3513 28.6731C53.3486 28.6797 53.3445 28.6856 53.3394 28.6906L50.6771 31.9483C50.66 31.9737 50.5573 31.9398 50.4888 31.8975C50.4653 31.8786 50.448 31.8533 50.4389 31.8247C50.4298 31.7962 50.4292 31.7656 50.4374 31.7368C50.4888 31.4406 50.66 30.4844 50.7798 29.6552C50.8398 29.249 50.874 28.7921 50.8911 28.3859C50.9168 27.8105 51.3876 27.3282 51.9697 27.3452C52.0127 27.3453 52.0555 27.3481 52.0981 27.3536Z" fill="#144F2E"/>
<path d="M71.2946 18L71.1919 21.6808H70.2502C70.2759 21.0547 70.216 20.547 70.079 20.1493C69.9421 19.7346 69.728 19.43 69.4284 19.2354C69.1288 19.0408 68.7607 18.9392 68.2899 18.9562H67.2712L66.8175 27.1894C66.8092 27.4668 66.7864 27.7436 66.7491 28.0186C66.7234 28.2725 66.7063 28.4755 66.6806 28.6194C66.8175 28.6109 66.9631 28.6025 67.1343 28.6025C67.3055 28.6025 67.4767 28.5855 67.6393 28.5855C67.802 28.5855 67.9389 28.5686 68.0417 28.5686L67.9903 29.6686H63.4448L63.5133 28.7548C63.7526 28.7588 63.9888 28.7004 64.1981 28.5855C64.39 28.474 64.5333 28.2961 64.6004 28.0863C64.7029 27.7685 64.7605 27.4382 64.7716 27.1048L65.2253 18.9731H64.1382C63.479 18.9816 62.9654 19.21 62.5973 19.6416C62.2292 20.0731 62.0238 20.7585 61.981 21.6893H61.0137L61.2962 18.0085H71.2946V18Z" fill="#144F2E"/>
<path d="M74.9067 21.1467C75.3308 21.1415 75.7521 21.2161 76.1479 21.3667C76.507 21.4853 76.8187 21.7134 77.0382 22.0183C77.2522 22.3145 77.3549 22.7037 77.3549 23.186C77.3648 23.6159 77.2087 24.0334 76.9184 24.3537C76.608 24.6989 76.2253 24.9732 75.797 25.1576C75.3153 25.3644 74.8171 25.5314 74.3075 25.6568C73.7958 25.7878 73.2751 25.8811 72.7495 25.936C72.7495 26.5876 72.818 27.1122 72.9635 27.5015C73.109 27.8907 73.3059 28.153 73.5542 28.3138C73.8066 28.4672 74.0968 28.5492 74.3931 28.5507C74.6556 28.5468 74.9157 28.5011 75.1635 28.4153C75.482 28.296 75.7731 28.1147 76.0195 27.8822C76.302 27.6284 76.5417 27.273 76.7557 26.8161L77.5604 27.2138C77.2436 27.8907 76.9012 28.4238 76.5246 28.813C76.1868 29.1653 75.7747 29.4398 75.3176 29.6169C74.8927 29.772 74.4436 29.8521 73.9907 29.8538C72.9549 29.8623 72.1503 29.5576 71.5767 28.9399C71.0032 28.3222 70.7207 27.4168 70.7207 26.2407C70.7245 25.6485 70.808 25.0595 70.969 24.4891C71.1317 23.9037 71.3859 23.347 71.7223 22.8391C72.0622 22.3421 72.5096 21.9259 73.032 21.6206C73.5542 21.3075 74.1791 21.1467 74.9067 21.1467ZM74.7098 22.0606C74.5143 22.0547 74.3199 22.0919 74.1408 22.1695C73.9616 22.2471 73.8022 22.363 73.674 22.5091C73.3855 22.8304 73.1748 23.2123 73.0577 23.626C72.9216 24.0756 72.8327 24.5377 72.7923 25.0053C73.317 24.9273 73.8292 24.7822 74.316 24.5737C74.7269 24.3706 75.0522 24.1422 75.2748 23.8714C75.4899 23.6275 75.6084 23.3149 75.6086 22.9914C75.6141 22.7374 75.5188 22.4915 75.3433 22.306C75.1714 22.1474 74.9449 22.0597 74.7098 22.0606Z" fill="#144F2E"/>
<path d="M81.0705 29.8454C80.5878 29.8493 80.1078 29.775 79.6495 29.6254C79.2465 29.4931 78.8802 29.2701 78.5794 28.9739C78.3179 28.6993 78.1737 28.3355 78.1771 27.9585C78.1632 27.6829 78.2584 27.4128 78.4425 27.2054C78.5281 27.1099 78.6337 27.034 78.752 26.9829C78.8702 26.9317 78.9983 26.9066 79.1273 26.9092C79.2503 26.9024 79.3731 26.924 79.4861 26.9725C79.5991 27.021 79.699 27.095 79.7779 27.1884C79.8598 27.2727 79.9239 27.3722 79.9665 27.4811C80.0091 27.5901 80.0294 27.7063 80.0261 27.8231C80.0263 27.9088 80.0148 27.9942 79.9919 28.0769C79.9779 28.1711 79.9491 28.2624 79.9063 28.3477C79.9748 28.5 80.1289 28.6354 80.3771 28.7454C80.597 28.8485 80.8358 28.9061 81.079 28.9146C81.6012 28.9146 81.9864 28.7962 82.2176 28.5677C82.3312 28.4541 82.4207 28.3193 82.481 28.1711C82.5412 28.0229 82.571 27.8643 82.5685 27.7046C82.5706 27.5865 82.5482 27.4692 82.5025 27.3601C82.4569 27.2509 82.389 27.1522 82.3032 27.07C82.098 26.865 81.868 26.686 81.6183 26.5369C81.3359 26.3592 81.0448 26.1815 80.7281 26.0038C80.3183 25.7676 79.9211 25.5106 79.5382 25.2338C79.2455 25.0258 78.9956 24.7644 78.802 24.4638C78.6302 24.1713 78.5442 23.8373 78.5538 23.4992C78.5547 23.0926 78.6833 22.6964 78.9219 22.3653C79.1913 21.9923 79.5541 21.6949 79.9748 21.5022C80.437 21.2653 80.9849 21.1553 81.6355 21.1553C82.0702 21.1561 82.5016 21.2305 82.911 21.3753C83.2948 21.4909 83.6444 21.6971 83.9296 21.9761C84.0574 22.0994 84.1589 22.2468 84.228 22.4096C84.2971 22.5724 84.3325 22.7472 84.332 22.9238C84.3349 23.1794 84.247 23.4279 84.0837 23.6261C83.9973 23.7195 83.8911 23.7929 83.7728 23.8411C83.6544 23.8894 83.5268 23.9113 83.3989 23.9053C83.2769 23.9111 83.1551 23.8898 83.0425 23.8429C82.9299 23.7961 82.8294 23.7249 82.7483 23.6345C82.5948 23.4584 82.5125 23.2324 82.5172 22.9999C82.5172 22.9153 82.5257 22.8307 82.5343 22.7461C82.5628 22.6648 82.5971 22.5856 82.637 22.5091C82.544 22.351 82.3943 22.2333 82.2176 22.1791C82.0162 22.0994 81.801 22.0591 81.5841 22.0607C81.3852 22.0641 81.1895 22.1103 81.0106 22.1961C80.8231 22.273 80.6561 22.3917 80.5226 22.543C80.3856 22.6869 80.3117 22.8785 80.3172 23.0761C80.3126 23.2415 80.3605 23.4043 80.4541 23.5415C80.5818 23.7137 80.7416 23.8602 80.925 23.973C81.1475 24.1253 81.4471 24.3199 81.8324 24.5399C82.2176 24.7599 82.5942 24.9969 82.988 25.2592C83.371 25.4893 83.7124 25.781 83.9981 26.1223C84.272 26.463 84.4146 26.8888 84.4004 27.3238C84.4068 27.7943 84.2531 28.2532 83.9639 28.6269C83.6611 29.0242 83.2561 29.334 82.7911 29.5239C82.2463 29.7478 81.6604 29.8573 81.0705 29.8454Z" fill="#144F2E"/>
<path d="M88.1232 29.8454C87.6406 29.8493 87.1605 29.775 86.7022 29.6254C86.2993 29.4931 85.933 29.2701 85.6322 28.9739C85.3706 28.6993 85.2265 28.3355 85.2298 27.9585C85.216 27.6829 85.3111 27.4128 85.4952 27.2054C85.5809 27.1099 85.6865 27.034 85.8047 26.9829C85.9229 26.9317 86.051 26.9066 86.18 26.9092C86.303 26.9024 86.4259 26.924 86.5388 26.9725C86.6518 27.021 86.7517 27.095 86.8306 27.1884C86.9125 27.2727 86.9766 27.3722 87.0192 27.4811C87.0619 27.5901 87.0821 27.7063 87.0789 27.8231C87.079 27.9088 87.0675 27.9942 87.0446 28.0769C87.0307 28.1711 87.0018 28.2624 86.959 28.3477C87.0275 28.5 87.1816 28.6354 87.4298 28.7454C87.6497 28.8485 87.8886 28.9061 88.1318 28.9146C88.654 28.9146 89.0392 28.7962 89.2703 28.5677C89.3839 28.4541 89.4734 28.3193 89.5337 28.1711C89.594 28.0229 89.6237 27.8643 89.6213 27.7046C89.6234 27.5865 89.6009 27.4692 89.5553 27.3601C89.5096 27.2509 89.4418 27.1522 89.3559 27.07C89.1508 26.865 88.9207 26.686 88.6711 26.5369C88.3886 26.3592 88.0975 26.1815 87.7808 26.0038C87.371 25.7676 86.9739 25.5106 86.5909 25.2338C86.2982 25.0258 86.0483 24.7644 85.8547 24.4638C85.6829 24.1713 85.5969 23.8373 85.6065 23.4992C85.6074 23.0926 85.736 22.6964 85.9746 22.3653C86.244 21.9923 86.6068 21.6949 87.0275 21.5022C87.4898 21.2653 88.0376 21.1553 88.6882 21.1553C89.1229 21.1561 89.5543 21.2305 89.9637 21.3753C90.3475 21.4909 90.6971 21.6971 90.9824 21.9761C91.1102 22.0994 91.2116 22.2468 91.2807 22.4096C91.3498 22.5724 91.3852 22.7472 91.3847 22.9238C91.3876 23.1794 91.2998 23.4279 91.1364 23.6261C91.05 23.7195 90.9439 23.7929 90.8255 23.8411C90.7072 23.8894 90.5795 23.9113 90.4516 23.9053C90.3296 23.9111 90.2078 23.8898 90.0952 23.8429C89.9827 23.7961 89.8821 23.7249 89.801 23.6345C89.6475 23.4584 89.5652 23.2324 89.5699 22.9999C89.5699 22.9153 89.5785 22.8307 89.587 22.7461C89.6155 22.6648 89.6499 22.5856 89.6898 22.5091C89.5967 22.351 89.447 22.2333 89.2703 22.1791C89.0689 22.0994 88.8538 22.0591 88.6368 22.0607C88.438 22.0641 88.2423 22.1103 88.0633 22.1961C87.8758 22.273 87.7088 22.3917 87.5754 22.543C87.4383 22.6869 87.3645 22.8785 87.3699 23.0761C87.3653 23.2415 87.4132 23.4043 87.5069 23.5415C87.6345 23.7137 87.7943 23.8602 87.9777 23.973C88.2003 24.1253 88.4999 24.3199 88.8851 24.5399C89.2703 24.7599 89.647 24.9969 90.0407 25.2592C90.4237 25.4893 90.7651 25.781 91.0508 26.1223C91.3248 26.463 91.4674 26.8888 91.4532 27.3238C91.4596 27.7943 91.3058 28.2532 91.0166 28.6269C90.7139 29.0242 90.3089 29.334 89.8438 29.5239C89.2988 29.7471 88.7131 29.8566 88.1232 29.8454Z" fill="#144F2E"/>
<path d="M96.5825 21.1467C97.0066 21.1415 97.4279 21.2161 97.8237 21.3667C98.1828 21.4853 98.4945 21.7134 98.714 22.0183C98.928 22.3145 99.0307 22.7037 99.0307 23.186C99.0406 23.6159 98.8845 24.0334 98.5941 24.3537C98.2838 24.6989 97.9011 24.9732 97.4727 25.1576C96.991 25.3644 96.4928 25.5314 95.9832 25.6568C95.4716 25.7878 94.9509 25.8811 94.4253 25.936C94.4253 26.5876 94.4938 27.1122 94.6393 27.5015C94.7848 27.8907 94.9817 28.153 95.2299 28.3138C95.4823 28.4672 95.7725 28.5492 96.0688 28.5507C96.3313 28.5468 96.5915 28.5011 96.8393 28.4153C97.1578 28.296 97.4489 28.1147 97.6953 27.8822C97.9778 27.6284 98.2175 27.273 98.4315 26.8161L99.2362 27.2138C98.9194 27.8907 98.577 28.4238 98.2004 28.813C97.8626 29.1653 97.4505 29.4398 96.9934 29.6169C96.5685 29.772 96.1194 29.8521 95.6665 29.8538C94.6307 29.8623 93.8261 29.5576 93.2525 28.9399C92.679 28.3222 92.3965 27.4168 92.3965 26.2407C92.4003 25.6485 92.4837 25.0595 92.6447 24.4891C92.8075 23.9037 93.0617 23.347 93.398 22.8391C93.738 22.3421 94.1853 21.9259 94.7078 21.6206C95.2299 21.3075 95.8548 21.1467 96.5825 21.1467ZM96.3856 22.0606C96.1901 22.0547 95.9957 22.0919 95.8166 22.1695C95.6374 22.2471 95.478 22.363 95.3498 22.5091C95.0644 22.8325 94.854 23.2137 94.7334 23.626C94.5974 24.0756 94.5085 24.5377 94.4681 25.0053C94.9928 24.9273 95.505 24.7822 95.9918 24.5737C96.4027 24.3706 96.728 24.1422 96.9506 23.8714C97.1656 23.6275 97.2842 23.3149 97.2844 22.9914C97.2898 22.7374 97.1946 22.4915 97.019 22.306C96.8462 22.149 96.6203 22.0615 96.3856 22.0606Z" fill="#144F2E"/>
<path d="M101.033 29.6606C101.013 29.5346 101.001 29.4074 100.998 29.2799V28.9837C100.998 28.7722 101.007 28.5183 101.033 28.2137C101.058 27.9091 101.084 27.5452 101.118 27.1475C101.152 26.7498 101.212 26.3098 101.272 25.8275C101.341 25.3283 101.392 24.8967 101.444 24.5244C101.495 24.1521 101.538 23.8559 101.563 23.6275C101.584 23.4392 101.596 23.25 101.598 23.0605C101.606 22.8575 101.589 22.7136 101.529 22.6121C101.513 22.5654 101.481 22.5252 101.439 22.4978C101.398 22.4703 101.348 22.457 101.298 22.4598C101.152 22.4598 100.998 22.5613 100.827 22.7729C100.656 22.9844 100.502 23.3398 100.356 23.8729L99.5859 23.6529C99.6431 23.3925 99.7145 23.1355 99.7999 22.8829C99.9032 22.5898 100.044 22.3111 100.219 22.0536C100.389 21.7946 100.61 21.5728 100.87 21.4021C101.142 21.2184 101.465 21.1237 101.794 21.1313C102.205 21.1313 102.539 21.2582 102.787 21.5121C103.036 21.7659 103.156 22.189 103.156 22.7813C103.147 22.9844 103.121 23.2129 103.087 23.4836C103.053 23.7375 103.01 24.0252 102.95 24.3467H102.984C103.284 23.4582 103.601 22.7898 103.926 22.3328C104.251 21.8759 104.594 21.5459 104.919 21.3851C105.213 21.2258 105.542 21.1387 105.878 21.1313C106.272 21.1313 106.588 21.2328 106.837 21.4444C107.055 21.639 107.186 21.911 107.202 22.2012C107.218 22.4913 107.118 22.7759 106.922 22.9929C106.835 23.096 106.724 23.1779 106.599 23.2322C106.475 23.2865 106.339 23.3117 106.203 23.3059C105.981 23.3051 105.766 23.2272 105.595 23.0859C105.508 23.016 105.438 22.9268 105.392 22.8253C105.346 22.7239 105.325 22.6132 105.33 22.5021C105.107 22.4598 104.876 22.5613 104.645 22.8152C104.379 23.1261 104.159 23.4739 103.994 23.8475C103.781 24.3284 103.601 24.8231 103.455 25.3283C103.301 25.8698 103.173 26.4283 103.07 26.9952C102.985 27.5243 102.939 28.0588 102.933 28.5945C102.933 28.7383 102.942 28.916 102.95 29.1276C102.959 29.3391 102.976 29.4914 102.984 29.6268H101.033V29.6606Z" fill="#144F2E"/>
<path d="M112.075 21.1484C112.439 21.1507 112.802 21.179 113.162 21.2331C113.587 21.2908 114.007 21.3756 114.42 21.4869C114.352 21.9777 114.275 22.5277 114.189 23.1539C114.104 23.78 114.027 24.3977 113.941 25.0239C113.864 25.6331 113.796 26.1916 113.744 26.7078C113.693 27.2239 113.676 27.6132 113.676 27.8924C113.67 28.0559 113.693 28.2192 113.744 28.3747C113.761 28.4259 113.795 28.4701 113.84 28.5007C113.884 28.5312 113.938 28.5464 113.992 28.5439C114.138 28.5439 114.292 28.4424 114.463 28.2478C114.643 28.0362 114.806 27.6639 114.968 27.1308L115.722 27.3508C115.677 27.614 115.605 27.8719 115.508 28.1208C115.392 28.415 115.24 28.6936 115.054 28.9501C114.879 29.2147 114.652 29.442 114.386 29.6186C114.104 29.7921 113.777 29.8803 113.445 29.8724C113.097 29.8824 112.759 29.7579 112.503 29.5255C112.255 29.2886 112.135 28.8993 112.135 28.3578C112.135 28.1345 112.146 27.9114 112.169 27.6893C112.203 27.4439 112.238 27.207 112.289 26.9701H112.255C112.068 27.479 111.833 27.9691 111.553 28.4339C111.348 28.7632 111.094 29.0599 110.799 29.3139C110.575 29.5077 110.313 29.6545 110.029 29.7455C109.785 29.8213 109.531 29.8612 109.276 29.864C108.978 29.868 108.683 29.8054 108.413 29.6808C108.144 29.5563 107.906 29.373 107.718 29.1447C107.29 28.6709 107.084 27.9093 107.084 26.877C107.077 26.1376 107.184 25.4015 107.401 24.6939C107.611 24.0285 107.942 23.4064 108.377 22.8577C108.796 22.3311 109.328 21.9033 109.935 21.6054C110.534 21.3007 111.262 21.1484 112.075 21.1484ZM111.484 22.0792C111.115 22.0777 110.756 22.2 110.466 22.4261C110.136 22.6834 109.872 23.0139 109.695 23.3908C109.463 23.8592 109.298 24.3577 109.207 24.8716C109.099 25.509 109.048 26.1545 109.053 26.8008C109.053 27.3424 109.113 27.7824 109.242 28.1208C109.378 28.4424 109.575 28.6032 109.849 28.6032C110.123 28.6032 110.371 28.4678 110.62 28.2055C110.902 27.8837 111.127 27.5176 111.287 27.1224C111.501 26.6298 111.681 26.1238 111.827 25.6077C111.981 25.0408 112.109 24.4654 112.212 23.89C112.308 23.3333 112.366 22.7707 112.383 22.2061C112.258 22.1647 112.129 22.1363 111.998 22.1215C111.828 22.0948 111.656 22.0807 111.484 22.0792Z" fill="#144F2E"/>
<path d="M63.9597 37.1228V35.3543L63.138 36.6574H62.7956L61.9823 35.3543V37.1228H61.3574V34.2882H62.0337L62.9753 35.8197L63.9169 34.2882H64.5761V37.1228H63.9597ZM68.1971 37.1398C67.9858 37.1405 67.7764 37.1003 67.5808 37.0213C67.4023 36.9442 67.2398 36.8352 67.1014 36.6998C66.9679 36.5668 66.8631 36.4085 66.7932 36.2344C66.7219 36.0653 66.6841 35.8844 66.6819 35.7013C66.6799 35.515 66.7179 35.3305 66.7932 35.1597C66.9498 34.8103 67.2341 34.5322 67.5893 34.3813C67.7819 34.3023 67.9886 34.262 68.1971 34.2628C68.4004 34.2609 68.6018 34.3005 68.7889 34.3791C68.976 34.4577 69.1446 34.5737 69.2843 34.7197C69.4196 34.8512 69.5247 35.0099 69.5924 35.1851C69.6628 35.3514 69.7006 35.5295 69.7037 35.7097C69.7048 35.8959 69.667 36.0803 69.5924 36.2513C69.5161 36.4215 69.4087 36.5764 69.2757 36.7082C69.1396 36.8464 68.9765 36.9558 68.7963 37.0298C68.6066 37.1075 68.4024 37.145 68.1971 37.1398ZM67.3154 35.7097C67.3137 35.8253 67.334 35.9401 67.3753 36.0482C67.4188 36.1514 67.4764 36.2482 67.5465 36.3359C67.6224 36.4218 67.7158 36.491 67.8204 36.539C68.0633 36.6321 68.3331 36.6291 68.5737 36.5305C68.6789 36.4795 68.7722 36.4075 68.8477 36.319C68.9208 36.2333 68.9787 36.1361 69.0189 36.0313C69.0587 35.9286 69.079 35.8196 69.0788 35.7097C69.0813 35.5969 69.0609 35.4847 69.0189 35.3797C68.9753 35.2792 68.9176 35.1852 68.8477 35.1005C68.772 35.0164 68.6785 34.95 68.5737 34.9059C68.4583 34.8538 68.3325 34.8278 68.2057 34.8297C68.076 34.8279 67.9475 34.8539 67.829 34.9059C67.723 34.9517 67.6292 35.0212 67.5551 35.109C67.4802 35.1933 67.4221 35.291 67.3839 35.3967C67.3351 35.4938 67.3115 35.6014 67.3154 35.7097ZM73.6586 35.0836C73.6043 35.0386 73.5438 35.0015 73.4788 34.9736C73.3836 34.9254 73.2831 34.8885 73.1792 34.8636C73.0654 34.8295 72.9471 34.8124 72.8282 34.8128C72.7019 34.8073 72.576 34.8304 72.4601 34.8805C72.4237 34.8986 72.3932 34.9264 72.372 34.9608C72.3508 34.9952 72.3398 35.0348 72.3403 35.0751C72.3394 35.106 72.3459 35.1367 72.3593 35.1646C72.3727 35.1926 72.3926 35.217 72.4173 35.2359C72.4904 35.2857 72.5714 35.3229 72.657 35.3459C72.7836 35.3861 72.9122 35.42 73.0422 35.4474C73.2202 35.4911 73.3948 35.5477 73.5644 35.6167C73.6988 35.6706 73.8168 35.7581 73.9068 35.8705C73.9956 35.9934 74.038 36.1431 74.0267 36.2936C74.03 36.4346 73.9976 36.5742 73.9325 36.6998C73.8724 36.8085 73.7837 36.8991 73.6757 36.9621C73.5638 37.0336 73.4387 37.0825 73.3076 37.1059C73.1672 37.1371 73.0235 37.1513 72.8796 37.1482C72.6454 37.1464 72.4124 37.1151 72.1862 37.0551C71.972 36.9968 71.7673 36.9085 71.5784 36.7928L71.8523 36.2597C71.9204 36.3163 71.9952 36.3646 72.0749 36.4036C72.1933 36.4593 72.3165 36.5046 72.443 36.539C72.5913 36.5764 72.7436 36.5963 72.8967 36.5982C73.0175 36.6041 73.1379 36.5808 73.2477 36.5305C73.2848 36.5157 73.3163 36.4898 73.3378 36.4565C73.3593 36.4231 73.3697 36.3839 73.3675 36.3444C73.3683 36.3083 73.3591 36.2727 73.3411 36.2414C73.323 36.2101 73.2966 36.1843 73.2648 36.1667C73.1797 36.1144 73.0875 36.0745 72.9909 36.0482C72.871 36.0144 72.734 35.9805 72.5714 35.9382C72.404 35.8964 72.2407 35.8397 72.0835 35.769C71.9687 35.7103 71.8691 35.6263 71.7924 35.5236C71.7282 35.4099 71.6957 35.2814 71.6983 35.1513C71.6928 34.9765 71.7437 34.8046 71.8438 34.6605C71.9498 34.5255 72.0922 34.4229 72.2547 34.3643C72.4377 34.295 72.6323 34.2606 72.8282 34.2628C73.0345 34.2622 73.2396 34.2936 73.436 34.3559C73.6046 34.4087 73.7657 34.4827 73.9154 34.5759L73.6586 35.0836ZM75.7473 37.1228L76.9971 34.2882H77.5021L78.7519 37.1228H78.0928L77.8017 36.4544H76.6889L76.3979 37.1228H75.7473ZM77.2624 35.0328L76.843 35.9297H77.6733L77.2624 35.0328ZM80.7208 37.1228V34.2882H81.3457V37.1228H80.7208ZM83.443 35.6844C83.444 35.5102 83.4788 35.3378 83.5457 35.1767C83.6158 35.0072 83.7174 34.8522 83.8453 34.7197C83.9799 34.5797 84.1434 34.4701 84.3247 34.3982C84.5304 34.3129 84.7523 34.2725 84.9753 34.2797C85.2311 34.2745 85.4842 34.3327 85.7115 34.449C85.9061 34.5482 86.0647 34.705 86.1651 34.8974L85.6858 35.2274C85.6552 35.1566 85.6107 35.0924 85.5548 35.0387C85.499 34.985 85.4329 34.9427 85.3605 34.9143C85.231 34.8581 85.091 34.8292 84.9496 34.8297C84.816 34.8256 84.6836 34.8547 84.5644 34.9143C84.4584 34.9601 84.3646 35.0296 84.2904 35.1174C84.2182 35.2022 84.163 35.2999 84.1278 35.4051C84.0922 35.506 84.072 35.6115 84.0679 35.7182C84.0692 35.8343 84.0924 35.9491 84.1364 36.0567C84.1776 36.1628 84.2386 36.2604 84.3161 36.3444C84.3933 36.4305 84.4901 36.4972 84.5986 36.539C84.716 36.5841 84.8408 36.6071 84.9667 36.6067C85.0595 36.6044 85.1516 36.5902 85.2406 36.5644C85.3411 36.5401 85.4347 36.4938 85.5146 36.429C85.5978 36.3682 85.6628 36.2863 85.7029 36.1921L86.2165 36.4882C86.1461 36.633 86.0401 36.7581 85.9083 36.8521C85.7687 36.952 85.6122 37.0265 85.4461 37.0721C85.2825 37.1221 85.1123 37.1478 84.941 37.1482C84.7325 37.149 84.5259 37.1087 84.3332 37.0298C84.1522 36.9497 83.9892 36.8346 83.8539 36.6913C83.7202 36.5553 83.6154 36.3941 83.5457 36.2174C83.4828 36.0463 83.4481 35.8663 83.443 35.6844ZM92.9449 35.0836C92.8906 35.0386 92.8301 35.0015 92.7651 34.9736C92.67 34.9254 92.5694 34.8885 92.4655 34.8636C92.3517 34.8295 92.2334 34.8124 92.1145 34.8128C91.9882 34.8073 91.8623 34.8304 91.7465 34.8805C91.71 34.8986 91.6795 34.9264 91.6583 34.9608C91.6371 34.9952 91.6261 35.0348 91.6266 35.0751C91.6257 35.106 91.6323 35.1367 91.6457 35.1646C91.659 35.1926 91.6789 35.217 91.7037 35.2359C91.7767 35.2857 91.8577 35.3229 91.9433 35.3459C92.0699 35.3861 92.1985 35.42 92.3286 35.4474C92.5066 35.4911 92.6811 35.5477 92.8507 35.6167C92.9852 35.6706 93.1031 35.7581 93.1931 35.8705C93.2819 35.9934 93.3243 36.1431 93.313 36.2936C93.3163 36.4346 93.284 36.5742 93.2188 36.6998C93.1588 36.8085 93.07 36.8991 92.962 36.9621C92.8502 37.0336 92.725 37.0825 92.5939 37.1059C92.4535 37.1371 92.3098 37.1513 92.1659 37.1482C91.9317 37.1464 91.6987 37.1151 91.4725 37.0551C91.2583 36.9968 91.0536 36.9085 90.8647 36.7928L91.1387 36.2597C91.2068 36.3163 91.2815 36.3646 91.3612 36.4036C91.4797 36.4593 91.6029 36.5046 91.7293 36.539C91.8777 36.5764 92.03 36.5963 92.183 36.5982C92.3038 36.6041 92.4243 36.5808 92.534 36.5305C92.5711 36.5157 92.6027 36.4898 92.6242 36.4565C92.6456 36.4231 92.656 36.3839 92.6538 36.3444C92.6546 36.3083 92.6455 36.2727 92.6274 36.2414C92.6093 36.2101 92.5829 36.1843 92.5511 36.1667C92.4661 36.1144 92.3738 36.0745 92.2772 36.0482C92.1574 36.0144 92.0204 35.9805 91.8577 35.9382C91.6903 35.8964 91.527 35.8397 91.3698 35.769C91.2551 35.7103 91.1555 35.6263 91.0788 35.5236C91.0146 35.4099 90.9821 35.2814 90.9846 35.1513C90.9791 34.9765 91.0301 34.8046 91.1301 34.6605C91.2362 34.5255 91.3786 34.4229 91.541 34.3643C91.724 34.295 91.9186 34.2606 92.1145 34.2628C92.3208 34.2622 92.5259 34.2936 92.7223 34.3559C92.891 34.4087 93.052 34.4827 93.2017 34.5759L92.9449 35.0836ZM97.8071 34.8213H96.797V37.1228H96.1721V34.8213H95.1535V34.2797H97.8071V34.8213ZM101.163 36.5982C101.286 36.6012 101.409 36.5781 101.522 36.5305C101.615 36.4867 101.695 36.4196 101.753 36.3359C101.814 36.256 101.855 36.1633 101.873 36.0651C101.901 35.9601 101.915 35.8521 101.916 35.7436V34.2882H102.541V35.7436C102.543 35.9303 102.514 36.1162 102.455 36.2936C102.406 36.4588 102.321 36.6116 102.207 36.7421C102.09 36.875 101.944 36.9793 101.779 37.0467C101.583 37.1219 101.373 37.1592 101.163 37.1567C100.946 37.1641 100.73 37.1266 100.529 37.0467C100.368 36.974 100.225 36.8671 100.11 36.7336C100 36.6016 99.9187 36.449 99.8702 36.2851C99.8217 36.1145 99.7986 35.9377 99.8017 35.7605V34.3051H100.427V35.7605C100.425 35.8687 100.436 35.9766 100.461 36.0821C100.484 36.1801 100.528 36.2723 100.589 36.3528C100.648 36.4327 100.724 36.4991 100.812 36.5474C100.926 36.5805 101.044 36.5976 101.163 36.5982ZM104.792 37.1228V34.2882H105.957C106.257 34.2794 106.554 34.3464 106.821 34.4828C107.042 34.5971 107.224 34.7739 107.343 34.9905C107.465 35.208 107.527 35.4529 107.523 35.7013C107.528 35.9654 107.46 36.2258 107.326 36.4544C107.194 36.668 107.004 36.8409 106.778 36.9536C106.52 37.0784 106.235 37.1394 105.948 37.1313H104.792V37.1228ZM106.89 35.7013C106.896 35.5418 106.857 35.3837 106.778 35.2443C106.707 35.1107 106.597 35.0015 106.462 34.9313C106.305 34.8526 106.132 34.8148 105.957 34.8213H105.417V36.5813H105.957C106.134 36.5888 106.311 36.551 106.47 36.4713C106.606 36.398 106.716 36.2859 106.787 36.1497C106.857 36.0105 106.892 35.8567 106.89 35.7013ZM109.637 37.1228V34.2882H110.262V37.1228H109.637ZM113.875 37.1398C113.664 37.1405 113.454 37.1003 113.258 37.0213C113.08 36.9442 112.917 36.8352 112.779 36.6998C112.646 36.5668 112.541 36.4085 112.471 36.2344C112.4 36.0653 112.362 35.8844 112.36 35.7013C112.358 35.515 112.396 35.3305 112.471 35.1597C112.627 34.8103 112.912 34.5322 113.267 34.3813C113.46 34.3023 113.666 34.262 113.875 34.2628C114.078 34.2609 114.28 34.3005 114.467 34.3791C114.654 34.4577 114.822 34.5737 114.962 34.7197C115.097 34.8512 115.202 35.0099 115.27 35.1851C115.341 35.3514 115.378 35.5295 115.381 35.7097C115.383 35.8959 115.345 36.0803 115.27 36.2513C115.194 36.4215 115.086 36.5764 114.953 36.7082C114.817 36.8464 114.654 36.9558 114.474 37.0298C114.284 37.1067 114.08 37.1441 113.875 37.1398ZM112.993 35.7097C112.991 35.8253 113.012 35.9401 113.053 36.0482C113.097 36.1514 113.154 36.2482 113.224 36.3359C113.3 36.4218 113.393 36.491 113.498 36.539C113.741 36.6321 114.011 36.6291 114.251 36.5305C114.357 36.4795 114.45 36.4075 114.525 36.319C114.599 36.2333 114.656 36.1361 114.697 36.0313C114.736 35.9286 114.757 35.8196 114.757 35.7097C114.759 35.5969 114.739 35.4847 114.697 35.3797C114.653 35.2792 114.595 35.1852 114.525 35.1005C114.45 35.0164 114.356 34.95 114.251 34.9059C114.136 34.8538 114.01 34.8278 113.883 34.8297C113.754 34.8279 113.625 34.8539 113.507 34.9059C113.401 34.9517 113.307 35.0212 113.233 35.109C113.158 35.1933 113.1 35.291 113.062 35.3967C113.013 35.4938 112.989 35.6014 112.993 35.7097Z" fill="#144F2E"/>
</g>
<defs>
<clipPath id="clip0_9679_19067">
<rect width="116" height="54" fill="white"/>
</clipPath>
</defs>
</svg>
