<svg width="120" height="80" viewBox="0 0 120 80" fill="none" xmlns="http://www.w3.org/2000/svg">
<rect width="120" height="80" fill="#DBDBDB"/>
<path d="M46.7324 44.6968V46H40.6895V44.6968H46.7324ZM41.0049 33.9141V46H39.4028V33.9141H41.0049ZM57.3242 39.5752V40.3389C57.3242 41.2464 57.2108 42.0599 56.9839 42.7793C56.757 43.4987 56.4305 44.1102 56.0044 44.6138C55.5783 45.1174 55.0664 45.502 54.4688 45.7676C53.8766 46.0332 53.2126 46.166 52.4766 46.166C51.7627 46.166 51.1069 46.0332 50.5093 45.7676C49.9172 45.502 49.4025 45.1174 48.9653 44.6138C48.5337 44.1102 48.1989 43.4987 47.9609 42.7793C47.723 42.0599 47.604 41.2464 47.604 40.3389V39.5752C47.604 38.6676 47.7202 37.8569 47.9526 37.1431C48.1906 36.4237 48.5254 35.8122 48.957 35.3086C49.3887 34.7995 49.9006 34.4121 50.4927 34.1465C51.0903 33.8809 51.7461 33.748 52.46 33.748C53.196 33.748 53.86 33.8809 54.4521 34.1465C55.0498 34.4121 55.5617 34.7995 55.9878 35.3086C56.4194 35.8122 56.7487 36.4237 56.9756 37.1431C57.208 37.8569 57.3242 38.6676 57.3242 39.5752ZM55.7388 40.3389V39.5586C55.7388 38.8392 55.6641 38.2028 55.5146 37.6494C55.3708 37.096 55.1577 36.6312 54.8755 36.2549C54.5933 35.8786 54.2474 35.5936 53.8379 35.3999C53.4339 35.2062 52.9746 35.1094 52.46 35.1094C51.9619 35.1094 51.5109 35.2062 51.1069 35.3999C50.7085 35.5936 50.3654 35.8786 50.0776 36.2549C49.7954 36.6312 49.5768 37.096 49.4219 37.6494C49.2669 38.2028 49.1895 38.8392 49.1895 39.5586V40.3389C49.1895 41.0638 49.2669 41.7057 49.4219 42.2646C49.5768 42.818 49.7982 43.2856 50.0859 43.6675C50.3792 44.0438 50.7251 44.3288 51.1235 44.5225C51.5275 44.7161 51.9785 44.813 52.4766 44.813C52.9967 44.813 53.4588 44.7161 53.8628 44.5225C54.2668 44.3288 54.6071 44.0438 54.8838 43.6675C55.166 43.2856 55.3791 42.818 55.5229 42.2646C55.6668 41.7057 55.7388 41.0638 55.7388 40.3389ZM68.6548 39.9819V44.4062C68.5054 44.6276 68.2674 44.8766 67.9409 45.1533C67.6144 45.4245 67.1634 45.6624 66.5879 45.8672C66.0179 46.0664 65.2819 46.166 64.3799 46.166C63.6439 46.166 62.966 46.0387 62.3462 45.7842C61.7319 45.5241 61.1979 45.1478 60.7441 44.6553C60.2959 44.1572 59.9473 43.554 59.6982 42.8457C59.4548 42.1318 59.333 41.3239 59.333 40.4219V39.4839C59.333 38.5819 59.4382 37.7767 59.6484 37.0684C59.8643 36.36 60.1797 35.7596 60.5947 35.2671C61.0098 34.769 61.5189 34.3927 62.1221 34.1382C62.7253 33.8781 63.417 33.748 64.1973 33.748C65.1214 33.748 65.8934 33.9085 66.5132 34.2295C67.1385 34.5449 67.6255 34.9821 67.9741 35.541C68.3283 36.0999 68.5552 36.7363 68.6548 37.4502H67.0527C66.9808 37.013 66.8369 36.6146 66.6211 36.2549C66.4108 35.8952 66.1092 35.6074 65.7163 35.3916C65.3234 35.1702 64.8171 35.0596 64.1973 35.0596C63.6383 35.0596 63.1541 35.1619 62.7446 35.3667C62.3351 35.5715 61.9976 35.8647 61.7319 36.2466C61.4663 36.6284 61.2671 37.0905 61.1343 37.6328C61.007 38.1751 60.9434 38.7866 60.9434 39.4673V40.4219C60.9434 41.1191 61.0236 41.7417 61.1841 42.2896C61.3501 42.8374 61.5853 43.305 61.8896 43.6924C62.194 44.0742 62.5565 44.3647 62.9771 44.564C63.4032 44.7632 63.8735 44.8628 64.3882 44.8628C64.9582 44.8628 65.4202 44.8158 65.7744 44.7217C66.1286 44.6221 66.4053 44.5059 66.6045 44.373C66.8037 44.2347 66.9559 44.1047 67.061 43.9829V41.2769H64.2637V39.9819H68.6548ZM80.6162 39.5752V40.3389C80.6162 41.2464 80.5028 42.0599 80.2759 42.7793C80.049 43.4987 79.7225 44.1102 79.2964 44.6138C78.8703 45.1174 78.3584 45.502 77.7607 45.7676C77.1686 46.0332 76.5046 46.166 75.7686 46.166C75.0547 46.166 74.3989 46.0332 73.8013 45.7676C73.2091 45.502 72.6945 45.1174 72.2573 44.6138C71.8257 44.1102 71.4909 43.4987 71.2529 42.7793C71.015 42.0599 70.896 41.2464 70.896 40.3389V39.5752C70.896 38.6676 71.0122 37.8569 71.2446 37.1431C71.4826 36.4237 71.8174 35.8122 72.249 35.3086C72.6807 34.7995 73.1925 34.4121 73.7847 34.1465C74.3823 33.8809 75.0381 33.748 75.752 33.748C76.488 33.748 77.152 33.8809 77.7441 34.1465C78.3418 34.4121 78.8537 34.7995 79.2798 35.3086C79.7114 35.8122 80.0407 36.4237 80.2676 37.1431C80.5 37.8569 80.6162 38.6676 80.6162 39.5752ZM79.0308 40.3389V39.5586C79.0308 38.8392 78.9561 38.2028 78.8066 37.6494C78.6628 37.096 78.4497 36.6312 78.1675 36.2549C77.8853 35.8786 77.5394 35.5936 77.1299 35.3999C76.7259 35.2062 76.2666 35.1094 75.752 35.1094C75.2539 35.1094 74.8029 35.2062 74.3989 35.3999C74.0005 35.5936 73.6574 35.8786 73.3696 36.2549C73.0874 36.6312 72.8688 37.096 72.7139 37.6494C72.5589 38.2028 72.4814 38.8392 72.4814 39.5586V40.3389C72.4814 41.0638 72.5589 41.7057 72.7139 42.2646C72.8688 42.818 73.0902 43.2856 73.3779 43.6675C73.6712 44.0438 74.0171 44.3288 74.4155 44.5225C74.8195 44.7161 75.2705 44.813 75.7686 44.813C76.2887 44.813 76.7508 44.7161 77.1548 44.5225C77.5588 44.3288 77.8991 44.0438 78.1758 43.6675C78.458 43.2856 78.6711 42.818 78.8149 42.2646C78.9588 41.7057 79.0308 41.0638 79.0308 40.3389Z" fill="black"/>
</svg>
