<svg width="180" height="72" viewBox="0 0 180 72" fill="none" xmlns="http://www.w3.org/2000/svg">
<g clip-path="url(#clip0_9368_11141)">
<path d="M35.7311 13.0028L33.0491 11.4684C32.9986 11.4411 32.9581 11.3988 32.9333 11.3474C32.9084 11.296 32.9004 11.2382 32.9105 11.182C32.9205 11.1259 32.9481 11.0743 32.9893 11.0346C33.0305 10.9949 33.0832 10.969 33.14 10.9607C33.6514 10.8817 34.3105 10.7914 34.8219 10.7576C35.4697 10.7125 36.3675 10.7237 36.9016 10.7463C36.9502 10.7474 36.9976 10.7612 37.039 10.7863C37.0804 10.8115 37.1144 10.847 37.1375 10.8894C37.1606 10.9318 37.172 10.9796 37.1704 11.0277C37.1689 11.0759 37.1546 11.1228 37.1289 11.1637L36.0947 12.9125C36.0778 12.9431 36.0546 12.9699 36.0268 12.9912C35.9989 13.0125 35.9669 13.0279 35.9327 13.0364C35.8986 13.0448 35.8631 13.0462 35.8284 13.0404C35.7937 13.0347 35.7606 13.0218 35.7311 13.0028Z" fill="#144F2E"/>
<path d="M24.2638 16.6344C24.0169 16.4697 23.8165 16.2451 23.6817 15.9819C23.5469 15.7187 23.4821 15.4256 23.4935 15.1306C23.5049 14.8355 23.592 14.5483 23.7468 14.2961C23.9015 14.0439 24.1186 13.8352 24.3774 13.6897C25.0025 13.34 25.673 13.0015 26.2412 12.742C27.5254 12.1779 29.3551 11.6363 30.3892 11.3543C30.6371 11.2875 30.8966 11.2751 31.1498 11.318C31.403 11.3608 31.6437 11.4579 31.8553 11.6025L34.2645 13.2384C34.6535 13.5003 34.9252 13.9016 35.0227 14.358C35.1201 14.8144 35.0358 15.2906 34.7873 15.6867L32.1962 19.8047C32.0661 20.0124 31.8948 20.1916 31.6927 20.3316C31.4907 20.4716 31.2621 20.5693 31.0208 20.6189C30.7796 20.6685 30.5307 20.6689 30.2893 20.6201C30.0479 20.5713 29.819 20.4743 29.6165 20.3349L24.2638 16.6344Z" fill="#144F2E"/>
<path d="M38.447 11.1966L37.3219 13.1372C37.2339 13.2904 37.2097 13.4716 37.2542 13.6422C37.2988 13.8129 37.4087 13.9596 37.5605 14.051L38.6629 14.7054C38.755 14.7596 38.8588 14.7914 38.9656 14.7984C39.0725 14.8054 39.1795 14.7872 39.278 14.7455C39.3765 14.7037 39.4637 14.6395 39.5326 14.5581C39.6014 14.4766 39.65 14.3802 39.6743 14.2767L40.2653 11.7495C40.2873 11.6595 40.2901 11.5659 40.2734 11.4748C40.2567 11.3837 40.221 11.2971 40.1685 11.2206C40.116 11.144 40.048 11.0792 39.9687 11.0304C39.8895 10.9816 39.8008 10.9498 39.7084 10.9371C39.6485 10.9248 39.5877 10.9172 39.5266 10.9146C39.4016 10.9033 39.2425 10.8807 39.0947 10.8582C38.9649 10.8425 38.8334 10.8665 38.7176 10.927C38.6019 10.9875 38.5075 11.0815 38.447 11.1966Z" fill="#144F2E"/>
<path d="M20.6055 16.0932C20.8052 15.9421 21.0559 15.8731 21.3055 15.9004C21.5551 15.9277 21.7846 16.0492 21.9465 16.2398C22.0656 16.3799 22.1434 16.5498 22.1715 16.731C22.1996 16.9121 22.1768 17.0974 22.1056 17.2665L19.9804 22.2984C19.8649 22.572 19.6833 22.8131 19.4516 23.0004C19.22 23.1877 18.9453 23.3155 18.6521 23.3723C18.3589 23.4292 18.056 23.4135 17.7703 23.3265C17.4847 23.2396 17.225 23.0841 17.0143 22.8738L16.6052 22.4676C16.2952 22.1675 16.1076 21.7645 16.0783 21.3357C16.0489 20.9069 16.1799 20.4824 16.446 20.1435C17.032 19.3997 17.658 18.6879 18.3212 18.0111C19.0485 17.3328 19.8109 16.6926 20.6055 16.0932Z" fill="#144F2E"/>
<path d="M22.2178 19.061C22.3157 18.8015 22.4724 18.5678 22.6759 18.3781C22.8793 18.1884 23.124 18.0477 23.3911 17.967C23.6581 17.8862 23.9403 17.8676 24.2157 17.9126C24.4911 17.9575 24.7525 18.0648 24.9794 18.2262L29.4116 21.4077C29.7787 21.674 30.0331 22.0661 30.1255 22.5081C30.2179 22.95 30.1417 23.4103 29.9116 23.7996L28.0024 26.9586C27.7549 27.3681 27.3547 27.6641 26.8886 27.7822L23.8089 28.5494C23.4981 28.6281 23.1717 28.6225 22.8638 28.5332C22.556 28.4439 22.2779 28.2741 22.0587 28.0417L20.5245 26.4509C20.2856 26.2063 20.1222 25.8988 20.0537 25.5649C19.9852 25.231 20.0145 24.8847 20.1381 24.5668L22.2178 19.061Z" fill="#CEC7B6"/>
<path d="M24.0478 29.9606C24.0121 29.925 23.9866 29.8806 23.9739 29.832C23.9612 29.7833 23.9619 29.7322 23.9758 29.6839C23.9897 29.6356 24.0163 29.5918 24.053 29.5572C24.0896 29.5225 24.1349 29.4982 24.1842 29.4868L26.2526 28.9903C26.3066 28.9793 26.3627 28.9837 26.4143 29.003C26.466 29.0223 26.5111 29.0557 26.5444 29.0994C26.5777 29.143 26.5978 29.1952 26.6025 29.2498C26.6072 29.3044 26.5962 29.3591 26.5708 29.4078L25.6389 31.0437C25.6163 31.0815 25.5854 31.1136 25.5484 31.1377C25.5114 31.1617 25.4694 31.1771 25.4255 31.1825C25.3816 31.188 25.3371 31.1834 25.2953 31.1691C25.2535 31.1548 25.2155 31.1312 25.1843 31.1001L24.0478 29.9606Z" fill="#144F2E"/>
<path d="M40.7992 28.3808C40.5182 28.1778 40.3016 27.899 40.1753 27.5776C40.0489 27.2562 40.0179 26.9055 40.0861 26.5672C40.1543 26.2288 40.3187 25.917 40.5599 25.6685C40.801 25.4201 41.1089 25.2455 41.447 25.1654L46.1746 24.0371C46.4971 23.9595 46.8348 23.971 47.1512 24.0703C47.4675 24.1696 47.7505 24.353 47.9694 24.6005C48.1883 24.8481 48.3348 25.1504 48.393 25.4746C48.4513 25.7989 48.419 26.1328 48.2998 26.4402L46.936 29.9941C46.8351 30.2527 46.6758 30.4848 46.4703 30.6725C46.2648 30.8603 46.0187 30.9988 45.7508 31.0772C45.4829 31.1557 45.2005 31.1721 44.9252 31.1252C44.65 31.0782 44.3892 30.9692 44.1631 30.8065L40.7992 28.3808Z" fill="#144F2E"/>
<path d="M52.6397 18.4409C52.6975 18.2749 52.7964 18.1259 52.9272 18.0077C53.0581 17.8894 53.2168 17.8057 53.3887 17.7641C53.5606 17.7226 53.7403 17.7246 53.9112 17.7699C54.0822 17.8152 54.239 17.9024 54.3671 18.0234C55.5973 19.2011 56.7017 20.5017 57.6629 21.9045C58.1465 22.6381 58.5867 23.3991 58.9811 24.1835C59.4698 25.1425 58.4356 26.0338 57.5038 25.5035L52.1511 22.3897C51.9199 22.2536 51.7443 22.0411 51.655 21.7895C51.5657 21.5379 51.5683 21.2631 51.6624 21.0132L52.6397 18.4409Z" fill="#144F2E"/>
<path d="M39.582 19.1404C39.6458 18.8665 39.7732 18.6111 39.9541 18.3947C40.1349 18.1784 40.3641 18.0069 40.6235 17.894C40.8829 17.7812 41.1653 17.73 41.4481 17.7446C41.731 17.7593 42.0064 17.8393 42.2526 17.9783L45.6733 19.9302C45.9845 20.1083 46.2355 20.3739 46.3947 20.6935C46.5539 21.0132 46.6142 21.3724 46.568 21.726C46.5218 22.0796 46.3712 22.4117 46.1351 22.6804C45.899 22.9491 45.5881 23.1424 45.2415 23.2359L41.1048 24.3415C40.8009 24.4221 40.4811 24.4234 40.1766 24.3451C39.872 24.2669 39.593 24.1119 39.3666 23.895C39.1402 23.6782 38.9741 23.407 38.8844 23.1076C38.7947 22.8083 38.7844 22.491 38.8546 22.1866L39.582 19.1404Z" fill="#144F2E"/>
<path d="M41.038 12.9234C41.2425 11.9644 42.1744 11.3552 43.129 11.6147C44.5922 12.0106 46.0181 12.5315 47.3907 13.1716C48.7609 13.8293 50.0693 14.6071 51.3001 15.4958C51.5946 15.7137 51.8078 16.0224 51.9066 16.3736C52.0053 16.7248 51.9838 17.0985 51.8456 17.4363L51.1069 19.3994C51.0138 19.6448 50.868 19.867 50.6796 20.0508C50.4912 20.2345 50.2647 20.3753 50.016 20.4633C49.7672 20.5514 49.5021 20.5846 49.2391 20.5606C48.9761 20.5366 48.7215 20.4561 48.4931 20.3246L41.5948 16.3306C41.2638 16.1382 41.0022 15.8472 40.8472 15.4989C40.6922 15.1506 40.6516 14.7626 40.7311 14.3901L41.038 12.9234Z" fill="#819286"/>
<path d="M35.5153 16.1632C35.6361 15.9557 35.7974 15.7742 35.9897 15.6292C36.182 15.4843 36.4014 15.3788 36.6352 15.3189C36.869 15.2591 37.1125 15.246 37.3514 15.2806C37.5903 15.3151 37.8199 15.3966 38.0268 15.5201L38.095 15.554C38.4258 15.7509 38.6846 16.0475 38.8338 16.4006C38.9831 16.7537 39.0149 17.1448 38.9246 17.5171L37.1745 24.8618C37.1493 24.9707 37.093 25.0701 37.0124 25.1482C36.9318 25.2262 36.8302 25.2795 36.7199 25.3018C36.6376 25.3195 36.5525 25.3197 36.4702 25.3022C36.3879 25.2846 36.3103 25.2499 36.2426 25.2003L33.356 23.0567C33.0005 22.7918 32.7547 22.4071 32.6647 21.975C32.5747 21.5429 32.6468 21.0931 32.8673 20.71L35.5153 16.1632Z" fill="#144F2E"/>
<path d="M27.2314 32.9832C26.9396 32.6951 26.7549 32.3173 26.7075 31.9116C26.66 31.5058 26.7525 31.0961 26.97 30.7493L28.0269 29.057C28.2794 28.6566 28.6788 28.3694 29.1406 28.2559L35.9934 26.5861C36.0981 26.5587 36.2084 26.5599 36.3125 26.5897C36.4165 26.6195 36.5105 26.6768 36.5844 26.7554C36.6526 26.8309 36.7016 26.9215 36.7273 27.0196C36.753 27.1178 36.7546 27.2206 36.7321 27.3195L34.8001 34.9124C34.7252 35.2026 34.5791 35.4698 34.3748 35.6903C34.1706 35.9108 33.9146 36.0776 33.6296 36.176L32.3454 36.616C32.0219 36.7256 31.674 36.7435 31.3408 36.6678C31.0076 36.5921 30.7022 36.4257 30.4589 36.1873L27.2314 32.9832Z" fill="#144F2E"/>
<path d="M31.3209 23.2817C31.3397 23.2468 31.3658 23.2164 31.3975 23.1925C31.4292 23.1686 31.4658 23.1518 31.5046 23.1432C31.5435 23.1347 31.5837 23.1345 31.6227 23.1429C31.6616 23.1512 31.6982 23.1678 31.7301 23.1914L34.7644 25.3802C34.8082 25.4126 34.8418 25.4567 34.8614 25.5073C34.8809 25.5579 34.8856 25.613 34.8749 25.6661C34.8642 25.7193 34.8385 25.7684 34.8009 25.8076C34.7632 25.8469 34.7151 25.8747 34.6621 25.8879L29.7185 27.0387C29.6646 27.0505 29.6084 27.0465 29.5567 27.0271C29.5051 27.0077 29.4602 26.9738 29.4277 26.9295C29.3951 26.8853 29.3763 26.8325 29.3734 26.7777C29.3706 26.723 29.3839 26.6686 29.4117 26.6212L31.3209 23.2817Z" fill="#76A58A"/>
<path d="M19.1396 27.1063C19.1569 27.0628 19.1847 27.0242 19.2206 26.9939C19.2565 26.9635 19.2993 26.9424 19.3453 26.9324C19.3914 26.9224 19.4392 26.9237 19.4845 26.9364C19.5299 26.949 19.5714 26.9725 19.6055 27.0048L21.3443 28.6858C21.3816 28.7207 21.4084 28.7651 21.422 28.8142C21.4356 28.8632 21.4353 28.915 21.4212 28.9639C21.4071 29.0128 21.3798 29.0569 21.3422 29.0914C21.3046 29.126 21.2581 29.1496 21.2079 29.1597L18.5827 29.7802C18.5327 29.7922 18.4804 29.7905 18.4314 29.7751C18.3823 29.7597 18.3385 29.7313 18.3045 29.693C18.2706 29.6546 18.2478 29.6078 18.2388 29.5575C18.2297 29.5073 18.2347 29.4555 18.2532 29.4079L19.1396 27.1063Z" fill="#144F2E"/>
<path d="M25.2293 33.209C25.2501 33.17 25.2797 33.1361 25.3157 33.1101C25.3517 33.0841 25.3932 33.0666 25.4371 33.059C25.4809 33.0514 25.526 33.0538 25.5688 33.0662C25.6115 33.0785 25.6509 33.1003 25.6839 33.1301L29.7978 37.045C29.8329 37.0787 29.8589 37.1207 29.8731 37.1671C29.8873 37.2135 29.8894 37.2627 29.8792 37.3101C29.869 37.3575 29.8467 37.4016 29.8146 37.4381C29.7825 37.4746 29.7415 37.5024 29.6955 37.5188L22.2745 39.9445C22.2212 39.9621 22.1638 39.9635 22.1096 39.9486C22.0555 39.9337 22.007 39.9031 21.9705 39.8607C21.9339 39.8184 21.9109 39.7662 21.9043 39.7108C21.8977 39.6554 21.9079 39.5993 21.9336 39.5496L25.2293 33.209Z" fill="#144F2E"/>
<path d="M37.4808 28.199C37.5065 28.0886 37.56 27.9864 37.6363 27.9021C37.7126 27.8177 37.8092 27.754 37.917 27.7168C38.0249 27.6796 38.1405 27.6702 38.253 27.6894C38.3655 27.7086 38.4713 27.7559 38.5604 27.8267L43.6631 31.8093C43.7582 31.885 43.8313 31.9844 43.8749 32.0973C43.9186 32.2102 43.9313 32.3326 43.9116 32.452C43.8919 32.5714 43.8407 32.6834 43.7631 32.7767C43.6855 32.8699 43.5843 32.941 43.4699 32.9827L36.8671 35.2617C36.7512 35.3018 36.6265 35.3101 36.5063 35.2857C36.386 35.2612 36.2746 35.2051 36.1838 35.123C36.093 35.041 36.0262 34.9362 35.9905 34.8196C35.9547 34.703 35.9514 34.579 35.9807 34.4606L37.4808 28.199Z" fill="#76A58A"/>
<path d="M33.9124 36.9427C33.9614 36.9273 34.0138 36.9255 34.0637 36.9376C34.1136 36.9497 34.1592 36.9752 34.1956 37.0113C34.2319 37.0474 34.2576 37.0927 34.2698 37.1423C34.282 37.1918 34.2802 37.2438 34.2647 37.2924L33.8329 38.8042C33.8184 38.8512 33.7921 38.8937 33.7565 38.9277C33.7208 38.9617 33.677 38.9861 33.6291 38.9986C33.5813 39.011 33.531 39.0111 33.4831 38.9988C33.4353 38.9865 33.3913 38.9622 33.3556 38.9283L32.2646 37.8678C32.229 37.8336 32.203 37.7909 32.1892 37.7437C32.1753 37.6965 32.174 37.6466 32.1855 37.5988C32.197 37.551 32.2208 37.5069 32.2545 37.471C32.2883 37.4351 32.331 37.4086 32.3782 37.394L33.9124 36.9427Z" fill="#76A58A"/>
<path d="M37.7886 45.0434C37.8368 45.0883 37.8678 45.1483 37.8765 45.2134C37.8851 45.2784 37.8708 45.3444 37.8361 45.4002C37.8013 45.456 37.7481 45.4981 37.6856 45.5194C37.6231 45.5408 37.5551 45.54 37.4932 45.5172L33.9588 44.2536C33.893 44.2311 33.838 44.1852 33.8045 44.1247C33.7709 44.0643 33.7611 43.9936 33.777 43.9264L34.1747 42.2228C34.1859 42.1736 34.2103 42.1284 34.2451 42.0918C34.28 42.0552 34.3242 42.0286 34.373 42.0147C34.4218 42.0009 34.4734 42.0003 34.5225 42.0131C34.5716 42.0259 34.6164 42.0516 34.652 42.0874L37.7886 45.0434Z" fill="#144F2E"/>
<path d="M50.0729 24.7816C50.1648 24.5352 50.3098 24.3118 50.4977 24.1268C50.6856 23.9419 50.9119 23.7999 51.1608 23.7107C51.4097 23.6215 51.6752 23.5874 51.9387 23.6106C52.2023 23.6338 52.4576 23.7138 52.6868 23.8451L57.1417 26.3949C57.3304 26.502 57.4842 26.6605 57.5849 26.8518C57.6856 27.043 57.7289 27.2589 57.7098 27.4738C57.6907 27.6887 57.6098 27.8937 57.4769 28.0644C57.344 28.2352 57.1645 28.3645 56.9598 28.437L51.1298 30.5129C50.8041 30.6286 50.452 30.6496 50.1147 30.5735C49.7774 30.4974 49.4689 30.3274 49.2255 30.0834C48.9822 29.8394 48.8139 29.5315 48.7406 29.196C48.6672 28.8604 48.6918 28.511 48.8115 28.1888L50.0729 24.7816Z" fill="#144F2E"/>
<path d="M35.185 37.621C35.253 37.31 35.4022 37.0223 35.6177 36.7866C35.8331 36.551 36.1072 36.3757 36.4124 36.2785L42.106 34.4959C43.5607 34.0446 44.9017 35.4549 44.3448 36.8651L41.4128 44.4017C41.2835 44.74 41.0268 45.0151 40.6968 45.1689C40.4346 45.2949 40.1392 45.3365 39.852 45.288C39.5648 45.2394 39.2999 45.1031 39.0944 44.8981L35.276 41.1298C35.0592 40.9148 34.9 40.6495 34.8127 40.3579C34.7253 40.0663 34.7127 39.7577 34.7759 39.46L35.185 37.621Z" fill="#144F2E"/>
<path d="M45.7549 36.1551C45.8567 35.9002 46.0158 35.6716 46.22 35.4868C46.4241 35.302 46.668 35.1659 46.9332 35.0886C47.1983 35.0114 47.4776 34.9952 47.75 35.0412C48.0224 35.0872 48.2806 35.1942 48.5051 35.3541L51.153 37.2608C51.4092 37.4458 51.6125 37.6938 51.7428 37.9805C51.8731 38.2672 51.9259 38.5826 51.8961 38.8957C51.8663 39.2088 51.7549 39.5088 51.5727 39.7662C51.3906 40.0236 51.1441 40.2294 50.8575 40.3634L45.1185 43.026C44.9118 43.1216 44.6809 43.1533 44.4558 43.117C44.2308 43.0806 44.0219 42.9779 43.8565 42.8221C43.691 42.6664 43.5766 42.4648 43.528 42.2436C43.4795 42.0224 43.4991 41.7919 43.5842 41.5819L45.7549 36.1551Z" fill="#144F2E"/>
<path d="M49.7661 34.9341C49.4999 34.7369 49.2932 34.4712 49.1684 34.1656C49.0436 33.8601 49.0055 33.5264 49.0582 33.2009C49.1109 32.8753 49.2524 32.5703 49.4674 32.319C49.6823 32.0676 49.9625 31.8795 50.2775 31.7751L60.2669 28.492C60.3529 28.4652 60.4445 28.4615 60.5323 28.4813C60.6202 28.5011 60.7011 28.5437 60.767 28.6048C60.8254 28.6608 60.8685 28.7307 60.892 28.8079C61.017 29.2592 61.4716 30.8725 61.6307 31.9556C61.7216 32.5536 61.7898 33.2982 61.8466 33.9074C61.8732 34.2644 61.7909 34.621 61.6105 34.9309C61.4302 35.2408 61.16 35.4896 60.8352 35.6449L55.687 38.0819C55.3894 38.2238 55.0583 38.282 54.7297 38.2502C54.4011 38.2184 54.0876 38.0977 53.8232 37.9013L49.7661 34.9341Z" fill="#247251"/>
<path d="M10.8992 33.919C10.9381 33.5609 11.0863 33.2231 11.3239 32.9509C11.5616 32.6787 11.8773 32.4851 12.2288 32.3959L15.1381 31.6626C15.2599 31.631 15.3881 31.6335 15.5085 31.6698C15.6289 31.7061 15.7368 31.7748 15.8204 31.8682C15.9039 31.9617 15.9598 32.0762 15.9818 32.1992C16.0038 32.3222 15.991 32.4489 15.945 32.5652L13.9903 37.4504C13.8396 37.8213 13.5583 38.1253 13.1988 38.3059C12.8393 38.4864 12.4259 38.5312 12.0356 38.4319C11.6973 38.345 11.3962 38.152 11.1771 37.8817C10.9581 37.6114 10.8327 37.2781 10.8196 36.9314C10.8082 36.435 10.7969 35.8596 10.7969 35.397C10.8082 34.957 10.8537 34.4042 10.8992 33.919Z" fill="#144F2E"/>
<path d="M17.047 32.0118C17.1487 31.7226 17.3232 31.464 17.5539 31.2606C17.7847 31.0572 18.064 30.9158 18.3653 30.8498L21.6951 30.1277C22.0056 30.0602 22.3285 30.0747 22.6316 30.1697C22.9346 30.2647 23.2074 30.437 23.4225 30.6693L24.0248 31.3236C24.2865 31.6061 24.4508 31.964 24.4937 32.3454C24.5366 32.7268 24.456 33.1119 24.2635 33.4447L20.7518 39.4581C20.5469 39.8084 20.2293 40.0801 19.85 40.2295C19.4707 40.3789 19.0518 40.3973 18.6608 40.2817L16.3651 39.6048C16.1281 39.5356 15.9078 39.419 15.7178 39.2622C15.5278 39.1054 15.3722 38.9117 15.2604 38.6929C15.1486 38.4742 15.0831 38.235 15.0679 37.9902C15.0527 37.7454 15.088 37.5001 15.1719 37.2694L17.047 32.0118Z" fill="#76A58A"/>
<path d="M13.74 24.341C14.2855 23.303 15.6606 23.1338 16.5016 23.9461L17.638 25.063C17.8908 25.3108 18.0644 25.627 18.1372 25.9721C18.2099 26.3172 18.1786 26.676 18.0472 27.0036L17.0812 29.4518C16.9746 29.7232 16.803 29.9647 16.5812 30.1554C16.3594 30.3461 16.0941 30.4802 15.8084 30.5462L13.9559 30.9749C12.6604 31.2795 11.5012 30.14 11.8762 28.8764C12.0808 28.2108 12.3081 27.5 12.5695 26.8343C12.9218 25.9882 13.3423 25.0969 13.74 24.341Z" fill="#144F2E"/>
<path d="M20.2421 43.2507C20.4375 42.9125 20.738 42.6462 21.0985 42.4917C21.4591 42.3371 21.8603 42.3026 22.2423 42.3933L30.8566 44.4692C31.3264 44.5835 31.7314 44.8781 31.9827 45.2884C32.2341 45.6987 32.3114 46.1912 32.1976 46.6579L31.7771 48.3277C31.7154 48.5767 31.6001 48.8094 31.4393 49.01C31.2784 49.2106 31.0758 49.3742 30.8452 49.4898L20.6512 54.6909C20.3185 54.8643 19.9388 54.9283 19.567 54.8735C19.1952 54.8188 18.8506 54.6481 18.5829 54.3863C18.1624 53.9688 17.6624 53.4611 17.2873 53.0437C17.0373 52.7616 16.7646 52.4683 16.5259 52.2088C16.2598 51.9221 16.0923 51.559 16.0473 51.1718C16.0024 50.7845 16.0824 50.3931 16.2759 50.0539L20.2421 43.2507Z" fill="#144F2E"/>
<path d="M14.0023 40.2718C14.0274 40.2064 14.0764 40.1527 14.1395 40.1213C14.2027 40.09 14.2753 40.0833 14.3432 40.1026L17.7185 41.0503C17.7767 41.0675 17.8279 41.1025 17.8647 41.1505C17.9015 41.1984 17.9221 41.2567 17.9233 41.317C17.9246 41.3772 17.9065 41.4364 17.8718 41.4858C17.837 41.5352 17.7873 41.5723 17.7298 41.5919L13.4795 42.957C13.4283 42.9723 13.3739 42.973 13.3222 42.9593C13.2706 42.9455 13.2239 42.9177 13.1873 42.879C13.1508 42.8404 13.1257 42.7924 13.1151 42.7404C13.1045 42.6884 13.1087 42.6345 13.1272 42.5847L14.0023 40.2718Z" fill="#144F2E"/>
<path d="M12.2512 44.6261C12.2371 44.5921 12.2301 44.5556 12.2305 44.5189C12.2309 44.4821 12.2388 44.4458 12.2536 44.4121C12.2685 44.3785 12.29 44.3481 12.3169 44.3228C12.3438 44.2976 12.3756 44.2779 12.4103 44.2651L19.0244 41.8169C19.0803 41.7974 19.1409 41.7956 19.1979 41.8116C19.2549 41.8276 19.3056 41.8608 19.3429 41.9065C19.3802 41.9521 19.4024 42.0082 19.4064 42.0668C19.4104 42.1255 19.3961 42.184 19.3653 42.2343L14.9786 49.3308C14.9527 49.3726 14.9162 49.407 14.8728 49.4304C14.8294 49.4539 14.7805 49.4656 14.731 49.4645C14.6816 49.4633 14.6333 49.4493 14.591 49.4239C14.5487 49.3985 14.5139 49.3625 14.49 49.3195C14.2627 48.9247 13.9331 48.3267 13.6831 47.8641C13.1376 46.8262 12.5012 45.2467 12.2512 44.6261Z" fill="#144F2E"/>
<path d="M11.0682 39.6058C11.063 39.5627 11.069 39.519 11.0855 39.4788C11.1021 39.4386 11.1287 39.4033 11.1628 39.3762C11.1969 39.3491 11.2375 39.3311 11.2806 39.3238C11.3237 39.3166 11.368 39.3205 11.4092 39.335L13.1934 39.8766C13.2299 39.8875 13.2637 39.9057 13.2928 39.93C13.3219 39.9544 13.3457 39.9844 13.3627 40.0182C13.3798 40.052 13.3897 40.0889 13.3918 40.1266C13.394 40.1643 13.3883 40.2021 13.3752 40.2376L12.4661 42.9566C12.4495 43.0125 12.415 43.0614 12.3678 43.0961C12.3206 43.1307 12.2634 43.1491 12.2047 43.1484L12.0456 43.1597C11.9797 43.1661 11.9139 43.1475 11.8612 43.1078C11.8085 43.0681 11.7729 43.01 11.7615 42.9453C11.6819 42.652 11.5456 42.0992 11.4206 41.535C11.2554 40.9015 11.1376 40.2566 11.0682 39.6058Z" fill="#144F2E"/>
<path d="M22.6836 57.5675C21.5358 56.8116 21.7176 55.1418 22.9677 54.5777L28.4227 52.1182C28.7364 51.9759 29.0845 51.9252 29.4262 51.972C29.7679 52.0187 30.0892 52.161 30.3525 52.3822C30.6159 52.6034 30.8104 52.8944 30.9134 53.2212C31.0164 53.5481 31.0236 53.8972 30.9342 54.228L30.5024 55.8301L29.8432 58.6506C29.795 58.8802 29.6992 59.0973 29.5619 59.2881C29.4246 59.479 29.2489 59.6394 29.0459 59.7593C28.8429 59.8792 28.617 59.9558 28.3825 59.9844C28.1481 60.0131 27.9102 59.993 27.684 59.9255C26.6586 59.6165 25.6592 59.2279 24.6951 58.7634C24.0814 58.4475 23.3655 58.0075 22.6836 57.5675Z" fill="#CEC7B6"/>
<path d="M33.4573 45.4724C33.4791 45.4004 33.5276 45.3394 33.593 45.3017C33.6585 45.264 33.7359 45.2524 33.8096 45.2693L37.3213 46.2283C37.3769 46.2445 37.4263 46.277 37.463 46.3216C37.4996 46.3661 37.5219 46.4207 37.5268 46.478C37.5317 46.5353 37.5191 46.5928 37.4905 46.6429C37.4619 46.6929 37.4188 46.7333 37.3667 46.7586L33.0709 48.7668C33.0219 48.7898 32.9673 48.7984 32.9135 48.7916C32.8598 48.7849 32.8091 48.763 32.7673 48.7287C32.7256 48.6944 32.6946 48.649 32.6779 48.5978C32.6612 48.5466 32.6596 48.4917 32.6732 48.4396L33.4573 45.4724Z" fill="#76A58A"/>
<path d="M23.514 41.7603C23.367 41.7273 23.2352 41.6469 23.1391 41.5317C23.043 41.4165 22.988 41.2729 22.9828 41.1233C22.9776 40.9738 23.0225 40.8268 23.1104 40.7052C23.1982 40.5837 23.3242 40.4945 23.4686 40.4516L30.0032 38.5223C30.3027 38.4336 30.6202 38.4234 30.9249 38.4926C31.2296 38.5617 31.5111 38.708 31.7419 38.9172L32.9125 39.9664C33.1533 40.1802 33.3319 40.4541 33.4299 40.7597C33.5278 41.0652 33.5414 41.3913 33.4694 41.7039L33.3784 42.0875C33.3273 42.3195 33.2305 42.5393 33.0937 42.7341C32.9568 42.929 32.7826 43.0951 32.5809 43.223C32.3793 43.3509 32.1542 43.438 31.9186 43.4793C31.6829 43.5207 31.4414 43.5154 31.2078 43.4639L23.514 41.7603Z" fill="#144F2E"/>
<path d="M32.5831 50.9683C32.6475 50.7099 32.7685 50.4688 32.9374 50.2621C33.1063 50.0554 33.319 49.8882 33.5604 49.7724L38.8904 47.2339C39.0363 47.1638 39.1982 47.1332 39.3598 47.1451C39.5214 47.157 39.677 47.2109 39.8109 47.3016C39.9879 47.4183 40.1194 47.5916 40.1835 47.7927C40.2476 47.9938 40.2404 48.2107 40.1632 48.4072L35.5606 60.2987C35.4364 60.6398 35.2043 60.9317 34.8991 61.131C34.5939 61.3303 34.2319 61.4262 33.8673 61.4044C33.4809 61.3705 33.049 61.3254 32.6172 61.2577C32.2762 61.2013 31.9694 61.1449 31.6966 61.0772C30.8102 60.8741 30.3443 59.9828 30.5602 59.1141L32.5831 50.9683Z" fill="#144F2E"/>
<path d="M40.4817 50.663C40.5934 50.3835 40.7736 50.1361 41.0061 49.9433C41.2385 49.7505 41.5158 49.6184 41.8127 49.559C42.1096 49.4996 42.4168 49.5148 42.7063 49.6032C42.9959 49.6915 43.2586 49.8503 43.4706 50.0651L49.221 55.898C50.0165 56.699 49.8688 58.0078 48.8574 58.5268C45.7373 60.1707 42.3017 61.1397 38.777 61.3699C37.5269 61.4714 36.6859 60.2304 37.1405 59.0683L40.4817 50.663Z" fill="#144F2E"/>
<path d="M44.4021 49.6243C43.8907 49.1392 44.368 48.293 45.0499 48.4848L55.1416 51.2039C55.8235 51.3844 56.2894 51.971 55.9939 52.6028C55.7382 53.1097 55.4046 53.5741 55.0052 53.9793C54.3688 54.6562 53.6869 55.288 53.1301 55.7732C52.8039 56.0506 52.3847 56.1965 51.9554 56.1819C51.5261 56.1672 51.1179 55.9932 50.8117 55.6942L44.4021 49.6243Z" fill="#144F2E"/>
<path d="M42.4582 46.579C42.3813 46.5588 42.3095 46.5228 42.2475 46.4734C42.1855 46.424 42.1347 46.3621 42.0982 46.292C42.0618 46.2218 42.0406 46.1448 42.0361 46.0659C42.0315 45.9871 42.0437 45.9082 42.0718 45.8344C42.1287 45.6972 42.2337 45.585 42.3673 45.5185L53.675 40.1933C53.977 40.0507 54.3126 39.9932 54.6453 40.027C54.9779 40.0608 55.2948 40.1847 55.5615 40.3851L59.6072 43.4538C59.9088 43.6741 60.129 43.9867 60.2338 44.3436C60.3385 44.7004 60.322 45.0816 60.1868 45.4282C59.9595 46.0149 59.6527 46.7595 59.2777 47.5154C58.9201 48.2448 58.5139 48.9496 58.0617 49.6252C57.8612 49.9236 57.5705 50.151 57.2314 50.2747C56.8924 50.3984 56.5225 50.4119 56.1752 50.3134L42.4582 46.579Z" fill="#144F2E"/>
<path d="M57.1869 40.3734C57.0308 40.2577 56.9072 40.104 56.8282 39.9272C56.7491 39.7504 56.7172 39.5564 56.7355 39.3638C56.7537 39.1712 56.8216 38.9865 56.9325 38.8274C57.0434 38.6683 57.1936 38.5402 57.3687 38.4554L60.2667 37.0564C60.4425 36.9698 60.6383 36.9309 60.8342 36.9438C61.0301 36.9567 61.219 37.0208 61.3818 37.1297C61.5446 37.2386 61.6755 37.3884 61.7611 37.5638C61.8467 37.7392 61.8839 37.9339 61.8691 38.1283C61.8236 38.7037 61.7668 39.3016 61.6986 39.798C61.6191 40.3283 61.494 40.9714 61.3577 41.5468C61.316 41.7244 61.2302 41.8889 61.108 42.0251C60.9859 42.1614 60.8313 42.2651 60.6584 42.3268C60.4855 42.3885 60.2998 42.4062 60.1182 42.3784C59.9366 42.3505 59.765 42.2779 59.6189 42.1673L57.1869 40.3734Z" fill="#144F2E"/>
<path fill-rule="evenodd" clip-rule="evenodd" d="M65.6197 41.9871C65.5934 42.1101 65.5426 42.2266 65.4704 42.3297C65.3981 42.4329 65.3058 42.5207 65.1988 42.588C65.0919 42.6553 64.9725 42.7006 64.8477 42.7214C64.7228 42.7423 64.5951 42.7381 64.4719 42.7092L63.5968 42.5061C63.3459 42.4454 63.1286 42.2902 62.9907 42.0734C62.8529 41.8566 62.8053 41.595 62.8581 41.344C63.202 39.6201 63.3733 37.8666 63.3695 36.1091C63.3676 34.3519 63.1964 32.5989 62.8581 30.8741C62.8068 30.6233 62.855 30.3625 62.9926 30.146C63.1302 29.9295 63.3466 29.7741 63.5968 29.7121L64.4719 29.509C64.5951 29.4796 64.723 29.4751 64.848 29.4957C64.973 29.5163 65.0926 29.5616 65.1996 29.629C65.3067 29.6963 65.399 29.7843 65.4712 29.8877C65.5433 29.9911 65.5938 30.1079 65.6197 30.2311C66.4076 34.1107 66.4076 38.1075 65.6197 41.9871ZM64.6764 26.7223C64.7161 26.8415 64.731 26.9674 64.7203 27.0925C64.7095 27.2176 64.6733 27.3392 64.6138 27.4499C64.5543 27.5607 64.4727 27.6583 64.3741 27.7368C64.2755 27.8154 64.1618 27.8733 64.04 27.9069L63.1763 28.1551C62.9292 28.2252 62.6643 28.1973 62.4375 28.0773C62.2107 27.9574 62.0396 27.7547 61.9603 27.512C60.8213 24.1699 59.0294 21.0836 56.6872 18.4299C56.517 18.237 56.428 17.9865 56.4386 17.7304C56.4492 17.4742 56.5585 17.2318 56.744 17.0534L57.3918 16.4555C57.4835 16.3694 57.5916 16.3025 57.7098 16.2587C57.828 16.2149 57.9539 16.195 58.0799 16.2003C58.206 16.2055 58.3297 16.2358 58.4438 16.2893C58.5579 16.3428 58.66 16.4185 58.7441 16.5119C61.3933 19.4845 63.411 22.9573 64.6764 26.7223ZM56.1644 13.9508C56.2579 14.0362 56.3333 14.1392 56.3862 14.2538C56.4392 14.3684 56.4687 14.4923 56.4729 14.6183C56.4771 14.7443 56.4561 14.8699 56.4109 14.9877C56.3657 15.1056 56.2974 15.2133 56.2099 15.3047L55.5962 15.9478C55.4173 16.1303 55.1742 16.237 54.9178 16.2454C54.6614 16.2538 54.4117 16.1633 54.2211 15.9929C51.5501 13.6508 48.4363 11.8598 45.0613 10.7241C44.8157 10.6441 44.6114 10.4717 44.4925 10.2438C44.3735 10.016 44.3492 9.75099 44.4248 9.50561L44.6862 8.67073C44.7216 8.55098 44.781 8.43955 44.8607 8.34306C44.9404 8.24656 45.0389 8.16699 45.1502 8.10909C45.2616 8.05118 45.3835 8.01612 45.5088 8.00601C45.6341 7.99589 45.7602 8.01092 45.8795 8.0502C49.6761 9.30272 53.1757 11.3105 56.1644 13.9508ZM42.3338 7.09121C42.4576 7.11673 42.5749 7.1669 42.6786 7.2387C42.7823 7.3105 42.8703 7.40243 42.9372 7.50895C43.0042 7.61546 43.0486 7.73434 43.068 7.85839C43.0873 7.98245 43.0811 8.10911 43.0497 8.23072L42.8452 9.08817C42.7841 9.33669 42.6273 9.55153 42.4084 9.68654C42.1896 9.82155 41.9261 9.86596 41.6746 9.81023C38.1708 9.11825 34.564 9.11825 31.0602 9.81023C30.809 9.86128 30.5478 9.81488 30.3301 9.68058C30.1123 9.54628 29.9547 9.33429 29.8896 9.08817L29.6851 8.23072C29.6537 8.10911 29.6475 7.98245 29.6668 7.85839C29.6861 7.73434 29.7306 7.61546 29.7975 7.50895C29.8645 7.40243 29.9524 7.3105 30.0562 7.2387C30.1599 7.1669 30.2772 7.11673 30.401 7.09121C32.3616 6.70065 34.3564 6.50413 36.356 6.50454C38.3638 6.49123 40.3675 6.68787 42.3338 7.09121ZM26.878 8.02764C26.9974 7.98901 27.1233 7.97447 27.2484 7.98488C27.3734 7.99529 27.4952 8.03044 27.6064 8.08826C27.7176 8.14609 27.816 8.22541 27.8958 8.32157C27.9757 8.41773 28.0353 8.52877 28.0713 8.64816L28.3327 9.48305C28.4045 9.72842 28.3784 9.99181 28.2599 10.2186C28.1415 10.4455 27.9396 10.6184 27.6963 10.7015C24.3232 11.8417 21.2103 13.6322 18.5365 15.9703C18.3458 16.1408 18.0961 16.2313 17.8397 16.2228C17.5833 16.2144 17.3402 16.1078 17.1613 15.9252L16.5477 15.2821C16.459 15.1914 16.3896 15.0838 16.3438 14.9658C16.2979 14.8479 16.2764 14.722 16.2807 14.5956C16.2849 14.4692 16.3148 14.345 16.3685 14.2303C16.4221 14.1157 16.4985 14.0129 16.5931 13.9282C19.5968 11.3085 23.0919 9.30327 26.878 8.02764ZM14.002 16.5232C14.0861 16.4298 14.1883 16.3541 14.3023 16.3006C14.4164 16.2471 14.5401 16.2168 14.6662 16.2115C14.7923 16.2063 14.9181 16.2262 15.0363 16.27C15.1545 16.3138 15.2627 16.3807 15.3544 16.4667L16.0022 17.0647C16.1902 17.2417 16.3013 17.4845 16.3119 17.7415C16.3225 17.9985 16.2318 18.2495 16.059 18.4411C13.7243 21.0982 11.9367 24.1838 10.7972 27.5233C10.716 27.7647 10.5446 27.9659 10.3183 28.0855C10.0921 28.2052 9.82829 28.2341 9.58121 28.1664L8.7175 27.9182C8.59604 27.884 8.48278 27.8258 8.3845 27.7471C8.28623 27.6684 8.20495 27.5708 8.14553 27.4602C8.08612 27.3497 8.04978 27.2283 8.03871 27.1034C8.02764 26.9786 8.04205 26.8528 8.08109 26.7336C9.34175 22.9689 11.3557 19.4959 14.002 16.5232ZM8.28565 29.5203C8.16243 29.4909 8.03452 29.4864 7.90951 29.507C7.78449 29.5276 7.66492 29.5729 7.55788 29.6403C7.45083 29.7076 7.3585 29.7956 7.28635 29.899C7.21419 30.0024 7.16369 30.1192 7.13783 30.2423C6.34989 34.122 6.34989 38.1188 7.13783 41.9984C7.16412 42.1214 7.21489 42.2378 7.28716 42.341C7.35943 42.4442 7.45174 42.532 7.55867 42.5993C7.6656 42.6665 7.78499 42.7119 7.90984 42.7327C8.03468 42.7535 8.16245 42.7494 8.28565 42.7205L9.16072 42.5174C9.41163 42.4567 9.62894 42.3015 9.76678 42.0847C9.90461 41.8678 9.95217 41.6063 9.89941 41.3553C9.55556 39.6313 9.38425 37.8778 9.38801 36.1204C9.38991 34.3632 9.56116 32.6102 9.89941 30.8854C9.9507 30.6346 9.90252 30.3737 9.76491 30.1573C9.62731 29.9408 9.41088 29.7854 9.16072 29.7234L8.28565 29.5203ZM8.08109 45.4959C8.04139 45.3767 8.02647 45.2508 8.03724 45.1257C8.04801 45.0006 8.08424 44.879 8.14374 44.7683C8.20325 44.6575 8.28478 44.5599 8.3834 44.4814C8.48203 44.4028 8.59569 44.3449 8.7175 44.3113L9.58121 44.0631C9.82832 43.993 10.0932 44.0209 10.32 44.1409C10.5468 44.2608 10.7179 44.4635 10.7972 44.7062C11.9362 48.0483 13.7282 51.1346 16.0703 53.7883C16.2405 53.9812 16.3295 54.2316 16.3189 54.4878C16.3083 54.744 16.199 54.9864 16.0135 55.1648L15.3657 55.7627C15.274 55.8488 15.1659 55.9157 15.0477 55.9595C14.9295 56.0033 14.8036 56.0232 14.6776 56.0179C14.5515 56.0127 14.4278 55.9824 14.3137 55.9289C14.1996 55.8754 14.0975 55.7997 14.0134 55.7063C11.3619 52.7353 9.34393 49.2621 8.08109 45.4959ZM16.5931 58.2674C16.4996 58.182 16.4242 58.079 16.3713 57.9644C16.3183 57.8498 16.2888 57.7259 16.2846 57.5999C16.2804 57.4739 16.3015 57.3483 16.3466 57.2305C16.3918 57.1126 16.4601 57.0049 16.5477 56.9135L17.1613 56.2704C17.3402 56.0879 17.5833 55.9812 17.8397 55.9728C18.0961 55.9644 18.3458 56.0549 18.5365 56.2253C21.2075 58.5674 24.3212 60.3584 27.6963 61.4941C27.9419 61.5741 28.1461 61.7465 28.2651 61.9743C28.384 62.2022 28.4083 62.4672 28.3327 62.7126L28.0713 63.5475C28.0359 63.6672 27.9765 63.7787 27.8968 63.8751C27.8171 63.9716 27.7186 64.0512 27.6073 64.1091C27.4959 64.167 27.374 64.2021 27.2487 64.2122C27.1234 64.2223 26.9973 64.2073 26.878 64.168C23.0797 62.9192 19.5794 60.911 16.5931 58.2674ZM30.4237 65.1383C30.2999 65.1128 30.1826 65.0626 30.0789 64.9908C29.9752 64.919 29.8872 64.827 29.8203 64.7205C29.7533 64.614 29.7089 64.4951 29.6895 64.3711C29.6702 64.247 29.6764 64.1204 29.7078 63.9988L29.9123 63.1413C29.9734 62.8928 30.1302 62.6779 30.3491 62.5429C30.5679 62.4079 30.8314 62.3635 31.0829 62.4192C34.5867 63.1112 38.1935 63.1112 41.6974 62.4192C41.9485 62.3682 42.2097 62.4146 42.4275 62.5489C42.6452 62.6832 42.8028 62.8952 42.8679 63.1413L43.0725 63.9988C43.1038 64.1204 43.11 64.247 43.0907 64.3711C43.0714 64.4951 43.0269 64.614 42.96 64.7205C42.8931 64.827 42.8051 64.919 42.7013 64.9908C42.5976 65.0626 42.4803 65.1128 42.3565 65.1383C38.4179 65.9205 34.3623 65.9205 30.4237 65.1383ZM45.8795 64.1906C45.7602 64.2292 45.6342 64.2437 45.5092 64.2333C45.3841 64.2229 45.2623 64.1878 45.1511 64.1299C45.04 64.0721 44.9415 63.9928 44.8617 63.8966C44.7818 63.8005 44.7222 63.6894 44.6862 63.57L44.4248 62.7351C44.3531 62.4898 44.3791 62.2264 44.4976 61.9995C44.6161 61.7727 44.8179 61.5998 45.0613 61.5167C48.4343 60.3765 51.5472 58.586 54.2211 56.2479C54.4117 56.0774 54.6614 55.9869 54.9178 55.9953C55.1742 56.0038 55.4173 56.1104 55.5962 56.293L56.2099 56.9361C56.2985 57.0268 56.3679 57.1344 56.4138 57.2524C56.4596 57.3703 56.4811 57.4962 56.4768 57.6226C56.4726 57.749 56.4427 57.8732 56.3891 57.9879C56.3354 58.1025 56.259 58.2053 56.1644 58.29C53.1699 60.9223 49.672 62.9291 45.8795 64.1906ZM58.7555 55.695C58.6714 55.7884 58.5693 55.8641 58.4552 55.9176C58.3411 55.9711 58.2174 56.0014 58.0913 56.0067C57.9652 56.0119 57.8394 55.992 57.7212 55.9482C57.603 55.9044 57.4948 55.8375 57.4031 55.7515L56.7554 55.1535C56.5673 54.9765 56.4562 54.7337 56.4456 54.4767C56.435 54.2197 56.5257 53.9687 56.6985 53.7771C59.043 51.125 60.8352 48.0382 61.9717 44.6949C62.0529 44.4535 62.2243 44.2523 62.4505 44.1327C62.6768 44.013 62.9406 43.9841 63.1877 44.0518L64.0514 44.3C64.1728 44.3342 64.2861 44.3924 64.3844 44.4711C64.4827 44.5498 64.5639 44.6474 64.6233 44.7579C64.6828 44.8685 64.7191 44.9899 64.7302 45.1148C64.7412 45.2396 64.7268 45.3654 64.6878 45.4846C63.4211 49.2491 61.4036 52.7216 58.7555 55.695Z" fill="#144F2E"/>
<path d="M36.4801 2.99575L37.9461 1.45008C37.9572 1.43543 37.9631 1.41762 37.9631 1.39931C37.9631 1.381 37.9572 1.36319 37.9461 1.34854L36.4346 0.0172377C36.4221 0.006137 36.4059 0 36.3892 0C36.3724 0 36.3562 0.006137 36.3437 0.0172377L34.889 1.29213C34.8811 1.29801 34.8746 1.30566 34.8701 1.31448C34.8656 1.32329 34.8633 1.33303 34.8633 1.3429C34.8633 1.35277 34.8656 1.36251 34.8701 1.37132C34.8746 1.38014 34.8811 1.38779 34.889 1.39367L36.4005 2.99575C36.4119 3.01831 36.4573 3.01831 36.4801 2.99575Z" fill="#144F2E"/>
<path d="M36.0128 3.55916L34.3194 1.91196C34.3128 1.9052 34.3048 1.89984 34.296 1.89618C34.2873 1.89251 34.2778 1.89063 34.2683 1.89062C34.2588 1.89063 34.2493 1.89251 34.2406 1.89618C34.2318 1.89984 34.2238 1.9052 34.2172 1.91196L29.8418 5.42073C29.8077 5.4433 29.8532 5.57868 29.91 5.66894C29.9355 5.69984 29.9695 5.7227 30.0078 5.73473C30.0462 5.74675 30.0872 5.74741 30.1259 5.73663C30.5237 5.66894 31.8079 5.44329 32.9216 5.28534C33.4671 5.20637 34.0808 5.16124 34.6263 5.13868C35.3991 5.10483 36.0469 4.48431 36.0241 3.71711C36.0241 3.61557 36.0241 3.55916 36.0128 3.55916Z" fill="#144F2E"/>
<path d="M36.7405 3.53812L38.4338 1.90219C38.4404 1.89544 38.4484 1.89007 38.4572 1.88641C38.466 1.88275 38.4754 1.88086 38.4849 1.88086C38.4944 1.88086 38.5039 1.88275 38.5126 1.88641C38.5214 1.89007 38.5294 1.89544 38.5361 1.90219L42.9114 5.41096C42.9455 5.43353 42.9 5.56892 42.8432 5.65917C42.8177 5.69008 42.7838 5.71294 42.7454 5.72496C42.7071 5.73698 42.666 5.73765 42.6273 5.72687C42.2295 5.65917 40.9453 5.43353 39.8316 5.27558C39.2861 5.1966 38.6724 5.15147 38.1269 5.12891C37.3541 5.09506 36.7064 4.47454 36.7291 3.70735C36.7293 3.65076 36.7331 3.59423 36.7405 3.53812Z" fill="#144F2E"/>
<path d="M3.0215 36.0075L1.46456 34.5521C1.44981 34.5411 1.43187 34.5352 1.41342 34.5352C1.39498 34.5352 1.37704 34.5411 1.36228 34.5521L0.0212697 36.0526C0.010088 36.065 0.00390625 36.0811 0.00390625 36.0977C0.00390625 36.1144 0.010088 36.1305 0.0212697 36.1429L1.30546 37.587C1.31138 37.5949 1.31909 37.6014 1.32797 37.6058C1.33685 37.6103 1.34666 37.6126 1.3566 37.6126C1.36655 37.6126 1.37635 37.6103 1.38523 37.6058C1.39411 37.6014 1.40182 37.5949 1.40774 37.587L3.0215 36.0865C3.04423 36.0752 3.04423 36.0301 3.0215 36.0075Z" fill="#144F2E"/>
<path d="M3.59087 36.4708L1.93165 38.1519C1.92484 38.1585 1.91944 38.1664 1.91575 38.1751C1.91206 38.1838 1.91016 38.1932 1.91016 38.2027C1.91016 38.2121 1.91206 38.2215 1.91575 38.2302C1.91944 38.2389 1.92484 38.2468 1.93165 38.2534L5.46601 42.5971C5.48874 42.6309 5.62512 42.5858 5.71603 42.5294C5.74716 42.5041 5.77019 42.4704 5.7823 42.4323C5.79441 42.3942 5.79508 42.3535 5.78422 42.315C5.71603 41.9202 5.48874 40.6453 5.32964 39.5396C5.25009 38.9981 5.20463 38.3888 5.1819 37.8473C5.14781 37.0801 4.52276 36.437 3.74997 36.4596C3.6967 36.4586 3.64346 36.4624 3.59087 36.4708Z" fill="#144F2E"/>
<path d="M3.57915 35.7473L1.91993 34.0662C1.91312 34.0596 1.90772 34.0517 1.90403 34.043C1.90034 34.0343 1.89844 34.0249 1.89844 34.0155C1.89844 34.006 1.90034 33.9966 1.90403 33.9879C1.90772 33.9792 1.91312 33.9713 1.91993 33.9647L5.45429 29.621C5.48839 29.5872 5.6134 29.6323 5.70431 29.6887C5.73544 29.714 5.75847 29.7477 5.77058 29.7858C5.78269 29.8239 5.78336 29.8646 5.7725 29.9031C5.70431 30.298 5.47702 31.5729 5.31792 32.6785C5.23837 33.2201 5.19291 33.8293 5.17018 34.3709C5.13609 35.138 4.51104 35.7811 3.73825 35.7586C3.63597 35.7586 3.57915 35.7586 3.57915 35.7473Z" fill="#144F2E"/>
<path d="M36.2741 69.2005L34.8081 70.7461C34.797 70.7608 34.791 70.7786 34.791 70.7969C34.791 70.8152 34.797 70.833 34.8081 70.8477L36.3195 72.179C36.332 72.1901 36.3482 72.1962 36.365 72.1962C36.3818 72.1962 36.398 72.1901 36.4105 72.179L37.8651 70.9041C37.8731 70.8982 37.8796 70.8905 37.8841 70.8817C37.8886 70.8729 37.8909 70.8632 37.8909 70.8533C37.8909 70.8434 37.8886 70.8337 37.8841 70.8249C37.8796 70.8161 37.8731 70.8084 37.8651 70.8025L36.365 69.2005C36.3524 69.1896 36.3362 69.1836 36.3195 69.1836C36.3028 69.1836 36.2867 69.1896 36.2741 69.2005Z" fill="#144F2E"/>
<path d="M36.7405 68.6358L38.4338 70.2718C38.4404 70.2785 38.4484 70.2839 38.4572 70.2875C38.466 70.2912 38.4754 70.2931 38.4849 70.2931C38.4944 70.2931 38.5039 70.2912 38.5126 70.2875C38.5214 70.2839 38.5294 70.2785 38.5361 70.2718L42.9114 66.763C42.9455 66.7404 42.9 66.605 42.8432 66.5148C42.8177 66.4839 42.7838 66.461 42.7454 66.449C42.7071 66.437 42.666 66.4363 42.6273 66.4471C42.2295 66.5148 40.9453 66.7404 39.8316 66.8984C39.2861 66.9773 38.6724 67.0225 38.1269 67.045C37.3541 67.0789 36.7064 67.6994 36.7291 68.4666C36.7279 68.5232 36.7317 68.5799 36.7405 68.6358Z" fill="#144F2E"/>
<path d="M36.0128 68.6593L34.3194 70.2952C34.3128 70.3019 34.3048 70.3073 34.296 70.311C34.2873 70.3146 34.2778 70.3165 34.2683 70.3165C34.2588 70.3165 34.2493 70.3146 34.2406 70.311C34.2318 70.3073 34.2238 70.3019 34.2172 70.2952L29.8418 66.7864C29.8077 66.7639 29.8532 66.6285 29.91 66.5382C29.9355 66.5073 29.9695 66.4844 30.0078 66.4724C30.0462 66.4604 30.0872 66.4597 30.1259 66.4705C30.5237 66.5382 31.8079 66.7639 32.9216 66.9218C33.4671 67.0008 34.0808 67.0459 34.6263 67.0685C35.3991 67.1023 36.0469 67.7228 36.0241 68.49C36.0306 68.5467 36.0268 68.604 36.0128 68.6593Z" fill="#144F2E"/>
<path d="M69.7085 36.2106L71.2654 37.666C71.2801 37.6769 71.2981 37.6829 71.3165 37.6829C71.335 37.6829 71.3529 37.6769 71.3677 37.666L72.7087 36.1654C72.7199 36.153 72.726 36.137 72.726 36.1203C72.726 36.1036 72.7199 36.0876 72.7087 36.0752L71.4245 34.631C71.4186 34.6231 71.4109 34.6167 71.402 34.6122C71.3931 34.6078 71.3833 34.6055 71.3734 34.6055C71.3634 34.6055 71.3536 34.6078 71.3447 34.6122C71.3358 34.6167 71.3281 34.6231 71.3222 34.631L69.7085 36.1316C69.6857 36.1429 69.6857 36.188 69.7085 36.2106Z" fill="#144F2E"/>
<path d="M69.1405 35.7473L70.7997 34.0662C70.8065 34.0596 70.8119 34.0517 70.8156 34.043C70.8193 34.0343 70.8212 34.0249 70.8212 34.0155C70.8212 34.006 70.8193 33.9966 70.8156 33.9879C70.8119 33.9792 70.8065 33.9713 70.7997 33.9647L67.2653 29.621C67.2426 29.5872 67.1062 29.6323 67.0153 29.6887C66.9842 29.714 66.9612 29.7477 66.9491 29.7858C66.9369 29.8239 66.9363 29.8646 66.9471 29.9031C67.0153 30.298 67.2426 31.5729 67.4017 32.6785C67.4813 33.2201 67.5267 33.8293 67.5495 34.3709C67.5836 35.138 68.2086 35.7811 68.9814 35.7586C69.0837 35.7586 69.1405 35.7586 69.1405 35.7473Z" fill="#144F2E"/>
<path d="M69.1636 36.4708L70.8114 38.1519C70.8182 38.1585 70.8236 38.1664 70.8273 38.1751C70.831 38.1838 70.8329 38.1932 70.8329 38.2027C70.8329 38.2121 70.831 38.2215 70.8273 38.2302C70.8236 38.2389 70.8182 38.2468 70.8114 38.2534L67.2771 42.5971C67.2543 42.6309 67.118 42.5858 67.027 42.5294C66.9959 42.5041 66.9729 42.4704 66.9608 42.4323C66.9487 42.3942 66.948 42.3535 66.9589 42.315C67.027 41.9202 67.2543 40.6453 67.4134 39.5396C67.493 38.9981 67.5384 38.3888 67.5612 37.8473C67.5953 37.0801 68.2203 36.437 68.9931 36.4596C69.0501 36.4598 69.107 36.4635 69.1636 36.4708Z" fill="#144F2E"/>
<path d="M98.3889 19L98.2152 25.2526H96.6225C96.666 24.189 96.5646 23.3265 96.333 22.651C96.1013 21.9466 95.7393 21.4292 95.2326 21.0986C94.7258 20.768 94.1032 20.5955 93.3069 20.6242H91.5839L90.8166 34.61C90.8025 35.0812 90.7639 35.5514 90.7007 36.0187C90.6573 36.4499 90.6283 36.7948 90.5849 37.0392C90.8166 37.0248 91.0627 37.0104 91.3523 37.0104C91.6419 37.0104 91.9314 36.9817 92.2065 36.9817C92.4816 36.9817 92.7133 36.953 92.887 36.953L92.8001 38.8216H85.112L85.2278 37.2692C85.6326 37.2759 86.0321 37.1768 86.3861 36.9817C86.7106 36.7921 86.953 36.4901 87.0666 36.1336C87.2398 35.5937 87.3373 35.0326 87.3562 34.4663L88.1235 20.653H86.2847C85.1699 20.6674 84.3011 21.0555 83.6786 21.7885C83.056 22.5216 82.7085 23.6859 82.6361 25.267H81L81.4778 19.0144H98.3889V19Z" fill="#144F2E"/>
<path d="M104.498 24.3461C105.215 24.3372 105.928 24.464 106.597 24.7199C107.205 24.9213 107.732 25.3088 108.103 25.8267C108.465 26.3297 108.639 26.9909 108.639 27.8102C108.656 28.5406 108.392 29.2498 107.901 29.7938C107.376 30.3803 106.728 30.8462 106.004 31.1594C105.189 31.5106 104.346 31.7943 103.485 32.0074C102.619 32.2299 101.738 32.3884 100.849 32.4817C100.849 33.5885 100.965 34.4797 101.211 35.1409C101.458 35.8021 101.791 36.2477 102.21 36.5208C102.637 36.7815 103.128 36.9207 103.629 36.9233C104.073 36.9166 104.513 36.8389 104.932 36.6933C105.471 36.4906 105.964 36.1827 106.38 35.7877C106.858 35.3565 107.263 34.7528 107.625 33.9766L108.986 34.6522C108.451 35.8021 107.872 36.7077 107.235 37.3689C106.663 37.9673 105.966 38.4335 105.193 38.7344C104.474 38.9978 103.715 39.134 102.949 39.1368C101.197 39.1512 99.8359 38.6338 98.8658 37.5845C97.8958 36.5352 97.418 34.9972 97.418 32.9992C97.4244 31.9933 97.5656 30.9927 97.8379 30.0238C98.1132 29.0294 98.5431 28.0838 99.112 27.2209C99.687 26.3767 100.444 25.6698 101.327 25.1511C102.21 24.6192 103.267 24.3461 104.498 24.3461ZM104.165 25.8985C103.834 25.8885 103.506 25.9517 103.203 26.0835C102.9 26.2152 102.63 26.4123 102.413 26.6603C101.925 27.2061 101.569 27.8549 101.371 28.5577C101.141 29.3213 100.99 30.1064 100.922 30.9006C101.809 30.7682 102.676 30.5217 103.499 30.1676C104.194 29.8226 104.744 29.4345 105.121 28.9745C105.484 28.5602 105.685 28.0293 105.685 27.4796C105.694 27.0483 105.533 26.6304 105.236 26.3154C104.946 26.046 104.563 25.8969 104.165 25.8985Z" fill="#144F2E"/>
<path d="M114.923 39.1233C114.107 39.1299 113.295 39.0037 112.52 38.7496C111.838 38.5249 111.219 38.146 110.71 37.6428C110.268 37.1765 110.024 36.5585 110.03 35.9179C110.006 35.4498 110.167 34.991 110.478 34.6386C110.623 34.4765 110.802 34.3476 111.002 34.2607C111.202 34.1738 111.418 34.1311 111.637 34.1356C111.845 34.1239 112.053 34.1607 112.244 34.2431C112.435 34.3255 112.604 34.4511 112.737 34.6099C112.876 34.753 112.984 34.922 113.056 35.107C113.128 35.2921 113.163 35.4896 113.157 35.6879C113.157 35.8336 113.138 35.9786 113.099 36.1191C113.075 36.2791 113.027 36.4343 112.954 36.5791C113.07 36.8378 113.331 37.0678 113.751 37.2547C114.123 37.4298 114.527 37.5276 114.938 37.5422C115.821 37.5422 116.473 37.3409 116.864 36.9528C117.056 36.7599 117.207 36.5308 117.309 36.2791C117.411 36.0274 117.461 35.758 117.457 35.4867C117.461 35.2861 117.423 35.0868 117.346 34.9014C117.268 34.716 117.154 34.5482 117.008 34.4087C116.661 34.0605 116.272 33.7564 115.85 33.5031C115.372 33.2013 114.88 32.8994 114.344 32.5975C113.651 32.1963 112.979 31.7597 112.332 31.2895C111.837 30.9362 111.414 30.4922 111.087 29.9815C110.796 29.4847 110.65 28.9172 110.667 28.3429C110.668 27.6523 110.886 26.9793 111.289 26.4168C111.745 25.7832 112.359 25.278 113.07 24.9507C113.852 24.5482 114.779 24.3613 115.879 24.3613C116.614 24.3628 117.344 24.4892 118.036 24.7351C118.686 24.9315 119.277 25.2817 119.759 25.7556C119.975 25.9651 120.147 26.2155 120.264 26.492C120.381 26.7686 120.441 27.0656 120.44 27.3655C120.445 27.7997 120.296 28.2218 120.02 28.5585C119.874 28.7171 119.694 28.8418 119.494 28.9238C119.294 29.0058 119.078 29.043 118.862 29.0328C118.655 29.0427 118.449 29.0064 118.259 28.9268C118.068 28.8472 117.898 28.7263 117.761 28.5729C117.502 28.2736 117.362 27.8897 117.37 27.4948C117.37 27.3511 117.385 27.2074 117.399 27.0636C117.447 26.9255 117.506 26.791 117.573 26.6611C117.416 26.3926 117.162 26.1925 116.864 26.1006C116.523 25.965 116.159 25.8967 115.792 25.8993C115.456 25.9052 115.125 25.9836 114.822 26.1293C114.505 26.26 114.222 26.4617 113.997 26.7186C113.765 26.9631 113.64 27.2886 113.649 27.6242C113.641 27.9053 113.722 28.1817 113.881 28.4148C114.097 28.7073 114.367 28.9562 114.677 29.1478C115.054 29.4066 115.56 29.7372 116.212 30.1109C116.864 30.4846 117.501 30.8871 118.167 31.3327C118.814 31.7235 119.392 32.219 119.875 32.7988C120.338 33.3776 120.58 34.101 120.556 34.8399C120.566 35.639 120.306 36.4186 119.817 37.0534C119.305 37.7283 118.62 38.2545 117.834 38.5771C116.912 38.9575 115.921 39.1435 114.923 39.1233Z" fill="#144F2E"/>
<path d="M126.855 39.1233C126.039 39.1299 125.227 39.0037 124.452 38.7496C123.77 38.5249 123.15 38.146 122.642 37.6428C122.199 37.1765 121.956 36.5585 121.961 35.9179C121.938 35.4498 122.099 34.991 122.41 34.6386C122.555 34.4765 122.734 34.3476 122.934 34.2607C123.134 34.1738 123.35 34.1311 123.568 34.1356C123.776 34.1239 123.984 34.1607 124.175 34.2431C124.366 34.3255 124.535 34.4511 124.669 34.6099C124.807 34.753 124.916 34.922 124.988 35.107C125.06 35.2921 125.094 35.4896 125.089 35.6879C125.089 35.8336 125.069 35.9786 125.031 36.1191C125.007 36.2791 124.958 36.4343 124.886 36.5791C125.002 36.8378 125.262 37.0678 125.682 37.2547C126.054 37.4298 126.458 37.5277 126.87 37.5422C127.753 37.5422 128.404 37.3409 128.795 36.9528C128.987 36.7599 129.139 36.5308 129.241 36.2791C129.343 36.0274 129.393 35.758 129.389 35.4867C129.392 35.2861 129.354 35.0868 129.277 34.9014C129.2 34.716 129.085 34.5482 128.94 34.4087C128.593 34.0605 128.204 33.7564 127.782 33.5031C127.304 33.2013 126.812 32.8994 126.276 32.5975C125.583 32.1963 124.911 31.7597 124.263 31.2895C123.768 30.9362 123.346 30.4922 123.018 29.9815C122.728 29.4847 122.582 28.9172 122.598 28.3429C122.6 27.6523 122.817 26.9793 123.221 26.4168C123.677 25.7832 124.29 25.278 125.002 24.9507C125.784 24.5482 126.71 24.3613 127.811 24.3613C128.546 24.3628 129.276 24.4892 129.968 24.7351C130.617 24.9315 131.208 25.2817 131.691 25.7556C131.907 25.9651 132.079 26.2155 132.196 26.492C132.312 26.7686 132.372 27.0656 132.371 27.3655C132.376 27.7997 132.228 28.2218 131.952 28.5585C131.805 28.7171 131.626 28.8418 131.426 28.9238C131.225 29.0058 131.01 29.043 130.793 29.0328C130.587 29.0427 130.381 29.0064 130.19 28.9268C130 28.8472 129.83 28.7263 129.693 28.5729C129.433 28.2736 129.294 27.8897 129.302 27.4948C129.302 27.3511 129.316 27.2074 129.331 27.0636C129.379 26.9255 129.437 26.791 129.505 26.6611C129.347 26.3926 129.094 26.1925 128.795 26.1006C128.455 25.965 128.091 25.8967 127.724 25.8993C127.387 25.9052 127.056 25.9836 126.754 26.1293C126.437 26.26 126.154 26.4617 125.928 26.7186C125.697 26.9631 125.572 27.2886 125.581 27.6242C125.573 27.9053 125.654 28.1817 125.813 28.4148C126.028 28.7073 126.299 28.9562 126.609 29.1478C126.985 29.4066 127.492 29.7372 128.144 30.1109C128.795 30.4846 129.432 30.8871 130.098 31.3327C130.746 31.7235 131.323 32.219 131.807 32.7988C132.27 33.3776 132.511 34.101 132.487 34.8399C132.498 35.6391 132.238 36.4186 131.749 37.0534C131.237 37.7283 130.552 38.2545 129.765 38.5771C128.843 38.9563 127.853 39.1423 126.855 39.1233Z" fill="#144F2E"/>
<path d="M141.158 24.3461C141.876 24.3372 142.588 24.464 143.258 24.7199C143.865 24.9213 144.392 25.3088 144.763 25.8267C145.125 26.3297 145.299 26.9909 145.299 27.8102C145.316 28.5406 145.052 29.2498 144.561 29.7938C144.036 30.3803 143.389 30.8462 142.664 31.1594C141.849 31.5106 141.007 31.7943 140.145 32.0074C139.279 32.2299 138.399 32.3884 137.51 32.4817C137.51 33.5885 137.625 34.4797 137.872 35.1409C138.118 35.8021 138.451 36.2477 138.871 36.5208C139.297 36.7815 139.788 36.9207 140.289 36.9233C140.733 36.9166 141.173 36.8389 141.593 36.6933C142.131 36.4906 142.624 36.1827 143.04 35.7877C143.518 35.3565 143.924 34.7528 144.286 33.9766L145.647 34.6522C145.111 35.8021 144.532 36.7077 143.895 37.3689C143.323 37.9673 142.626 38.4335 141.853 38.7344C141.135 38.9978 140.375 39.134 139.609 39.1368C137.857 39.1512 136.496 38.6338 135.526 37.5845C134.556 36.5352 134.078 34.9972 134.078 32.9992C134.085 31.9933 134.226 30.9927 134.498 30.0238C134.773 29.0294 135.203 28.0838 135.772 27.2209C136.347 26.3767 137.104 25.6698 137.987 25.1511C138.871 24.6192 139.928 24.3461 141.158 24.3461ZM140.825 25.8985C140.495 25.8885 140.166 25.9517 139.863 26.0835C139.56 26.2152 139.29 26.4123 139.073 26.6603C138.591 27.2097 138.235 27.8573 138.031 28.5577C137.801 29.3213 137.65 30.1064 137.582 30.9006C138.469 30.7682 139.336 30.5217 140.159 30.1676C140.854 29.8226 141.404 29.4345 141.781 28.9745C142.145 28.5602 142.345 28.0293 142.345 27.4796C142.355 27.0483 142.194 26.6304 141.897 26.3154C141.604 26.0487 141.222 25.9 140.825 25.8985Z" fill="#144F2E"/>
<path d="M148.689 38.8079C148.655 38.5938 148.636 38.3778 148.631 38.1611V37.658C148.631 37.2987 148.646 36.8675 148.689 36.35C148.733 35.8325 148.776 35.2145 148.834 34.5389C148.892 33.8633 148.993 33.1159 149.094 32.2966C149.21 31.4485 149.297 30.7154 149.384 30.083C149.471 29.4505 149.543 28.9475 149.587 28.5594C149.622 28.2395 149.642 27.9181 149.645 27.5963C149.659 27.2513 149.63 27.007 149.529 26.8345C149.501 26.7551 149.447 26.687 149.377 26.6403C149.306 26.5937 149.223 26.571 149.138 26.5758C148.892 26.5758 148.631 26.7483 148.342 27.1076C148.052 27.467 147.791 28.0707 147.545 28.9762L146.242 28.6025C146.339 28.1603 146.46 27.7236 146.604 27.2945C146.779 26.7967 147.017 26.3233 147.314 25.8858C147.6 25.4459 147.975 25.0692 148.414 24.779C148.874 24.467 149.421 24.3062 149.978 24.3191C150.673 24.3191 151.237 24.5347 151.657 24.9659C152.077 25.3971 152.28 26.1158 152.28 27.122C152.265 27.467 152.222 27.855 152.164 28.315C152.106 28.7462 152.034 29.2349 151.932 29.7811H151.99C152.497 28.2719 153.033 27.1364 153.583 26.3602C154.133 25.584 154.712 25.0234 155.262 24.7503C155.76 24.4796 156.316 24.3317 156.884 24.3191C157.55 24.3191 158.086 24.4916 158.506 24.8509C158.875 25.1815 159.097 25.6437 159.124 26.1365C159.152 26.6293 158.981 27.1128 158.65 27.4813C158.502 27.6566 158.316 27.7957 158.105 27.888C157.894 27.9802 157.664 28.023 157.434 28.0132C157.058 28.0117 156.694 27.8795 156.406 27.6394C156.258 27.5207 156.141 27.3691 156.063 27.1968C155.985 27.0245 155.949 26.8363 155.957 26.6476C155.581 26.5758 155.19 26.7483 154.799 27.1795C154.348 27.7078 153.978 28.2985 153.699 28.9331C153.338 29.75 153.033 30.5905 152.787 31.4485C152.526 32.3684 152.309 33.3171 152.135 34.2802C151.991 35.1789 151.913 36.0869 151.903 36.9968C151.903 37.2412 151.918 37.543 151.932 37.9024C151.947 38.2617 151.976 38.5205 151.99 38.7504H148.689V38.8079Z" fill="#144F2E"/>
<path d="M167.365 24.3477C167.981 24.3515 168.596 24.3995 169.204 24.4914C169.922 24.5895 170.633 24.7335 171.333 24.9226C171.217 25.7563 171.087 26.6906 170.942 27.7543C170.797 28.8179 170.667 29.8672 170.522 30.9309C170.392 31.9658 170.276 32.9145 170.189 33.7913C170.102 34.6681 170.073 35.3293 170.073 35.8036C170.063 36.0814 170.102 36.3587 170.189 36.6229C170.218 36.7098 170.274 36.785 170.35 36.8369C170.426 36.8888 170.517 36.9146 170.609 36.9104C170.855 36.9104 171.115 36.7379 171.405 36.4073C171.709 36.048 171.984 35.4155 172.259 34.51L173.533 34.8837C173.457 35.3307 173.336 35.7689 173.171 36.1917C172.976 36.6914 172.718 37.1646 172.404 37.6004C172.108 38.0499 171.724 38.436 171.275 38.7359C170.798 39.0306 170.244 39.1805 169.682 39.1671C169.094 39.184 168.523 38.9726 168.089 38.5778C167.67 38.1753 167.467 37.5141 167.467 36.5942C167.466 36.2149 167.486 35.8359 167.525 35.4586C167.583 35.0418 167.641 34.6393 167.727 34.2369H167.67C167.354 35.1013 166.957 35.934 166.482 36.7235C166.136 37.2829 165.707 37.7869 165.208 38.2184C164.828 38.5476 164.385 38.797 163.905 38.9515C163.493 39.0802 163.063 39.148 162.631 39.1527C162.127 39.1596 161.629 39.0532 161.172 38.8417C160.716 38.6301 160.314 38.3187 159.996 37.931C159.272 37.126 158.924 35.8324 158.924 34.0788C158.912 32.8228 159.093 31.5723 159.46 30.3703C159.816 29.2401 160.375 28.1833 161.111 27.2512C161.819 26.3567 162.719 25.63 163.746 25.1238C164.759 24.6064 165.99 24.3477 167.365 24.3477ZM166.366 25.9288C165.742 25.9262 165.134 26.1339 164.643 26.5181C164.086 26.9551 163.639 27.5165 163.34 28.1567C162.947 28.9524 162.669 29.7992 162.515 30.6722C162.333 31.755 162.246 32.8515 162.255 33.9494C162.255 34.8693 162.356 35.6168 162.573 36.1917C162.805 36.7379 163.138 37.011 163.601 37.011C164.064 37.011 164.484 36.781 164.904 36.3355C165.381 35.7888 165.763 35.167 166.033 34.4956C166.394 33.6589 166.699 32.7994 166.946 31.9227C167.206 30.9596 167.423 29.9822 167.597 29.0048C167.76 28.0591 167.857 27.1034 167.887 26.1444C167.675 26.074 167.457 26.0258 167.235 26.0007C166.948 25.9553 166.657 25.9313 166.366 25.9288Z" fill="#144F2E"/>
<path d="M86.3835 51.94V48.8855L84.9992 51.1361H84.4224L83.0526 48.8855V51.94H82V47.044H83.1391L84.7252 49.6893L86.3114 47.044H87.4216V51.94H86.3835ZM93.521 51.9692C93.1651 51.9705 92.8123 51.901 92.4828 51.7646C92.1822 51.6314 91.9084 51.4432 91.6753 51.2092C91.4505 50.9796 91.2739 50.7061 91.1562 50.4054C91.0362 50.1135 90.9725 49.8009 90.9688 49.4847C90.9655 49.163 91.0293 48.8442 91.1562 48.5493C91.42 47.9458 91.8989 47.4655 92.4972 47.2048C92.8217 47.0684 93.1697 46.9988 93.521 47.0002C93.8634 46.9969 94.2028 47.0653 94.5179 47.2011C94.833 47.3369 95.117 47.5371 95.3522 47.7894C95.5802 48.0165 95.7572 48.2906 95.8713 48.5932C95.9899 48.8804 96.0536 49.1879 96.0588 49.4993C96.0607 49.8209 95.9969 50.1393 95.8713 50.4346C95.7428 50.7287 95.5619 50.9962 95.3378 51.2238C95.1085 51.4625 94.8338 51.6514 94.5303 51.7792C94.2107 51.9134 93.8669 51.9782 93.521 51.9692ZM92.0358 49.4993C92.033 49.6989 92.0672 49.8972 92.1367 50.0839C92.2101 50.2621 92.3071 50.4293 92.4251 50.5808C92.553 50.7292 92.7102 50.8486 92.8865 50.9315C93.2956 51.0924 93.7501 51.0872 94.1554 50.9169C94.3325 50.8288 94.4896 50.7044 94.6169 50.5516C94.74 50.4036 94.8375 50.2356 94.9052 50.0547C94.9722 49.8774 95.0064 49.6891 95.0062 49.4993C95.0104 49.3044 94.9761 49.1106 94.9052 48.9293C94.8318 48.7557 94.7347 48.5934 94.6169 48.447C94.4894 48.3018 94.3319 48.187 94.1554 48.1109C93.9609 48.021 93.7492 47.9761 93.5354 47.9794C93.317 47.9763 93.1006 48.0211 92.901 48.1109C92.7224 48.1899 92.5644 48.31 92.4395 48.4616C92.3134 48.6074 92.2155 48.776 92.1512 48.9585C92.069 49.1263 92.0293 49.3121 92.0358 49.4993ZM102.72 48.4178C102.629 48.34 102.527 48.276 102.418 48.2278C102.257 48.1447 102.088 48.0809 101.913 48.0378C101.721 47.979 101.522 47.9495 101.322 47.9501C101.109 47.9406 100.897 47.9806 100.702 48.067C100.64 48.0983 100.589 48.1463 100.553 48.2058C100.518 48.2652 100.499 48.3336 100.5 48.4032C100.498 48.4566 100.509 48.5095 100.532 48.5578C100.555 48.606 100.588 48.6482 100.63 48.6809C100.753 48.7668 100.889 48.8311 101.033 48.8709C101.247 48.9403 101.463 48.9988 101.682 49.0462C101.982 49.1217 102.276 49.2194 102.562 49.3385C102.788 49.4317 102.987 49.5827 103.139 49.777C103.288 49.9891 103.36 50.2477 103.341 50.5077C103.346 50.7513 103.292 50.9924 103.182 51.2092C103.081 51.3971 102.931 51.5536 102.749 51.6623C102.561 51.7859 102.35 51.8704 102.129 51.9107C101.893 51.9647 101.651 51.9892 101.408 51.9838C101.014 51.9807 100.621 51.9266 100.24 51.823C99.8795 51.7223 99.5348 51.5698 99.2166 51.37L99.678 50.4493C99.7927 50.547 99.9186 50.6304 100.053 50.6977C100.252 50.794 100.46 50.8722 100.673 50.9315C100.923 50.9962 101.179 51.0305 101.437 51.0338C101.641 51.0439 101.844 51.0038 102.028 50.9169C102.091 50.8914 102.144 50.8467 102.18 50.789C102.216 50.7313 102.234 50.6636 102.23 50.5954C102.232 50.5332 102.216 50.4717 102.186 50.4176C102.155 50.3636 102.111 50.3189 102.057 50.2885C101.914 50.1981 101.758 50.1292 101.596 50.0839C101.394 50.0254 101.163 49.967 100.889 49.8939C100.607 49.8216 100.332 49.7238 100.067 49.6016C99.874 49.5003 99.7063 49.3552 99.5771 49.1778C99.469 48.9814 99.4142 48.7595 99.4185 48.5347C99.4092 48.2329 99.4951 47.936 99.6636 47.6871C99.8422 47.4539 100.082 47.2766 100.356 47.1756C100.664 47.0559 100.992 46.9964 101.322 47.0002C101.669 46.9991 102.015 47.0533 102.346 47.1609C102.63 47.2522 102.901 47.3799 103.153 47.5409L102.72 48.4178ZM106.239 51.94L108.344 47.044H109.195L111.3 51.94H110.19L109.699 50.7854H107.825L107.335 51.94H106.239ZM108.791 48.3301L108.084 49.8793H109.483L108.791 48.3301ZM114.616 51.94V47.044H115.669V51.94H114.616ZM119.202 49.4555C119.203 49.1546 119.262 48.8569 119.375 48.5786C119.493 48.2858 119.664 48.0181 119.879 47.7894C120.106 47.5476 120.381 47.3582 120.687 47.234C121.033 47.0866 121.407 47.0169 121.783 47.0294C122.214 47.0204 122.64 47.1209 123.023 47.3217C123.351 47.4932 123.618 47.7639 123.787 48.0963L122.98 48.6663C122.928 48.5439 122.853 48.4331 122.759 48.3403C122.665 48.2475 122.554 48.1745 122.432 48.1255C122.214 48.0283 121.978 47.9785 121.739 47.9794C121.515 47.9723 121.291 48.0226 121.091 48.1255C120.912 48.2046 120.754 48.3246 120.629 48.4763C120.508 48.6227 120.415 48.7914 120.355 48.9732C120.295 49.1473 120.261 49.3296 120.254 49.5139C120.256 49.7144 120.296 49.9126 120.37 50.0985C120.439 50.2818 120.542 50.4503 120.672 50.5954C120.802 50.7442 120.966 50.8594 121.148 50.9315C121.346 51.0095 121.556 51.0491 121.768 51.0485C121.925 51.0445 122.08 51.02 122.23 50.9754C122.399 50.9335 122.557 50.8536 122.691 50.7415C122.831 50.6365 122.941 50.4952 123.008 50.3323L123.874 50.8439C123.755 51.0939 123.576 51.3099 123.354 51.4723C123.119 51.645 122.856 51.7736 122.576 51.8523C122.3 51.9387 122.014 51.983 121.725 51.9838C121.374 51.9852 121.026 51.9156 120.701 51.7792C120.396 51.6409 120.122 51.4421 119.894 51.1946C119.669 50.9597 119.492 50.6814 119.375 50.3762C119.269 50.0807 119.21 49.7698 119.202 49.4555ZM135.207 48.4178C135.116 48.34 135.014 48.276 134.904 48.2278C134.744 48.1447 134.575 48.0809 134.4 48.0378C134.208 47.979 134.009 47.9495 133.808 47.9501C133.596 47.9406 133.384 47.9806 133.188 48.067C133.127 48.0983 133.076 48.1463 133.04 48.2058C133.004 48.2652 132.986 48.3336 132.987 48.4032C132.985 48.4566 132.996 48.5095 133.019 48.5578C133.041 48.606 133.075 48.6482 133.116 48.6809C133.239 48.7668 133.376 48.8311 133.52 48.8709C133.733 48.9403 133.95 48.9988 134.169 49.0462C134.469 49.1217 134.763 49.2194 135.048 49.3385C135.275 49.4317 135.474 49.5827 135.625 49.777C135.775 49.9891 135.846 50.2477 135.827 50.5077C135.833 50.7513 135.778 50.9924 135.668 51.2092C135.567 51.3971 135.418 51.5536 135.236 51.6623C135.048 51.7859 134.837 51.8704 134.616 51.9107C134.379 51.9647 134.137 51.9892 133.895 51.9838C133.5 51.9807 133.108 51.9266 132.727 51.823C132.366 51.7223 132.021 51.5698 131.703 51.37L132.165 50.4493C132.279 50.547 132.405 50.6304 132.54 50.6977C132.739 50.794 132.946 50.8722 133.16 50.9315C133.409 50.9962 133.666 51.0305 133.924 51.0338C134.127 51.0439 134.33 51.0038 134.515 50.9169C134.578 50.8914 134.631 50.8467 134.667 50.789C134.703 50.7313 134.721 50.6636 134.717 50.5954C134.718 50.5332 134.703 50.4717 134.672 50.4176C134.642 50.3636 134.597 50.3189 134.544 50.2885C134.401 50.1981 134.245 50.1292 134.082 50.0839C133.881 50.0254 133.65 49.967 133.376 49.8939C133.094 49.8216 132.819 49.7238 132.554 49.6016C132.361 49.5003 132.193 49.3552 132.064 49.1778C131.956 48.9814 131.901 48.7595 131.905 48.5347C131.896 48.2329 131.982 47.936 132.15 47.6871C132.329 47.4539 132.569 47.2766 132.842 47.1756C133.151 47.0559 133.478 46.9964 133.808 47.0002C134.156 46.9991 134.501 47.0533 134.832 47.1609C135.116 47.2522 135.388 47.3799 135.64 47.5409L135.207 48.4178ZM143.397 47.9647H141.696V51.94H140.643V47.9647H138.927V47.0294H143.397V47.9647ZM149.05 51.0338C149.257 51.0389 149.464 50.9991 149.655 50.9169C149.812 50.8412 149.946 50.7254 150.045 50.5808C150.146 50.4427 150.216 50.2827 150.246 50.1131C150.293 49.9316 150.317 49.7452 150.318 49.5578V47.044H151.371V49.5578C151.375 49.8803 151.326 50.2012 151.227 50.5077C151.143 50.793 151.001 51.057 150.809 51.2823C150.612 51.512 150.365 51.6921 150.088 51.8084C149.757 51.9383 149.404 52.0028 149.05 51.9984C148.685 52.0112 148.321 51.9465 147.983 51.8084C147.711 51.6829 147.469 51.4983 147.276 51.2677C147.091 51.0397 146.954 50.7762 146.872 50.4931C146.791 50.1983 146.752 49.8931 146.757 49.587V47.0732H147.81V49.587C147.807 49.7738 147.826 49.9603 147.867 50.1423C147.907 50.3117 147.98 50.471 148.083 50.61C148.183 50.7481 148.311 50.8627 148.458 50.9462C148.65 51.0033 148.849 51.0328 149.05 51.0338ZM155.163 51.94V47.044H157.124C157.63 47.0289 158.131 47.1446 158.581 47.3802C158.953 47.5777 159.259 47.8829 159.46 48.257C159.665 48.6326 159.769 49.0558 159.763 49.4847C159.772 49.9408 159.657 50.3907 159.431 50.7854C159.209 51.1544 158.889 51.453 158.509 51.6477C158.074 51.8632 157.594 51.9685 157.11 51.9546H155.163V51.94ZM158.696 49.4847C158.706 49.2092 158.641 48.9362 158.509 48.6955C158.389 48.4646 158.203 48.276 157.975 48.1547C157.712 48.0189 157.419 47.9535 157.124 47.9647H156.216V51.0046H157.124C157.424 51.0177 157.722 50.9522 157.99 50.8146C158.218 50.688 158.404 50.4945 158.523 50.2593C158.641 50.0188 158.7 49.7532 158.696 49.4847ZM163.325 51.94V47.044H164.377V51.94H163.325ZM170.462 51.9692C170.106 51.9705 169.754 51.901 169.424 51.7646C169.123 51.6314 168.85 51.4432 168.617 51.2092C168.392 50.9796 168.215 50.7061 168.097 50.4054C167.977 50.1135 167.914 49.8009 167.91 49.4847C167.907 49.163 167.971 48.8442 168.097 48.5493C168.361 47.9458 168.84 47.4655 169.438 47.2048C169.763 47.0684 170.111 46.9988 170.462 47.0002C170.805 46.9969 171.144 47.0653 171.459 47.2011C171.774 47.3369 172.058 47.5371 172.293 47.7894C172.521 48.0165 172.698 48.2906 172.813 48.5932C172.931 48.8804 172.995 49.1879 173 49.4993C173.002 49.8209 172.938 50.1393 172.813 50.4346C172.684 50.7287 172.503 50.9962 172.279 51.2238C172.05 51.4625 171.775 51.6514 171.472 51.7792C171.152 51.9121 170.808 51.9768 170.462 51.9692ZM168.977 49.4993C168.974 49.6989 169.008 49.8972 169.078 50.0839C169.151 50.2621 169.248 50.4293 169.366 50.5808C169.494 50.7292 169.651 50.8486 169.828 50.9315C170.237 51.0924 170.691 51.0872 171.097 50.9169C171.274 50.8288 171.431 50.7044 171.558 50.5516C171.681 50.4036 171.779 50.2356 171.846 50.0547C171.913 49.8774 171.948 49.6891 171.947 49.4993C171.952 49.3044 171.917 49.1106 171.846 48.9293C171.773 48.7557 171.676 48.5934 171.558 48.447C171.431 48.3018 171.273 48.187 171.097 48.1109C170.902 48.021 170.69 47.9761 170.477 47.9794C170.258 47.9763 170.042 48.0211 169.842 48.1109C169.664 48.1899 169.506 48.31 169.381 48.4616C169.255 48.6074 169.157 48.776 169.092 48.9585C169.01 49.1263 168.971 49.3121 168.977 49.4993Z" fill="#144F2E"/>
</g>
<defs>
<clipPath id="clip0_9368_11141">
<rect width="180" height="72" fill="white"/>
</clipPath>
</defs>
</svg>
