<svg width="88" height="76" viewBox="0 0 88 76" fill="none" xmlns="http://www.w3.org/2000/svg">
<path d="M14.1003 35.5146C10.1578 36.3788 6.54711 37.2302 2.91077 37.9267C2.06868 38.0944 1.00955 39.2166 0.231248 37.759C-0.547055 36.3014 0.843726 36.0563 1.39237 35.4371C5.11801 31.1933 8.94568 27.0529 12.6713 22.822C13.6098 21.5362 14.9641 20.6234 16.499 20.2421C18.2888 20.0512 19.9755 19.3014 21.3245 18.0971C22.6735 16.8927 23.6181 15.2935 24.0269 13.5216C24.4225 12.0769 25.1626 11.9867 26.5023 12.7735L29.2709 14.4246C29.8068 13.7797 30.3172 13.1347 30.9168 12.464C34.6042 8.59424 38.317 4.72446 42.0172 0.957931C43.2931 -0.331977 43.778 -0.331901 44.9518 1.0354C46.8784 3.30564 48.8944 5.49839 50.6934 7.87182C53.6284 11.561 57.1154 14.7642 61.0282 17.3655C62.9676 18.7328 64.7029 19.3779 66.8847 18.4621C70.6359 16.8884 73.111 17.9203 75.3821 21.4933C78.6229 26.6529 82.5144 31.2707 86.189 36.0821C86.8525 36.9592 86.9163 37.5913 85.9211 38.3911L74.1062 35.1017C74.3742 36.7915 74.6549 38.2492 74.7825 39.7197C74.8075 39.9993 74.7776 40.2812 74.6943 40.5491C74.6111 40.8169 74.4763 41.0655 74.2976 41.2804C74.0297 41.5255 73.2641 41.4352 72.8431 41.2804C69.7554 39.9905 66.6805 38.5588 63.6439 37.1141C63.3239 36.9266 62.9554 36.8411 62.5866 36.8688C62.2179 36.8964 61.866 37.0358 61.5769 37.2689C58.0044 39.7455 54.368 42.1317 50.8082 44.6213C50.5049 44.9116 50.1031 45.0735 49.6854 45.0735C49.2677 45.0735 48.8659 44.9116 48.5626 44.6213C43.1527 40.7515 37.6665 36.998 32.2694 33.1283C31.9485 32.851 31.5468 32.687 31.1254 32.6614C30.704 32.6358 30.2858 32.7499 29.9344 32.9864C24.6351 35.7468 19.3231 38.4685 13.9983 41.1515C13.7337 41.2726 13.4466 41.3352 13.1562 41.3352C12.8657 41.3352 12.5788 41.2726 12.3142 41.1515C12.0718 41.0096 12.1228 40.0809 12.3142 39.5908C12.799 38.275 13.3986 37.0754 14.1003 35.5146Z" fill="#121210"/>
<path d="M30.3938 15.096C31.8743 16.1098 33.417 17.0273 35.0126 17.8433C36.3042 18.3633 37.4329 19.2263 38.2796 20.3411C39.1263 21.4559 39.6594 22.7811 39.8228 24.1768C40.1646 27.0966 40.9838 29.9387 42.247 32.587C44.5941 36.2679 47.1502 39.8082 49.9024 43.19L60.7732 35.8118C58.6935 34.8573 56.8561 34.0962 55.1081 33.232C54.3642 32.8484 53.7445 32.2576 53.3219 31.5294C50.0811 25.2217 46.9424 18.8624 43.7271 12.5547C43.0023 11.2597 42.6529 9.78459 42.7191 8.29814C42.8084 6.59546 42.7191 4.87979 42.7191 3.52539L30.3938 15.096Z" fill="#121210"/>
<path d="M44.5308 3.33105C44.5308 4.96924 44.4159 6.54302 44.5308 8.10381C44.6131 9.36711 44.9108 10.6064 45.4111 11.7671C47.6184 16.3463 50.2723 20.7964 52.1607 25.4272C52.8706 27.5011 54.0701 29.3688 55.6554 30.868C57.2406 32.3673 59.1637 33.4529 61.2579 34.0309C61.462 34.0309 61.6278 34.2503 61.8192 34.2632C62.1525 34.3613 62.5067 34.3613 62.84 34.2632C63.9245 33.644 64.9707 32.9732 66.1062 32.2379C59.4715 22.009 52.888 12.0121 44.5308 3.33105Z" fill="#247251"/>
<path d="M25.0222 15.3408C21.3859 23.4156 17.9537 31.0519 14.5088 38.6881L14.7895 38.9333L30.2151 31.0132C28.5309 25.7762 26.8595 20.7326 25.0222 15.3408Z" fill="#247251"/>
<path d="M26.9873 15.0439C26.9873 15.3277 26.8852 15.4438 26.9873 15.5212C28.6077 20.3326 30.228 25.1567 31.9122 29.9552C32.1802 30.5648 32.6252 31.0777 33.1881 31.4257C36.7096 34.0055 40.2822 36.4306 43.8419 38.9201C44.263 39.2168 44.684 39.4876 45.1178 39.7714C44.5959 38.6759 43.9307 37.6564 43.1401 36.7401C41.3311 34.6474 40.0951 32.1128 39.5549 29.3877C39.0318 26.9756 38.279 24.6021 37.6155 22.2416C37.4682 21.6607 37.1253 21.1499 36.6458 20.7969C33.405 18.862 30.2408 16.9917 26.9873 15.0439Z" fill="#121210"/>
<path d="M72.9453 39.4872C72.9927 39.2886 73.0183 39.0853 73.0217 38.881C72.4093 35.0113 71.8352 31.0513 71.1462 27.1558C70.9659 26.5872 70.5961 26.0993 70.0999 25.7755C68.0074 24.2276 65.8638 22.7442 63.7203 21.235L58.6167 17.6621C58.7231 18.1793 58.9458 18.6647 59.2674 19.081L67.2801 30.6901C68.5561 32.5476 68.4923 32.8055 66.5402 34.031L64.2563 35.4886L72.9453 39.4872Z" fill="#121210"/>
<path d="M20.6078 20.848L20.4036 20.4609C18.4642 21.3897 16.1549 21.9056 14.6621 23.3245C11.3702 26.4461 8.4867 30.0192 5.45005 33.4117C4.77382 34.1598 4.17402 34.9466 3.25537 35.9915C7.18516 35.1272 10.7068 34.3661 14.2155 33.5277C14.4413 33.4442 14.648 33.3156 14.8234 33.1493C14.9988 32.9831 15.1392 32.7827 15.2361 32.5603C17.0607 28.6906 18.8215 24.7693 20.6078 20.848Z" fill="#121210"/>
<path d="M83.3311 35.7986L83.5991 35.502C79.6948 30.265 75.782 25.0279 71.8607 19.7908C71.7558 19.6599 71.6237 19.5539 71.4738 19.4803C71.3238 19.4068 71.1598 19.3675 70.9931 19.3652C69.3089 19.6877 67.6375 20.0876 65.762 20.5004C67.7907 21.9193 69.6789 23.0801 71.4014 24.499C72.1147 25.0916 72.6276 25.8942 72.8687 26.7951C73.3153 28.472 73.4173 30.2392 73.8001 31.9547C73.8665 32.2555 73.9952 32.5387 74.1778 32.7855C74.3603 33.0323 74.5926 33.2371 74.8592 33.3865C77.6534 34.2637 80.4985 35.0118 83.3311 35.7986Z" fill="#121210"/>
<path d="M30.3938 15.0955L42.7319 3.48633C42.7319 4.77624 42.8084 6.55624 42.7319 8.25892C42.6657 9.74537 43.015 11.2207 43.7399 12.5157C46.9679 18.8233 50.1193 25.1825 53.3346 31.4902C53.7571 32.2184 54.3769 32.8091 55.1209 33.1928C56.8689 34.1215 58.7062 34.8826 60.786 35.7726L49.9152 43.151C47.1629 39.7691 44.6068 36.2287 42.2598 32.5478C40.9966 29.8995 40.1773 27.0574 39.8355 24.1376C39.6722 22.7418 39.139 21.4167 38.2924 20.3019C37.4457 19.1871 36.317 18.3242 35.0253 17.8043C33.4264 17.0013 31.8794 16.0966 30.3938 15.0955Z" fill="white"/>
<path d="M26.9871 15.0439C30.2406 16.9917 33.3666 18.9136 36.5181 20.7969C36.9976 21.1499 37.3404 21.6607 37.4878 22.2416C38.1895 24.6021 38.9041 26.9756 39.4272 29.3877C39.9674 32.1128 41.2033 34.6474 43.0124 36.7401C43.803 37.6564 44.4682 38.6759 44.9901 39.7714C44.5563 39.4876 44.1352 39.2168 43.7142 38.9201C40.1544 36.4306 36.5819 33.9539 33.0604 31.4257C32.4975 31.0777 32.0525 30.5648 31.7845 29.9552C30.1003 25.1567 28.4798 20.3326 26.8594 15.5212C26.8849 15.4438 26.9488 15.3406 26.9871 15.0439Z" fill="white"/>
<path d="M72.9452 39.4872L64.3073 35.6175L66.5911 34.1599C68.5432 32.87 68.5943 32.6765 67.3312 30.819L59.3184 19.2099C58.9968 18.7936 58.7741 18.3082 58.6677 17.791L63.7713 21.3641C65.9021 22.8733 68.0456 24.3565 70.1509 25.9044C70.6471 26.2282 71.0168 26.7161 71.1971 27.2847C71.886 31.1544 72.4731 35.1015 73.0728 39.0099C73.0443 39.1725 73.0016 39.3322 72.9452 39.4872Z" fill="white"/>
<path d="M20.6078 20.8485C18.8215 24.7182 17.0607 28.6911 15.2361 32.5866C15.1392 32.809 14.9988 33.0093 14.8234 33.1755C14.648 33.3418 14.4413 33.4706 14.2155 33.5541C10.7068 34.3925 7.18516 35.1536 3.25537 36.0178C4.14851 34.9472 4.77382 34.1604 5.45005 33.438C8.4867 30.0456 11.3702 26.4724 14.6621 23.3509C16.1549 21.932 18.4898 21.416 20.4036 20.4873L20.6078 20.8485Z" fill="white"/>
<path d="M83.3311 35.7979C80.4985 35.011 77.6534 34.2629 74.8592 33.3729C74.5926 33.2234 74.3603 33.0186 74.1778 32.7718C73.9952 32.525 73.8665 32.2418 73.8001 31.9411C73.4173 30.2384 73.3153 28.4712 72.8687 26.7814C72.6276 25.8805 72.1147 25.0779 71.4014 24.4854C69.6789 23.0923 67.7907 21.9056 65.762 20.4867C67.6375 20.0739 69.3089 19.674 70.9931 19.3516C71.1598 19.3538 71.3238 19.3931 71.4738 19.4667C71.6237 19.5402 71.7558 19.6462 71.8607 19.7772C75.7905 25.0056 79.7033 30.2427 83.5991 35.4883L83.3311 35.7979Z" fill="white"/>
<path d="M0.687981 61.3389L0.741547 60.3568C1.07484 60.3449 1.33076 60.2914 1.50931 60.1961C1.69977 60.089 1.83666 59.9105 1.91998 59.6605C2.00331 59.3986 2.05687 59.0415 2.08068 58.5892L2.45563 51.465C2.47944 51.1674 2.50325 50.8817 2.52705 50.608C2.56276 50.3342 2.59252 50.1199 2.61633 49.9652C2.41397 49.9771 2.18186 49.989 1.91998 50.0009C1.65811 50.0009 1.4498 50.0068 1.29505 50.0188L1.34862 48.8403H13.3829L13.3294 49.8223C13.0199 49.8342 12.7699 49.8878 12.5795 49.983C12.389 50.0664 12.2462 50.2271 12.1509 50.4651C12.0676 50.6913 12.0141 51.0424 11.9902 51.5186L11.6153 58.6785C11.6034 58.9999 11.5796 59.2974 11.5439 59.5712C11.5201 59.845 11.4963 60.0593 11.4724 60.214C11.6629 60.2021 11.8891 60.1902 12.1509 60.1783C12.4247 60.1664 12.639 60.1604 12.7937 60.1604L12.7223 61.3389H8.02642L8.07998 60.3568C8.41328 60.3449 8.6692 60.2914 8.84775 60.1961C9.03821 60.089 9.17509 59.9105 9.25842 59.6605C9.35364 59.3986 9.41316 59.0415 9.43697 58.5892L9.77621 51.6257C9.78812 51.34 9.80597 51.0603 9.82978 50.7865C9.85359 50.5008 9.88334 50.2271 9.91906 49.9652L5.79453 50.0188C5.41362 50.0426 5.13985 50.1675 4.9732 50.3937C4.80655 50.608 4.69942 51.0067 4.65181 51.59L4.27685 58.6785C4.26495 58.9999 4.24114 59.2974 4.20543 59.5712C4.18162 59.845 4.15782 60.0593 4.13401 60.214C4.33637 60.2021 4.56848 60.1902 4.83036 60.1783C5.09223 60.1664 5.30054 60.1604 5.45529 60.1604L5.40172 61.3389H0.687981ZM19.2813 52.2149C19.9478 52.2149 20.543 52.3697 21.0668 52.6792C21.6024 52.9886 22.025 53.441 22.3345 54.0361C22.6559 54.6194 22.8166 55.3336 22.8166 56.1788C22.8166 57.1191 22.638 58 22.2809 58.8213C21.9238 59.6426 21.412 60.3033 20.7454 60.8032C20.0907 61.2913 19.2991 61.5353 18.3706 61.5353C17.5731 61.5353 16.9125 61.3567 16.3887 60.9996C15.865 60.6306 15.4722 60.1426 15.2103 59.5355C14.9603 58.9165 14.8353 58.238 14.8353 57.5C14.8353 56.5478 15.0139 55.6729 15.371 54.8753C15.7281 54.0659 16.2399 53.4231 16.9065 52.947C17.5731 52.4589 18.3647 52.2149 19.2813 52.2149ZM19.0134 53.2148C18.6087 53.2029 18.2516 53.3696 17.9421 53.7148C17.6326 54.048 17.3946 54.5004 17.2279 55.0717C17.0613 55.6431 16.9779 56.274 16.9779 56.9644C16.966 57.3453 16.9839 57.744 17.0315 58.1607C17.0791 58.5654 17.1624 58.9463 17.2815 59.3034C17.4124 59.6605 17.585 59.9521 17.7993 60.1783C18.0135 60.4045 18.2814 60.5175 18.6028 60.5175C18.9718 60.5294 19.2813 60.4104 19.5312 60.1604C19.7931 59.9105 20.0014 59.5891 20.1561 59.1963C20.3109 58.8034 20.424 58.3868 20.4954 57.9464C20.5787 57.506 20.6263 57.0894 20.6382 56.6965C20.6501 56.3513 20.6323 55.9764 20.5847 55.5717C20.549 55.167 20.4716 54.7861 20.3526 54.429C20.2454 54.0719 20.0788 53.7862 19.8526 53.5719C19.6384 53.3457 19.3586 53.2267 19.0134 53.2148ZM27.8803 61.5353C27.2137 61.5353 26.6126 61.3865 26.0769 61.0889C25.5532 60.7794 25.1366 60.333 24.8271 59.7498C24.5295 59.1665 24.3866 58.4523 24.3985 57.6072C24.4223 56.5716 24.6366 55.6669 25.0413 54.8932C25.446 54.1195 25.9757 53.5183 26.6304 53.0898C27.297 52.6494 28.0112 52.4411 28.773 52.4649C29.1301 52.4649 29.4515 52.5304 29.7372 52.6613C30.0348 52.7803 30.2848 52.9946 30.4871 53.3041C30.3919 51.7805 30.0943 50.6437 29.5944 49.8938C29.1063 49.1439 28.5112 48.7689 27.8089 48.7689C27.5232 48.7689 27.2256 48.8284 26.9161 48.9474C26.6185 49.0546 26.315 49.2272 26.0055 49.4652L25.5413 48.876C25.9579 48.5308 26.3566 48.263 26.7376 48.0725C27.1304 47.8821 27.5708 47.7869 28.0588 47.7869C28.8326 47.7869 29.4991 47.9952 30.0586 48.4118C30.63 48.8165 31.0942 49.3879 31.4513 50.1259C31.8203 50.852 32.0822 51.6971 32.2369 52.6613C32.3917 53.6136 32.4452 54.6373 32.3976 55.7324C32.3619 56.8156 32.2072 57.7262 31.9334 58.4642C31.6596 59.2022 31.3085 59.7974 30.8799 60.2497C30.4633 60.702 29.9931 61.0294 29.4694 61.2317C28.9575 61.4341 28.4278 61.5353 27.8803 61.5353ZM28.1303 60.5175C28.4516 60.5175 28.7433 60.4164 29.0052 60.214C29.267 60.0116 29.4932 59.726 29.6836 59.357C29.8741 58.976 30.0288 58.5297 30.1479 58.0178C30.2669 57.4941 30.3502 56.9287 30.3978 56.3216C30.4455 55.8216 30.4217 55.3574 30.3264 54.9289C30.2431 54.5004 30.0884 54.1552 29.8622 53.8933C29.6479 53.6314 29.3444 53.5005 28.9516 53.5005C28.5469 53.5005 28.16 53.6612 27.791 53.9826C27.422 54.2921 27.1185 54.7503 26.8804 55.3574C26.6542 55.9526 26.5292 56.6787 26.5054 57.5357C26.4935 58.1904 26.5531 58.7439 26.684 59.1963C26.8268 59.6367 27.0232 59.97 27.2732 60.1961C27.5232 60.4104 27.8089 60.5175 28.1303 60.5175ZM42.0276 61.6245C41.5277 61.6245 41.0456 61.5472 40.5814 61.3924C40.1291 61.2377 39.76 60.9996 39.4744 60.6782C39.2006 60.3568 39.0696 59.9521 39.0816 59.4641C39.0935 59.0237 39.2125 58.6368 39.4387 58.3035C39.6767 57.9583 40.016 57.631 40.4564 57.3215C40.9087 57.0001 41.4503 56.6489 42.0812 56.268C42.5216 55.9942 42.8668 55.7324 43.1168 55.4824C43.3668 55.2324 43.4918 54.9229 43.4918 54.5539C43.5037 54.2206 43.4084 53.9647 43.2061 53.7862C43.0037 53.6076 42.718 53.5183 42.349 53.5183C42.0634 53.5183 41.7717 53.5719 41.4741 53.679C41.1765 53.7862 40.8849 53.9528 40.5992 54.179C40.3255 54.3932 40.0636 54.6611 39.8136 54.9825L39.0637 54.429C39.5874 53.7267 40.1945 53.1791 40.8849 52.7863C41.5753 52.3935 42.3312 52.1971 43.1525 52.1971C43.7477 52.1971 44.2298 52.2863 44.5988 52.4649C44.9678 52.6434 45.2416 52.8875 45.4201 53.197C45.5987 53.4945 45.682 53.8219 45.6701 54.179C45.6582 54.7861 45.432 55.2919 44.9916 55.6967C44.5631 56.0895 43.956 56.512 43.1704 56.9644C42.5633 57.3096 42.105 57.6369 41.7955 57.9464C41.4979 58.244 41.3372 58.5832 41.3134 58.9641C41.2896 59.2736 41.3491 59.5236 41.492 59.7141C41.6348 59.9045 41.8193 60.0414 42.0455 60.1247C42.2717 60.208 42.5038 60.2497 42.7418 60.2497C43.6465 60.2497 44.4797 59.7438 45.2416 58.732L45.9736 59.3034C45.676 59.7319 45.3427 60.1247 44.9737 60.4818C44.6047 60.827 44.1762 61.1068 43.6882 61.321C43.212 61.5234 42.6585 61.6245 42.0276 61.6245ZM51.7294 52.2149C52.396 52.2149 52.9911 52.3697 53.5149 52.6792C54.0505 52.9886 54.4731 53.441 54.7826 54.0361C55.104 54.6194 55.2647 55.3336 55.2647 56.1788C55.2647 57.1191 55.0861 58 54.729 58.8213C54.3719 59.6426 53.8601 60.3033 53.1935 60.8032C52.5388 61.2913 51.7472 61.5353 50.8188 61.5353C50.0212 61.5353 49.3606 61.3567 48.8368 60.9996C48.3131 60.6306 47.9203 60.1426 47.6584 59.5355C47.4084 58.9165 47.2834 58.238 47.2834 57.5C47.2834 56.5478 47.462 55.6729 47.8191 54.8753C48.1762 54.0659 48.688 53.4231 49.3546 52.947C50.0212 52.4589 50.8128 52.2149 51.7294 52.2149ZM51.4615 53.2148C51.0568 53.2029 50.6997 53.3696 50.3902 53.7148C50.0807 54.048 49.8427 54.5004 49.676 55.0717C49.5094 55.6431 49.4261 56.274 49.4261 56.9644C49.4142 57.3453 49.432 57.744 49.4796 58.1607C49.5272 58.5654 49.6106 58.9463 49.7296 59.3034C49.8605 59.6605 50.0331 59.9521 50.2474 60.1783C50.4617 60.4045 50.7295 60.5175 51.0509 60.5175C51.4199 60.5294 51.7294 60.4104 51.9793 60.1604C52.2412 59.9105 52.4495 59.5891 52.6043 59.1963C52.759 58.8034 52.8721 58.3868 52.9435 57.9464C53.0268 57.506 53.0744 57.0894 53.0863 56.6965C53.0983 56.3513 53.0804 55.9764 53.0328 55.5717C52.9971 55.167 52.9197 54.7861 52.8007 54.429C52.6935 54.0719 52.5269 53.7862 52.3007 53.5719C52.0865 53.3457 51.8067 53.2267 51.4615 53.2148ZM56.8824 65.8919V64.9456C57.1918 64.9456 57.418 64.8623 57.5609 64.6956C57.7037 64.529 57.8049 64.2969 57.8644 63.9993C57.9239 63.7136 57.9656 63.3922 57.9894 63.0351C58.1084 61.7614 58.2096 60.6306 58.2929 59.6426C58.3762 58.6428 58.4417 57.7798 58.4893 57.0536C58.5488 56.3275 58.5905 55.7383 58.6143 55.286C58.65 54.8218 58.6679 54.4885 58.6679 54.2861C58.6679 54.0599 58.6381 53.8933 58.5786 53.7862C58.531 53.679 58.4477 53.6255 58.3286 53.6255C58.1739 53.6255 58.0072 53.7386 57.8287 53.9647C57.6501 54.179 57.4835 54.5718 57.3287 55.1432L56.5074 54.911C56.555 54.673 56.6324 54.3992 56.7395 54.0897C56.8467 53.7802 56.9954 53.4826 57.1859 53.197C57.3764 52.9113 57.6085 52.6792 57.8822 52.5006C58.1679 52.3102 58.5012 52.2149 58.8821 52.2149C59.3107 52.2149 59.6558 52.3518 59.9177 52.6256C60.1796 52.8994 60.3105 53.3338 60.3105 53.929C60.3105 54.1909 60.2927 54.4349 60.257 54.6611C60.2332 54.8753 60.2034 55.0955 60.1677 55.3217H60.2034C60.501 54.4766 60.8224 53.8338 61.1676 53.3934C61.5247 52.941 61.8877 52.6315 62.2567 52.4649C62.6257 52.2982 62.9709 52.2149 63.2923 52.2149C63.8637 52.2149 64.3398 52.3637 64.7207 52.6613C65.1016 52.9589 65.3873 53.3636 65.5778 53.8754C65.7682 54.3873 65.8635 54.9765 65.8635 55.6431C65.8635 56.7858 65.673 57.8036 65.2921 58.6963C64.9231 59.5772 64.3577 60.2735 63.5959 60.7854C62.846 61.2853 61.8996 61.5353 60.7569 61.5353C60.6617 61.5353 60.5546 61.5293 60.4355 61.5174C60.3165 61.5174 60.2034 61.5115 60.0963 61.4996C60.0606 62.19 60.0249 62.7435 59.9891 63.1601C59.9653 63.5886 59.9415 63.9219 59.9177 64.16C59.9058 64.4099 59.882 64.6242 59.8463 64.8028C60.0368 64.7789 60.2391 64.7611 60.4534 64.7492C60.6795 64.7492 60.864 64.7492 61.0069 64.7492V65.8919H56.8824ZM60.989 60.5532C61.4295 60.5532 61.8044 60.4402 62.1139 60.214C62.4353 59.9878 62.6972 59.6962 62.8995 59.3391C63.1138 58.982 63.2804 58.5892 63.3995 58.1607C63.5185 57.7321 63.6018 57.3096 63.6494 56.893C63.709 56.4763 63.7387 56.1014 63.7387 55.7681C63.7387 55.2919 63.703 54.8932 63.6316 54.5718C63.5602 54.2385 63.4471 53.9885 63.2923 53.8219C63.1495 53.6552 62.965 53.5719 62.7388 53.5719C62.465 53.5719 62.2032 53.6969 61.9532 53.9469C61.7151 54.1849 61.489 54.5301 61.2747 54.9825C61.0724 55.4229 60.8938 55.9466 60.7391 56.5537C60.5843 57.1608 60.4534 57.8333 60.3462 58.5713C60.3105 58.857 60.2748 59.1546 60.2391 59.4641C60.2034 59.7617 60.1736 60.0771 60.1498 60.4104C60.3046 60.4461 60.4534 60.4818 60.5962 60.5175C60.751 60.5413 60.8819 60.5532 60.989 60.5532ZM71.9202 52.2149C72.5868 52.2149 73.182 52.3697 73.7057 52.6792C74.2414 52.9886 74.664 53.441 74.9735 54.0361C75.2948 54.6194 75.4555 55.3336 75.4555 56.1788C75.4555 57.1191 75.277 58 74.9199 58.8213C74.5628 59.6426 74.0509 60.3033 73.3844 60.8032C72.7297 61.2913 71.9381 61.5353 71.0096 61.5353C70.2121 61.5353 69.5515 61.3567 69.0277 60.9996C68.504 60.6306 68.1112 60.1426 67.8493 59.5355C67.5993 58.9165 67.4743 58.238 67.4743 57.5C67.4743 56.5478 67.6529 55.6729 68.01 54.8753C68.3671 54.0659 68.8789 53.4231 69.5455 52.947C70.2121 52.4589 71.0037 52.2149 71.9202 52.2149ZM71.6524 53.2148C71.2477 53.2029 70.8906 53.3696 70.5811 53.7148C70.2716 54.048 70.0336 54.5004 69.8669 55.0717C69.7003 55.6431 69.6169 56.274 69.6169 56.9644C69.605 57.3453 69.6229 57.744 69.6705 58.1607C69.7181 58.5654 69.8014 58.9463 69.9205 59.3034C70.0514 59.6605 70.224 59.9521 70.4383 60.1783C70.6525 60.4045 70.9204 60.5175 71.2417 60.5175C71.6107 60.5294 71.9202 60.4104 72.1702 60.1604C72.4321 59.9105 72.6404 59.5891 72.7951 59.1963C72.9499 58.8034 73.063 58.3868 73.1344 57.9464C73.2177 57.506 73.2653 57.0894 73.2772 56.6965C73.2891 56.3513 73.2713 55.9764 73.2237 55.5717C73.1879 55.167 73.1106 54.7861 72.9915 54.429C72.8844 54.0719 72.7178 53.7862 72.4916 53.5719C72.2773 53.3457 71.9976 53.2267 71.6524 53.2148ZM80.2336 61.5353C79.7456 61.5353 79.3468 61.4281 79.0373 61.2139C78.7278 60.9877 78.5016 60.6782 78.3588 60.2854C78.2279 59.8926 78.1624 59.4403 78.1624 58.9284C78.1624 58.4166 78.2041 57.875 78.2874 57.3036C78.3707 56.7204 78.454 56.1609 78.5374 55.6252C78.6207 55.0777 78.6623 54.6075 78.6623 54.2147C78.6623 54.0004 78.6266 53.8516 78.5552 53.7683C78.4957 53.6731 78.4124 53.6255 78.3052 53.6255C78.1505 53.6255 77.9839 53.7386 77.8053 53.9647C77.6387 54.179 77.478 54.5718 77.3232 55.1432L76.5019 54.911C76.5495 54.673 76.6328 54.3992 76.7519 54.0897C76.8828 53.7802 77.0554 53.4826 77.2696 53.197C77.4839 52.9113 77.7398 52.6792 78.0374 52.5006C78.335 52.3102 78.6742 52.2149 79.0552 52.2149C79.6622 52.2149 80.0848 52.3875 80.3229 52.7327C80.5609 53.066 80.68 53.5362 80.68 54.1433C80.68 54.4885 80.6502 54.8932 80.5907 55.3574C80.5431 55.8097 80.4836 56.2799 80.4121 56.768C80.3526 57.256 80.2931 57.7202 80.2336 58.1607C80.186 58.6011 80.1622 58.976 80.1622 59.2855C80.1622 59.4522 80.18 59.601 80.2157 59.7319C80.2633 59.8628 80.3288 59.97 80.4121 60.0533C80.5074 60.1247 80.6324 60.1604 80.7871 60.1604C81.0252 60.1604 81.2692 60.0235 81.5192 59.7498C81.781 59.4641 82.025 59.0891 82.2512 58.6249C82.4893 58.1488 82.6976 57.625 82.8761 57.0536C83.0666 56.4823 83.2154 55.899 83.3225 55.3039C83.4296 54.6968 83.4832 54.1254 83.4832 53.5898C83.4832 53.4112 83.4773 53.2089 83.4654 52.9827C83.4654 52.7446 83.4594 52.5542 83.4475 52.4113H85.483C85.4949 52.6018 85.5008 52.7446 85.5008 52.8399C85.5127 52.9232 85.5187 53.0244 85.5187 53.1434C85.5187 53.3696 85.5008 53.6493 85.4651 53.9826C85.4413 54.304 85.4056 54.6789 85.358 55.1074C85.3104 55.5241 85.2509 55.9942 85.1794 56.518C85.1318 56.9584 85.0842 57.3453 85.0366 57.6786C85.0009 58.0119 84.9652 58.2976 84.9295 58.5356C84.9057 58.7618 84.8819 58.9582 84.8581 59.1248C84.8462 59.2915 84.8402 59.4343 84.8402 59.5534C84.8402 59.7557 84.87 59.9045 84.9295 59.9997C84.989 60.0831 85.0723 60.1247 85.1794 60.1247C85.3342 60.1247 85.4949 60.0176 85.6615 59.8033C85.8401 59.5772 86.0127 59.1784 86.1793 58.607L86.9828 58.8392C86.9471 59.0772 86.8697 59.351 86.7507 59.6605C86.6436 59.97 86.4948 60.2676 86.3043 60.5532C86.1139 60.8389 85.8817 61.077 85.608 61.2674C85.3342 61.446 85.0068 61.5353 84.6259 61.5353C84.2212 61.5353 83.876 61.4103 83.5903 61.1603C83.3166 60.9103 83.1797 60.4937 83.1797 59.9105C83.1797 59.6367 83.1975 59.3808 83.2332 59.1427C83.269 58.8927 83.3047 58.6249 83.3404 58.3392H83.3047C82.9952 59.1844 82.6678 59.839 82.3226 60.3033C81.9893 60.7556 81.6441 61.077 81.287 61.2674C80.9418 61.446 80.5907 61.5353 80.2336 61.5353ZM81.7691 50.7687C81.3644 50.7687 80.9776 50.7091 80.6085 50.5901C80.2395 50.4592 79.942 50.2687 79.7158 50.0188C79.4896 49.7688 79.3944 49.4593 79.4301 49.0903C79.4539 48.757 79.573 48.513 79.7872 48.3582C80.0015 48.2035 80.2336 48.1202 80.4836 48.1083C80.8526 48.0964 81.0966 48.2035 81.2156 48.4296C81.3466 48.6439 81.412 48.8344 81.412 49.001C81.4001 49.0843 81.3763 49.1855 81.3406 49.3045C81.3049 49.4117 81.2454 49.5188 81.1621 49.6259C81.2692 49.7212 81.4001 49.7985 81.5549 49.8581C81.7215 49.9057 81.9001 49.9295 82.0905 49.9295C82.5905 49.9295 83.019 49.7866 83.3761 49.501C83.5308 49.3819 83.6677 49.2331 83.7867 49.0546C83.9058 48.8641 84.0189 48.6677 84.126 48.4654L84.9116 49.0546C84.4831 49.6259 83.9951 50.0545 83.4475 50.3401C82.9119 50.6258 82.3524 50.7687 81.7691 50.7687Z" fill="#121210"/>
<path d="M2.71453 73.0951C2.37529 73.0951 2.06282 73.0326 1.77714 72.9077C1.49741 72.7767 1.25042 72.5982 1.03616 72.372C0.827846 72.1458 0.664175 71.8869 0.545141 71.5953C0.432059 71.3037 0.375518 70.9942 0.375518 70.6668C0.375518 70.2264 0.473721 69.8247 0.670126 69.4616C0.866532 69.0986 1.14031 68.8099 1.49146 68.5957C1.84261 68.3814 2.24732 68.2743 2.7056 68.2743C3.14008 68.2743 3.52396 68.3754 3.85726 68.5778C4.19055 68.7742 4.43755 69.042 4.59824 69.3813L4.00903 69.5688C3.87809 69.3307 3.69359 69.1462 3.45552 69.0153C3.2234 68.8784 2.9645 68.8099 2.67882 68.8099C2.36933 68.8099 2.08663 68.8903 1.83071 69.051C1.57478 69.2117 1.36945 69.4319 1.21471 69.7116C1.06591 69.9913 0.991518 70.3097 0.991518 70.6668C0.991518 71.018 1.06889 71.3364 1.22363 71.6221C1.37838 71.9078 1.58371 72.1369 1.83963 72.3095C2.09556 72.4762 2.37826 72.5595 2.68775 72.5595C2.89011 72.5595 3.08354 72.5238 3.26804 72.4524C3.45849 72.3809 3.62217 72.2857 3.75905 72.1667C3.9019 72.0417 3.99712 71.9078 4.04474 71.7649L4.64288 71.9435C4.55956 72.1637 4.41969 72.3631 4.22329 72.5416C4.03283 72.7142 3.80667 72.8511 3.54479 72.9523C3.28887 73.0475 3.01212 73.0951 2.71453 73.0951ZM8.27485 73.0059V68.8992H6.61433V68.3546H10.5424V68.8992H8.88193V73.0059H8.27485ZM13.3954 74.9521C13.2942 74.9521 13.19 74.9342 13.0829 74.8985C12.9817 74.8687 12.8776 74.8241 12.7704 74.7646L12.9936 74.3361C13.0591 74.3718 13.1186 74.4015 13.1722 74.4253C13.2317 74.4491 13.2942 74.461 13.3596 74.461C13.5144 74.461 13.6602 74.3837 13.7971 74.2289C13.934 74.0742 14.0649 73.848 14.1899 73.5504L14.422 72.9701L12.3508 68.3546H12.9936L14.6988 72.3809L16.27 68.3546H16.8771L14.6631 73.7379C14.544 74.0176 14.419 74.2468 14.2881 74.4253C14.1572 74.6039 14.0173 74.7348 13.8685 74.8181C13.7197 74.9074 13.562 74.9521 13.3954 74.9521ZM18.725 74.0861V72.4613H18.8054C18.9423 72.4613 19.0672 72.4196 19.1803 72.3363C19.2934 72.253 19.3946 72.1072 19.4839 71.8988C19.5731 71.6905 19.6446 71.4049 19.6981 71.0418C19.7517 70.6728 19.7874 70.2086 19.8053 69.6491L19.8499 68.3546H22.8763V72.4613H23.5013V74.0861H22.9567V73.0059H19.2607V74.0861H18.725ZM19.7249 72.4613H22.2693V68.8992H20.3945L20.3677 69.7027C20.3498 70.2562 20.3111 70.7204 20.2516 71.0954C20.1981 71.4644 20.1266 71.759 20.0374 71.9792C19.954 72.1935 19.8499 72.3541 19.7249 72.4613ZM25.9302 73.0059V68.3635H26.5373V72.1845L29.3673 68.3546H29.9119V73.0059H29.3049V69.2474L26.5195 73.0059H25.9302ZM32.4094 73.0059L33.7932 71.1043C33.4777 71.0567 33.2218 70.9198 33.0254 70.6936C32.835 70.4615 32.7397 70.1461 32.7397 69.7473C32.7397 69.4795 32.8022 69.2414 32.9272 69.0331C33.0522 68.8248 33.2278 68.6581 33.4539 68.5332C33.686 68.4082 33.9568 68.3457 34.2663 68.3457H36.0429V73.0059H35.4358V71.2025H34.4002L33.0879 73.0059H32.4094ZM34.2574 70.7383H35.4358V68.8278H34.3645C34.055 68.8278 33.8081 68.917 33.6235 69.0956C33.439 69.2682 33.3468 69.4884 33.3468 69.7562C33.3468 70.03 33.4212 70.2621 33.57 70.4526C33.7247 70.643 33.9539 70.7383 34.2574 70.7383ZM42.6802 73.0059V68.3546H43.3051L45.1531 71.5596L47.01 68.3546H47.6082V73.0059H47.0279V69.2652L45.3495 72.1756H44.9567L43.2605 69.2652V73.0059H42.6802ZM52.4484 73.0951C52.1152 73.0951 51.8057 73.0326 51.52 72.9077C51.2403 72.7767 50.9962 72.6011 50.7879 72.3809C50.5856 72.1548 50.4278 71.8988 50.3148 71.6132C50.2017 71.3215 50.1451 71.015 50.1451 70.6936C50.1451 70.3603 50.2017 70.0508 50.3148 69.7652C50.4278 69.4735 50.5885 69.2176 50.7969 68.9974C51.0052 68.7712 51.2492 68.5957 51.5289 68.4707C51.8146 68.3397 52.1241 68.2743 52.4574 68.2743C52.7907 68.2743 53.0972 68.3397 53.3769 68.4707C53.6566 68.5957 53.9007 68.7712 54.109 68.9974C54.3173 69.2176 54.478 69.4735 54.5911 69.7652C54.7041 70.0508 54.7607 70.3603 54.7607 70.6936C54.7607 71.015 54.7041 71.3215 54.5911 71.6132C54.478 71.8988 54.3173 72.1548 54.109 72.3809C53.9066 72.6011 53.6626 72.7767 53.3769 72.9077C53.0972 73.0326 52.7877 73.0951 52.4484 73.0951ZM50.7611 70.7026C50.7611 71.0478 50.8355 71.3632 50.9843 71.6489C51.1391 71.9286 51.3444 72.1518 51.6003 72.3184C51.8563 72.4791 52.139 72.5595 52.4484 72.5595C52.7579 72.5595 53.0406 72.4762 53.2966 72.3095C53.5525 72.1429 53.7578 71.9167 53.9126 71.631C54.0673 71.3394 54.1447 71.0239 54.1447 70.6847C54.1447 70.3395 54.0673 70.0241 53.9126 69.7384C53.7578 69.4527 53.5525 69.2265 53.2966 69.0599C53.0406 68.8932 52.7579 68.8099 52.4484 68.8099C52.139 68.8099 51.8563 68.8962 51.6003 69.0688C51.3504 69.2414 51.148 69.4706 50.9933 69.7562C50.8385 70.036 50.7611 70.3514 50.7611 70.7026ZM58.6417 73.0594C58.2132 73.0594 57.8472 72.9791 57.5436 72.8184C57.2401 72.6517 57.008 72.4196 56.8473 72.122L57.3472 71.8988C57.4603 72.1072 57.624 72.2708 57.8382 72.3899C58.0525 72.5029 58.3114 72.5595 58.6149 72.5595C58.978 72.5595 59.2666 72.4762 59.4809 72.3095C59.7011 72.1429 59.8112 71.9197 59.8112 71.6399C59.8112 71.384 59.7249 71.1787 59.5523 71.0239C59.3797 70.8692 59.1417 70.7889 58.8381 70.7829H58.365V70.3633H58.8738C59.0048 70.3633 59.1238 70.3276 59.2309 70.2562C59.3381 70.1848 59.4214 70.0895 59.4809 69.9705C59.5404 69.8515 59.5702 69.7175 59.5702 69.5688C59.5702 69.3366 59.4869 69.1492 59.3202 69.0063C59.1595 68.8635 58.9214 68.7921 58.606 68.7921C58.3441 68.7921 58.1239 68.8456 57.9454 68.9528C57.7728 69.0539 57.6329 69.2057 57.5258 69.4081L57.0615 69.1581C57.1984 68.8843 57.4008 68.6701 57.6686 68.5153C57.9424 68.3606 58.2608 68.2832 58.6239 68.2832C58.9214 68.2832 59.1803 68.3338 59.4006 68.435C59.6267 68.5302 59.8023 68.6701 59.9273 68.8546C60.0582 69.0331 60.1237 69.2503 60.1237 69.5063C60.1237 69.7265 60.0701 69.9318 59.963 70.1223C59.8559 70.3068 59.7071 70.4466 59.5166 70.5419C59.7904 70.6252 60.0017 70.771 60.1505 70.9793C60.3052 71.1876 60.3826 71.4316 60.3826 71.7114C60.3826 71.9911 60.3082 72.2321 60.1594 72.4345C60.0106 72.6369 59.8053 72.7916 59.5434 72.8987C59.2815 73.0059 58.981 73.0594 58.6417 73.0594ZM62.5427 71.6667C62.5427 71.3751 62.626 71.1251 62.7927 70.9168C62.9593 70.7026 63.1885 70.5389 63.4801 70.4258C63.7777 70.3068 64.1199 70.2473 64.5068 70.2473C64.7329 70.2473 64.968 70.2651 65.212 70.3008C65.4561 70.3365 65.6733 70.3901 65.8637 70.4615V70.0687C65.8637 69.6759 65.7477 69.3634 65.5156 69.1313C65.2835 68.8992 64.9621 68.7831 64.5514 68.7831C64.3014 68.7831 64.0544 68.8307 63.8104 68.926C63.5723 69.0153 63.3224 69.1492 63.0605 69.3277L62.8284 68.8992C63.1319 68.6909 63.4295 68.5361 63.7211 68.435C64.0128 68.3278 64.3104 68.2743 64.6139 68.2743C65.1853 68.2743 65.6376 68.4379 65.9709 68.7653C66.3042 69.0926 66.4708 69.545 66.4708 70.1223V72.2738C66.4708 72.3571 66.4887 72.4196 66.5244 72.4613C66.5601 72.497 66.6166 72.5178 66.694 72.5238V73.0059C66.6285 73.0118 66.572 73.0178 66.5244 73.0237C66.4768 73.0297 66.4411 73.0297 66.4173 73.0237C66.2685 73.0178 66.1554 72.9701 66.078 72.8809C66.0006 72.7916 65.959 72.6964 65.953 72.5952L65.9441 72.2559C65.7358 72.5238 65.465 72.7321 65.1317 72.8809C64.7984 73.0237 64.4591 73.0951 64.1139 73.0951C63.8164 73.0951 63.5456 73.0326 63.3015 72.9077C63.0635 72.7767 62.876 72.6041 62.7391 72.3899C62.6082 72.1696 62.5427 71.9286 62.5427 71.6667ZM65.6584 72.0238C65.7239 71.9405 65.7745 71.8602 65.8102 71.7828C65.8459 71.7054 65.8637 71.637 65.8637 71.5775V70.899C65.6614 70.8216 65.4501 70.7621 65.2299 70.7204C65.0156 70.6787 64.7984 70.6579 64.5782 70.6579C64.1437 70.6579 63.7926 70.7442 63.5247 70.9168C63.2569 71.0894 63.123 71.3245 63.123 71.6221C63.123 71.7947 63.1676 71.9584 63.2569 72.1131C63.3462 72.2619 63.4771 72.3869 63.6497 72.4881C63.8223 72.5833 64.0247 72.6309 64.2568 72.6309C64.5484 72.6309 64.8192 72.5744 65.0692 72.4613C65.3251 72.3482 65.5215 72.2024 65.6584 72.0238ZM69.2912 73.0059V68.3635H69.8983V72.1845L72.7283 68.3546H73.2729V73.0059H72.6658V69.2474L69.8804 73.0059H69.2912ZM76.1096 73.0059V68.3546H76.7167V70.3455H77.413L78.9754 68.3546H79.6717L77.8951 70.6133L79.8949 73.0059H79.1807L77.413 70.9079H76.7167V73.0059H76.1096ZM82.2654 73.0059V68.3635H82.8725V72.1845L85.7025 68.3546H86.2471V73.0059H85.6401V69.2474L82.8547 73.0059H82.2654Z" fill="#121210"/>
</svg>
