<svg width="180" height="72" viewBox="0 0 180 72" fill="none" xmlns="http://www.w3.org/2000/svg">
<g clip-path="url(#clip0_1077_1393)">
<path d="M35.7301 13.0028L33.0481 11.4684C32.9977 11.4411 32.9572 11.3988 32.9323 11.3474C32.9074 11.296 32.8995 11.2382 32.9095 11.182C32.9196 11.1259 32.9471 11.0743 32.9883 11.0346C33.0295 10.9949 33.0822 10.969 33.139 10.9607C33.6504 10.8817 34.3095 10.7914 34.8209 10.7576C35.4687 10.7125 36.3665 10.7237 36.9007 10.7463C36.9492 10.7474 36.9966 10.7612 37.038 10.7863C37.0794 10.8115 37.1134 10.847 37.1365 10.8894C37.1596 10.9318 37.171 10.9796 37.1695 11.0277C37.168 11.0759 37.1536 11.1228 37.1279 11.1637L36.0938 12.9125C36.0768 12.9431 36.0537 12.9699 36.0258 12.9912C35.9979 13.0125 35.9659 13.0279 35.9318 13.0364C35.8976 13.0448 35.8621 13.0462 35.8274 13.0404C35.7927 13.0347 35.7596 13.0218 35.7301 13.0028Z" fill="#144F2E"/>
<path d="M24.2628 16.6353C24.0159 16.4707 23.8155 16.2461 23.6807 15.9829C23.5459 15.7197 23.4811 15.4266 23.4925 15.1316C23.5039 14.8365 23.5911 14.5492 23.7458 14.297C23.9005 14.0449 24.1176 13.8361 24.3764 13.6907C25.0015 13.3409 25.672 13.0025 26.2402 12.743C27.5244 12.1789 29.3541 11.6373 30.3883 11.3553C30.6361 11.2885 30.8957 11.2761 31.1488 11.3189C31.402 11.3618 31.6427 11.4589 31.8543 11.6035L34.2636 13.2394C34.6525 13.5013 34.9242 13.9025 35.0217 14.359C35.1191 14.8154 35.0348 15.2916 34.7863 15.6876L32.1952 19.8057C32.0651 20.0133 31.8938 20.1926 31.6918 20.3326C31.4897 20.4726 31.2611 20.5703 31.0199 20.6199C30.7786 20.6695 30.5297 20.6699 30.2883 20.6211C30.0469 20.5723 29.818 20.4752 29.6155 20.3359L24.2628 16.6353Z" fill="#144F2E"/>
<path d="M38.446 11.1976L37.3209 13.1382C37.233 13.2913 37.2087 13.4725 37.2533 13.6432C37.2978 13.8139 37.4077 13.9605 37.5595 14.052L38.6619 14.7064C38.7541 14.7606 38.8578 14.7924 38.9647 14.7994C39.0715 14.8063 39.1786 14.7882 39.2771 14.7465C39.3756 14.7047 39.4628 14.6405 39.5316 14.5591C39.6005 14.4776 39.649 14.3812 39.6733 14.2777L40.2643 11.7504C40.2863 11.6605 40.2891 11.5669 40.2724 11.4758C40.2557 11.3847 40.22 11.2981 40.1675 11.2215C40.1151 11.145 40.047 11.0802 39.9678 11.0314C39.8885 10.9826 39.7998 10.9508 39.7074 10.9381C39.6475 10.9258 39.5867 10.9182 39.5256 10.9156C39.4006 10.9043 39.2415 10.8817 39.0938 10.8591C38.9639 10.8435 38.8324 10.8675 38.7166 10.928C38.6009 10.9885 38.5065 11.0825 38.446 11.1976Z" fill="#144F2E"/>
<path d="M20.6035 16.0941C20.8033 15.9431 21.0539 15.8741 21.3035 15.9014C21.5532 15.9287 21.7827 16.0502 21.9445 16.2408C22.0636 16.3809 22.1415 16.5508 22.1695 16.7319C22.1976 16.9131 22.1748 17.0984 22.1036 17.2675L19.9785 22.2994C19.863 22.5729 19.6814 22.8141 19.4497 23.0014C19.218 23.1887 18.9434 23.3164 18.6501 23.3733C18.3569 23.4302 18.0541 23.4145 17.7684 23.3275C17.4827 23.2406 17.223 23.0851 17.0123 22.8748L16.6032 22.4686C16.2933 22.1685 16.1057 21.7655 16.0763 21.3367C16.047 20.9079 16.1779 20.4834 16.4441 20.1445C17.03 19.4007 17.656 18.6889 18.3192 18.0121C19.0465 17.3337 19.809 16.6935 20.6035 16.0941Z" fill="#144F2E"/>
<path d="M22.2168 19.061C22.3147 18.8015 22.4714 18.5678 22.6749 18.3781C22.8783 18.1884 23.1231 18.0477 23.3901 17.967C23.6571 17.8862 23.9393 17.8676 24.2147 17.9126C24.4902 17.9575 24.7515 18.0648 24.9784 18.2262L29.4106 21.4077C29.7777 21.674 30.0321 22.0661 30.1245 22.5081C30.2169 22.95 30.1407 23.4103 29.9106 23.7996L28.0014 26.9586C27.754 27.3681 27.3537 27.6641 26.8877 27.7822L23.8079 28.5494C23.4971 28.6281 23.1707 28.6225 22.8629 28.5332C22.555 28.4439 22.277 28.2741 22.0577 28.0417L20.5235 26.4509C20.2846 26.2063 20.1212 25.8988 20.0527 25.5649C19.9842 25.231 20.0135 24.8847 20.1371 24.5668L22.2168 19.061Z" fill="#CEC7B6"/>
<path d="M24.0469 29.9596C24.0111 29.9241 23.9856 29.8797 23.9729 29.831C23.9602 29.7824 23.9609 29.7312 23.9748 29.6829C23.9887 29.6346 24.0154 29.5909 24.052 29.5562C24.0886 29.5215 24.1339 29.4972 24.1832 29.4858L26.2516 28.9894C26.3056 28.9783 26.3617 28.9827 26.4134 29.002C26.465 29.0213 26.5101 29.0547 26.5434 29.0984C26.5767 29.1421 26.5968 29.1942 26.6015 29.2488C26.6062 29.3034 26.5952 29.3582 26.5698 29.4068L25.6379 31.0427C25.6154 31.0805 25.5844 31.1126 25.5474 31.1367C25.5104 31.1607 25.4684 31.1761 25.4245 31.1815C25.3807 31.187 25.3361 31.1824 25.2943 31.1681C25.2525 31.1538 25.2145 31.1302 25.1833 31.0991L24.0469 29.9596Z" fill="#144F2E"/>
<path d="M40.7982 28.3808C40.5172 28.1778 40.3007 27.899 40.1743 27.5776C40.0479 27.2562 40.017 26.9055 40.0851 26.5672C40.1533 26.2288 40.3177 25.917 40.5589 25.6685C40.8001 25.4201 41.1079 25.2455 41.446 25.1654L46.1736 24.0371C46.4961 23.9595 46.8338 23.971 47.1502 24.0703C47.4665 24.1696 47.7495 24.353 47.9684 24.6005C48.1873 24.8481 48.3338 25.1504 48.3921 25.4746C48.4503 25.7989 48.4181 26.1328 48.2988 26.4402L46.9351 29.9941C46.8341 30.2527 46.6748 30.4848 46.4693 30.6725C46.2638 30.8603 46.0177 30.9988 45.7498 31.0772C45.4819 31.1557 45.1995 31.1721 44.9242 31.1252C44.649 31.0782 44.3883 30.9692 44.1621 30.8065L40.7982 28.3808Z" fill="#144F2E"/>
<path d="M52.6397 18.4409C52.6975 18.2749 52.7964 18.1259 52.9272 18.0077C53.0581 17.8894 53.2168 17.8057 53.3887 17.7641C53.5606 17.7226 53.7403 17.7246 53.9112 17.7699C54.0822 17.8152 54.239 17.9024 54.3671 18.0234C55.5973 19.2011 56.7017 20.5017 57.6629 21.9045C58.1465 22.6381 58.5867 23.3991 58.9811 24.1835C59.4698 25.1425 58.4356 26.0338 57.5038 25.5035L52.1511 22.3897C51.9199 22.2536 51.7443 22.0411 51.655 21.7895C51.5657 21.5379 51.5683 21.2631 51.6624 21.0132L52.6397 18.4409Z" fill="#144F2E"/>
<path d="M39.582 19.1404C39.6458 18.8665 39.7732 18.6111 39.9541 18.3947C40.1349 18.1784 40.3641 18.0069 40.6235 17.894C40.8829 17.7812 41.1653 17.73 41.4481 17.7446C41.731 17.7593 42.0064 17.8393 42.2526 17.9783L45.6733 19.9302C45.9845 20.1083 46.2355 20.3739 46.3947 20.6935C46.5539 21.0132 46.6142 21.3724 46.568 21.726C46.5218 22.0796 46.3712 22.4117 46.1351 22.6804C45.899 22.9491 45.5881 23.1424 45.2415 23.2359L41.1048 24.3415C40.8009 24.4221 40.4811 24.4234 40.1766 24.3451C39.872 24.2669 39.593 24.1119 39.3666 23.895C39.1402 23.6782 38.9741 23.407 38.8844 23.1076C38.7947 22.8083 38.7844 22.491 38.8546 22.1866L39.582 19.1404Z" fill="#144F2E"/>
<path d="M41.037 12.9234C41.2415 11.9644 42.1734 11.3552 43.1281 11.6147C44.5912 12.0106 46.0171 12.5315 47.3897 13.1716C48.76 13.8293 50.0683 14.6071 51.2991 15.4958C51.5936 15.7137 51.8069 16.0224 51.9056 16.3736C52.0043 16.7248 51.9829 17.0985 51.8446 17.4363L51.1059 19.3994C51.0128 19.6448 50.867 19.867 50.6786 20.0508C50.4902 20.2345 50.2638 20.3753 50.015 20.4633C49.7662 20.5514 49.5011 20.5846 49.2381 20.5606C48.9751 20.5366 48.7206 20.4561 48.4921 20.3246L41.5938 16.3306C41.2628 16.1382 41.0013 15.8472 40.8462 15.4989C40.6912 15.1506 40.6506 14.7626 40.7301 14.3901L41.037 12.9234Z" fill="#819286"/>
<path d="M35.5133 16.1622C35.6342 15.9547 35.7955 15.7732 35.9877 15.6283C36.18 15.4833 36.3995 15.3778 36.6333 15.3179C36.8671 15.2581 37.1105 15.245 37.3495 15.2796C37.5884 15.3141 37.818 15.3956 38.0249 15.5192L38.0931 15.553C38.4238 15.7499 38.6827 16.0465 38.8319 16.3996C38.9811 16.7527 39.0129 17.1438 38.9227 17.5161L37.1725 24.8608C37.1473 24.9698 37.091 25.0692 37.0104 25.1472C36.9298 25.2252 36.8283 25.2786 36.7179 25.3008C36.6357 25.3186 36.5506 25.3187 36.4683 25.3012C36.386 25.2837 36.3084 25.2489 36.2406 25.1993L33.354 23.0557C32.9986 22.7908 32.7528 22.4062 32.6628 21.9741C32.5728 21.5419 32.6448 21.0921 32.8654 20.709L35.5133 16.1622Z" fill="#144F2E"/>
<path d="M27.2294 32.9832C26.9377 32.6951 26.753 32.3173 26.7055 31.9116C26.658 31.5058 26.7506 31.0961 26.968 30.7493L28.0249 29.057C28.2775 28.6566 28.6768 28.3694 29.1387 28.2559L35.9915 26.5861C36.0962 26.5587 36.2064 26.5599 36.3105 26.5897C36.4146 26.6195 36.5085 26.6768 36.5824 26.7554C36.6506 26.8309 36.6996 26.9215 36.7253 27.0196C36.751 27.1178 36.7527 27.2206 36.7302 27.3195L34.7982 34.9124C34.7232 35.2026 34.5771 35.4698 34.3729 35.6903C34.1686 35.9108 33.9126 36.0776 33.6276 36.176L32.3435 36.616C32.0199 36.7256 31.672 36.7435 31.3388 36.6678C31.0056 36.5921 30.7002 36.4257 30.4569 36.1873L27.2294 32.9832Z" fill="#144F2E"/>
<path d="M31.32 23.2807C31.3387 23.2459 31.3649 23.2154 31.3966 23.1916C31.4283 23.1677 31.4648 23.1508 31.5036 23.1423C31.5425 23.1337 31.5828 23.1336 31.6217 23.1419C31.6606 23.1502 31.6972 23.1668 31.7291 23.1905L34.7634 25.3792C34.8072 25.4116 34.8408 25.4557 34.8604 25.5063C34.88 25.5569 34.8847 25.612 34.8739 25.6652C34.8632 25.7183 34.8376 25.7674 34.7999 25.8066C34.7622 25.8459 34.7141 25.8737 34.6611 25.8869L29.7176 27.0377C29.6636 27.0495 29.6074 27.0455 29.5558 27.0262C29.5041 27.0068 29.4592 26.9729 29.4267 26.9286C29.3941 26.8843 29.3753 26.8315 29.3724 26.7768C29.3696 26.722 29.3829 26.6676 29.4107 26.6203L31.32 23.2807Z" fill="#76A58A"/>
<path d="M19.1376 27.1053C19.1549 27.0618 19.1828 27.0232 19.2186 26.9929C19.2545 26.9626 19.2974 26.9415 19.3434 26.9314C19.3894 26.9214 19.4372 26.9228 19.4826 26.9354C19.5279 26.948 19.5695 26.9715 19.6036 27.0038L21.3423 28.6848C21.3796 28.7197 21.4065 28.7641 21.42 28.8132C21.4336 28.8622 21.4333 28.914 21.4193 28.9629C21.4052 29.0118 21.3779 29.0559 21.3402 29.0905C21.3026 29.125 21.2562 29.1486 21.206 29.1587L18.5808 29.7792C18.5308 29.7913 18.4785 29.7895 18.4294 29.7741C18.3804 29.7588 18.3365 29.7304 18.3026 29.692C18.2686 29.6537 18.2459 29.6068 18.2368 29.5566C18.2278 29.5063 18.2327 29.4546 18.2512 29.4069L19.1376 27.1053Z" fill="#144F2E"/>
<path d="M25.2293 33.209C25.2501 33.17 25.2797 33.1361 25.3157 33.1101C25.3517 33.0841 25.3932 33.0666 25.4371 33.059C25.4809 33.0514 25.526 33.0538 25.5688 33.0662C25.6115 33.0785 25.6509 33.1003 25.6839 33.1301L29.7978 37.045C29.8329 37.0787 29.8589 37.1207 29.8731 37.1671C29.8873 37.2135 29.8894 37.2627 29.8792 37.3101C29.869 37.3575 29.8467 37.4016 29.8146 37.4381C29.7825 37.4746 29.7415 37.5024 29.6955 37.5188L22.2745 39.9445C22.2212 39.9621 22.1638 39.9635 22.1096 39.9486C22.0555 39.9337 22.007 39.9031 21.9705 39.8607C21.9339 39.8184 21.9109 39.7662 21.9043 39.7108C21.8977 39.6554 21.9079 39.5993 21.9336 39.5496L25.2293 33.209Z" fill="#144F2E"/>
<path d="M37.4798 28.2C37.5055 28.0895 37.559 27.9874 37.6353 27.903C37.7116 27.8187 37.8082 27.755 37.9161 27.7178C38.0239 27.6806 38.1395 27.6711 38.252 27.6904C38.3646 27.7096 38.4703 27.7568 38.5595 27.8277L43.6621 31.8103C43.7572 31.886 43.8303 31.9853 43.874 32.0983C43.9176 32.2112 43.9303 32.3336 43.9106 32.453C43.891 32.5723 43.8397 32.6844 43.7621 32.7776C43.6845 32.8709 43.5833 32.942 43.4689 32.9837L36.8662 35.2627C36.7502 35.3028 36.6256 35.311 36.5053 35.2866C36.385 35.2622 36.2736 35.206 36.1828 35.124C36.0921 35.042 36.0253 34.9371 35.9895 34.8205C35.9538 34.704 35.9504 34.58 35.9797 34.4616L37.4798 28.2Z" fill="#76A58A"/>
<path d="M33.9115 36.9436C33.9605 36.9283 34.0128 36.9265 34.0627 36.9386C34.1126 36.9507 34.1583 36.9762 34.1946 37.0123C34.231 37.0484 34.2566 37.0937 34.2688 37.1432C34.281 37.1928 34.2793 37.2447 34.2638 37.2934L33.8319 38.8052C33.8175 38.8522 33.7912 38.8947 33.7555 38.9287C33.7198 38.9627 33.676 38.9871 33.6282 38.9996C33.5803 39.012 33.53 39.0121 33.4822 38.9998C33.4343 38.9875 33.3904 38.9632 33.3546 38.9293L32.2636 37.8688C32.228 37.8346 32.202 37.7918 32.1882 37.7447C32.1743 37.6975 32.1731 37.6475 32.1845 37.5997C32.196 37.5519 32.2198 37.5079 32.2536 37.472C32.2874 37.4361 32.33 37.4095 32.3772 37.3949L33.9115 36.9436Z" fill="#76A58A"/>
<path d="M37.7867 45.0443C37.8349 45.0892 37.8659 45.1493 37.8745 45.2144C37.8832 45.2794 37.8689 45.3454 37.8341 45.4012C37.7993 45.457 37.7462 45.4991 37.6837 45.5204C37.6212 45.5417 37.5532 45.541 37.4912 45.5182L33.9568 44.2546C33.8911 44.2321 33.8361 44.1862 33.8025 44.1257C33.7689 44.0653 33.7591 43.9946 33.775 43.9274L34.1728 42.2238C34.184 42.1746 34.2083 42.1294 34.2432 42.0928C34.2781 42.0562 34.3222 42.0295 34.371 42.0157C34.4198 42.0018 34.4715 42.0013 34.5206 42.0141C34.5697 42.0269 34.6144 42.0525 34.6501 42.0884L37.7867 45.0443Z" fill="#144F2E"/>
<path d="M50.0719 24.7816C50.1639 24.5352 50.3088 24.3118 50.4967 24.1268C50.6846 23.9419 50.9109 23.7999 51.1598 23.7107C51.4087 23.6215 51.6742 23.5874 51.9378 23.6106C52.2013 23.6338 52.4566 23.7138 52.6858 23.8451L57.1407 26.3949C57.3294 26.502 57.4832 26.6605 57.5839 26.8518C57.6846 27.043 57.728 27.2589 57.7088 27.4738C57.6897 27.6887 57.6089 27.8937 57.4759 28.0644C57.343 28.2352 57.1635 28.3645 56.9588 28.437L51.1289 30.5129C50.8032 30.6286 50.451 30.6496 50.1137 30.5735C49.7764 30.4974 49.468 30.3274 49.2246 30.0834C48.9812 29.8394 48.8129 29.5315 48.7396 29.196C48.6662 28.8604 48.6908 28.511 48.8105 28.1888L50.0719 24.7816Z" fill="#144F2E"/>
<path d="M35.1841 37.621C35.2521 37.31 35.4013 37.0223 35.6167 36.7866C35.8321 36.551 36.1062 36.3757 36.4114 36.2785L42.1051 34.4959C43.5597 34.0446 44.9007 35.4549 44.3439 36.8651L41.4118 44.4017C41.2826 44.74 41.0258 45.0151 40.6959 45.1689C40.4336 45.2949 40.1383 45.3365 39.851 45.288C39.5638 45.2394 39.299 45.1031 39.0935 44.8981L35.275 41.1298C35.0582 40.9148 34.899 40.6495 34.8117 40.3579C34.7244 40.0663 34.7117 39.7577 34.7749 39.46L35.1841 37.621Z" fill="#144F2E"/>
<path d="M45.7529 36.1542C45.8548 35.8992 46.0139 35.6707 46.218 35.4859C46.4222 35.3011 46.6661 35.1649 46.9312 35.0877C47.1963 35.0104 47.4757 34.9942 47.748 35.0402C48.0204 35.0862 48.2786 35.1932 48.5031 35.3531L51.1511 37.2598C51.4073 37.4448 51.6105 37.6928 51.7409 37.9795C51.8712 38.2662 51.924 38.5816 51.8942 38.8947C51.8644 39.2079 51.7529 39.5079 51.5708 39.7652C51.3887 40.0226 51.1422 40.2284 50.8556 40.3624L45.1165 43.025C44.9098 43.1207 44.6789 43.1523 44.4539 43.116C44.2288 43.0796 44.02 42.9769 43.8545 42.8211C43.6891 42.6654 43.5746 42.4638 43.5261 42.2426C43.4775 42.0215 43.4971 41.7909 43.5823 41.5809L45.7529 36.1542Z" fill="#144F2E"/>
<path d="M49.7651 34.9351C49.4989 34.7379 49.2922 34.4721 49.1674 34.1666C49.0426 33.861 49.0045 33.5274 49.0572 33.2018C49.1099 32.8763 49.2514 32.5713 49.4664 32.32C49.6813 32.0686 49.9615 31.8805 50.2765 31.7761L60.266 28.4929C60.3519 28.4661 60.4435 28.4625 60.5313 28.4823C60.6192 28.5021 60.7002 28.5447 60.766 28.6058C60.8245 28.6617 60.8675 28.7317 60.891 28.8088C61.016 29.2601 61.4706 30.8735 61.6297 31.9566C61.7206 32.5545 61.7888 33.2992 61.8456 33.9084C61.8722 34.2654 61.79 34.622 61.6096 34.9319C61.4292 35.2417 61.159 35.4905 60.8342 35.6459L55.6861 38.0828C55.3885 38.2248 55.0574 38.283 54.7288 38.2512C54.4002 38.2193 54.0866 38.0987 53.8223 37.9023L49.7651 34.9351Z" fill="#247251"/>
<path d="M10.8982 33.92C10.9371 33.5619 11.0853 33.2241 11.323 32.9519C11.5606 32.6797 11.8763 32.4861 12.2278 32.3969L15.1371 31.6636C15.2589 31.632 15.3871 31.6345 15.5075 31.6708C15.6279 31.7071 15.7359 31.7758 15.8194 31.8692C15.9029 31.9626 15.9588 32.0772 15.9808 32.2002C16.0028 32.3232 15.9901 32.4499 15.944 32.5661L13.9893 37.4513C13.8386 37.8223 13.5574 38.1263 13.1978 38.3069C12.8383 38.4874 12.4249 38.5322 12.0346 38.4329C11.6963 38.346 11.3952 38.153 11.1761 37.8827C10.9571 37.6123 10.8317 37.2791 10.8186 36.9324C10.8073 36.4359 10.7959 35.8605 10.7959 35.398C10.8073 34.958 10.8527 34.4051 10.8982 33.92Z" fill="#144F2E"/>
<path d="M17.046 32.0128C17.1477 31.7236 17.3222 31.465 17.5529 31.2616C17.7837 31.0582 18.063 30.9168 18.3643 30.8508L21.6941 30.1287C22.0046 30.0612 22.3275 30.0757 22.6306 30.1707C22.9337 30.2657 23.2064 30.438 23.4215 30.6702L24.0238 31.3246C24.2856 31.6071 24.4498 31.965 24.4927 32.3464C24.5356 32.7278 24.455 33.1128 24.2625 33.4457L20.7509 39.4591C20.5459 39.8094 20.2283 40.0811 19.849 40.2305C19.4697 40.3798 19.0509 40.3982 18.6598 40.2827L16.3641 39.6058C16.1271 39.5366 15.9068 39.42 15.7168 39.2632C15.5269 39.1064 15.3712 38.9127 15.2594 38.6939C15.1477 38.4752 15.0822 38.236 15.0669 37.9912C15.0517 37.7464 15.0871 37.5011 15.1709 37.2703L17.046 32.0128Z" fill="#76A58A"/>
<path d="M13.739 24.341C14.2845 23.303 15.6596 23.1338 16.5006 23.9461L17.6371 25.063C17.8898 25.3108 18.0634 25.627 18.1362 25.9721C18.209 26.3172 18.1777 26.676 18.0462 27.0036L17.0802 29.4518C16.9736 29.7232 16.802 29.9647 16.5802 30.1554C16.3585 30.3461 16.0932 30.4802 15.8074 30.5462L13.955 30.9749C12.6594 31.2795 11.5002 30.14 11.8753 28.8764C12.0798 28.2108 12.3071 27.5 12.5685 26.8343C12.9208 25.9882 13.3413 25.0969 13.739 24.341Z" fill="#144F2E"/>
<path d="M20.2402 43.2507C20.4356 42.9125 20.736 42.6462 21.0966 42.4917C21.4571 42.3371 21.8584 42.3026 22.2403 42.3933L30.8546 44.4692C31.3244 44.5835 31.7294 44.8781 31.9808 45.2884C32.2322 45.6987 32.3094 46.1912 32.1956 46.6579L31.7752 48.3277C31.7134 48.5767 31.5981 48.8094 31.4373 49.01C31.2764 49.2106 31.0738 49.3742 30.8433 49.4898L20.6493 54.6909C20.3165 54.8643 19.9368 54.9283 19.5651 54.8735C19.1933 54.8188 18.8487 54.6481 18.5809 54.3863C18.1605 53.9688 17.6604 53.4611 17.2854 53.0437C17.0354 52.7616 16.7626 52.4683 16.524 52.2088C16.2579 51.9221 16.0903 51.559 16.0454 51.1718C16.0005 50.7845 16.0805 50.3931 16.2739 50.0539L20.2402 43.2507Z" fill="#144F2E"/>
<path d="M14.0003 40.2718C14.0255 40.2064 14.0745 40.1527 14.1376 40.1213C14.2007 40.09 14.2734 40.0833 14.3412 40.1026L17.7165 41.0503C17.7747 41.0675 17.8259 41.1025 17.8628 41.1505C17.8996 41.1984 17.9201 41.2567 17.9214 41.317C17.9227 41.3772 17.9046 41.4364 17.8698 41.4858C17.835 41.5352 17.7853 41.5723 17.7279 41.5919L13.4775 42.957C13.4263 42.9723 13.3719 42.973 13.3203 42.9593C13.2687 42.9455 13.222 42.9177 13.1854 42.879C13.1488 42.8404 13.1238 42.7924 13.1132 42.7404C13.1025 42.6884 13.1067 42.6345 13.1252 42.5847L14.0003 40.2718Z" fill="#144F2E"/>
<path d="M12.2502 44.6271C12.2361 44.5931 12.2291 44.5566 12.2295 44.5199C12.2299 44.4831 12.2378 44.4468 12.2526 44.4131C12.2675 44.3794 12.289 44.3491 12.3159 44.3238C12.3428 44.2985 12.3746 44.2789 12.4093 44.2661L19.0234 41.8178C19.0793 41.7984 19.14 41.7965 19.197 41.8126C19.254 41.8286 19.3046 41.8617 19.3419 41.9074C19.3792 41.9531 19.4014 42.0091 19.4054 42.0678C19.4094 42.1265 19.3951 42.185 19.3644 42.2353L14.9777 49.3318C14.9518 49.3736 14.9153 49.408 14.8718 49.4314C14.8284 49.4549 14.7795 49.4666 14.7301 49.4654C14.6806 49.4643 14.6324 49.4503 14.5901 49.4249C14.5478 49.3995 14.5129 49.3635 14.489 49.3205C14.2617 48.9256 13.9321 48.3277 13.6821 47.8651C13.1366 46.8271 12.5002 45.2476 12.2502 44.6271Z" fill="#144F2E"/>
<path d="M11.0682 39.6058C11.063 39.5627 11.069 39.519 11.0855 39.4788C11.1021 39.4386 11.1287 39.4033 11.1628 39.3762C11.1969 39.3491 11.2375 39.3311 11.2806 39.3238C11.3237 39.3166 11.368 39.3205 11.4092 39.335L13.1934 39.8766C13.2299 39.8875 13.2637 39.9057 13.2928 39.93C13.3219 39.9544 13.3457 39.9844 13.3627 40.0182C13.3798 40.052 13.3897 40.0889 13.3918 40.1266C13.394 40.1643 13.3883 40.2021 13.3752 40.2376L12.4661 42.9566C12.4495 43.0125 12.415 43.0614 12.3678 43.0961C12.3206 43.1307 12.2634 43.1491 12.2047 43.1484L12.0456 43.1597C11.9797 43.1661 11.9139 43.1475 11.8612 43.1078C11.8085 43.0681 11.7729 43.01 11.7615 42.9453C11.6819 42.652 11.5456 42.0992 11.4206 41.535C11.2554 40.9015 11.1376 40.2566 11.0682 39.6058Z" fill="#144F2E"/>
<path d="M22.6836 57.5675C21.5358 56.8116 21.7176 55.1418 22.9677 54.5777L28.4227 52.1182C28.7364 51.9759 29.0845 51.9252 29.4262 51.972C29.7679 52.0187 30.0892 52.161 30.3525 52.3822C30.6159 52.6034 30.8104 52.8944 30.9134 53.2212C31.0164 53.5481 31.0236 53.8972 30.9342 54.228L30.5024 55.8301L29.8432 58.6506C29.795 58.8802 29.6992 59.0973 29.5619 59.2881C29.4246 59.479 29.2489 59.6394 29.0459 59.7593C28.8429 59.8792 28.617 59.9558 28.3825 59.9844C28.1481 60.0131 27.9102 59.993 27.684 59.9255C26.6586 59.6165 25.6592 59.2279 24.6951 58.7634C24.0814 58.4475 23.3655 58.0075 22.6836 57.5675Z" fill="#CEC7B6"/>
<path d="M33.4564 45.4734C33.4781 45.4014 33.5266 45.3404 33.592 45.3027C33.6575 45.2649 33.7349 45.2534 33.8087 45.2703L37.3203 46.2293C37.3759 46.2455 37.4253 46.278 37.462 46.3226C37.4987 46.3671 37.5209 46.4216 37.5258 46.479C37.5307 46.5363 37.5181 46.5938 37.4895 46.6439C37.461 46.6939 37.4178 46.7343 37.3658 46.7596L33.07 48.7678C33.0209 48.7907 32.9663 48.7993 32.9126 48.7926C32.8588 48.7858 32.8081 48.764 32.7663 48.7297C32.7246 48.6954 32.6936 48.6499 32.6769 48.5987C32.6602 48.5475 32.6586 48.4927 32.6722 48.4406L33.4564 45.4734Z" fill="#76A58A"/>
<path d="M23.5131 41.7613C23.3661 41.7283 23.2342 41.6479 23.1381 41.5327C23.042 41.4174 22.987 41.2738 22.9819 41.1243C22.9767 40.9748 23.0215 40.8278 23.1094 40.7062C23.1973 40.5847 23.3232 40.4955 23.4676 40.4525L30.0022 38.5233C30.3017 38.4346 30.6192 38.4243 30.9239 38.4935C31.2286 38.5627 31.5101 38.709 31.741 38.9181L32.9115 39.9674C33.1523 40.1812 33.3309 40.4551 33.4289 40.7607C33.5268 41.0662 33.5405 41.3923 33.4684 41.7049L33.3775 42.0885C33.3263 42.3205 33.2296 42.5403 33.0927 42.7351C32.9558 42.93 32.7816 43.0961 32.5799 43.224C32.3783 43.3519 32.1532 43.439 31.9176 43.4803C31.6819 43.5216 31.4404 43.5164 31.2068 43.4649L23.5131 41.7613Z" fill="#144F2E"/>
<path d="M32.5821 50.9673C32.6465 50.709 32.7675 50.4679 32.9364 50.2612C33.1053 50.0545 33.3181 49.8872 33.5594 49.7714L38.8894 47.2329C39.0353 47.1628 39.1972 47.1322 39.3588 47.1441C39.5204 47.156 39.676 47.21 39.8099 47.3006C39.987 47.4173 40.1185 47.5906 40.1825 47.7917C40.2466 47.9929 40.2395 48.2097 40.1622 48.4063L35.5596 60.2977C35.4354 60.6388 35.2033 60.9308 34.8981 61.1301C34.5929 61.3293 34.2309 61.4252 33.8663 61.4034C33.4799 61.3695 33.048 61.3244 32.6162 61.2567C32.2752 61.2003 31.9684 61.1439 31.6957 61.0762C30.8092 60.8731 30.3433 59.9818 30.5592 59.1131L32.5821 50.9673Z" fill="#144F2E"/>
<path d="M40.4797 50.663C40.5914 50.3835 40.7717 50.1361 41.0041 49.9433C41.2366 49.7505 41.5138 49.6184 41.8108 49.559C42.1077 49.4996 42.4149 49.5148 42.7044 49.6032C42.9939 49.6915 43.2566 49.8503 43.4686 50.0651L49.2191 55.898C50.0146 56.699 49.8668 58.0078 48.8554 58.5268C45.7353 60.1707 42.2998 61.1397 38.7751 61.3699C37.525 61.4714 36.684 60.2304 37.1386 59.0683L40.4797 50.663Z" fill="#144F2E"/>
<path d="M44.4011 49.6253C43.8897 49.1402 44.367 48.294 45.0489 48.4858L55.1406 51.2048C55.8225 51.3853 56.2884 51.972 55.9929 52.6038C55.7372 53.1107 55.4037 53.5751 55.0042 53.9803C54.3678 54.6572 53.6859 55.289 53.1291 55.7741C52.8029 56.0516 52.3837 56.1975 51.9544 56.1828C51.5251 56.1682 51.117 55.9942 50.8107 55.6952L44.4011 49.6253Z" fill="#144F2E"/>
<path d="M42.4572 46.579C42.3803 46.5588 42.3085 46.5228 42.2465 46.4734C42.1845 46.424 42.1337 46.3621 42.0973 46.292C42.0608 46.2218 42.0397 46.1448 42.0351 46.0659C42.0306 45.9871 42.0427 45.9082 42.0708 45.8344C42.1278 45.6972 42.2327 45.585 42.3663 45.5185L53.674 40.1933C53.976 40.0507 54.3116 39.9932 54.6443 40.027C54.9769 40.0608 55.2939 40.1847 55.5605 40.3851L59.6063 43.4538C59.9079 43.6741 60.128 43.9867 60.2328 44.3436C60.3376 44.7004 60.3211 45.0816 60.1859 45.4282C59.9586 46.0149 59.6517 46.7595 59.2767 47.5154C58.9192 48.2448 58.5129 48.9496 58.0607 49.6252C57.8603 49.9236 57.5695 50.151 57.2305 50.2747C56.8914 50.3984 56.5215 50.4119 56.1742 50.3134L42.4572 46.579Z" fill="#144F2E"/>
<path d="M57.1859 40.3734C57.0298 40.2577 56.9063 40.104 56.8272 39.9272C56.7482 39.7504 56.7162 39.5564 56.7345 39.3638C56.7528 39.1712 56.8206 38.9865 56.9315 38.8274C57.0424 38.6683 57.1926 38.5402 57.3677 38.4554L60.2657 37.0564C60.4415 36.9698 60.6374 36.9309 60.8332 36.9438C61.0291 36.9567 61.2181 37.0208 61.3809 37.1297C61.5437 37.2386 61.6745 37.3884 61.7601 37.5638C61.8457 37.7392 61.8829 37.9339 61.8681 38.1283C61.8226 38.7037 61.7658 39.3016 61.6976 39.798C61.6181 40.3283 61.4931 40.9714 61.3567 41.5468C61.315 41.7244 61.2292 41.8889 61.107 42.0251C60.9849 42.1614 60.8303 42.2651 60.6574 42.3268C60.4845 42.3885 60.2988 42.4062 60.1172 42.3784C59.9356 42.3505 59.764 42.2779 59.6179 42.1673L57.1859 40.3734Z" fill="#144F2E"/>
<path fill-rule="evenodd" clip-rule="evenodd" d="M65.6187 41.9871C65.5924 42.1101 65.5417 42.2266 65.4694 42.3297C65.3971 42.4329 65.3048 42.5207 65.1979 42.588C65.0909 42.6553 64.9715 42.7006 64.8467 42.7214C64.7219 42.7423 64.5941 42.7381 64.4709 42.7092L63.5958 42.5061C63.3449 42.4454 63.1276 42.2902 62.9898 42.0734C62.8519 41.8566 62.8044 41.595 62.8571 41.344C63.201 39.6201 63.3723 37.8666 63.3685 36.1091C63.3666 34.3519 63.1954 32.5989 62.8571 30.8741C62.8058 30.6233 62.854 30.3625 62.9916 30.146C63.1292 29.9295 63.3457 29.7741 63.5958 29.7121L64.4709 29.509C64.5941 29.4796 64.722 29.4751 64.847 29.4957C64.972 29.5163 65.0916 29.5616 65.1987 29.629C65.3057 29.6963 65.398 29.7843 65.4702 29.8877C65.5423 29.9911 65.5928 30.1079 65.6187 30.2311C66.4067 34.1107 66.4067 38.1075 65.6187 41.9871ZM64.6754 26.7223C64.7151 26.8415 64.7301 26.9674 64.7193 27.0925C64.7085 27.2176 64.6723 27.3392 64.6128 27.4499C64.5533 27.5607 64.4718 27.6583 64.3731 27.7368C64.2745 27.8154 64.1609 27.8733 64.039 27.9069L63.1753 28.1551C62.9282 28.2252 62.6634 28.1973 62.4366 28.0773C62.2097 27.9574 62.0387 27.7547 61.9593 27.512C60.8203 24.1699 59.0284 21.0836 56.6862 18.4299C56.516 18.237 56.4271 17.9865 56.4376 17.7304C56.4482 17.4742 56.5575 17.2318 56.743 17.0534L57.3908 16.4555C57.4825 16.3694 57.5907 16.3025 57.7089 16.2587C57.8271 16.2149 57.9529 16.195 58.079 16.2003C58.205 16.2055 58.3288 16.2358 58.4428 16.2893C58.5569 16.3428 58.659 16.4185 58.7432 16.5119C61.3923 19.4845 63.41 22.9573 64.6754 26.7223ZM56.1634 13.9508C56.2569 14.0362 56.3323 14.1392 56.3853 14.2538C56.4382 14.3684 56.4677 14.4923 56.4719 14.6183C56.4762 14.7443 56.4551 14.8699 56.4099 14.9877C56.3648 15.1056 56.2964 15.2133 56.2089 15.3047L55.5952 15.9478C55.4163 16.1303 55.1732 16.237 54.9168 16.2454C54.6604 16.2538 54.4107 16.1633 54.2201 15.9929C51.5491 13.6508 48.4354 11.8598 45.0603 10.7241C44.8147 10.6441 44.6105 10.4717 44.4915 10.2438C44.3725 10.016 44.3482 9.75099 44.4239 9.50561L44.6852 8.67073C44.7207 8.55098 44.78 8.43955 44.8597 8.34306C44.9394 8.24656 45.0379 8.16699 45.1493 8.10909C45.2606 8.05118 45.3826 8.01612 45.5079 8.00601C45.6331 7.99589 45.7592 8.01092 45.8785 8.0502C49.6751 9.30272 53.1747 11.3105 56.1634 13.9508ZM42.3328 7.09121C42.4566 7.11673 42.5739 7.1669 42.6776 7.2387C42.7814 7.3105 42.8694 7.40243 42.9363 7.50895C43.0032 7.61546 43.0477 7.73434 43.067 7.85839C43.0863 7.98245 43.0801 8.10911 43.0488 8.23072L42.8442 9.08817C42.7831 9.33669 42.6263 9.55153 42.4075 9.68654C42.1886 9.82155 41.9251 9.86596 41.6737 9.81023C38.1698 9.11825 34.563 9.11825 31.0592 9.81023C30.8081 9.86128 30.5468 9.81488 30.3291 9.68058C30.1114 9.54628 29.9538 9.33429 29.8886 9.08817L29.6841 8.23072C29.6527 8.10911 29.6465 7.98245 29.6658 7.85839C29.6852 7.73434 29.7296 7.61546 29.7966 7.50895C29.8635 7.40243 29.9515 7.3105 30.0552 7.2387C30.1589 7.1669 30.2762 7.11673 30.4 7.09121C32.3606 6.70065 34.3554 6.50413 36.3551 6.50454C38.3629 6.49123 40.3665 6.68787 42.3328 7.09121ZM26.877 8.02764C26.9964 7.98901 27.1223 7.97447 27.2474 7.98488C27.3725 7.99529 27.4942 8.03044 27.6054 8.08826C27.7166 8.14609 27.815 8.22541 27.8948 8.32157C27.9747 8.41773 28.0344 8.52877 28.0703 8.64816L28.3317 9.48305C28.4035 9.72842 28.3774 9.99181 28.259 10.2186C28.1405 10.4455 27.9387 10.6184 27.6953 10.7015C24.3222 11.8417 21.2094 13.6322 18.5355 15.9703C18.3449 16.1408 18.0951 16.2313 17.8388 16.2228C17.5824 16.2144 17.3392 16.1078 17.1604 15.9252L16.5467 15.2821C16.458 15.1914 16.3887 15.0838 16.3428 14.9658C16.2969 14.8479 16.2755 14.722 16.2797 14.5956C16.2839 14.4692 16.3138 14.345 16.3675 14.2303C16.4212 14.1157 16.4976 14.0129 16.5921 13.9282C19.5958 11.3085 23.0909 9.30327 26.877 8.02764ZM14.001 16.5232C14.0852 16.4298 14.1873 16.3541 14.3014 16.3006C14.4154 16.2471 14.5392 16.2168 14.6652 16.2115C14.7913 16.2063 14.9171 16.2262 15.0353 16.27C15.1535 16.3138 15.2617 16.3807 15.3534 16.4667L16.0012 17.0647C16.1892 17.2417 16.3004 17.4845 16.311 17.7415C16.3216 17.9985 16.2308 18.2495 16.058 18.4411C13.7233 21.0982 11.9357 24.1838 10.7962 27.5233C10.715 27.7647 10.5436 27.9659 10.3174 28.0855C10.0911 28.2052 9.82731 28.2341 9.58023 28.1664L8.71652 27.9182C8.59506 27.884 8.48181 27.8258 8.38353 27.7471C8.28525 27.6684 8.20397 27.5708 8.14455 27.4602C8.08514 27.3497 8.04881 27.2283 8.03773 27.1034C8.02666 26.9786 8.04108 26.8528 8.08011 26.7336C9.34077 22.9689 11.3547 19.4959 14.001 16.5232ZM8.28467 29.5203C8.16145 29.4909 8.03354 29.4864 7.90853 29.507C7.78352 29.5276 7.66394 29.5729 7.5569 29.6403C7.44986 29.7076 7.35752 29.7956 7.28537 29.899C7.21322 30.0024 7.16271 30.1192 7.13686 30.2423C6.34891 34.122 6.34891 38.1188 7.13686 41.9984C7.16314 42.1214 7.21391 42.2378 7.28618 42.341C7.35845 42.4442 7.45076 42.532 7.55769 42.5993C7.66462 42.6665 7.78402 42.7119 7.90886 42.7327C8.0337 42.7535 8.16147 42.7494 8.28467 42.7205L9.15974 42.5174C9.41065 42.4567 9.62797 42.3015 9.7658 42.0847C9.90363 41.8678 9.95119 41.6063 9.89844 41.3553C9.55458 39.6313 9.38328 37.8778 9.38703 36.1204C9.38893 34.3632 9.56018 32.6102 9.89844 30.8854C9.94972 30.6346 9.90154 30.3737 9.76394 30.1573C9.62633 29.9408 9.40991 29.7854 9.15974 29.7234L8.28467 29.5203ZM8.08011 45.4959C8.04041 45.3767 8.02549 45.2508 8.03626 45.1257C8.04703 45.0006 8.08326 44.879 8.14277 44.7683C8.20227 44.6575 8.2838 44.5599 8.38243 44.4814C8.48105 44.4028 8.59471 44.3449 8.71652 44.3113L9.58023 44.0631C9.82735 43.993 10.0922 44.0209 10.319 44.1409C10.5458 44.2608 10.7169 44.4635 10.7962 44.7062C11.9353 48.0483 13.7272 51.1346 16.0694 53.7883C16.2395 53.9812 16.3285 54.2316 16.3179 54.4878C16.3074 54.744 16.198 54.9864 16.0125 55.1648L15.3648 55.7627C15.2731 55.8488 15.1649 55.9157 15.0467 55.9595C14.9285 56.0033 14.8027 56.0232 14.6766 56.0179C14.5505 56.0127 14.4268 55.9824 14.3127 55.9289C14.1986 55.8754 14.0965 55.7997 14.0124 55.7063C11.3609 52.7353 9.34296 49.2621 8.08011 45.4959ZM16.5921 58.2674C16.4987 58.182 16.4233 58.079 16.3703 57.9644C16.3173 57.8498 16.2879 57.7259 16.2836 57.5999C16.2794 57.4739 16.3005 57.3483 16.3456 57.2305C16.3908 57.1126 16.4591 57.0049 16.5467 56.9135L17.1604 56.2704C17.3392 56.0879 17.5824 55.9812 17.8388 55.9728C18.0951 55.9644 18.3449 56.0549 18.5355 56.2253C21.2065 58.5674 24.3202 60.3584 27.6953 61.4941C27.9409 61.5741 28.1451 61.7465 28.2641 61.9743C28.3831 62.2022 28.4073 62.4672 28.3317 62.7126L28.0703 63.5475C28.0349 63.6672 27.9756 63.7787 27.8959 63.8751C27.8161 63.9716 27.7177 64.0512 27.6063 64.1091C27.495 64.167 27.373 64.2021 27.2477 64.2122C27.1224 64.2223 26.9964 64.2073 26.877 64.168C23.0787 62.9192 19.5785 60.911 16.5921 58.2674ZM30.4228 65.1383C30.299 65.1128 30.1816 65.0626 30.0779 64.9908C29.9742 64.919 29.8862 64.827 29.8193 64.7205C29.7524 64.614 29.7079 64.4951 29.6886 64.3711C29.6692 64.247 29.6754 64.1204 29.7068 63.9988L29.9114 63.1413C29.9724 62.8928 30.1292 62.6779 30.3481 62.5429C30.567 62.4079 30.8304 62.3635 31.0819 62.4192C34.5857 63.1112 38.1926 63.1112 41.6964 62.4192C41.9475 62.3682 42.2088 62.4146 42.4265 62.5489C42.6442 62.6832 42.8018 62.8952 42.8669 63.1413L43.0715 63.9988C43.1029 64.1204 43.1091 64.247 43.0897 64.3711C43.0704 64.4951 43.0259 64.614 42.959 64.7205C42.8921 64.827 42.8041 64.919 42.7004 64.9908C42.5966 65.0626 42.4793 65.1128 42.3555 65.1383C38.417 65.9205 34.3613 65.9205 30.4228 65.1383ZM45.8785 64.1906C45.7592 64.2292 45.6333 64.2437 45.5082 64.2333C45.3831 64.2229 45.2614 64.1878 45.1502 64.1299C45.039 64.0721 44.9406 63.9928 44.8607 63.8966C44.7809 63.8005 44.7212 63.6894 44.6852 63.57L44.4239 62.7351C44.3521 62.4898 44.3781 62.2264 44.4966 61.9995C44.6151 61.7727 44.8169 61.5998 45.0603 61.5167C48.4333 60.3765 51.5462 58.586 54.2201 56.2479C54.4107 56.0774 54.6604 55.9869 54.9168 55.9953C55.1732 56.0038 55.4163 56.1104 55.5952 56.293L56.2089 56.9361C56.2976 57.0268 56.3669 57.1344 56.4128 57.2524C56.4587 57.3703 56.4801 57.4962 56.4759 57.6226C56.4716 57.749 56.4418 57.8732 56.3881 57.9879C56.3344 58.1025 56.258 58.2053 56.1634 58.29C53.1689 60.9223 49.6711 62.9291 45.8785 64.1906ZM58.7545 55.695C58.6704 55.7884 58.5683 55.8641 58.4542 55.9176C58.3401 55.9711 58.2164 56.0014 58.0903 56.0067C57.9643 56.0119 57.8384 55.992 57.7202 55.9482C57.602 55.9044 57.4939 55.8375 57.4021 55.7515L56.7544 55.1535C56.5663 54.9765 56.4552 54.7337 56.4446 54.4767C56.434 54.2197 56.5247 53.9687 56.6976 53.7771C59.0421 51.125 60.8343 48.0382 61.9707 44.6949C62.0519 44.4535 62.2233 44.2523 62.4496 44.1327C62.6758 44.013 62.9396 43.9841 63.1867 44.0518L64.0504 44.3C64.1719 44.3342 64.2851 44.3924 64.3834 44.4711C64.4817 44.5498 64.563 44.6474 64.6224 44.7579C64.6818 44.8685 64.7181 44.9899 64.7292 45.1148C64.7403 45.2396 64.7259 45.3654 64.6868 45.4846C63.4202 49.2491 61.4026 52.7216 58.7545 55.695Z" fill="#144F2E"/>
<path d="M36.4801 2.99575L37.9461 1.45008C37.9572 1.43543 37.9631 1.41762 37.9631 1.39931C37.9631 1.381 37.9572 1.36319 37.9461 1.34854L36.4346 0.0172377C36.4221 0.006137 36.4059 0 36.3892 0C36.3724 0 36.3562 0.006137 36.3437 0.0172377L34.889 1.29213C34.8811 1.29801 34.8746 1.30566 34.8701 1.31448C34.8656 1.32329 34.8633 1.33303 34.8633 1.3429C34.8633 1.35277 34.8656 1.36251 34.8701 1.37132C34.8746 1.38014 34.8811 1.38779 34.889 1.39367L36.4005 2.99575C36.4119 3.01831 36.4573 3.01831 36.4801 2.99575Z" fill="#144F2E"/>
<path d="M36.0137 3.56014L34.3204 1.91294C34.3138 1.90618 34.3058 1.90082 34.297 1.89715C34.2882 1.89349 34.2788 1.8916 34.2693 1.8916C34.2598 1.8916 34.2503 1.89349 34.2415 1.89715C34.2328 1.90082 34.2248 1.90618 34.2181 1.91294L29.8428 5.42171C29.8087 5.44427 29.8542 5.57966 29.911 5.66992C29.9365 5.70082 29.9704 5.72368 30.0088 5.7357C30.0471 5.74773 30.0882 5.74839 30.1269 5.73761C30.5247 5.66992 31.8089 5.44427 32.9226 5.28632C33.4681 5.20734 34.0818 5.16222 34.6273 5.13965C35.4001 5.10581 36.0478 4.48528 36.0251 3.71809C36.0251 3.61655 36.0251 3.56014 36.0137 3.56014Z" fill="#144F2E"/>
<path d="M36.7414 3.53714L38.4348 1.90122C38.4414 1.89446 38.4494 1.8891 38.4582 1.88543C38.4669 1.88177 38.4764 1.87988 38.4859 1.87988C38.4954 1.87988 38.5048 1.88177 38.5136 1.88543C38.5224 1.8891 38.5304 1.89446 38.537 1.90122L42.9124 5.40999C42.9465 5.43255 42.901 5.56794 42.8442 5.6582C42.8187 5.6891 42.7847 5.71196 42.7464 5.72398C42.708 5.73601 42.667 5.73667 42.6283 5.72589C42.2305 5.6582 40.9463 5.43255 39.8326 5.2746C39.2871 5.19563 38.6734 5.1505 38.1279 5.12793C37.3551 5.09409 36.7073 4.47356 36.7301 3.70637C36.7303 3.64978 36.7341 3.59326 36.7414 3.53714Z" fill="#144F2E"/>
<path d="M3.02248 36.0075L1.46554 34.5521C1.45079 34.5411 1.43284 34.5352 1.4144 34.5352C1.39596 34.5352 1.37801 34.5411 1.36326 34.5521L0.0222462 36.0526C0.0110646 36.065 0.00488281 36.0811 0.00488281 36.0977C0.00488281 36.1144 0.0110646 36.1305 0.0222462 36.1429L1.30644 37.587C1.31236 37.5949 1.32007 37.6014 1.32895 37.6058C1.33783 37.6103 1.34763 37.6126 1.35758 37.6126C1.36752 37.6126 1.37733 37.6103 1.38621 37.6058C1.39509 37.6014 1.4028 37.5949 1.40872 37.587L3.02248 36.0865C3.04521 36.0752 3.04521 36.0301 3.02248 36.0075Z" fill="#144F2E"/>
<path d="M3.59087 36.4699L1.93165 38.1509C1.92484 38.1575 1.91944 38.1654 1.91575 38.1742C1.91206 38.1829 1.91016 38.1922 1.91016 38.2017C1.91016 38.2111 1.91206 38.2205 1.91575 38.2292C1.91944 38.2379 1.92484 38.2458 1.93165 38.2525L5.46601 42.5961C5.48874 42.63 5.62512 42.5848 5.71603 42.5284C5.74716 42.5031 5.77019 42.4694 5.7823 42.4313C5.79441 42.3933 5.79508 42.3525 5.78422 42.3141C5.71603 41.9192 5.48874 40.6443 5.32964 39.5386C5.25009 38.9971 5.20463 38.3878 5.1819 37.8463C5.14781 37.0791 4.52276 36.436 3.74997 36.4586C3.6967 36.4577 3.64346 36.4614 3.59087 36.4699Z" fill="#144F2E"/>
<path d="M3.57915 35.7483L1.91993 34.0672C1.91312 34.0606 1.90772 34.0527 1.90403 34.044C1.90034 34.0353 1.89844 34.0259 1.89844 34.0164C1.89844 34.007 1.90034 33.9976 1.90403 33.9889C1.90772 33.9802 1.91312 33.9723 1.91993 33.9657L5.45429 29.622C5.48839 29.5882 5.6134 29.6333 5.70431 29.6897C5.73544 29.715 5.75847 29.7487 5.77058 29.7868C5.78269 29.8249 5.78336 29.8656 5.7725 29.9041C5.70431 30.2989 5.47702 31.5738 5.31792 32.6795C5.23837 33.221 5.19291 33.8303 5.17018 34.3718C5.13609 35.139 4.51104 35.7821 3.73825 35.7595C3.63597 35.7595 3.57915 35.7595 3.57915 35.7483Z" fill="#144F2E"/>
<path d="M36.2751 69.1995L34.809 70.7451C34.798 70.7598 34.792 70.7776 34.792 70.7959C34.792 70.8142 34.798 70.832 34.809 70.8467L36.3205 72.178C36.333 72.1891 36.3492 72.1952 36.366 72.1952C36.3828 72.1952 36.3989 72.1891 36.4114 72.178L37.8661 70.9031C37.8741 70.8972 37.8806 70.8896 37.8851 70.8807C37.8895 70.8719 37.8919 70.8622 37.8919 70.8523C37.8919 70.8425 37.8895 70.8327 37.8851 70.8239C37.8806 70.8151 37.8741 70.8074 37.8661 70.8016L36.366 69.1995C36.3534 69.1886 36.3372 69.1826 36.3205 69.1826C36.3038 69.1826 36.2877 69.1886 36.2751 69.1995Z" fill="#144F2E"/>
<path d="M36.7414 68.6358L38.4348 70.2718C38.4414 70.2785 38.4494 70.2839 38.4582 70.2875C38.4669 70.2912 38.4764 70.2931 38.4859 70.2931C38.4954 70.2931 38.5048 70.2912 38.5136 70.2875C38.5224 70.2839 38.5304 70.2785 38.537 70.2718L42.9124 66.763C42.9465 66.7404 42.901 66.605 42.8442 66.5148C42.8187 66.4839 42.7847 66.461 42.7464 66.449C42.708 66.437 42.667 66.4363 42.6283 66.4471C42.2305 66.5148 40.9463 66.7404 39.8326 66.8984C39.2871 66.9773 38.6734 67.0225 38.1279 67.045C37.3551 67.0789 36.7073 67.6994 36.7301 68.4666C36.7288 68.5232 36.7326 68.5799 36.7414 68.6358Z" fill="#144F2E"/>
<path d="M36.0137 68.6583L34.3204 70.2942C34.3138 70.301 34.3058 70.3063 34.297 70.31C34.2882 70.3137 34.2788 70.3155 34.2693 70.3155C34.2598 70.3155 34.2503 70.3137 34.2415 70.31C34.2328 70.3063 34.2248 70.301 34.2181 70.2942L29.8428 66.7854C29.8087 66.7629 29.8542 66.6275 29.911 66.5372C29.9365 66.5063 29.9704 66.4835 30.0088 66.4714C30.0471 66.4594 30.0882 66.4588 30.1269 66.4695C30.5247 66.5372 31.8089 66.7629 32.9226 66.9208C33.4681 66.9998 34.0818 67.0449 34.6273 67.0675C35.4001 67.1013 36.0478 67.7219 36.0251 68.4891C36.0316 68.5457 36.0277 68.603 36.0137 68.6583Z" fill="#144F2E"/>
<path d="M69.7094 36.2106L71.2664 37.666C71.2811 37.6769 71.2991 37.6829 71.3175 37.6829C71.3359 37.6829 71.3539 37.6769 71.3686 37.666L72.7097 36.1654C72.7208 36.153 72.727 36.137 72.727 36.1203C72.727 36.1036 72.7208 36.0876 72.7097 36.0752L71.4255 34.631C71.4196 34.6231 71.4118 34.6167 71.403 34.6122C71.3941 34.6078 71.3843 34.6055 71.3743 34.6055C71.3644 34.6055 71.3546 34.6078 71.3457 34.6122C71.3368 34.6167 71.3291 34.6231 71.3232 34.631L69.7094 36.1316C69.6867 36.1429 69.6867 36.188 69.7094 36.2106Z" fill="#144F2E"/>
<path d="M69.1415 35.7483L70.8007 34.0672C70.8075 34.0606 70.8129 34.0527 70.8166 34.044C70.8203 34.0353 70.8222 34.0259 70.8222 34.0164C70.8222 34.007 70.8203 33.9976 70.8166 33.9889C70.8129 33.9802 70.8075 33.9723 70.8007 33.9657L67.2663 29.622C67.2436 29.5882 67.1072 29.6333 67.0163 29.6897C66.9852 29.715 66.9621 29.7487 66.95 29.7868C66.9379 29.8249 66.9373 29.8656 66.9481 29.9041C67.0163 30.2989 67.2436 31.5738 67.4027 32.6795C67.4822 33.221 67.5277 33.8303 67.5504 34.3718C67.5845 35.139 68.2096 35.7821 68.9824 35.7595C69.0846 35.7595 69.1415 35.7595 69.1415 35.7483Z" fill="#144F2E"/>
<path d="M69.1636 36.4699L70.8114 38.1509C70.8182 38.1575 70.8236 38.1654 70.8273 38.1742C70.831 38.1829 70.8329 38.1922 70.8329 38.2017C70.8329 38.2111 70.831 38.2205 70.8273 38.2292C70.8236 38.2379 70.8182 38.2458 70.8114 38.2525L67.2771 42.5961C67.2543 42.63 67.118 42.5848 67.027 42.5284C66.9959 42.5031 66.9729 42.4694 66.9608 42.4313C66.9487 42.3933 66.948 42.3525 66.9589 42.3141C67.027 41.9192 67.2543 40.6443 67.4134 39.5386C67.493 38.9971 67.5384 38.3878 67.5612 37.8463C67.5953 37.0791 68.2203 36.436 68.9931 36.4586C69.0501 36.4588 69.107 36.4625 69.1636 36.4699Z" fill="#144F2E"/>
<path d="M98.3889 19L98.2152 25.2526H96.6225C96.666 24.189 96.5646 23.3265 96.333 22.651C96.1013 21.9466 95.7393 21.4292 95.2326 21.0986C94.7258 20.768 94.1032 20.5955 93.3069 20.6242H91.5839L90.8166 34.61C90.8025 35.0812 90.7639 35.5514 90.7007 36.0187C90.6573 36.4499 90.6283 36.7948 90.5849 37.0392C90.8166 37.0248 91.0627 37.0104 91.3523 37.0104C91.6419 37.0104 91.9314 36.9817 92.2065 36.9817C92.4816 36.9817 92.7133 36.953 92.887 36.953L92.8001 38.8216H85.112L85.2278 37.2692C85.6326 37.2759 86.0321 37.1768 86.3861 36.9817C86.7106 36.7921 86.953 36.4901 87.0666 36.1336C87.2398 35.5937 87.3373 35.0326 87.3562 34.4663L88.1235 20.653H86.2847C85.1699 20.6674 84.3011 21.0555 83.6786 21.7885C83.056 22.5216 82.7085 23.6859 82.6361 25.267H81L81.4778 19.0144H98.3889V19Z" fill="#144F2E"/>
<path d="M104.499 24.3461C105.216 24.3372 105.929 24.464 106.598 24.7199C107.206 24.9213 107.733 25.3088 108.104 25.8267C108.466 26.3297 108.64 26.9909 108.64 27.8102C108.657 28.5406 108.393 29.2498 107.902 29.7938C107.377 30.3803 106.729 30.8462 106.005 31.1594C105.19 31.5106 104.347 31.7943 103.486 32.0074C102.62 32.2299 101.739 32.3884 100.85 32.4817C100.85 33.5885 100.966 34.4797 101.212 35.1409C101.459 35.8021 101.792 36.2477 102.211 36.5208C102.638 36.7815 103.129 36.9207 103.63 36.9233C104.074 36.9166 104.514 36.8389 104.933 36.6933C105.472 36.4906 105.965 36.1827 106.381 35.7877C106.859 35.3565 107.264 34.7528 107.626 33.9766L108.987 34.6522C108.452 35.8021 107.873 36.7077 107.236 37.3689C106.664 37.9673 105.967 38.4335 105.194 38.7344C104.475 38.9978 103.716 39.134 102.95 39.1368C101.198 39.1512 99.8369 38.6338 98.8668 37.5845C97.8967 36.5352 97.4189 34.9972 97.4189 32.9992C97.4253 31.9933 97.5665 30.9927 97.8388 30.0238C98.1142 29.0294 98.544 28.0838 99.113 27.2209C99.688 26.3767 100.445 25.6698 101.328 25.1511C102.211 24.6192 103.268 24.3461 104.499 24.3461ZM104.166 25.8985C103.835 25.8885 103.507 25.9517 103.204 26.0835C102.901 26.2152 102.631 26.4123 102.414 26.6603C101.926 27.2061 101.57 27.8549 101.372 28.5577C101.142 29.3213 100.991 30.1064 100.923 30.9006C101.81 30.7682 102.677 30.5217 103.5 30.1676C104.195 29.8226 104.745 29.4345 105.122 28.9745C105.485 28.5602 105.686 28.0293 105.686 27.4796C105.695 27.0483 105.534 26.6304 105.237 26.3154C104.947 26.046 104.564 25.8969 104.166 25.8985Z" fill="#144F2E"/>
<path d="M114.923 39.1233C114.107 39.1299 113.295 39.0037 112.52 38.7496C111.838 38.5249 111.219 38.146 110.71 37.6428C110.268 37.1765 110.024 36.5585 110.03 35.9179C110.006 35.4498 110.167 34.991 110.478 34.6386C110.623 34.4765 110.802 34.3476 111.002 34.2607C111.202 34.1738 111.418 34.1311 111.637 34.1356C111.845 34.1239 112.053 34.1607 112.244 34.2431C112.435 34.3255 112.604 34.4511 112.737 34.6099C112.876 34.753 112.984 34.922 113.056 35.107C113.128 35.2921 113.163 35.4896 113.157 35.6879C113.157 35.8336 113.138 35.9786 113.099 36.1191C113.075 36.2791 113.027 36.4343 112.954 36.5791C113.07 36.8378 113.331 37.0678 113.751 37.2547C114.123 37.4298 114.527 37.5276 114.938 37.5422C115.821 37.5422 116.473 37.3409 116.864 36.9528C117.056 36.7599 117.207 36.5308 117.309 36.2791C117.411 36.0274 117.461 35.758 117.457 35.4867C117.461 35.2861 117.423 35.0868 117.346 34.9014C117.268 34.716 117.154 34.5482 117.008 34.4087C116.661 34.0605 116.272 33.7564 115.85 33.5031C115.372 33.2013 114.88 32.8994 114.344 32.5975C113.651 32.1963 112.979 31.7597 112.332 31.2895C111.837 30.9362 111.414 30.4922 111.087 29.9815C110.796 29.4847 110.65 28.9172 110.667 28.3429C110.668 27.6523 110.886 26.9793 111.289 26.4168C111.745 25.7832 112.359 25.278 113.07 24.9507C113.852 24.5482 114.779 24.3613 115.879 24.3613C116.614 24.3628 117.344 24.4892 118.036 24.7351C118.686 24.9315 119.277 25.2817 119.759 25.7556C119.975 25.9651 120.147 26.2155 120.264 26.492C120.381 26.7686 120.441 27.0656 120.44 27.3655C120.445 27.7997 120.296 28.2218 120.02 28.5585C119.874 28.7171 119.694 28.8418 119.494 28.9238C119.294 29.0058 119.078 29.043 118.862 29.0328C118.655 29.0427 118.449 29.0064 118.259 28.9268C118.068 28.8472 117.898 28.7263 117.761 28.5729C117.502 28.2736 117.362 27.8897 117.37 27.4948C117.37 27.3511 117.385 27.2074 117.399 27.0636C117.447 26.9255 117.506 26.791 117.573 26.6611C117.416 26.3926 117.162 26.1925 116.864 26.1006C116.523 25.965 116.159 25.8967 115.792 25.8993C115.456 25.9052 115.125 25.9836 114.822 26.1293C114.505 26.26 114.222 26.4617 113.997 26.7186C113.765 26.9631 113.64 27.2886 113.649 27.6242C113.641 27.9053 113.722 28.1817 113.881 28.4148C114.097 28.7073 114.367 28.9562 114.677 29.1478C115.054 29.4066 115.56 29.7372 116.212 30.1109C116.864 30.4846 117.501 30.8871 118.167 31.3327C118.814 31.7235 119.392 32.219 119.875 32.7988C120.338 33.3776 120.58 34.101 120.556 34.8399C120.566 35.639 120.306 36.4186 119.817 37.0534C119.305 37.7283 118.62 38.2545 117.834 38.5771C116.912 38.9575 115.921 39.1435 114.923 39.1233Z" fill="#144F2E"/>
<path d="M126.854 39.1233C126.038 39.1299 125.226 39.0037 124.451 38.7496C123.769 38.5249 123.149 38.146 122.641 37.6428C122.198 37.1765 121.955 36.5585 121.96 35.9179C121.937 35.4498 122.098 34.991 122.409 34.6386C122.554 34.4765 122.733 34.3476 122.933 34.2607C123.133 34.1738 123.349 34.1311 123.567 34.1356C123.775 34.1239 123.983 34.1607 124.174 34.2431C124.365 34.3255 124.534 34.4511 124.668 34.6099C124.806 34.753 124.915 34.922 124.987 35.107C125.059 35.2921 125.093 35.4896 125.088 35.6879C125.088 35.8336 125.068 35.9786 125.03 36.1191C125.006 36.2791 124.957 36.4343 124.885 36.5791C125.001 36.8378 125.261 37.0678 125.681 37.2547C126.053 37.4298 126.457 37.5277 126.869 37.5422C127.752 37.5422 128.403 37.3409 128.794 36.9528C128.986 36.7599 129.138 36.5308 129.24 36.2791C129.342 36.0274 129.392 35.758 129.388 35.4867C129.391 35.2861 129.353 35.0868 129.276 34.9014C129.199 34.716 129.084 34.5482 128.939 34.4087C128.592 34.0605 128.203 33.7564 127.781 33.5031C127.303 33.2013 126.811 32.8994 126.275 32.5975C125.582 32.1963 124.91 31.7597 124.262 31.2895C123.767 30.9362 123.345 30.4922 123.017 29.9815C122.727 29.4847 122.581 28.9172 122.597 28.3429C122.599 27.6523 122.816 26.9793 123.22 26.4168C123.676 25.7832 124.289 25.278 125.001 24.9507C125.783 24.5482 126.709 24.3613 127.81 24.3613C128.545 24.3628 129.275 24.4892 129.967 24.7351C130.616 24.9315 131.207 25.2817 131.69 25.7556C131.906 25.9651 132.078 26.2155 132.195 26.492C132.312 26.7686 132.371 27.0656 132.37 27.3655C132.375 27.7997 132.227 28.2218 131.951 28.5585C131.804 28.7171 131.625 28.8418 131.425 28.9238C131.224 29.0058 131.009 29.043 130.792 29.0328C130.586 29.0427 130.38 29.0064 130.189 28.9268C129.999 28.8472 129.829 28.7263 129.692 28.5729C129.432 28.2736 129.293 27.8897 129.301 27.4948C129.301 27.3511 129.315 27.2074 129.33 27.0636C129.378 26.9255 129.436 26.791 129.504 26.6611C129.346 26.3926 129.093 26.1925 128.794 26.1006C128.454 25.965 128.09 25.8967 127.723 25.8993C127.386 25.9052 127.055 25.9836 126.753 26.1293C126.436 26.26 126.153 26.4617 125.927 26.7186C125.696 26.9631 125.571 27.2886 125.58 27.6242C125.572 27.9053 125.653 28.1817 125.812 28.4148C126.027 28.7073 126.298 28.9562 126.608 29.1478C126.984 29.4066 127.491 29.7372 128.143 30.1109C128.794 30.4846 129.431 30.8871 130.097 31.3327C130.745 31.7235 131.323 32.219 131.806 32.7988C132.269 33.3776 132.51 34.101 132.486 34.8399C132.497 35.6391 132.237 36.4186 131.748 37.0534C131.236 37.7283 130.551 38.2545 129.764 38.5771C128.842 38.9563 127.852 39.1423 126.854 39.1233Z" fill="#144F2E"/>
<path d="M141.159 24.3461C141.877 24.3372 142.589 24.464 143.259 24.7199C143.866 24.9213 144.393 25.3088 144.764 25.8267C145.126 26.3297 145.3 26.9909 145.3 27.8102C145.317 28.5406 145.053 29.2498 144.562 29.7938C144.037 30.3803 143.39 30.8462 142.665 31.1594C141.85 31.5106 141.008 31.7943 140.146 32.0074C139.28 32.2299 138.4 32.3884 137.511 32.4817C137.511 33.5885 137.626 34.4797 137.873 35.1409C138.119 35.8021 138.452 36.2477 138.872 36.5208C139.298 36.7815 139.789 36.9207 140.29 36.9233C140.734 36.9166 141.174 36.8389 141.594 36.6933C142.132 36.4906 142.625 36.1827 143.041 35.7877C143.519 35.3565 143.925 34.7528 144.287 33.9766L145.648 34.6522C145.112 35.8021 144.533 36.7077 143.896 37.3689C143.324 37.9673 142.627 38.4335 141.854 38.7344C141.136 38.9978 140.376 39.134 139.61 39.1368C137.858 39.1512 136.497 38.6338 135.527 37.5845C134.557 36.5352 134.079 34.9972 134.079 32.9992C134.085 31.9933 134.227 30.9927 134.499 30.0238C134.774 29.0294 135.204 28.0838 135.773 27.2209C136.348 26.3767 137.105 25.6698 137.988 25.1511C138.872 24.6192 139.929 24.3461 141.159 24.3461ZM140.826 25.8985C140.496 25.8885 140.167 25.9517 139.864 26.0835C139.561 26.2152 139.291 26.4123 139.074 26.6603C138.592 27.2097 138.236 27.8573 138.032 28.5577C137.802 29.3213 137.651 30.1064 137.583 30.9006C138.47 30.7682 139.337 30.5217 140.16 30.1676C140.855 29.8226 141.405 29.4345 141.782 28.9745C142.146 28.5602 142.346 28.0293 142.346 27.4796C142.356 27.0483 142.195 26.6304 141.898 26.3154C141.605 26.0487 141.223 25.9 140.826 25.8985Z" fill="#144F2E"/>
<path d="M148.688 38.807C148.654 38.5929 148.635 38.3768 148.63 38.1601V37.657C148.63 37.2977 148.645 36.8665 148.688 36.349C148.732 35.8316 148.775 35.2135 148.833 34.5379C148.891 33.8623 148.992 33.1149 149.094 32.2956C149.209 31.4475 149.296 30.7145 149.383 30.082C149.47 29.4496 149.542 28.9465 149.586 28.5584C149.621 28.2386 149.641 27.9171 149.644 27.5953C149.658 27.2504 149.629 27.006 149.528 26.8335C149.5 26.7542 149.446 26.686 149.376 26.6394C149.305 26.5927 149.222 26.57 149.137 26.5748C148.891 26.5748 148.63 26.7473 148.341 27.1066C148.051 27.466 147.79 28.0697 147.544 28.9752L146.241 28.6015C146.338 28.1593 146.459 27.7227 146.603 27.2935C146.778 26.7957 147.016 26.3223 147.313 25.8849C147.599 25.4449 147.974 25.0682 148.413 24.7781C148.873 24.4661 149.42 24.3052 149.977 24.3181C150.672 24.3181 151.236 24.5337 151.656 24.9649C152.076 25.3961 152.279 26.1148 152.279 27.121C152.264 27.466 152.221 27.8541 152.163 28.314C152.105 28.7453 152.033 29.234 151.931 29.7802H151.989C152.496 28.2709 153.032 27.1354 153.582 26.3592C154.132 25.583 154.711 25.0224 155.261 24.7493C155.759 24.4786 156.316 24.3307 156.883 24.3181C157.549 24.3181 158.085 24.4906 158.505 24.8499C158.874 25.1805 159.096 25.6427 159.123 26.1355C159.151 26.6283 158.98 27.1118 158.649 27.4804C158.501 27.6556 158.315 27.7948 158.104 27.887C157.893 27.9792 157.663 28.022 157.433 28.0122C157.057 28.0108 156.693 27.8785 156.405 27.6385C156.257 27.5197 156.14 27.3681 156.062 27.1958C155.984 27.0235 155.948 26.8354 155.956 26.6467C155.58 26.5748 155.189 26.7473 154.798 27.1785C154.347 27.7068 153.977 28.2975 153.698 28.9321C153.337 29.7491 153.032 30.5895 152.786 31.4475C152.525 32.3675 152.308 33.3161 152.134 34.2792C151.99 35.1779 151.912 36.0859 151.902 36.9959C151.902 37.2402 151.917 37.5421 151.931 37.9014C151.946 38.2607 151.975 38.5195 151.989 38.7495H148.688V38.807Z" fill="#144F2E"/>
<path d="M167.365 24.3477C167.981 24.3515 168.596 24.3995 169.204 24.4914C169.922 24.5895 170.633 24.7335 171.333 24.9226C171.217 25.7563 171.087 26.6906 170.942 27.7543C170.797 28.8179 170.667 29.8672 170.522 30.9309C170.392 31.9658 170.276 32.9145 170.189 33.7913C170.102 34.6681 170.073 35.3293 170.073 35.8036C170.063 36.0814 170.102 36.3587 170.189 36.6229C170.218 36.7098 170.274 36.785 170.35 36.8369C170.426 36.8888 170.517 36.9146 170.609 36.9104C170.855 36.9104 171.115 36.7379 171.405 36.4073C171.709 36.048 171.984 35.4155 172.259 34.51L173.533 34.8837C173.457 35.3307 173.336 35.7689 173.171 36.1917C172.976 36.6914 172.718 37.1646 172.404 37.6004C172.108 38.0499 171.724 38.436 171.275 38.7359C170.798 39.0306 170.244 39.1805 169.682 39.1671C169.094 39.184 168.523 38.9726 168.089 38.5778C167.67 38.1753 167.467 37.5141 167.467 36.5942C167.466 36.2149 167.486 35.8359 167.525 35.4586C167.583 35.0418 167.641 34.6393 167.727 34.2369H167.67C167.354 35.1013 166.957 35.934 166.482 36.7235C166.136 37.2829 165.707 37.7869 165.208 38.2184C164.828 38.5476 164.385 38.797 163.905 38.9515C163.493 39.0802 163.063 39.148 162.631 39.1527C162.127 39.1596 161.629 39.0532 161.172 38.8417C160.716 38.6301 160.314 38.3187 159.996 37.931C159.272 37.126 158.924 35.8324 158.924 34.0788C158.912 32.8228 159.093 31.5723 159.46 30.3703C159.816 29.2401 160.375 28.1833 161.111 27.2512C161.819 26.3567 162.719 25.63 163.746 25.1238C164.759 24.6064 165.99 24.3477 167.365 24.3477ZM166.366 25.9288C165.742 25.9262 165.134 26.1339 164.643 26.5181C164.086 26.9551 163.639 27.5165 163.34 28.1567C162.947 28.9524 162.669 29.7992 162.515 30.6722C162.333 31.755 162.246 32.8515 162.255 33.9494C162.255 34.8693 162.356 35.6168 162.573 36.1917C162.805 36.7379 163.138 37.011 163.601 37.011C164.064 37.011 164.484 36.781 164.904 36.3355C165.381 35.7888 165.763 35.167 166.033 34.4956C166.394 33.6589 166.699 32.7994 166.946 31.9227C167.206 30.9596 167.423 29.9822 167.597 29.0048C167.76 28.0591 167.857 27.1034 167.887 26.1444C167.675 26.074 167.457 26.0258 167.235 26.0007C166.948 25.9553 166.657 25.9313 166.366 25.9288Z" fill="#144F2E"/>
<path d="M86.3835 51.94V48.8855L84.9992 51.1361H84.4224L83.0526 48.8855V51.94H82V47.044H83.1391L84.7252 49.6893L86.3114 47.044H87.4216V51.94H86.3835ZM93.521 51.9692C93.1651 51.9705 92.8123 51.901 92.4828 51.7646C92.1822 51.6314 91.9084 51.4432 91.6753 51.2092C91.4505 50.9796 91.2739 50.7061 91.1562 50.4054C91.0362 50.1135 90.9725 49.8009 90.9688 49.4847C90.9655 49.163 91.0293 48.8442 91.1562 48.5493C91.42 47.9458 91.8989 47.4655 92.4972 47.2048C92.8217 47.0684 93.1697 46.9988 93.521 47.0002C93.8634 46.9969 94.2028 47.0653 94.5179 47.2011C94.833 47.3369 95.117 47.5371 95.3522 47.7894C95.5802 48.0165 95.7572 48.2906 95.8713 48.5932C95.9899 48.8804 96.0536 49.1879 96.0588 49.4993C96.0607 49.8209 95.9969 50.1393 95.8713 50.4346C95.7428 50.7287 95.5619 50.9962 95.3378 51.2238C95.1085 51.4625 94.8338 51.6514 94.5303 51.7792C94.2107 51.9134 93.8669 51.9782 93.521 51.9692ZM92.0358 49.4993C92.033 49.6989 92.0672 49.8972 92.1367 50.0839C92.2101 50.2621 92.3071 50.4293 92.4251 50.5808C92.553 50.7292 92.7102 50.8486 92.8865 50.9315C93.2956 51.0924 93.7501 51.0872 94.1554 50.9169C94.3325 50.8288 94.4896 50.7044 94.6169 50.5516C94.74 50.4036 94.8375 50.2356 94.9052 50.0547C94.9722 49.8774 95.0064 49.6891 95.0062 49.4993C95.0104 49.3044 94.9761 49.1106 94.9052 48.9293C94.8318 48.7557 94.7347 48.5934 94.6169 48.447C94.4894 48.3018 94.3319 48.187 94.1554 48.1109C93.9609 48.021 93.7492 47.9761 93.5354 47.9794C93.317 47.9763 93.1006 48.0211 92.901 48.1109C92.7224 48.1899 92.5644 48.31 92.4395 48.4616C92.3134 48.6074 92.2155 48.776 92.1512 48.9585C92.069 49.1263 92.0293 49.3121 92.0358 49.4993ZM102.72 48.4178C102.629 48.34 102.527 48.276 102.418 48.2278C102.257 48.1447 102.088 48.0809 101.913 48.0378C101.721 47.979 101.522 47.9495 101.322 47.9501C101.109 47.9406 100.897 47.9806 100.702 48.067C100.64 48.0983 100.589 48.1463 100.553 48.2058C100.518 48.2652 100.499 48.3336 100.5 48.4032C100.498 48.4566 100.509 48.5095 100.532 48.5578C100.555 48.606 100.588 48.6482 100.63 48.6809C100.753 48.7668 100.889 48.8311 101.033 48.8709C101.247 48.9403 101.463 48.9988 101.682 49.0462C101.982 49.1217 102.276 49.2194 102.562 49.3385C102.788 49.4317 102.987 49.5827 103.139 49.777C103.288 49.9891 103.36 50.2477 103.341 50.5077C103.346 50.7513 103.292 50.9924 103.182 51.2092C103.081 51.3971 102.931 51.5536 102.749 51.6623C102.561 51.7859 102.35 51.8704 102.129 51.9107C101.893 51.9647 101.651 51.9892 101.408 51.9838C101.014 51.9807 100.621 51.9266 100.24 51.823C99.8795 51.7223 99.5348 51.5698 99.2166 51.37L99.678 50.4493C99.7927 50.547 99.9186 50.6304 100.053 50.6977C100.252 50.794 100.46 50.8722 100.673 50.9315C100.923 50.9962 101.179 51.0305 101.437 51.0338C101.641 51.0439 101.844 51.0038 102.028 50.9169C102.091 50.8914 102.144 50.8467 102.18 50.789C102.216 50.7313 102.234 50.6636 102.23 50.5954C102.232 50.5332 102.216 50.4717 102.186 50.4176C102.155 50.3636 102.111 50.3189 102.057 50.2885C101.914 50.1981 101.758 50.1292 101.596 50.0839C101.394 50.0254 101.163 49.967 100.889 49.8939C100.607 49.8216 100.332 49.7238 100.067 49.6016C99.874 49.5003 99.7063 49.3552 99.5771 49.1778C99.469 48.9814 99.4142 48.7595 99.4185 48.5347C99.4092 48.2329 99.4951 47.936 99.6636 47.6871C99.8422 47.4539 100.082 47.2766 100.356 47.1756C100.664 47.0559 100.992 46.9964 101.322 47.0002C101.669 46.9991 102.015 47.0533 102.346 47.1609C102.63 47.2522 102.901 47.3799 103.153 47.5409L102.72 48.4178ZM106.239 51.94L108.344 47.044H109.195L111.3 51.94H110.19L109.699 50.7854H107.825L107.335 51.94H106.239ZM108.791 48.3301L108.084 49.8793H109.483L108.791 48.3301ZM114.616 51.94V47.044H115.669V51.94H114.616ZM119.202 49.4555C119.203 49.1546 119.262 48.8569 119.375 48.5786C119.493 48.2858 119.664 48.0181 119.879 47.7894C120.106 47.5476 120.381 47.3582 120.687 47.234C121.033 47.0866 121.407 47.0169 121.783 47.0294C122.214 47.0204 122.64 47.1209 123.023 47.3217C123.351 47.4932 123.618 47.7639 123.787 48.0963L122.98 48.6663C122.928 48.5439 122.853 48.4331 122.759 48.3403C122.665 48.2475 122.554 48.1745 122.432 48.1255C122.214 48.0283 121.978 47.9785 121.739 47.9794C121.515 47.9723 121.291 48.0226 121.091 48.1255C120.912 48.2046 120.754 48.3246 120.629 48.4763C120.508 48.6227 120.415 48.7914 120.355 48.9732C120.295 49.1473 120.261 49.3296 120.254 49.5139C120.256 49.7144 120.296 49.9126 120.37 50.0985C120.439 50.2818 120.542 50.4503 120.672 50.5954C120.802 50.7442 120.966 50.8594 121.148 50.9315C121.346 51.0095 121.556 51.0491 121.768 51.0485C121.925 51.0445 122.08 51.02 122.23 50.9754C122.399 50.9335 122.557 50.8536 122.691 50.7415C122.831 50.6365 122.941 50.4952 123.008 50.3323L123.874 50.8439C123.755 51.0939 123.576 51.3099 123.354 51.4723C123.119 51.645 122.856 51.7736 122.576 51.8523C122.3 51.9387 122.014 51.983 121.725 51.9838C121.374 51.9852 121.026 51.9156 120.701 51.7792C120.396 51.6409 120.122 51.4421 119.894 51.1946C119.669 50.9597 119.492 50.6814 119.375 50.3762C119.269 50.0807 119.21 49.7698 119.202 49.4555ZM135.207 48.4178C135.116 48.34 135.014 48.276 134.904 48.2278C134.744 48.1447 134.575 48.0809 134.4 48.0378C134.208 47.979 134.009 47.9495 133.808 47.9501C133.596 47.9406 133.384 47.9806 133.188 48.067C133.127 48.0983 133.076 48.1463 133.04 48.2058C133.004 48.2652 132.986 48.3336 132.987 48.4032C132.985 48.4566 132.996 48.5095 133.019 48.5578C133.041 48.606 133.075 48.6482 133.116 48.6809C133.239 48.7668 133.376 48.8311 133.52 48.8709C133.733 48.9403 133.95 48.9988 134.169 49.0462C134.469 49.1217 134.763 49.2194 135.048 49.3385C135.275 49.4317 135.474 49.5827 135.625 49.777C135.775 49.9891 135.846 50.2477 135.827 50.5077C135.833 50.7513 135.778 50.9924 135.668 51.2092C135.567 51.3971 135.418 51.5536 135.236 51.6623C135.048 51.7859 134.837 51.8704 134.616 51.9107C134.379 51.9647 134.137 51.9892 133.895 51.9838C133.5 51.9807 133.108 51.9266 132.727 51.823C132.366 51.7223 132.021 51.5698 131.703 51.37L132.165 50.4493C132.279 50.547 132.405 50.6304 132.54 50.6977C132.739 50.794 132.946 50.8722 133.16 50.9315C133.409 50.9962 133.666 51.0305 133.924 51.0338C134.127 51.0439 134.33 51.0038 134.515 50.9169C134.578 50.8914 134.631 50.8467 134.667 50.789C134.703 50.7313 134.721 50.6636 134.717 50.5954C134.718 50.5332 134.703 50.4717 134.672 50.4176C134.642 50.3636 134.597 50.3189 134.544 50.2885C134.401 50.1981 134.245 50.1292 134.082 50.0839C133.881 50.0254 133.65 49.967 133.376 49.8939C133.094 49.8216 132.819 49.7238 132.554 49.6016C132.361 49.5003 132.193 49.3552 132.064 49.1778C131.956 48.9814 131.901 48.7595 131.905 48.5347C131.896 48.2329 131.982 47.936 132.15 47.6871C132.329 47.4539 132.569 47.2766 132.842 47.1756C133.151 47.0559 133.478 46.9964 133.808 47.0002C134.156 46.9991 134.501 47.0533 134.832 47.1609C135.116 47.2522 135.388 47.3799 135.64 47.5409L135.207 48.4178ZM143.397 47.9647H141.696V51.94H140.643V47.9647H138.927V47.0294H143.397V47.9647ZM149.05 51.0338C149.257 51.0389 149.464 50.9991 149.655 50.9169C149.812 50.8412 149.946 50.7254 150.045 50.5808C150.146 50.4427 150.216 50.2827 150.246 50.1131C150.293 49.9316 150.317 49.7452 150.318 49.5578V47.044H151.371V49.5578C151.375 49.8803 151.326 50.2012 151.227 50.5077C151.143 50.793 151.001 51.057 150.809 51.2823C150.612 51.512 150.365 51.6921 150.088 51.8084C149.757 51.9383 149.404 52.0028 149.05 51.9984C148.685 52.0112 148.321 51.9465 147.983 51.8084C147.711 51.6829 147.469 51.4983 147.276 51.2677C147.091 51.0397 146.954 50.7762 146.872 50.4931C146.791 50.1983 146.752 49.8931 146.757 49.587V47.0732H147.81V49.587C147.807 49.7738 147.826 49.9603 147.867 50.1423C147.907 50.3117 147.98 50.471 148.083 50.61C148.183 50.7481 148.311 50.8627 148.458 50.9462C148.65 51.0033 148.849 51.0328 149.05 51.0338ZM155.163 51.94V47.044H157.124C157.63 47.0289 158.131 47.1446 158.581 47.3802C158.953 47.5777 159.259 47.8829 159.46 48.257C159.665 48.6326 159.769 49.0558 159.763 49.4847C159.772 49.9408 159.657 50.3907 159.431 50.7854C159.209 51.1544 158.889 51.453 158.509 51.6477C158.074 51.8632 157.594 51.9685 157.11 51.9546H155.163V51.94ZM158.696 49.4847C158.706 49.2092 158.641 48.9362 158.509 48.6955C158.389 48.4646 158.203 48.276 157.975 48.1547C157.712 48.0189 157.419 47.9535 157.124 47.9647H156.216V51.0046H157.124C157.424 51.0177 157.722 50.9522 157.99 50.8146C158.218 50.688 158.404 50.4945 158.523 50.2593C158.641 50.0188 158.7 49.7532 158.696 49.4847ZM163.325 51.94V47.044H164.377V51.94H163.325ZM170.462 51.9692C170.106 51.9705 169.754 51.901 169.424 51.7646C169.123 51.6314 168.85 51.4432 168.617 51.2092C168.392 50.9796 168.215 50.7061 168.097 50.4054C167.977 50.1135 167.914 49.8009 167.91 49.4847C167.907 49.163 167.971 48.8442 168.097 48.5493C168.361 47.9458 168.84 47.4655 169.438 47.2048C169.763 47.0684 170.111 46.9988 170.462 47.0002C170.805 46.9969 171.144 47.0653 171.459 47.2011C171.774 47.3369 172.058 47.5371 172.293 47.7894C172.521 48.0165 172.698 48.2906 172.813 48.5932C172.931 48.8804 172.995 49.1879 173 49.4993C173.002 49.8209 172.938 50.1393 172.813 50.4346C172.684 50.7287 172.503 50.9962 172.279 51.2238C172.05 51.4625 171.775 51.6514 171.472 51.7792C171.152 51.9121 170.808 51.9768 170.462 51.9692ZM168.977 49.4993C168.974 49.6989 169.008 49.8972 169.078 50.0839C169.151 50.2621 169.248 50.4293 169.366 50.5808C169.494 50.7292 169.651 50.8486 169.828 50.9315C170.237 51.0924 170.691 51.0872 171.097 50.9169C171.274 50.8288 171.431 50.7044 171.558 50.5516C171.681 50.4036 171.779 50.2356 171.846 50.0547C171.913 49.8774 171.948 49.6891 171.947 49.4993C171.952 49.3044 171.917 49.1106 171.846 48.9293C171.773 48.7557 171.676 48.5934 171.558 48.447C171.431 48.3018 171.273 48.187 171.097 48.1109C170.902 48.021 170.69 47.9761 170.477 47.9794C170.258 47.9763 170.042 48.0211 169.842 48.1109C169.664 48.1899 169.506 48.31 169.381 48.4616C169.255 48.6074 169.157 48.776 169.092 48.9585C169.01 49.1263 168.971 49.3121 168.977 49.4993Z" fill="#144F2E"/>
</g>
<defs>
<clipPath id="clip0_1077_1393">
<rect width="180" height="72" fill="white"/>
</clipPath>
</defs>
</svg>
