<svg width="28" height="28" viewBox="0 0 28 28" fill="none" xmlns="http://www.w3.org/2000/svg">
<path d="M3.5 9.875C3.08579 9.875 2.75 10.2108 2.75 10.625C2.75 11.0392 3.08579 11.375 3.5 11.375V9.875ZM16.3115 11.1553C16.6044 10.8624 16.6044 10.3876 16.3115 10.0947L11.5386 5.3217C11.2457 5.02881 10.7708 5.02881 10.4779 5.3217C10.185 5.61459 10.185 6.08947 10.4779 6.38236L14.7205 10.625L10.4779 14.8676C10.185 15.1605 10.185 15.6354 10.4779 15.9283C10.7708 16.2212 11.2457 16.2212 11.5386 15.9283L16.3115 11.1553ZM3.5 11.375H15.7812V9.875H3.5V11.375Z" fill="#121210"/>
<path d="M7.875 3H24.5V25H7.875V18.1324" stroke="#121210" stroke-width="1.5" stroke-linecap="round"/>
</svg>
