<svg width="32" height="32" viewBox="0 0 32 32" fill="none" xmlns="http://www.w3.org/2000/svg">
<path d="M16 2.66675C14.6815 2.66675 13.3925 3.05774 12.2962 3.79028C11.1999 4.52283 10.3454 5.56402 9.8408 6.78219C9.33622 8.00037 9.2042 9.34081 9.46143 10.634C9.71867 11.9272 10.3536 13.1151 11.286 14.0475C12.2183 14.9798 13.4062 15.6147 14.6994 15.872C15.9926 16.1292 17.333 15.9972 18.5512 15.4926C19.7694 14.988 20.8106 14.1335 21.5431 13.0372C22.2757 11.9409 22.6667 10.652 22.6667 9.33341C22.6667 7.5653 21.9643 5.86961 20.714 4.61937C19.4638 3.36913 17.7681 2.66675 16 2.66675ZM16 13.3334C15.2089 13.3334 14.4355 13.0988 13.7777 12.6593C13.1199 12.2198 12.6072 11.5951 12.3045 10.8641C12.0017 10.1332 11.9225 9.32898 12.0769 8.55305C12.2312 7.77713 12.6122 7.0644 13.1716 6.50499C13.731 5.94558 14.4437 5.56461 15.2196 5.41027C15.9956 5.25593 16.7998 5.33515 17.5307 5.6379C18.2616 5.94065 18.8864 6.45334 19.3259 7.11113C19.7654 7.76893 20 8.54229 20 9.33341C20 10.3943 19.5786 11.4117 18.8284 12.1618C18.0783 12.912 17.0609 13.3334 16 13.3334ZM28 28.0001V26.6667C28 24.1914 27.0167 21.8174 25.2663 20.0671C23.516 18.3167 21.142 17.3334 18.6667 17.3334H13.3333C10.858 17.3334 8.48401 18.3167 6.73367 20.0671C4.98333 21.8174 4 24.1914 4 26.6667V28.0001H6.66667V26.6667C6.66667 24.8986 7.36905 23.2029 8.61929 21.9527C9.86953 20.7025 11.5652 20.0001 13.3333 20.0001H18.6667C20.4348 20.0001 22.1305 20.7025 23.3807 21.9527C24.631 23.2029 25.3333 24.8986 25.3333 26.6667V28.0001H28Z" fill="black"/>
</svg>
