<svg width="28" height="28" viewBox="0 0 28 28" fill="none" xmlns="http://www.w3.org/2000/svg">
<path d="M13.5745 3C14.4026 3.00903 15.2273 3.10493 16.0363 3.28544C16.2084 3.32386 16.3642 3.41508 16.4819 3.54636C16.5996 3.67764 16.6734 3.84242 16.6929 4.01767L16.8847 5.74049C16.9118 5.98338 16.9955 6.21652 17.1291 6.42116C17.2628 6.6258 17.4425 6.79621 17.654 6.91869C17.8655 7.04117 18.1028 7.1123 18.3468 7.12635C18.5908 7.14041 18.8347 7.09699 19.0588 6.9996L20.6384 6.30573C20.7988 6.23505 20.9773 6.21597 21.1491 6.25114C21.3209 6.28631 21.4776 6.37399 21.5974 6.50205C22.7394 7.72168 23.59 9.18446 24.0851 10.7803C24.1369 10.9481 24.1351 11.1279 24.0802 11.2947C24.0252 11.4615 23.9197 11.607 23.7782 11.7111L22.3781 12.7446C22.1808 12.8892 22.0204 13.0782 21.9098 13.2964C21.7992 13.5146 21.7416 13.7557 21.7416 14.0003C21.7416 14.2449 21.7992 14.486 21.9098 14.7042C22.0204 14.9224 22.1808 15.1114 22.3781 15.256L23.7805 16.2884C23.9221 16.3926 24.0278 16.5383 24.0828 16.7053C24.1378 16.8723 24.1394 17.0523 24.0874 17.2203C23.5924 18.816 22.7423 20.2787 21.6007 21.4986C21.4812 21.6266 21.3248 21.7143 21.1532 21.7497C20.9817 21.7851 20.8033 21.7663 20.6429 21.696L19.0566 20.9999C18.8327 20.9017 18.5889 20.8577 18.3449 20.8712C18.1008 20.8848 17.8634 20.9557 17.6518 21.078C17.4402 21.2004 17.2604 21.3709 17.127 21.5757C16.9935 21.7804 16.9101 22.0138 16.8836 22.2567L16.6918 23.9784C16.6726 24.1516 16.6005 24.3147 16.4852 24.4453C16.3699 24.576 16.217 24.6679 16.0476 24.7084C14.4134 25.0972 12.7108 25.0972 11.0766 24.7084C10.9069 24.6681 10.7538 24.5763 10.6383 24.4456C10.5228 24.315 10.4504 24.1518 10.4312 23.9784L10.2405 22.259C10.2128 22.0168 10.1287 21.7844 9.99496 21.5806C9.86119 21.3768 9.68148 21.2072 9.47028 21.0854C9.25908 20.9636 9.02226 20.893 8.77884 20.8794C8.53542 20.8657 8.29219 20.9093 8.06868 21.0067L6.48238 21.7016C6.32178 21.7722 6.14323 21.7911 5.97142 21.7557C5.79961 21.7204 5.64305 21.6325 5.52338 21.5042C4.38168 20.2829 3.53186 18.8186 3.03787 17.2214C2.98586 17.0535 2.98746 16.8735 3.04246 16.7064C3.09745 16.5394 3.20311 16.3937 3.34475 16.2895L4.74715 15.256C4.94442 15.1114 5.10484 14.9224 5.21542 14.7042C5.32601 14.486 5.38363 14.2449 5.38363 14.0003C5.38363 13.7557 5.32601 13.5146 5.21542 13.2964C5.10484 13.0782 4.94442 12.8892 4.74715 12.7446L3.34475 11.7134C3.20311 11.6092 3.09745 11.4634 3.04246 11.2964C2.98746 11.1294 2.98586 10.9494 3.03787 10.7814C3.53296 9.18559 4.38355 7.72281 5.52563 6.50317C5.64544 6.37511 5.80207 6.28744 5.97387 6.25227C6.14567 6.2171 6.32415 6.23618 6.48463 6.30686L8.06416 7.00073C8.28871 7.09806 8.53295 7.14137 8.77726 7.12719C9.02158 7.113 9.25917 7.04171 9.47093 6.91904C9.6827 6.79637 9.86274 6.62574 9.99659 6.42086C10.1305 6.21598 10.2144 5.98256 10.2417 5.73936L10.4335 4.01767C10.4528 3.84206 10.5267 3.67692 10.6446 3.54541C10.7626 3.41389 10.9188 3.32259 11.0912 3.28432C11.9069 3.10404 12.7391 3.00876 13.5745 3ZM13.5745 4.69235C13.0627 4.69837 12.5521 4.74249 12.0468 4.82436L11.9227 5.92665C11.8663 6.43357 11.6916 6.92014 11.4126 7.34715C11.1336 7.77416 10.7583 8.12966 10.3167 8.38501C9.8752 8.64036 9.37985 8.7884 8.87062 8.81722C8.36138 8.84604 7.85249 8.75483 7.38497 8.55092L6.37068 8.1064C5.72583 8.88927 5.21255 9.77178 4.85095 10.7194L5.75015 11.3817C6.16114 11.6836 6.49532 12.0779 6.7257 12.5329C6.95607 12.9879 7.07616 13.4906 7.07627 14.0006C7.07638 14.5105 6.95651 15.0134 6.72633 15.4684C6.49615 15.9235 6.16214 16.318 5.75128 16.6201L4.84982 17.2835C5.21085 18.2334 5.72533 19.118 6.37068 19.9032L7.39174 19.4553C7.85825 19.2516 8.36607 19.1603 8.87432 19.1888C9.38257 19.2172 9.87705 19.3645 10.3179 19.6189C10.7589 19.8734 11.1339 20.2277 11.4128 20.6536C11.6917 21.0794 11.8668 21.5648 11.9239 22.0706L12.0468 23.1808C13.051 23.35 14.0765 23.35 15.0795 23.1808L15.2036 22.0706C15.2598 21.5641 15.4343 21.0779 15.7129 20.6513C15.9916 20.2247 16.3667 19.8695 16.8079 19.6145C17.2491 19.3596 17.7441 19.2119 18.2529 19.1835C18.7617 19.155 19.27 19.2466 19.7369 19.4508L20.7568 19.8976C21.4022 19.1141 21.9159 18.2308 22.2777 17.2823L21.3774 16.6189C20.9662 16.3172 20.6318 15.9229 20.4013 15.4679C20.1707 15.0129 20.0506 14.5101 20.0505 14C20.0503 13.49 20.1703 12.9871 20.4006 12.532C20.6309 12.0769 20.9652 11.6825 21.3762 11.3805L22.2754 10.7183C21.9136 9.77018 21.3999 8.88728 20.7546 8.10414L19.7425 8.54754C19.2752 8.75214 18.7662 8.84398 18.2568 8.81562C17.7474 8.78727 17.2518 8.63953 16.81 8.38432C16.3683 8.12911 15.9927 7.7736 15.7136 7.34648C15.4346 6.91936 15.2599 6.4326 15.2036 5.92552L15.0807 4.82436C14.583 4.743 14.0787 4.69888 13.5745 4.69235ZM13.5609 9.76942C14.683 9.76942 15.7592 10.2152 16.5526 11.0086C17.3461 11.8021 17.7918 12.8782 17.7918 14.0003C17.7918 15.1224 17.3461 16.1985 16.5526 16.992C15.7592 17.7854 14.683 18.2312 13.5609 18.2312C12.4388 18.2312 11.3627 17.7854 10.5692 16.992C9.7758 16.1985 9.33005 15.1224 9.33005 14.0003C9.33005 12.8782 9.7758 11.8021 10.5692 11.0086C11.3627 10.2152 12.4388 9.76942 13.5609 9.76942ZM13.5609 11.4618C12.8877 11.4618 12.242 11.7292 11.7659 12.2053C11.2899 12.6814 11.0224 13.327 11.0224 14.0003C11.0224 14.6736 11.2899 15.3193 11.7659 15.7953C12.242 16.2714 12.8877 16.5388 13.5609 16.5388C14.2342 16.5388 14.8799 16.2714 15.3559 15.7953C15.832 15.3193 16.0995 14.6736 16.0995 14.0003C16.0995 13.327 15.832 12.6814 15.3559 12.2053C14.8799 11.7292 14.2342 11.4618 13.5609 11.4618Z" fill="#121210"/>
</svg>
