<svg width="32" height="32" viewBox="0 0 32 32" fill="none" stroke="black" xmlns="http://www.w3.org/2000/svg">
  <path d="M16.0006 16.6074C19.6544 16.6074 22.6165 13.6493 22.6165 10.0002C22.6165 6.35119 19.6544 3.39307 16.0006 3.39307C12.3468 3.39307 9.38477 6.35119 9.38477 10.0002C9.38477 13.6493 12.3468 16.6074 16.0006 16.6074Z" strokeWidth="1" />
  <path d="M13.6822 18.6069H18.3178C19.6549 18.6069 20.979 18.8347 22.2144 19.2774C23.4497 19.72 24.5722 20.3687 25.5177 21.1866C26.4632 22.0044 27.2132 22.9754 27.7249 24.0439C28.2366 25.1125 28.5 26.2578 28.5 27.4144V27.6488C28.5 27.9029 28.3833 28.1466 28.1756 28.3263C27.9678 28.506 27.6861 28.6069 27.3923 28.6069H4.60371C4.31027 28.606 4.02925 28.5044 3.82232 28.3245C3.61539 28.1445 3.49947 27.9009 3.5 27.647V27.4127C3.50053 25.0771 4.57353 22.8373 6.48301 21.186C8.39249 19.5346 10.9821 18.6069 13.6822 18.6069Z" strokeWidth="1" />
</svg>