<svg width="28" height="28" viewBox="0 0 28 28" fill="none" xmlns="http://www.w3.org/2000/svg">
<path d="M24.75 2V26" stroke="#121210" stroke-width="1.5" stroke-linecap="round"/>
<path d="M20 14.75C20.4142 14.75 20.75 14.4142 20.75 14C20.75 13.5858 20.4142 13.25 20 13.25V14.75ZM2.46967 13.4697C2.17678 13.7626 2.17678 14.2374 2.46967 14.5303L7.24264 19.3033C7.53553 19.5962 8.01041 19.5962 8.3033 19.3033C8.59619 19.0104 8.59619 18.5355 8.3033 18.2426L4.06066 14L8.3033 9.75736C8.59619 9.46447 8.59619 8.98959 8.3033 8.6967C8.01041 8.40381 7.53553 8.40381 7.24264 8.6967L2.46967 13.4697ZM20 13.25L3 13.25V14.75L20 14.75V13.25Z" fill="#121210"/>
</svg>
