<svg width="36" height="36" viewBox="0 0 36 36" fill="none" xmlns="http://www.w3.org/2000/svg">
<path d="M11.599 20.7869V20.6869C11.5796 20.6869 11.5618 20.6855 11.5395 20.6833L11.5416 5.64595H11.7425C12.6794 5.64595 13.616 5.6445 14.5525 5.64304C16.425 5.64014 18.297 5.63724 20.1692 5.64595C22.8317 5.65819 24.9784 6.69629 26.5424 8.83101L26.5424 8.83103C27.5566 10.2143 28.0166 11.78 27.928 13.4903C27.798 15.9393 26.7101 17.8793 24.704 19.3109L24.704 19.3109C23.5595 20.1281 22.2695 20.6219 20.8604 20.6428C18.6221 20.6747 16.3851 20.6781 14.1483 20.6815C13.2984 20.6827 12.4486 20.684 11.5986 20.6869L11.599 20.7869ZM11.599 20.7869C12.4485 20.784 13.2981 20.7827 14.1479 20.7815C16.385 20.7781 18.6229 20.7747 20.8619 20.7428L11.4395 20.7738C11.4619 20.7758 11.4817 20.7778 11.4998 20.7797C11.5379 20.7837 11.5683 20.7869 11.599 20.7869ZM20.906 4.27656L20.8973 4.275H20.8884H10.711H10.6919L10.6741 4.28205C10.4749 4.36108 10.3394 4.47949 10.2563 4.63515C10.1747 4.78779 10.1485 4.96689 10.1485 5.1593L10.1485 5.15937C10.1518 10.2408 10.1534 15.3227 10.1534 20.405V20.691H9.9226C9.7684 20.691 9.61379 20.6901 9.45902 20.6892C9.14865 20.6873 8.83762 20.6855 8.52789 20.691L8.52774 20.691C8.31432 20.6951 8.12846 20.7582 7.99338 20.8758C7.85704 20.9945 7.78014 21.1623 7.77572 21.3584C7.77125 21.5569 7.84765 21.7308 7.98542 21.8554C8.12207 21.979 8.31327 22.0493 8.53303 22.0557L8.53347 22.0557C8.68361 22.0594 8.83482 22.0582 8.98418 22.057C9.05797 22.0563 9.13131 22.0557 9.20385 22.0557H10.1297V24.2087H9.93722H9.93708C9.79714 24.2089 9.65667 24.2083 9.51588 24.2078C9.17415 24.2066 8.83056 24.2054 8.4881 24.2142C8.07672 24.2243 7.775 24.5097 7.775 24.8914C7.775 25.2743 8.07771 25.5524 8.4861 25.574L8.48731 25.574C8.62549 25.5796 8.76658 25.5777 8.90442 25.5759C8.97182 25.575 9.03843 25.5741 9.10356 25.5741H10.1513V25.84C10.1485 27.8348 10.1485 29.83 10.1513 31.8257V31.8257C10.1517 32.0472 10.2121 32.2385 10.3308 32.3773C10.4508 32.5175 10.6223 32.5946 10.8241 32.5998C11.0293 32.605 11.2064 32.5267 11.3322 32.3847C11.4566 32.2442 11.5251 32.0478 11.5304 31.8231H11.5304V31.8207V31.8204V31.82V31.8196V31.8193V31.8189V31.8185V31.8181V31.8178V31.8174V31.817V31.8166V31.8162V31.8159V31.8155V31.8151V31.8148V31.8144V31.814V31.8136V31.8133V31.8129V31.8125V31.8121V31.8118V31.8114V31.811V31.8106V31.8103V31.8099V31.8095V31.8091V31.8088V31.8084V31.808V31.8076V31.8073V31.8069V31.8065V31.8061V31.8058V31.8054V31.805V31.8046V31.8043V31.8039V31.8035V31.8031V31.8028V31.8024V31.802V31.8016V31.8013V31.8009V31.8005V31.8001V31.7998V31.7994V31.799V31.7986V31.7983V31.7979V31.7975V31.7971V31.7968V31.7964V31.796V31.7956V31.7953V31.7949V31.7945V31.7941V31.7938V31.7934V31.793V31.7926V31.7923V31.7919V31.7915V31.7911V31.7908V31.7904V31.79V31.7896V31.7893V31.7889V31.7885V31.7881V31.7878V31.7874V31.787V31.7866V31.7863V31.7859V31.7855V31.7851V31.7848V31.7844V31.784V31.7836V31.7833V31.7829V31.7825V31.7821V31.7818V31.7814V31.781V31.7806V31.7803V31.7799V31.7795V31.7791V31.7788V31.7784V31.778V31.7776V31.7773V31.7769V31.7765V31.7761V31.7758V31.7754V31.775V31.7746V31.7743V31.7739V31.7735V31.7731V31.7728V31.7724V31.772V31.7716V31.7713V31.7709V31.7705V31.7701V31.7698V31.7694V31.769V31.7686V31.7683V31.7679V31.7675V31.7671V31.7668V31.7664V31.766V31.7656V31.7653V31.7649V31.7645V31.7641V31.7638V31.7634V31.763V31.7626V31.7623V31.7619V31.7615V31.7611V31.7608V31.7604V31.76V31.7596V31.7593V31.7589V31.7585V31.7581V31.7578V31.7574V31.757V31.7566V31.7563V31.7559V31.7555V31.7551V31.7548V31.7544V31.754V31.7536V31.7533V31.7529V31.7525V31.7521V31.7518V31.7514V31.751V31.7506V31.7503V31.7499V31.7495V31.7491V31.7488V31.7484V31.748V31.7476V31.7473V31.7469V31.7465V31.7461V31.7458V31.7454V31.745V31.7446V31.7443V31.7439V31.7435V31.7431V31.7428V31.7424V31.742V31.7416V31.7413V31.7409V31.7405V31.7401V31.7398V31.7394V31.739V31.7386V31.7383V31.7379V31.7375V31.7371V31.7368V31.7364V31.736V31.7356V31.7353V31.7349V31.7345V31.7341V31.7338V31.7334V31.733V31.7326V31.7323V31.7319V31.7315V31.7311V31.7308V31.7304V31.73V31.7296V31.7293V31.7289V31.7285V31.7281V31.7278V31.7274V31.727V31.7266V31.7263V31.7259V31.7255V31.7251V31.7248V31.7244V31.724V31.7236V31.7233V31.7229V31.7225V31.7222V31.7218V31.7214V31.721V31.7206V31.7203V31.7199V31.7195V31.7192V31.7188V31.7184V31.718V31.7177V31.7173V31.7169V31.7165V31.7162V31.7158V31.7154V31.715V31.7147V31.7143V31.7139V31.7135V31.7132V31.7128V31.7124V31.712V31.7117V31.7113V31.7109V31.7105V31.7102V31.7098V31.7094V31.709V31.7087V31.7083V31.7079V31.7075V31.7072V31.7068V31.7064V31.706V31.7057V31.7053V31.7049V31.7045V31.7042V31.7038V31.7034V31.703V31.7027V31.7023V31.7019V31.7015V31.7012V31.7008V31.7004V31.7V31.6997V31.6993V31.6989V31.6985V31.6982V31.6978V31.6974V31.697V31.6967V31.6963V31.6959V31.6955V31.6952V31.6948V31.6944V31.694V31.6937V31.6933V31.6929V31.6925V31.6922V31.6918V31.6914V31.691V31.6907V31.6903V31.6899V31.6895V31.6892V31.6888V31.6884V31.688V31.6877V31.6873V31.6869V31.6865V31.6862V31.6858V31.6854V31.685V31.6847V31.6843V31.6839V31.6835V31.6832V31.6828V31.6824V31.682V31.6817V31.6813V31.6809V31.6805V31.6802V31.6798V31.6794V31.679V31.6787V31.6783V31.6779V31.6775V31.6772V31.6768V31.6764V31.676V31.6757V31.6753V31.6749V31.6745V31.6742V31.6738V31.6734V31.673V31.6727V31.6723V31.6719V31.6715V31.6712V31.6708V31.6704V31.67V31.6697V31.6693V31.6689V31.6685V31.6682V31.6678V31.6674V31.667V31.6667V31.6663V31.6659V31.6655V31.6652V31.6648V31.6644V31.664V31.6637V31.6633V31.6629V31.6625V31.6622V31.6618V31.6614V31.661V31.6607V31.6603V31.6599V31.6595V31.6592V31.6588V31.6584V31.658V31.6577V31.6573V31.6569V31.6565V31.6562V31.6558V31.6554V31.655V31.6547V31.6543V31.6539V31.6535V31.6532V31.6528V31.6524V31.652V31.6517V31.6513V31.6509V31.6505V31.6502V31.6498V31.6494V31.649V31.6487V31.6483V31.6479V31.6475V31.6472V31.6468V31.6464V31.646V31.6457V31.6453V31.6449V31.6445V31.6442V31.6438V31.6434V31.643V31.6427V31.6423V31.6419V31.6415V31.6412V31.6408V31.6404V31.64V31.6397V31.6393V31.6389V31.6385V31.6382V31.6378V31.6374V31.637V31.6367V31.6363V31.6359V31.6355V31.6352V31.6348V31.6344V31.634V31.6337V31.6333V31.6329V31.6325V31.6322V31.6318V31.6314V31.631V31.6307V31.6303V31.6299V31.6295V31.6292V31.6288V25.5713H11.7982H11.8167H11.8352H11.8537H11.8723H11.8908H11.9093H11.9278H11.9463H11.9649H11.9834H12.0019H12.0204H12.039H12.0575H12.076H12.0945H12.113H12.1316H12.1501H12.1686H12.1871H12.2056H12.2242H12.2427H12.2612H12.2797H12.2983H12.3168H12.3353H12.3538H12.3723H12.3909H12.4094H12.4279H12.4464H12.465H12.4835H12.502H12.5205H12.539H12.5576H12.5761H12.5946H12.6131H12.6317H12.6502H12.6687H12.6872H12.7057H12.7243H12.7428H12.7613H12.7798H12.7984H12.8169H12.8354H12.8539H12.8724H12.891H12.9095H12.928H12.9465H12.965H12.9836H13.0021H13.0206H13.0391H13.0577H13.0762H13.0947H13.1132H13.1318H13.1503H13.1688H13.1873H13.2058H13.2244H13.2429H13.2614H13.2799H13.2985H13.317H13.3355H13.354H13.3725H13.3911H13.4096H13.4281H13.4466H13.4652H13.4837H13.5022H13.5207H13.5392H13.5578H13.5763H13.5948H13.6133H13.6319H13.6504H13.6689H13.6874H13.7059H13.7245H13.743H13.7615H13.78H13.7986H13.8171H13.8356H13.8541H13.8727H13.8912H13.9097H13.9282H13.9467H13.9653H13.9838H14.0023H14.0208H14.0394H14.0579H14.0764H14.0949H14.1134H14.132H14.1505H14.169H14.1875H14.2061H14.2246H14.2431H14.2616H14.2802H14.2987H14.3172H14.3357H14.3542H14.3728H14.3913H14.4098H14.4283H14.4469H14.4654H14.4839H14.5024H14.521H14.5395H14.558H14.5765H14.595H14.6136H14.6321H14.6506H14.6691H14.6877H14.7062H14.7247H14.7432H14.7618H14.7803H14.7988H14.8173H14.8358H14.8544H14.8729H14.8914H14.9099H14.9285H14.947H14.9655H14.984H15.0026H15.0211H15.0396H15.0581H15.0767H15.0952H15.1137H15.1322H15.1507H15.1693H15.1878H15.2063H15.2248H15.2434H15.2619H15.2804H15.2989H15.3175H15.336H15.3545H15.373H15.3916H15.4101H15.4286H15.4471H15.4656H15.4842H15.5027H15.5212H15.5397H15.5583H15.5768H15.5953H15.6138H15.6324H15.6509H15.6694H15.6879H15.7065H15.725H15.7435H15.762H15.7805H15.7991H15.8176H15.8361H15.8546H15.8732H15.8917H15.9102H15.9287H15.9473H15.9658H15.9843H16.0028H16.0214H16.0399H16.0584H16.0769H16.0955H16.114H16.1325H16.151H16.1696H16.1881H16.2066H16.2251H16.2436H16.2622H16.2807H16.2992H16.3177H16.3363H16.3548H16.3733H16.3918H16.4104H16.4289H16.4474H16.4659H16.4845H16.503H16.5215H16.54H16.5586H16.5771H16.5956H16.6141H16.6327H16.6512H16.6697H16.6882H16.7068H16.7253H16.7438H16.7623H16.7809H16.7994H16.8179H16.8364H16.8549H16.8735H16.892H16.9105H16.929H16.9476H16.9661H16.9846H17.0031H17.0217H17.0402H17.0587H17.0772H17.0958H17.1143H17.1328H17.1513H17.1699H17.1884H17.2069H17.2254H17.244H17.2625H17.281H17.2995H17.3181H17.3366H17.3551H17.3736H17.3922H17.4107H17.4292H17.4477H17.4663H17.4848H17.5033H17.5218H17.5404H17.5589H17.5774H17.5959H17.6145H17.633H17.6515H17.67H17.6886H17.7071H17.7256H17.7441H17.7627H17.7812H17.7997H17.8182H17.8368H17.8553H17.8738H17.8923H17.9109H17.9294H17.9479H17.9664H17.985H18.0035H18.022H18.0405H18.0591H18.0776H18.0961H18.1146H18.1332H18.1517H18.1702H18.1887H18.2073H18.2258H18.2443H18.2628H18.2814H18.2999H18.3184H18.3369H18.3555H18.374H18.3925H18.411H18.4296H18.4481H18.4666H18.4851H18.5037H18.5222H18.5407H18.5592H18.5778H18.5963H18.6148H18.6333H18.6519H18.6704H18.6889H18.7074H18.726H18.7445H18.763H18.7815H18.8001H18.8186H18.8371H18.8556H18.8742H18.8927H18.9112H18.9298H18.9483H18.9668H18.9853H19.0039H19.0224H19.0409H19.0594H19.078H19.0965H19.115H19.1335H19.1521H19.1706H19.1891H19.2076H19.2262H19.2447H19.2632H19.2817H19.3003H19.3188H19.3373H19.3558H19.3744H19.3929H19.4114H19.4299H19.4485H19.467H19.4855H19.5041H19.5226H19.5411H19.5596H19.5782H19.5967H19.6152H19.6337H19.6523H19.6708H19.6893H19.7078H19.7264H19.7449H19.7634H19.7819H19.8005H19.819H19.8375H19.856H19.8746H19.8931H19.9116H19.9302H19.9487H19.9672H19.9857H20.0043H20.0228H20.0413H20.0598H20.0784H20.0969H20.1154H20.1339H20.1525H20.171H20.1895H20.208H20.2266H20.2451H20.2636H20.2822H20.3007H20.3192H20.3377H20.3563H20.3748H20.3933H20.4118H20.4304H20.4489H20.4674H20.4859H20.5045H20.523H20.5415H20.5601H20.5786H20.5971H20.6156H20.6342H20.6527H20.6712H20.6897H20.7083H20.7268H20.7453H20.7638H20.7824H20.8009H20.8194H20.8379H20.8565H20.875H20.8935H20.9121H20.9306H20.9491H20.9676H20.9862H21.0047H21.0232H21.0417H21.0603H21.0788H21.0973H21.1159H21.1344H21.1529H21.1714H21.19H21.2085H21.227H21.2455H21.2641H21.2811C21.4277 25.5755 21.5741 25.5605 21.7166 25.5267L21.7166 25.5268L21.7213 25.5254C21.8686 25.4829 21.997 25.3918 22.0849 25.2669C22.1729 25.142 22.2151 24.9909 22.2042 24.8388L22.2041 24.8382C22.1923 24.6869 22.1293 24.5441 22.0256 24.4327C21.9219 24.3213 21.7835 24.2478 21.6327 24.2237L21.6327 24.2236L21.6285 24.2231C21.4952 24.2076 21.361 24.2016 21.2269 24.2052H11.5479V22.0571H11.7961H11.7962C14.5592 22.0544 17.3218 22.0544 20.0839 22.0571H20.0839C21.2808 22.0578 22.4505 21.8907 23.5736 21.4496C25.9467 20.5176 27.6648 18.8902 28.6341 16.5646C29.6733 14.0713 29.5846 11.5645 28.3453 9.15352C27.1552 6.83229 25.2559 5.30402 22.7109 4.60877C22.3039 4.49725 21.8805 4.43175 21.4636 4.36727C21.2757 4.3382 21.0891 4.30934 20.906 4.27656Z" fill="black" stroke="black" stroke-width="0.2"/>
</svg>
