<svg width="24" height="24" viewBox="0 0 24 24" fill="none" xmlns="http://www.w3.org/2000/svg">
<path fill-rule="evenodd" clip-rule="evenodd" d="M16.4528 8.67534L16.5496 9.05882L16.4528 9.44231C16.2862 10.1023 15.6969 10.5882 15 10.5882C14.3031 10.5882 13.7138 10.1023 13.5472 9.44231L13.4504 9.05882L13.5472 8.67534C13.7138 8.01536 14.3031 7.52941 15 7.52941C15.6969 7.52941 16.2862 8.01536 16.4528 8.67534ZM20.25 8.29412H17.9055C17.5725 6.97483 16.3979 6 15 6C13.6021 6 12.4275 6.97483 12.0945 8.29412H3.75C3.33579 8.29412 3 8.63649 3 9.05882C3 9.48116 3.33579 9.82353 3.75 9.82353H12.0945C12.4275 11.1428 13.6021 12.1176 15 12.1176C16.3979 12.1176 17.5725 11.1428 17.9055 9.82353H20.25C20.6642 9.82353 21 9.48116 21 9.05882C21 8.63649 20.6642 8.29412 20.25 8.29412ZM11.2028 15.5577L11.2996 15.9412L11.2028 16.3247C11.0362 16.9846 10.4469 17.4706 9.75 17.4706C9.05312 17.4706 8.46377 16.9846 8.29717 16.3247L8.20036 15.9412L8.29717 15.5577C8.46377 14.8977 9.05312 14.4118 9.75 14.4118C10.4469 14.4118 11.0362 14.8977 11.2028 15.5577ZM20.25 15.1765H12.6555C12.3225 13.8572 11.1479 12.8824 9.75 12.8824C8.35212 12.8824 7.17755 13.8572 6.84451 15.1765H3.75C3.33579 15.1765 3 15.5188 3 15.9412C3 16.3635 3.33579 16.7059 3.75 16.7059H6.84451C7.17755 18.0252 8.35212 19 9.75 19C11.1479 19 12.3225 18.0252 12.6555 16.7059H20.25C20.6642 16.7059 21 16.3635 21 15.9412C21 15.5188 20.6642 15.1765 20.25 15.1765Z" fill="white"/>
</svg>
