<?xml version="1.0" encoding="utf-8"?>
<!-- Generator: Adobe Illustrator 23.1.0, SVG Export Plug-In . SVG Version: 6.00 Build 0)  -->
<svg version="1.1" id="Слой_1" xmlns="http://www.w3.org/2000/svg" xmlns:xlink="http://www.w3.org/1999/xlink" x="0px" y="0px"
	 viewBox="0 0 840 1100" style="enable-background:new 0 0 840 1100;" xml:space="preserve">
<style type="text/css">
	.st0{fill:#144F2E;}
	.st1{fill:#CEC7B6;}
	.st2{fill:#819286;}
	.st3{fill:#76A58A;}
	.st4{fill:#247251;}
	.st5{fill-rule:evenodd;clip-rule:evenodd;fill:#144F2E;}
</style>
<g id="mosaic">
	<path class="st0" d="M414.4,215.3l-23.6-13.6c-2-1.2-1.5-4.2,0.8-4.5c4.5-0.7,10.3-1.5,14.8-1.8c5.7-0.4,13.6-0.3,18.3-0.1
		c1.9,0.1,3,2.1,2,3.7l-9.1,15.5C417.1,215.6,415.6,216,414.4,215.3z"/>
	<path class="st0" d="M313.5,247.5c-9.4-6.5-9-20.5,1-26.1c5.5-3.1,11.4-6.1,16.4-8.4c11.3-5,27.4-9.8,36.5-12.3
		c4.4-1.2,9.1-0.4,12.9,2.2l21.2,14.5c7.1,4.8,9.1,14.4,4.6,21.7l-22.8,36.5c-4.8,7.8-15.2,9.9-22.7,4.7L313.5,247.5z"/>
	<path class="st0" d="M438.3,199.3l-9.9,17.2c-1.6,2.8-0.7,6.5,2.1,8.1l9.7,5.8c3.5,2.1,8,0.2,8.9-3.8l5.2-22.4
		c0.8-3.4-1.5-6.8-4.9-7.2c-0.6-0.1-1.1-0.2-1.6-0.2c-1.1-0.1-2.5-0.3-3.8-0.5C441.7,196,439.4,197.2,438.3,199.3z"/>
	<path class="st0" d="M281.3,242.7c3.6-2.8,8.8-2.2,11.8,1.3l0,0c2.1,2.5,2.7,6,1.4,9.1l-18.7,44.6c-4.4,10.5-18,13.2-26.1,5.1
		l-3.6-3.6c-5.6-5.6-6.3-14.4-1.4-20.6c4.9-6.1,11.1-13.6,16.5-18.9C267,254,275.5,247.2,281.3,242.7z"/>
	<path class="st1" d="M295.5,269c3.7-9.9,15.8-13.5,24.3-7.4l39,28.2c6.7,4.9,8.6,14.1,4.4,21.2L346.4,339c-2.2,3.6-5.7,6.3-9.8,7.3
		l-27.1,6.8c-5.6,1.4-11.5-0.3-15.4-4.5l-13.5-14.1c-4.3-4.4-5.6-10.9-3.4-16.7L295.5,269z"/>
	<path class="st0" d="M311.6,365.6c-1.4-1.4-0.7-3.7,1.2-4.2l18.2-4.4c2.1-0.5,3.8,1.8,2.8,3.7l-8.2,14.5c-0.8,1.4-2.8,1.7-4,0.5
		L311.6,365.6z"/>
	<path class="st0" d="M459,351.6c-11-8-7.6-25.3,5.7-28.5l41.6-10c12.5-3,23.3,9.3,18.7,21.3L513,365.9c-3.8,9.8-15.9,13.4-24.4,7.2
		L459,351.6z"/>
	<path class="st0" d="M563.2,263.5c2.4-6.4,10.3-8.4,15.2-3.7c7.9,7.7,19.2,19.7,29,34.4c4.2,6.2,8.1,13.4,11.6,20.2
		c4.3,8.5-4.8,16.4-13,11.7l-47.1-27.6c-4.2-2.5-6-7.6-4.3-12.2L563.2,263.5z"/>
	<path class="st0" d="M448.3,269.7c2.4-10.5,14.2-15.6,23.5-10.3l30.1,17.3c12.4,7.1,10,25.6-3.8,29.3l-36.4,9.8
		c-11.7,3.1-22.5-7.3-19.8-19.1L448.3,269.7z"/>
	<path class="st2" d="M461.1,214.6c1.8-8.5,10-13.9,18.4-11.6c10,2.8,23.8,7.2,37.5,13.8c14.9,7.2,26.9,15.1,34.4,20.6
		c5.4,3.9,7.2,11,4.8,17.2l-6.5,17.4c-3.5,9.3-14.5,13.2-23,8.2l-60.7-35.4c-6-3.5-9-10.4-7.6-17.2L461.1,214.6z"/>
	<path class="st0" d="M412.5,243.3c4.5-7.7,14.4-10.3,22.1-5.7l0.6,0.3c6,3.6,8.9,10.6,7.3,17.4l-15.4,65.1c-0.5,2-2,3.5-4,3.9l0,0
		c-1.5,0.3-3,0-4.2-0.9l-25.4-19c-6.5-4.9-8.3-13.8-4.3-20.8L412.5,243.3z"/>
	<path class="st0" d="M339.6,392.4c-5.3-5.3-6.2-13.5-2.3-19.8l9.3-15c2.2-3.5,5.7-6.1,9.8-7.1l60.3-14.8c1.9-0.5,3.9,0.1,5.2,1.5
		l0,0c1.2,1.3,1.7,3.2,1.3,5l-17,67.3c-1.3,5.2-5.2,9.4-10.3,11.2l-11.3,3.9c-5.8,2-12.2,0.5-16.6-3.8L339.6,392.4z"/>
	<path class="st3" d="M375.6,306.4c0.7-1.3,2.4-1.7,3.6-0.8l26.7,19.4c1.7,1.3,1.2,4-0.9,4.5l-43.5,10.2c-2.1,0.5-3.8-1.8-2.7-3.7
		L375.6,306.4z"/>
	<path class="st0" d="M268.4,340.3c0.6-1.7,2.8-2.1,4.1-0.9l15.3,14.9c1.4,1.4,0.8,3.8-1.2,4.2l-23.1,5.5c-2,0.5-3.6-1.5-2.9-3.3
		L268.4,340.3z"/>
	<path class="st0" d="M322,394.4c0.8-1.5,2.7-1.8,4-0.7l36.2,34.7c1.4,1.3,0.8,3.6-0.9,4.2L296,454.1c-2.1,0.7-4-1.5-3-3.5
		L322,394.4z"/>
	<path class="st3" d="M429.8,350c1-4.3,6.1-6,9.5-3.3l44.9,35.3c3.7,2.9,2.7,8.8-1.7,10.4l-58.1,20.2c-4.5,1.6-8.9-2.4-7.8-7.1
		L429.8,350z"/>
	<path class="st3" d="M398.4,427.5c1.9-0.6,3.7,1.2,3.1,3.1l-3.8,13.4c-0.5,1.8-2.8,2.4-4.2,1.1l-9.6-9.4c-1.4-1.3-0.8-3.6,1-4.2
		L398.4,427.5z"/>
	<path class="st0" d="M432.5,499.3c2,1.9,0,5.1-2.6,4.2l-31.1-11.2c-1.2-0.4-1.9-1.7-1.6-2.9l3.5-15.1c0.4-1.9,2.8-2.6,4.2-1.2
		L432.5,499.3z"/>
	<path class="st0" d="M540.6,319.7c3.4-9.3,14.4-13.3,23-8.3l39.2,22.6c7.4,4.3,6.4,15.2-1.6,18.1l-51.3,18.4
		c-12.8,4.6-25.1-7.9-20.4-20.6L540.6,319.7z"/>
	<path class="st0" d="M409.6,433.5c1.2-5.6,5.3-10.1,10.8-11.9l50.1-15.8c12.8-4,24.6,8.5,19.7,21l-25.8,66.8
		c-1.1,3-3.4,5.4-6.3,6.8l0,0c-4.8,2.3-10.4,1.3-14.1-2.4l-33.6-33.4c-3.9-3.9-5.5-9.4-4.4-14.8L409.6,433.5z"/>
	<path class="st0" d="M502.6,420.5c3.9-9.7,15.8-13.2,24.2-7.1l23.3,16.9c9.9,7.2,8.4,22.3-2.6,27.5L497,481.4
		c-8.2,3.8-16.9-4.3-13.5-12.8L502.6,420.5z"/>
	<path class="st4" d="M537.9,409.7c-10.4-7.7-7.8-24,4.5-28l87.9-29.1c1.5-0.5,3.2-0.1,4.4,1l0,0c0.5,0.5,0.9,1.1,1.1,1.8
		c1.1,4,5.1,18.3,6.5,27.9c0.8,5.3,1.4,11.9,1.9,17.3c0.5,6.5-3.1,12.6-8.9,15.4l-45.3,21.6c-5.4,2.6-11.7,1.9-16.4-1.6L537.9,409.7
		z"/>
	<path class="st0" d="M195.9,400.7c0.6-6.5,5.4-11.8,11.7-13.5l25.6-6.5c4.7-1.2,8.9,3.5,7.1,8L223.1,432
		c-2.7,6.8-10.1,10.5-17.2,8.7l0,0c-6.1-1.6-10.5-7-10.7-13.3c-0.1-4.4-0.2-9.5-0.2-13.6C195.1,409.9,195.5,405,195.9,400.7z"/>
	<path class="st3" d="M250,383.8c1.8-5.2,6.2-9.1,11.6-10.3l29.3-6.4c5.6-1.2,11.4,0.6,15.2,4.8l5.3,5.8c4.7,5.2,5.6,12.8,2.1,18.8
		l-30.9,53.3c-3.7,6.4-11.3,9.4-18.4,7.3l-20.2-6c-8.8-2.6-13.6-12-10.5-20.7L250,383.8z"/>
	<path class="st0" d="M220.9,315.8c4.8-9.2,16.9-10.7,24.3-3.5l10,9.9c4.5,4.5,6,11.2,3.6,17.2l-8.5,21.7c-1.9,4.9-6.1,8.5-11.2,9.7
		l-16.3,3.8c-11.4,2.7-21.6-7.4-18.3-18.6c1.8-5.9,3.8-12.2,6.1-18.1C213.7,330.4,217.4,322.5,220.9,315.8z"/>
	<path class="st0" d="M278.1,483.4c3.5-6.2,10.7-9.2,17.6-7.6l75.8,18.4c8.6,2.1,13.9,10.8,11.8,19.4l-3.7,14.8
		c-1.1,4.5-4.1,8.2-8.2,10.3l-89.7,46.1c-6.1,3.1-13.4,2.1-18.2-2.7c-3.7-3.7-8.1-8.2-11.4-11.9c-2.2-2.5-4.6-5.1-6.7-7.4
		c-4.8-5.2-5.7-13-2.2-19.1L278.1,483.4z"/>
	<path class="st0" d="M223.2,457c0.5-1.2,1.8-1.9,3-1.5l29.7,8.4c2.4,0.7,2.4,4,0.1,4.8l-37.4,12.1c-2,0.6-3.8-1.3-3.1-3.3
		L223.2,457z"/>
	<path class="st0" d="M207.8,495.6c-0.5-1.3,0.1-2.7,1.4-3.2l58.2-21.7c2.2-0.8,4.2,1.6,3,3.7l-38.6,62.9c-1,1.6-3.4,1.6-4.3-0.1
		c-2-3.5-4.9-8.8-7.1-12.9C215.6,515.1,210,501.1,207.8,495.6z"/>
	<path class="st0" d="M197.4,451.1c-0.2-1.7,1.4-2.9,3-2.4l15.7,4.8c1.3,0.4,2.1,1.8,1.6,3.2l-8,24.1c-0.3,1-1.2,1.7-2.3,1.7
		l-1.4,0.1c-1.2,0.1-2.3-0.7-2.5-1.9c-0.7-2.6-1.9-7.5-3-12.5C198.5,460.1,197.7,454.4,197.4,451.1z"/>
	<path class="st1" d="M299.6,610.3c-10.1-6.7-8.5-21.5,2.5-26.5l48-21.8c12.3-5.6,25.6,5.6,22.1,18.7l-3.8,14.2l-5.8,25
		c-2,8.6-10.6,13.9-19,11.3c-7.9-2.5-17.6-5.9-26.3-10.3C311.9,618.1,305.6,614.2,299.6,610.3z"/>
	<path class="st3" d="M394.4,503.1c0.4-1.3,1.7-2.1,3.1-1.8l30.9,8.5c2.2,0.6,2.5,3.7,0.4,4.7L391,532.3c-1.9,0.9-4-0.8-3.5-2.9
		L394.4,503.1z"/>
	<path class="st0" d="M306.9,470.2c-6-1.3-6.4-9.8-0.4-11.6l57.5-17.1c5.3-1.6,11.1-0.3,15.3,3.5l10.3,9.3c4.3,3.9,6.2,9.7,4.9,15.4
		l-0.8,3.4c-1.9,8.6-10.4,14.1-19.1,12.2L306.9,470.2z"/>
	<path class="st0" d="M386.7,551.8c1.1-4.6,4.3-8.5,8.6-10.6l46.9-22.5c2.6-1.3,5.7-1,8.1,0.6l0,0c3.2,2.1,4.5,6.2,3.1,9.8
		l-40.5,105.4c-2.4,6.2-8.3,10.3-14.9,9.8c-3.4-0.3-7.2-0.7-11-1.3c-3-0.5-5.7-1-8.1-1.6c-7.8-1.8-11.9-9.7-10-17.4L386.7,551.8z"/>
	<path class="st0" d="M456.2,549.1c4.3-10.8,18.2-13.6,26.3-5.3l50.6,51.7c7,7.1,5.7,18.7-3.2,23.3c-11.5,6-28.3,13.5-47.8,18.6
		c-14.7,3.9-29.4,5.7-40.9,6.6c-11,0.9-18.4-10.1-14.4-20.4L456.2,549.1z"/>
	<path class="st0" d="M490.7,539.9c-4.5-4.3-0.3-11.8,5.7-10.1l88.8,24.1c6,1.6,10.1,6.8,7.5,12.4c-1.6,3.4-4.3,7.5-8.7,12.2
		c-5.6,6-11.6,11.6-16.5,15.9c-5.9,5.2-14.7,4.7-20.4-0.7L490.7,539.9z"/>
	<path class="st0" d="M473.6,512.9c-2.9-0.8-4.4-3.9-3.4-6.6l0,0c0.5-1.2,1.4-2.2,2.6-2.8l99.5-47.2c5.4-2.6,11.8-1.9,16.6,1.7
		l35.6,27.2c5.4,4.1,7.6,11.2,5.1,17.5c-2,5.2-4.7,11.8-8,18.5c-3.4,7.1-7.4,13.7-10.7,18.7c-3.6,5.5-10.3,7.8-16.6,6.1L473.6,512.9
		z"/>
	<path class="st0" d="M603.2,457.9c-6-4.5-5.1-13.8,1.6-17l25.5-12.4c6.8-3.3,14.7,1.9,14.1,9.5c-0.4,5.1-0.9,10.4-1.5,14.8
		c-0.7,4.7-1.8,10.4-3,15.5c-1.6,6.9-9.7,9.7-15.3,5.5L603.2,457.9z"/>
</g>
<path class="st5" d="M677.4,472.2c-0.9,4.6-5.5,7.4-10.1,6.4l-7.7-1.8c-4.6-1.1-7.4-5.6-6.5-10.3c3-15,4.5-30.5,4.5-46.4
	c0-15.9-1.6-31.4-4.5-46.4c-0.9-4.6,1.9-9.2,6.5-10.3l7.7-1.8c4.6-1.1,9.1,1.8,10.1,6.4c3.4,16.8,5.2,34.3,5.2,52.1
	C682.6,438,680.8,455.4,677.4,472.2z M669.1,336.9c1.5,4.5-1.1,9.2-5.6,10.5l-7.6,2.2c-4.5,1.3-9.2-1.2-10.7-5.7
	c-10.1-29.9-26-57.2-46.4-80.5c-3.1-3.5-2.9-8.9,0.5-12.2l5.7-5.3c3.4-3.2,8.8-3,11.9,0.5C640,272.6,657.9,303.2,669.1,336.9z
	 M594.2,223.7c3.5,3.1,3.6,8.6,0.4,12l-5.4,5.7c-3.2,3.4-8.6,3.5-12.1,0.4c-23.3-20.5-50.6-36.6-80.6-46.7c-4.5-1.5-7-6.3-5.6-10.8
	l2.3-7.4c1.4-4.5,6.1-7,10.5-5.5C537.5,182.6,568.2,200.6,594.2,223.7z M472.5,162.9c4.6,0.9,7.4,5.5,6.3,10.1l-1.8,7.6
	c-1.1,4.6-5.7,7.4-10.3,6.4c-15.1-3-30.7-4.6-46.7-4.6c-16,0-31.6,1.6-46.7,4.6c-4.6,0.9-9.2-1.9-10.3-6.4l-1.8-7.6
	c-1.1-4.6,1.7-9.2,6.3-10.1c16.9-3.4,34.5-5.2,52.4-5.2C438.1,157.6,455.6,159.4,472.5,162.9z M336.5,171.2
	c4.4-1.5,9.2,1.1,10.5,5.5l2.3,7.4c1.4,4.5-1.2,9.2-5.6,10.8c-30,10.2-57.3,26.2-80.6,46.7c-3.5,3.1-8.8,3-12.1-0.4l-5.4-5.7
	c-3.3-3.4-3.1-8.8,0.4-12C272.1,200.6,302.8,182.6,336.5,171.2z M223.2,246.5c3.1-3.5,8.5-3.7,11.9-0.5l5.7,5.3
	c3.5,3.2,3.6,8.6,0.5,12.2C221,286.8,205.1,314.1,195,344c-1.5,4.4-6.2,7-10.7,5.7l-7.6-2.2c-4.5-1.3-7.1-6.1-5.6-10.5
	C182.3,303.2,200.2,272.6,223.2,246.5z M172.9,361.7c-4.6-1.1-9.1,1.8-10.1,6.4c-3.4,16.8-5.2,34.3-5.2,52.1
	c0,17.8,1.8,35.3,5.2,52.1c0.9,4.6,5.5,7.4,10.1,6.4l7.7-1.8c4.6-1.1,7.4-5.6,6.5-10.3c-3-15-4.5-30.5-4.5-46.4
	c0-15.9,1.6-31.4,4.5-46.4c0.9-4.6-1.9-9.2-6.5-10.3L172.9,361.7z M171.1,503.3c-1.5-4.5,1.1-9.2,5.6-10.5l7.6-2.2
	c4.5-1.3,9.2,1.2,10.7,5.7c10.1,29.9,26,57.2,46.4,80.5c3.1,3.5,2.9,8.9-0.5,12.2l-5.7,5.3c-3.4,3.2-8.8,3-11.9-0.5
	C200.2,567.7,182.3,537,171.1,503.3z M246,616.5c-3.5-3.1-3.6-8.5-0.4-12l5.4-5.7c3.2-3.4,8.6-3.5,12.1-0.4
	c23.3,20.5,50.6,36.6,80.6,46.7c4.5,1.5,7,6.3,5.6,10.8l-2.3,7.4c-1.4,4.5-6.1,7-10.5,5.5C302.8,657.7,272.1,639.7,246,616.5z
	 M367.7,677.4c-4.6-0.9-7.4-5.5-6.3-10.1l1.8-7.6c1.1-4.6,5.7-7.4,10.3-6.4c15.1,3,30.7,4.6,46.7,4.6c16,0,31.6-1.6,46.7-4.6
	c4.6-0.9,9.2,1.9,10.3,6.4l1.8,7.6c1.1,4.6-1.7,9.2-6.3,10.1c-16.9,3.4-34.5,5.2-52.4,5.2C402.2,682.6,384.6,680.8,367.7,677.4z
	 M503.7,669c-4.4,1.5-9.2-1.1-10.5-5.5l-2.3-7.4c-1.4-4.5,1.2-9.2,5.6-10.8c30-10.2,57.3-26.2,80.6-46.7c3.5-3.1,8.8-3,12.1,0.4
	l5.4,5.7c3.3,3.4,3.1,8.8-0.4,12C568.2,639.7,537.5,657.7,503.7,669z M617,593.7c-3.1,3.5-8.5,3.7-11.9,0.5l-5.7-5.3
	c-3.5-3.2-3.6-8.6-0.5-12.2c20.4-23.3,36.3-50.5,46.4-80.5c1.5-4.4,6.2-7,10.7-5.7l7.6,2.2c4.5,1.3,7.1,6.1,5.6,10.5
	C657.9,537,640,567.7,617,593.7z"/>
<g id="monogram">
	<path class="st0" d="M421,126.6l12.9-13.7c0.2-0.3,0.2-0.7,0-0.9l-13.3-11.8c-0.2-0.2-0.5-0.2-0.8,0L407,111.5
		c-0.3,0.2-0.3,0.7,0,0.9l13.3,14.2C420.4,126.8,420.8,126.8,421,126.6z"/>
	<path class="st0" d="M416.9,131.6L402,117c-0.2-0.2-0.6-0.3-0.9,0l-38.5,31.1c-0.3,0.2,0.1,1.4,0.6,2.2c0.4,0.6,1.1,0.7,1.9,0.6
		c3.5-0.6,14.8-2.6,24.6-4c4.8-0.7,10.2-1.1,15-1.3c6.8-0.3,12.5-5.8,12.3-12.6C417,132.1,417,131.6,416.9,131.6z"/>
	<path class="st0" d="M423.3,131.4l14.9-14.5c0.2-0.2,0.6-0.3,0.9,0l38.5,31.1c0.3,0.2-0.1,1.4-0.6,2.2c-0.4,0.6-1.1,0.7-1.9,0.6
		c-3.5-0.6-14.8-2.6-24.6-4c-4.8-0.7-10.2-1.1-15-1.3c-6.8-0.3-12.5-5.8-12.3-12.6C423.2,132,423.3,131.5,423.3,131.4z"/>
	<path class="st0" d="M126.6,419.2l-13.7-12.9c-0.3-0.2-0.7-0.2-0.9,0l-11.8,13.3c-0.2,0.2-0.2,0.5,0,0.8l11.3,12.8
		c0.2,0.3,0.7,0.3,0.9,0l14.2-13.3C126.8,419.8,126.8,419.4,126.6,419.2z"/>
	<path class="st0" d="M131.6,423.3L117,438.2c-0.2,0.2-0.3,0.6,0,0.9l31.1,38.5c0.2,0.3,1.4-0.1,2.2-0.6c0.6-0.4,0.7-1.1,0.6-1.9
		c-0.6-3.5-2.6-14.8-4-24.6c-0.7-4.8-1.1-10.2-1.3-15c-0.3-6.8-5.8-12.5-12.6-12.3C132.1,423.2,131.6,423.3,131.6,423.3z"/>
	<path class="st0" d="M131.5,416.9L116.9,402c-0.2-0.2-0.3-0.6,0-0.9l31.1-38.5c0.3-0.3,1.4,0.1,2.2,0.6c0.6,0.4,0.7,1.1,0.6,1.9
		c-0.6,3.5-2.6,14.8-4,24.6c-0.7,4.8-1.1,10.2-1.3,15c-0.3,6.8-5.8,12.5-12.6,12.3C132,417,131.5,417,131.5,416.9z"/>
	<path class="st0" d="M419.2,713.4l-12.9,13.7c-0.2,0.3-0.2,0.7,0,0.9l13.3,11.8c0.2,0.2,0.5,0.2,0.8,0l12.8-11.3
		c0.3-0.2,0.3-0.7,0-0.9L420,713.4C419.8,713.2,419.4,713.2,419.2,713.4z"/>
	<path class="st0" d="M423.3,708.4l14.9,14.5c0.2,0.2,0.6,0.3,0.9,0l38.5-31.1c0.3-0.2-0.1-1.4-0.6-2.2c-0.4-0.6-1.1-0.7-1.9-0.6
		c-3.5,0.6-14.8,2.6-24.6,4c-4.8,0.7-10.2,1.1-15,1.3c-6.8,0.3-12.5,5.8-12.3,12.6C423.2,707.9,423.3,708.4,423.3,708.4z"/>
	<path class="st0" d="M416.9,708.6L402,723.1c-0.2,0.2-0.6,0.3-0.9,0l-38.5-31.1c-0.3-0.2,0.1-1.4,0.6-2.2c0.4-0.6,1.1-0.7,1.9-0.6
		c3.5,0.6,14.8,2.6,24.6,4c4.8,0.7,10.2,1.1,15,1.3c6.8,0.3,12.5,5.8,12.3,12.6C417,708,417,708.5,416.9,708.6z"/>
	<path class="st0" d="M713.4,421l13.7,12.9c0.3,0.2,0.7,0.2,0.9,0l11.8-13.3c0.2-0.2,0.2-0.5,0-0.8L728.5,407
		c-0.2-0.3-0.7-0.3-0.9,0l-14.2,13.3C713.2,420.4,713.2,420.8,713.4,421z"/>
	<path class="st0" d="M708.4,416.9L723,402c0.2-0.2,0.3-0.6,0-0.9l-31.1-38.5c-0.2-0.3-1.4,0.1-2.2,0.6c-0.6,0.4-0.7,1.1-0.6,1.9
		c0.6,3.5,2.6,14.8,4,24.6c0.7,4.8,1.1,10.2,1.3,15c0.3,6.8,5.8,12.5,12.6,12.3C707.9,417,708.4,417,708.4,416.9z"/>
	<path class="st0" d="M708.6,423.3l14.5,14.9c0.2,0.2,0.3,0.6,0,0.9l-31.1,38.5c-0.2,0.3-1.4-0.1-2.2-0.6c-0.6-0.4-0.7-1.1-0.6-1.9
		c0.6-3.5,2.6-14.8,4-24.6c0.7-4.8,1.1-10.2,1.3-15c0.3-6.8,5.8-12.5,12.6-12.3C708,423.2,708.5,423.3,708.6,423.3z"/>
</g>
<g id="Tessera">
	<path class="st0" d="M220.1,760l-1.2,43.5h-11c0.3-7.4-0.4-13.4-2-18.1c-1.6-4.9-4.1-8.5-7.6-10.8c-3.4-2.4-7.8-3.5-13.3-3.3h-11.9
		l-5.3,97.3c-0.1,3.5-0.4,6.8-0.8,9.8c-0.3,3-0.5,5.4-0.8,7.1c1.6-0.1,3.3-0.2,5.3-0.2c2.1-0.1,4-0.2,5.9-0.2c2-0.1,3.5-0.2,4.7-0.2
		l-0.6,13h-53.1l0.8-10.8c3.4-0.1,6.1-0.8,8-2c2.1-1.2,3.7-3.1,4.7-5.9c1-2.8,1.7-6.6,2-11.6l5.3-96.1h-12.7
		c-7.7,0.1-13.7,2.8-18,7.9c-4.3,5.1-6.7,13.2-7.2,24.2H100l3.3-43.5H220.1z"/>
	<path class="st0" d="M262.3,797.2c5.4,0,10.2,0.9,14.5,2.6c4.4,1.6,7.9,4.1,10.4,7.7c2.5,3.5,3.7,8.1,3.7,13.8
		c0,5.4-1.7,10-5.1,13.8c-3.3,3.8-7.6,7-13.1,9.5c-5.4,2.4-11.2,4.3-17.4,5.9c-6.3,1.6-12.3,2.7-18.2,3.3c0,7.7,0.8,13.9,2.5,18.5
		c1.7,4.5,4,7.7,6.9,9.6c3,1.8,6.3,2.8,9.8,2.8c2.7,0,5.7-0.5,9-1.6c3.4-1.2,6.7-3.3,10-6.3c3.3-3,6.1-7.2,8.6-12.6l9.4,4.7
		c-3.7,8-7.7,14.3-12.1,18.9c-4.4,4.5-9.1,7.6-14.1,9.5c-5,1.8-10.1,2.8-15.5,2.8c-12.1,0.1-21.5-3.5-28.2-10.8s-10-18-10-31.9
		c0-6.8,1-13.7,2.9-20.7c2-7.1,4.9-13.6,8.8-19.5c4-5.9,9.1-10.7,15.3-14.4C246.5,799.1,253.8,797.2,262.3,797.2z M260,808
		c-5,0-9,1.8-12.1,5.3c-3.1,3.4-5.6,7.8-7.2,13.2c-1.6,5.3-2.6,10.7-3.1,16.3c7.1-1.2,13-2.9,17.8-5.1c4.8-2.4,8.6-5.1,11.2-8.3
		c2.6-3.1,3.9-6.6,3.9-10.4c-0.1-3.5-1.2-6.2-3.1-8.1C265.3,809,262.8,808,260,808z"/>
	<path class="st0" d="M334.3,900c-6,0-11.6-0.9-16.6-2.6c-5.1-1.8-9.3-4.4-12.5-7.7c-3.1-3.4-4.7-7.4-4.7-12c0-3.7,1-6.6,3.1-8.9
		c2.2-2.4,4.9-3.5,8-3.5c3.3,0,5.8,1.1,7.6,3.3c2,2.1,2.9,4.6,2.9,7.5c0,0.9-0.1,1.9-0.4,3c-0.1,1-0.5,2.1-1,3.2
		c0.8,1.8,2.6,3.4,5.5,4.7c3,1.3,5.7,2,8.2,2c6.1,0,10.6-1.4,13.3-4.1c2.7-2.8,4.1-6.2,4.1-10.2c0-2.9-1-5.4-3.1-7.5
		c-2.1-2.2-4.8-4.3-8-6.3c-3.3-2.1-6.7-4.2-10.4-6.3c-5.4-3.2-10-6.2-13.9-9.1c-3.8-2.9-6.7-5.9-8.6-9.1c-2-3.3-2.9-7.1-2.9-11.4
		c0-4.7,1.4-9.2,4.3-13.4c2.9-4.2,7-7.6,12.3-10.2c5.4-2.8,11.8-4.1,19.4-4.1c5.1,0,10.1,0.9,14.9,2.6c4.8,1.6,8.8,3.9,11.9,7.1
		c3.1,3.2,4.7,6.9,4.7,11.2c0,3.2-1,5.9-2.9,8.3c-2,2.2-4.6,3.3-8,3.3c-3.1,0-5.7-1-7.6-3.2c-1.8-2.1-2.7-4.6-2.7-7.5
		c0-1,0.1-2,0.2-3c0.3-0.9,0.7-1.8,1.2-2.8c-0.9-1.7-2.5-3-4.9-3.9c-2.2-0.9-4.7-1.4-7.4-1.4c-2.1,0-4.3,0.5-6.7,1.6
		c-2.2,0.9-4.1,2.3-5.7,4.1c-1.6,1.7-2.4,3.8-2.4,6.3c0,2.1,0.5,3.9,1.6,5.5c1,1.6,2.9,3.3,5.5,5.1c2.6,1.8,6.1,4.1,10.6,6.7
		s8.9,5.4,13.5,8.5c4.7,2.9,8.6,6.3,11.8,10.2c3.1,3.8,4.7,8.5,4.7,14.2c0,5.8-1.7,10.9-5.1,15.4c-3.3,4.5-7.8,8-13.7,10.6
		C348.4,898.8,341.8,900,334.3,900z"/>
	<path class="st0" d="M416.7,900c-6,0-11.6-0.9-16.6-2.6c-5.1-1.8-9.3-4.4-12.5-7.7c-3.1-3.4-4.7-7.4-4.7-12c0-3.7,1-6.6,3.1-8.9
		c2.2-2.4,4.9-3.5,8-3.5c3.3,0,5.8,1.1,7.6,3.3c2,2.1,2.9,4.6,2.9,7.5c0,0.9-0.1,1.9-0.4,3c-0.1,1-0.5,2.1-1,3.2
		c0.8,1.8,2.6,3.4,5.5,4.7c3,1.3,5.7,2,8.2,2c6.1,0,10.6-1.4,13.3-4.1c2.7-2.8,4.1-6.2,4.1-10.2c0-2.9-1-5.4-3.1-7.5
		c-2.1-2.2-4.8-4.3-8-6.3c-3.3-2.1-6.7-4.2-10.4-6.3c-5.4-3.2-10-6.2-13.9-9.1c-3.8-2.9-6.7-5.9-8.6-9.1c-2-3.3-2.9-7.1-2.9-11.4
		c0-4.7,1.4-9.2,4.3-13.4c2.9-4.2,7-7.6,12.3-10.2c5.4-2.8,11.8-4.1,19.4-4.1c5.1,0,10.1,0.9,14.9,2.6c4.8,1.6,8.8,3.9,11.9,7.1
		c3.1,3.2,4.7,6.9,4.7,11.2c0,3.2-1,5.9-2.9,8.3c-2,2.2-4.6,3.3-8,3.3c-3.1,0-5.7-1-7.6-3.2c-1.8-2.1-2.7-4.6-2.7-7.5
		c0-1,0.1-2,0.2-3c0.3-0.9,0.7-1.8,1.2-2.8c-0.9-1.7-2.5-3-4.9-3.9c-2.2-0.9-4.7-1.4-7.4-1.4c-2.1,0-4.3,0.5-6.7,1.6
		c-2.2,0.9-4.1,2.3-5.7,4.1c-1.6,1.7-2.4,3.8-2.4,6.3c0,2.1,0.5,3.9,1.6,5.5c1,1.6,2.9,3.3,5.5,5.1c2.6,1.8,6.1,4.1,10.6,6.7
		s8.9,5.4,13.5,8.5c4.7,2.9,8.6,6.3,11.8,10.2c3.1,3.8,4.7,8.5,4.7,14.2c0,5.8-1.7,10.9-5.1,15.4c-3.3,4.5-7.8,8-13.7,10.6
		C430.8,898.8,424.1,900,416.7,900z"/>
	<path class="st0" d="M515.5,797.2c5.4,0,10.2,0.9,14.5,2.6c4.4,1.6,7.9,4.1,10.4,7.7c2.5,3.5,3.7,8.1,3.7,13.8
		c0,5.4-1.7,10-5.1,13.8c-3.3,3.8-7.6,7-13.1,9.5c-5.4,2.4-11.2,4.3-17.4,5.9c-6.3,1.6-12.3,2.7-18.2,3.3c0,7.7,0.8,13.9,2.5,18.5
		c1.7,4.5,4,7.7,6.9,9.6c3,1.8,6.3,2.8,9.8,2.8c2.7,0,5.7-0.5,9-1.6c3.4-1.2,6.7-3.3,10-6.3c3.3-3,6.1-7.2,8.6-12.6l9.4,4.7
		c-3.7,8-7.7,14.3-12.1,18.9c-4.4,4.5-9.1,7.6-14.1,9.5c-5,1.8-10.1,2.8-15.5,2.8c-12.1,0.1-21.5-3.5-28.2-10.8s-10-18-10-31.9
		c0-6.8,1-13.7,2.9-20.7c2-7.1,4.9-13.6,8.8-19.5c4-5.9,9.1-10.7,15.3-14.4C499.7,799.1,507,797.2,515.5,797.2z M513.2,808
		c-5,0-9,1.8-12.1,5.3c-3.1,3.4-5.5,7.8-7.2,13.2c-1.6,5.3-2.6,10.7-3.1,16.3c7.1-1.2,13-2.9,17.8-5.1c4.8-2.4,8.6-5.1,11.2-8.3
		c2.6-3.1,3.9-6.6,3.9-10.4c-0.1-3.5-1.2-6.2-3.1-8.1C518.4,809,516,808,513.2,808z"/>
	<path class="st0" d="M567.5,897.8c-0.3-2.1-0.4-3.6-0.4-4.5c0-1,0-2.2,0-3.5c0-2.5,0.1-5.5,0.4-9.1c0.3-3.7,0.6-7.9,1-12.6
		c0.5-4.7,1.1-9.9,1.8-15.6c0.8-5.9,1.4-11,2-15.4c0.7-4.3,1.1-7.9,1.4-10.6c0.3-2.9,0.4-5.1,0.4-6.7c0.1-2.4-0.1-4.1-0.8-5.3
		c-0.5-1.2-1.4-1.8-2.7-1.8c-1.7,0-3.5,1.2-5.5,3.7c-2,2.4-3.8,6.7-5.5,13l-9-2.6c0.5-2.6,1.4-5.6,2.5-9.1c1.2-3.4,2.8-6.7,4.9-9.8
		c2.1-3.2,4.6-5.7,7.6-7.7c3-2.1,6.6-3.2,10.8-3.2c4.8,0,8.7,1.5,11.6,4.5c2.9,3,4.3,8,4.3,15c-0.1,2.4-0.4,5.1-0.8,8.3
		c-0.4,3-0.9,6.4-1.6,10.2h0.4c3.5-10.5,7.2-18.4,11-23.8c3.9-5.5,7.8-9.3,11.6-11.2c3.9-2,7.6-3,11.2-3c4.6,0,8.3,1.2,11.2,3.7
		c2.9,2.5,4.3,5.8,4.3,10c0,3-1.1,5.8-3.3,8.3c-2.1,2.5-4.9,3.7-8.4,3.7c-2.6,0-5-0.9-7.1-2.6c-2.1-1.7-3.1-4-3.1-6.9
		c-2.6-0.5-5.3,0.7-8,3.7c-2.6,2.9-5.2,7-7.6,12.2c-2.4,5.3-4.4,11.1-6.3,17.5c-1.8,6.4-3.3,13-4.5,19.7c-1,6.7-1.6,13-1.6,18.9
		c0,1.7,0.1,3.8,0.2,6.3c0.1,2.4,0.3,4.3,0.4,5.9H567.5z"/>
	<path class="st0" d="M696.5,797.2c3.7,0,7.9,0.3,12.7,1c4.8,0.7,9.7,1.6,14.7,3c-0.8,5.8-1.7,12.3-2.7,19.7
		c-0.9,7.4-1.9,14.7-2.9,22.1c-0.9,7.2-1.7,13.8-2.3,19.9c-0.5,6-0.8,10.7-0.8,14c0,2.5,0.3,4.4,0.8,5.7c0.5,1.3,1.5,2,2.9,2
		c1.7,0,3.5-1.2,5.5-3.5c2.1-2.5,4-6.9,5.9-13.2l8.8,2.6c-0.4,2.6-1.2,5.6-2.5,9.1c-1.3,3.4-3.1,6.7-5.3,9.8
		c-2.1,3.2-4.7,5.8-7.8,7.9c-3.1,2-6.8,3-11,3c-4.4,0-8.1-1.4-11-4.1c-2.9-2.8-4.3-7.4-4.3-13.8c0-2.4,0.1-5,0.4-7.9
		c0.4-2.9,0.8-5.7,1.4-8.5h-0.4c-2.6,7-5.4,12.7-8.2,17.3c-2.9,4.5-5.8,7.9-8.8,10.4c-3,2.5-6,4.2-9,5.1c-3,0.9-5.9,1.4-8.8,1.4
		c-7.2,0-13.3-2.8-18.2-8.5c-5-5.6-7.4-14.6-7.4-26.8c0-9.2,1.2-17.8,3.7-25.8c2.6-8.1,6.4-15.4,11.4-21.7c5-6.3,11-11.2,18.2-14.8
		C678.5,799,687,797.2,696.5,797.2z M689.6,808.2c-4.4,0-8.4,1.4-11.9,4.1c-3.5,2.6-6.5,6.4-9,11.4c-2.5,4.9-4.4,10.7-5.7,17.5
		c-1.2,6.8-1.8,14.4-1.8,22.8c0,6.4,0.7,11.6,2.2,15.6c1.6,3.8,3.9,5.7,7.1,5.7c3.1,0,6.1-1.6,9-4.7c2.9-3.2,5.5-7.4,7.8-12.8
		c2.4-5.4,4.4-11.4,6.3-17.9c1.8-6.7,3.3-13.5,4.5-20.3c1.2-7,1.8-13.6,2-19.9c-1-0.4-2.5-0.7-4.5-1
		C693.6,808.4,691.6,808.2,689.6,808.2z"/>
</g>
<path class="st0" d="M134.4,986v-20.9l-9.6,15.4h-4l-9.5-15.4V986h-7.3v-33.5h7.9l11,18.1l11-18.1h7.7V986H134.4z M183.9,986.2
	c-2.6,0-5-0.5-7.2-1.4c-2.2-1-4-2.2-5.6-3.8c-1.6-1.6-2.8-3.5-3.6-5.5c-0.8-2-1.3-4.1-1.3-6.3c0-2.2,0.4-4.4,1.3-6.4
	c0.9-2,2.1-3.8,3.7-5.4c1.6-1.6,3.5-2.9,5.6-3.8c2.2-0.9,4.5-1.4,7.1-1.4c2.6,0,5,0.5,7.2,1.5c2.2,1,4,2.3,5.5,3.9
	c1.6,1.6,2.8,3.4,3.6,5.5c0.8,2,1.3,4.1,1.3,6.2c0,2.2-0.4,4.3-1.3,6.4c-0.9,2-2.1,3.8-3.7,5.4c-1.6,1.6-3.4,2.9-5.6,3.8
	C188.9,985.8,186.5,986.2,183.9,986.2z M173.6,969.3c0,1.4,0.2,2.7,0.7,4c0.5,1.2,1.2,2.4,2,3.4s2,1.8,3.2,2.4
	c1.3,0.6,2.8,0.8,4.4,0.8c1.6,0,3.1-0.3,4.4-0.9c1.3-0.6,2.3-1.5,3.2-2.5c0.9-1,1.5-2.2,2-3.4c0.5-1.3,0.7-2.6,0.7-3.8
	c0-1.4-0.2-2.7-0.7-3.9s-1.2-2.3-2-3.3c-0.9-1-2-1.8-3.2-2.3c-1.3-0.6-2.7-0.9-4.3-0.9c-1.6,0-3.1,0.3-4.4,0.9
	c-1.3,0.6-2.4,1.4-3.2,2.4s-1.6,2.1-2,3.4C173.8,966.7,173.6,968,173.6,969.3z M247.7,961.9c-0.4-0.4-1.1-0.8-2.1-1.3
	s-2.2-1-3.5-1.3c-1.3-0.4-2.7-0.6-4.1-0.6c-1.9,0-3.3,0.3-4.3,0.8c-0.9,0.5-1.4,1.3-1.4,2.3c0,0.8,0.3,1.4,0.9,1.9
	c0.6,0.5,1.6,0.9,2.8,1.3c1.2,0.4,2.7,0.8,4.5,1.2c2.4,0.6,4.4,1.3,6.1,2c1.8,0.8,3.1,1.8,4,3c1,1.2,1.4,2.9,1.4,5
	c0,1.9-0.4,3.5-1.1,4.8c-0.7,1.3-1.7,2.3-3,3.1c-1.2,0.8-2.7,1.4-4.3,1.7c-1.6,0.4-3.3,0.5-5,0.5c-2.7,0-5.4-0.4-8.1-1.1
	c-2.7-0.8-5.1-1.8-7.1-3.1l3.2-6.3c0.6,0.5,1.4,1.1,2.6,1.7c1.2,0.6,2.6,1.1,4.3,1.6c1.7,0.4,3.4,0.7,5.3,0.7c1.8,0,3.2-0.3,4.1-0.8
	c1-0.5,1.4-1.2,1.4-2.2c0-0.9-0.4-1.6-1.2-2.1c-0.8-0.5-1.8-1-3.2-1.4c-1.4-0.4-3-0.8-4.9-1.3c-2.3-0.6-4.2-1.3-5.7-2
	c-1.5-0.8-2.6-1.8-3.4-2.9c-0.7-1.2-1.1-2.7-1.1-4.4c0-2.3,0.6-4.3,1.7-5.8c1.2-1.6,2.8-2.7,4.8-3.5c2-0.8,4.3-1.2,6.7-1.2
	c2.6,0,4.9,0.4,7.1,1.1c2.2,0.7,4,1.6,5.6,2.6L247.7,961.9z M272.1,986l14.6-33.5h5.9l14.6,33.5h-7.7l-3.4-7.9h-13l-3.4,7.9H272.1z
	 M289.8,961.3l-4.9,10.6h9.7L289.8,961.3z M330.2,986v-33.5h7.3V986H330.2z M362,969c0-2,0.4-4,1.2-6c0.8-2,2-3.8,3.5-5.4
	c1.5-1.6,3.4-2.9,5.6-3.8c2.2-1,4.7-1.4,7.6-1.4c3.3,0,6.2,0.7,8.6,2s4.2,3.1,5.3,5.3l-5.6,3.9c-0.8-1.8-2.1-3-3.8-3.7
	c-1.6-0.7-3.2-1-4.8-1c-1.7,0-3.2,0.3-4.5,1c-1.3,0.6-2.4,1.4-3.2,2.4c-0.8,1-1.5,2.1-1.9,3.4s-0.7,2.5-0.7,3.7c0,1.4,0.3,2.7,0.8,4
	c0.5,1.3,1.2,2.4,2.1,3.4c0.9,1,2,1.8,3.3,2.3s2.7,0.8,4.3,0.8c1,0,2.1-0.2,3.2-0.5c1.2-0.3,2.2-0.8,3.2-1.6c1-0.7,1.7-1.7,2.2-2.8
	l6,3.5c-0.8,1.7-2,3.1-3.6,4.3c-1.6,1.2-3.4,2-5.4,2.6c-2,0.6-3.9,0.9-5.9,0.9c-2.6,0-4.9-0.5-7.1-1.4c-2.2-1-4-2.3-5.6-4
	c-1.6-1.7-2.8-3.5-3.6-5.6C362.5,973.2,362,971.1,362,969z M473,961.9c-0.4-0.4-1.1-0.8-2.1-1.3s-2.2-1-3.5-1.3
	c-1.3-0.4-2.7-0.6-4.1-0.6c-1.9,0-3.3,0.3-4.3,0.8c-0.9,0.5-1.4,1.3-1.4,2.3c0,0.8,0.3,1.4,0.9,1.9c0.6,0.5,1.6,0.9,2.8,1.3
	c1.2,0.4,2.7,0.8,4.5,1.2c2.4,0.6,4.4,1.3,6.1,2c1.8,0.8,3.1,1.8,4,3c1,1.2,1.4,2.9,1.4,5c0,1.9-0.4,3.5-1.1,4.8
	c-0.7,1.3-1.7,2.3-3,3.1c-1.2,0.8-2.7,1.4-4.3,1.7c-1.6,0.4-3.3,0.5-5,0.5c-2.7,0-5.4-0.4-8.1-1.1c-2.7-0.8-5.1-1.8-7.1-3.1l3.2-6.3
	c0.6,0.5,1.4,1.1,2.6,1.7c1.2,0.6,2.6,1.1,4.3,1.6c1.7,0.4,3.4,0.7,5.3,0.7c1.8,0,3.2-0.3,4.1-0.8c1-0.5,1.4-1.2,1.4-2.2
	c0-0.9-0.4-1.6-1.2-2.1c-0.8-0.5-1.8-1-3.2-1.4c-1.4-0.4-3-0.8-4.9-1.3c-2.3-0.6-4.2-1.3-5.7-2c-1.5-0.8-2.6-1.8-3.4-2.9
	c-0.7-1.2-1.1-2.7-1.1-4.4c0-2.3,0.6-4.3,1.7-5.8c1.2-1.6,2.8-2.7,4.8-3.5c2-0.8,4.3-1.2,6.7-1.2c2.6,0,4.9,0.4,7.1,1.1
	c2.2,0.7,4,1.6,5.6,2.6L473,961.9z M529.8,958.8H518V986h-7.3v-27.2h-11.9v-6.4h31V958.8z M569,979.8c1.7,0,3.1-0.3,4.2-0.8
	c1.2-0.6,2.1-1.4,2.7-2.3c0.7-1,1.2-2,1.4-3.2c0.3-1.2,0.5-2.5,0.5-3.8v-17.2h7.3v17.2c0,2.3-0.3,4.4-1,6.5c-0.6,2-1.6,3.8-2.9,5.3
	c-1.3,1.5-2.9,2.7-5,3.6c-2,0.8-4.4,1.3-7.2,1.3c-2.9,0-5.4-0.4-7.4-1.3c-2-0.9-3.6-2.2-4.9-3.7c-1.3-1.6-2.2-3.3-2.8-5.3
	c-0.6-2-0.8-4.1-0.8-6.2v-17.2h7.3v17.2c0,1.3,0.1,2.6,0.4,3.8c0.3,1.2,0.8,2.3,1.5,3.2c0.7,1,1.6,1.7,2.6,2.3
	C566,979.5,567.3,979.8,569,979.8z M611.4,986v-33.5h13.6c4,0,7.4,0.8,10.1,2.3c2.7,1.5,4.8,3.5,6.1,6c1.4,2.5,2.1,5.3,2.1,8.4
	c0,3.4-0.8,6.4-2.3,8.9c-1.5,2.5-3.7,4.5-6.4,5.9c-2.7,1.4-5.9,2.1-9.7,2.1H611.4z M635.9,969.2c0-2.1-0.4-3.9-1.3-5.4
	c-0.8-1.6-2.1-2.8-3.7-3.7c-1.6-0.9-3.6-1.3-5.9-1.3h-6.3v20.8h6.3c2.4,0,4.4-0.4,6-1.3c1.6-0.9,2.9-2.2,3.7-3.8
	C635.5,972.9,635.9,971.2,635.9,969.2z M668,986v-33.5h7.3V986H668z M717.5,986.2c-2.6,0-5-0.5-7.2-1.4c-2.2-1-4-2.2-5.6-3.8
	c-1.6-1.6-2.8-3.5-3.6-5.5s-1.3-4.1-1.3-6.3c0-2.2,0.4-4.4,1.3-6.4c0.9-2,2.1-3.8,3.7-5.4c1.6-1.6,3.5-2.9,5.6-3.8
	c2.2-0.9,4.5-1.4,7.1-1.4c2.6,0,5,0.5,7.2,1.5c2.2,1,4,2.3,5.5,3.9c1.6,1.6,2.8,3.4,3.6,5.5c0.8,2,1.3,4.1,1.3,6.2
	c0,2.2-0.4,4.3-1.3,6.4c-0.9,2-2.1,3.8-3.7,5.4c-1.6,1.6-3.4,2.9-5.6,3.8C722.4,985.8,720.1,986.2,717.5,986.2z M707.2,969.3
	c0,1.4,0.2,2.7,0.7,4c0.5,1.2,1.2,2.4,2,3.4s2,1.8,3.2,2.4c1.3,0.6,2.8,0.8,4.4,0.8c1.6,0,3.1-0.3,4.4-0.9c1.3-0.6,2.3-1.5,3.2-2.5
	c0.9-1,1.5-2.2,2-3.4c0.5-1.3,0.7-2.6,0.7-3.8c0-1.4-0.2-2.7-0.7-3.9c-0.5-1.2-1.2-2.3-2-3.3c-0.9-1-2-1.8-3.2-2.3
	c-1.3-0.6-2.7-0.9-4.3-0.9c-1.6,0-3.1,0.3-4.4,0.9c-1.3,0.6-2.4,1.4-3.2,2.4s-1.6,2.1-2,3.4C707.4,966.7,707.2,968,707.2,969.3z"/>
</svg>
