<svg width="26" height="26" viewBox="0 0 26 26" fill="none" xmlns="http://www.w3.org/2000/svg">
<path fill-rule="evenodd" clip-rule="evenodd" d="M24.5 13C24.5 19.3513 19.3513 24.5 13 24.5C6.64873 24.5 1.5 19.3513 1.5 13C1.5 6.64873 6.64873 1.5 13 1.5C19.3513 1.5 24.5 6.64873 24.5 13ZM26 13C26 20.1797 20.1797 26 13 26C5.8203 26 0 20.1797 0 13C0 5.8203 5.8203 0 13 0C20.1797 0 26 5.8203 26 13ZM7.56158 9.62592C7.26869 9.33303 6.79381 9.33303 6.50092 9.62592C6.20803 9.91881 6.20803 10.3937 6.50092 10.6866L10.4072 14.5928L10.6925 14.8782L11.0879 14.7973L19.9049 12.9929C20.3107 12.9099 20.5724 12.5136 20.4893 12.1078C20.4063 11.702 20.01 11.4403 19.6042 11.5234L11.1825 13.2468L7.56158 9.62592Z" fill="black"/>
</svg>
