<svg width="19" height="18" viewBox="0 0 19 18" fill="none" xmlns="http://www.w3.org/2000/svg">
<path fill-rule="evenodd" clip-rule="evenodd" d="M17.1331 8.99993C17.1331 13.3604 13.5982 16.8953 9.23773 16.8953C4.87722 16.8953 1.34233 13.3604 1.34233 8.99993C1.34233 4.63943 4.87722 1.10454 9.23773 1.10454C13.5982 1.10454 17.1331 4.63943 17.1331 8.99993ZM18.163 8.99993C18.163 13.9292 14.167 17.9252 9.23773 17.9252C4.30846 17.9252 0.3125 13.9292 0.3125 8.99993C0.3125 4.07067 4.30846 0.074707 9.23773 0.074707C14.167 0.074707 18.163 4.07067 18.163 8.99993ZM5.50424 6.68323C5.30315 6.48214 4.97713 6.48214 4.77604 6.68323C4.57495 6.88431 4.57495 7.21034 4.77604 7.41143L7.4579 10.0933L7.65381 10.2892L7.92524 10.2336L13.9786 8.99486C14.2572 8.93785 14.4369 8.66577 14.3799 8.38717C14.3228 8.10856 14.0508 7.92892 13.7722 7.98594L7.9902 9.16918L5.50424 6.68323Z" fill="#121210"/>
</svg>
