<svg width="27" height="26" viewBox="0 0 27 26" fill="none" xmlns="http://www.w3.org/2000/svg">
<path fill-rule="evenodd" clip-rule="evenodd" d="M25.2812 13C25.2812 19.3513 20.1325 24.5 13.7812 24.5C7.42998 24.5 2.28125 19.3513 2.28125 13C2.28125 6.64873 7.42998 1.5 13.7812 1.5C20.1325 1.5 25.2812 6.64873 25.2812 13ZM26.7812 13C26.7812 20.1797 20.961 26 13.7812 26C6.60155 26 0.78125 20.1797 0.78125 13C0.78125 5.8203 6.60155 0 13.7812 0C20.961 0 26.7812 5.8203 26.7812 13ZM8.34283 9.62592C8.04994 9.33303 7.57506 9.33303 7.28217 9.62592C6.98928 9.91881 6.98928 10.3937 7.28217 10.6866L11.1884 14.5928L11.4738 14.8782L11.8691 14.7973L20.6862 12.9929C21.092 12.9099 21.3536 12.5136 21.2706 12.1078C21.1875 11.702 20.7912 11.4403 20.3854 11.5234L11.9637 13.2468L8.34283 9.62592Z" fill="#121210"/>
</svg>
